<svg width="1512" height="466" viewBox="0 0 1512 466" fill="none" xmlns="http://www.w3.org/2000/svg">
<path d="M953.849 -173.609L956.186 271.585L721.453 299.906L528.641 258.517L523.173 413.23L292.324 463.516L99.5324 426.053L91.0858 172.872L-54.2778 157.539L-55.9882 -168.309L953.849 -173.609Z" fill="white" stroke="black"/>
<path d="M953.849 -173.609L956.186 271.585L721.453 299.906L528.641 258.517L523.173 413.23L292.324 463.516L99.5324 426.053L91.0858 172.872L-54.2778 157.539L-55.9882 -168.309L953.849 -173.609Z" fill="#4E327C" fill-opacity="0.4" stroke="black"/>
<path d="M706.297 204.191L532.453 266.742L530.153 -171.385L704.321 -172.3L706.297 204.191Z" fill="#4E327C" fill-opacity="0.4"/>
<path d="M706.297 204.191L532.453 266.742L530.153 -171.385L704.321 -172.3L706.297 204.191Z" fill="#4E327C" fill-opacity="0.4"/>
<path d="M706.297 204.191L532.453 266.742L530.153 -171.385L704.321 -172.3L706.297 204.191Z" stroke="#4E327C" stroke-opacity="0.4"/>
<path d="M960.382 272.682L725.418 304.168L533.464 266.453L704.074 204.831L960.382 272.682Z" stroke="black"/>
<path d="M271.257 134.566L100.39 172.581L-45.74 157.86L74.4293 102.287L271.257 134.566Z" stroke="black"/>
<path d="M102.985 445.547L99.9137 173.1" stroke="black" stroke-dasharray="15 15"/>
<path d="M532.411 418.167L530.149 -172.289" stroke="black" stroke-dasharray="15 15"/>
<path d="M962.896 273.787L960.543 -174.548" stroke="black" stroke-dasharray="15 15"/>
<path d="M273.388 365.348L272.18 135.292" stroke="black" stroke-dasharray="15 15"/>
<path d="M267.156 135.436L265.549 -170.782" stroke="black" stroke-dasharray="15 15"/>
<path d="M267.156 135.436L265.549 -170.782" stroke="black" stroke-dasharray="15 15"/>
<path d="M71.0312 101.132L69.6135 -168.968" stroke="black" stroke-dasharray="15 15"/>
<path d="M702.94 203.031L699.234 -172.272" stroke="black" stroke-dasharray="15 15"/>
<path d="M533.226 414.355L293.16 463.512L103.765 435.061L270.861 363.124L533.226 414.355Z" stroke="black"/>
<path d="M272.962 363.898L101.663 432.716L96.5469 175.984L271.76 135.019L272.962 363.898Z" fill="#4E327C" fill-opacity="0.4"/>
<path d="M272.962 363.898L101.663 432.716L96.5469 175.984L271.76 135.019L272.962 363.898Z" fill="#4E327C" fill-opacity="0.4"/>
<path d="M272.962 363.898L101.663 432.716L96.5469 175.984L271.76 135.019L272.962 363.898Z" stroke="#4E327C" stroke-opacity="0.4"/>
<path d="M71.035 101.524L-48.2979 158.292L-50.0041 -166.77L69.6029 -171.324L71.035 101.524Z" fill="#4E327C" fill-opacity="0.4"/>
<path d="M71.035 101.524L-48.2979 158.292L-50.0041 -166.77L69.6029 -171.324L71.035 101.524Z" fill="#4E327C" fill-opacity="0.4"/>
<path d="M71.035 101.524L-48.2979 158.292L-50.0041 -166.77L69.6029 -171.324L71.035 101.524Z" stroke="#4E327C" stroke-opacity="0.4"/>
<path d="M868.464 -345.331L870.801 99.8628L1062.08 125.948L1218.58 82.726L1224.51 237.379L1412.83 285.465L1569.36 246.169L1573.82 -7.08053L1691.96 -23.7971L1690.25 -349.645L868.464 -345.331Z" fill="white" stroke="black"/>
<path d="M868.464 -345.331L870.801 99.8628L1062.08 125.948L1218.58 82.726L1224.51 237.379L1412.83 285.465L1569.36 246.169L1573.82 -7.08053L1691.96 -23.7971L1690.25 -349.645L868.464 -345.331Z" fill="#4E327C" fill-opacity="0.4" stroke="black"/>
<path d="M1073.5 30.0941L1215.56 90.9864L1213.26 -347.141L1071.53 -346.397L1073.5 30.0941Z" fill="#4E327C" fill-opacity="0.4"/>
<path d="M1073.5 30.0941L1215.56 90.9864L1213.26 -347.141L1071.53 -346.397L1073.5 30.0941Z" fill="#4E327C" fill-opacity="0.4"/>
<path d="M1073.5 30.0941L1215.56 90.9864L1213.26 -347.141L1071.53 -346.397L1073.5 30.0941Z" stroke="#4E327C" stroke-opacity="0.4"/>
<path d="M867.547 100.978L1058.93 130.208L1214.6 90.711L1075.28 30.7549L867.547 100.978Z" stroke="black"/>
<path d="M1426.98 -43.6778L1566.3 -7.31168L1684.89 -23.3998L1586.65 -77.7883L1426.98 -43.6778Z" stroke="black"/>
<path d="M1217.04 242.404L1213.26 -348.044" stroke="black" stroke-dasharray="15 15"/>
<path d="M865.361 102.129L863.008 -346.206" stroke="black" stroke-dasharray="15 15"/>
<path d="M1427.31 187.121L1426.1 -42.9348" stroke="black" stroke-dasharray="15 15"/>
<path d="M1076.22 28.9022L1075.67 -346.418" stroke="black" stroke-dasharray="15 15"/>
<path d="M1216.34 238.599L1412.15 285.468L1566 255.216L1429.34 184.873L1216.34 238.599Z" stroke="black"/>
<path d="M1427.64 185.667L1567.69 252.851L1569.41 -3.91668L1426.44 -43.2112L1427.64 185.667Z" fill="#4E327C" fill-opacity="0.4"/>
<path d="M1427.64 185.667L1567.69 252.851L1569.41 -3.91668L1426.44 -43.2112L1427.64 185.667Z" fill="#4E327C" fill-opacity="0.4"/>
<path d="M1427.64 185.667L1567.69 252.851L1569.41 -3.91668L1426.44 -43.2112L1427.64 185.667Z" stroke="#4E327C" stroke-opacity="0.4"/>
</svg>
