<svg width="599" height="146" viewBox="0 0 599 146" fill="none" xmlns="http://www.w3.org/2000/svg">
<path d="M1.84 14.44V21.72H16.88V69H24.8V21.72H39.84V14.44H1.84ZM76.7588 38.36H56.9188V14.44H49.0788V69H56.9188V45.64H76.7588V69H84.5988V14.44H76.7588V38.36ZM132.353 14.44H99.3131V69H132.353V61.72H107.153V45.24H125.873V37.88H107.153V21.72H132.353V14.44ZM179.132 69.8C190.012 69.8 197.452 64.76 197.452 54.6C197.452 44.04 189.052 40.52 179.852 37.64C174.332 35.88 168.812 34.2 168.812 28.12C168.812 23.16 171.852 20.76 177.612 20.76H178.092C184.892 20.76 188.332 23.08 188.332 31.24H196.172C196.172 18.92 188.652 13.64 178.092 13.64H177.612C168.092 13.64 160.972 18.68 160.892 28.12C160.892 37.4 167.292 41.24 175.852 44.2C181.932 46.28 189.612 47.64 189.612 54.6C189.612 60.28 186.172 62.68 179.132 62.68H178.652C171.212 62.68 167.692 60.28 167.692 52.2H159.852C159.852 64.44 167.532 69.8 178.652 69.8H179.132ZM208.454 14.44V69H216.294V48.52H227.574C238.774 48.52 244.934 43.08 244.934 31.56V31.32C244.934 19.8 238.774 14.44 227.574 14.44H208.454ZM237.094 31.56C237.094 38.76 234.774 41.16 227.574 41.16H216.294V21.72H227.574C234.774 21.72 237.094 24.2 237.094 31.32V31.56ZM287.822 14.44H254.782V69H287.822V61.72H262.622V45.24H281.342V37.88H262.622V21.72H287.822V14.44ZM315.174 69.8C325.974 69.8 333.494 63.4 333.494 49.96H325.654C325.654 59.48 322.214 62.6 315.174 62.6H314.774C307.654 62.6 304.294 59.48 304.294 49.96V33.48C304.294 23.88 307.654 20.84 314.774 20.84H315.174C322.214 20.84 325.654 23.88 325.654 33.48H333.494C333.494 19.96 325.974 13.64 315.174 13.64H314.774C303.974 13.64 296.374 20.04 296.374 33.48V49.96C296.374 63.4 303.974 69.8 314.774 69.8H315.174Z" fill="white"/>
<path d="M160.84 86.44V93.72H175.88V141H183.8V93.72H198.84V86.44H160.84ZM241.119 86.44H208.079V141H241.119V133.72H215.919V117.24H234.639V109.88H215.919V93.72H241.119V86.44ZM268.471 141.8C279.271 141.8 286.791 135.4 286.791 121.96H278.951C278.951 131.48 275.511 134.6 268.471 134.6H268.071C260.951 134.6 257.591 131.48 257.591 121.96V105.48C257.591 95.88 260.951 92.84 268.071 92.84H268.471C275.511 92.84 278.951 95.88 278.951 105.48H286.791C286.791 91.96 279.271 85.64 268.471 85.64H268.071C257.271 85.64 249.671 92.04 249.671 105.48V121.96C249.671 135.4 257.271 141.8 268.071 141.8H268.471ZM327.087 110.36H307.247V86.44H299.407V141H307.247V117.64H327.087V141H334.927V86.44H327.087V110.36ZM377.556 141V99.96H378.356L388.116 122.12H392.276L402.036 99.96H402.836V141H410.596V86.44H400.996L390.596 110.84H389.796L379.396 86.44H369.876V141H377.556ZM442.064 141.8C452.864 141.8 460.384 135.4 460.384 121.96V105.48C460.384 91.96 452.864 85.64 442.064 85.64H441.664C430.864 85.64 423.264 92.04 423.264 105.48V121.96C423.264 135.4 430.864 141.8 441.664 141.8H442.064ZM441.664 134.6C434.544 134.6 431.184 131.48 431.184 121.96V105.4C431.184 95.96 434.544 92.84 441.664 92.84H442.064C449.104 92.84 452.544 95.96 452.544 105.4V121.96C452.544 131.48 449.104 134.6 442.064 134.6H441.664ZM473.001 86.44V141H490.681C501.481 141 509.081 134.6 509.081 121.16V106.28C509.081 92.76 501.481 86.44 490.681 86.44H473.001ZM501.161 121.16C501.161 130.68 497.721 133.72 490.681 133.72H480.841V93.72H490.681C497.721 93.72 501.161 96.76 501.161 106.28V121.16ZM554.791 86.44H521.751V141H554.791V133.72H529.591V117.24H548.311V109.88H529.591V93.72H554.791V86.44ZM573.575 86.44H565.735V141H595.895V133.72H573.575V86.44Z" fill="white"/>
</svg>
