<svg width="364" height="492" viewBox="0 0 364 492" fill="none" xmlns="http://www.w3.org/2000/svg">
<rect x="45" y="77" width="319" height="391" fill="#E7E7E7" fill-opacity="0.5"/>
<rect x="293" y="302" width="62" height="167" fill="#C6988A"/>
<rect x="185" y="376" width="62" height="92" fill="#BEB4CD"/>
<rect x="185" y="376" width="62" height="92" fill="#BEB4CD"/>
<rect x="78" y="441" width="62" height="27" fill="#BEB4CD"/>
<rect x="78" y="441" width="62" height="27" fill="#BEB4CD"/>
<path d="M32.5609 6.1V12.84C32.5609 15.22 33.5409 16.68 35.7209 16.68C37.7609 16.68 39.2609 15.6 39.2609 12.74V6.1C39.2609 5.04 39.0009 4.86 37.3609 4.72V3.96H41.9809V4.72C40.6009 4.88 40.4409 5.04 40.4409 6.1V13.12C40.4409 16.58 38.0409 18.2 35.0209 18.2C31.3209 18.2 29.1609 16.54 29.1609 13.1V6.1C29.1609 5.02 29.0009 4.88 27.6409 4.72V3.96H34.1009V4.72C32.7209 4.88 32.5609 5.02 32.5609 6.1ZM47.487 18.2C45.527 18.2 43.827 17.62 42.907 16.88L42.727 13.42H43.667C44.147 15.74 45.447 17.32 47.487 17.32C49.007 17.32 49.987 16.54 49.987 15.22C49.987 13.84 49.127 13.24 46.807 12.46C44.307 11.66 42.827 10.48 42.827 8.08C42.827 5.48 44.807 3.76 47.667 3.76C49.427 3.76 50.927 4.22 51.927 4.94V7.96H51.087C50.667 5.88 49.567 4.64 47.667 4.64C46.347 4.64 45.487 5.42 45.487 6.62C45.487 7.98 46.287 8.52 48.387 9.24C51.067 10.14 52.747 11.18 52.747 13.84C52.747 16.78 50.367 18.2 47.487 18.2ZM62.5088 11.42V15.76C62.5088 16.86 63.0688 17.12 64.8888 17.22V18H57.5888V17.24C58.9488 17.08 59.1088 16.94 59.1088 15.86V6.1C59.1088 5.02 58.9488 4.88 57.5888 4.72V3.96H68.5688L68.6688 7.82H68.0288C67.0288 5.58 66.4288 4.82 64.7288 4.82H62.5088V10.42H64.5288C65.4288 10.42 65.6888 9.88 65.8488 8.56H66.6488V13.28H65.8488C65.6888 11.96 65.4288 11.42 64.5288 11.42H62.5088ZM73.9374 7.12C76.7174 7.12 78.1574 8.92 78.1574 11.4V11.86H71.6974C71.6374 14.48 73.0174 16.04 74.8974 16.04C76.2374 16.04 77.1574 15.52 77.8974 14.5L78.2374 14.7C77.7174 16.8 76.2174 18.2 73.7974 18.2C70.8774 18.2 68.7974 16.14 68.7974 12.92C68.7974 9.42 71.1174 7.12 73.9374 7.12ZM73.7174 7.9C72.4974 7.9 71.8574 9.2 71.7374 11.04H75.3374C75.3374 9.14 74.8974 7.9 73.7174 7.9ZM84.808 8.16C83.248 8.16 82.388 9.74 82.388 12.1C82.388 14.56 83.328 16.32 85.008 16.32C85.568 16.32 86.048 16.16 86.448 15.86V10.44C86.448 8.98 85.928 8.16 84.808 8.16ZM86.448 4.38L85.288 3.78V3.28L89.148 2.34H89.668V15.8C89.668 16.48 89.708 16.74 90.428 16.78L90.908 16.8V17.5L86.968 18.2H86.388L86.448 16.32C85.628 17.5 84.588 18.2 83.208 18.2C80.828 18.2 79.188 16.3 79.188 13.16C79.188 9.32 81.468 7.18 84.368 7.18C85.248 7.18 85.968 7.42 86.448 7.82V4.38ZM96.7499 7.12C99.5299 7.12 100.97 8.92 100.97 11.4V11.86H94.5099C94.4499 14.48 95.8299 16.04 97.7099 16.04C99.0499 16.04 99.9699 15.52 100.71 14.5L101.05 14.7C100.53 16.8 99.0299 18.2 96.6099 18.2C93.6899 18.2 91.6099 16.14 91.6099 12.92C91.6099 9.42 93.9299 7.12 96.7499 7.12ZM96.5299 7.9C95.3099 7.9 94.6699 9.2 94.5499 11.04H98.1499C98.1499 9.14 97.7099 7.9 96.5299 7.9ZM106.205 10.82V16.22C106.205 17.06 106.645 17.16 107.845 17.28V18H101.805V17.28C102.665 17.22 102.985 17.12 102.985 16.46V9.4L101.825 8.7V8.24L105.685 7.12H106.285L106.205 10.14C107.085 7.88 107.725 7.12 108.945 7.12C109.385 7.12 109.705 7.26 109.885 7.46V9.9H109.465C108.205 9.9 107.165 9.96 106.205 10.82ZM114.88 16.42C115.34 16.42 115.66 16.24 116.1 15.94V12.22L114.68 12.78C113.9 13.1 113.4 13.5 113.4 14.64C113.4 15.68 113.84 16.42 114.88 16.42ZM119.28 10.5V15.8C119.28 16.38 119.38 16.8 119.88 16.8C120.18 16.8 120.44 16.72 120.62 16.64L120.74 17.12C120.14 17.8 119.34 18.2 118.3 18.2C117.18 18.2 116.42 17.56 116.16 16.48C115.54 17.32 114.54 18.16 113.1 18.16C111.44 18.16 110.32 17.18 110.32 15.52C110.32 13.78 111.54 13.08 113 12.54L116.1 11.44V9.58C116.1 8.54 115.78 7.82 114.86 7.82C114 7.82 113.64 8.5 113.64 9.46C113.64 9.88 113.7 10.3 113.82 10.76L111.9 11.02C111.34 10.84 110.96 10.38 110.96 9.7C110.96 7.96 112.76 7.12 115.08 7.12C117.74 7.12 119.28 8.02 119.28 10.5ZM125.442 2.34V16.46C125.442 17.12 125.762 17.22 126.642 17.28V18H121.042V17.28C121.922 17.22 122.242 17.12 122.242 16.46V4.38L121.082 3.78V3.28L124.922 2.34H125.442ZM140.304 16.88V13.52C140.304 12.44 140.144 12.3 138.784 12.14V11.38H145.024V12.14C143.664 12.3 143.504 12.44 143.504 13.52V16.84C142.164 17.7 140.344 18.2 138.244 18.2C133.664 18.2 131.164 15.22 131.164 11.32C131.164 6.66 134.424 3.76 138.564 3.76C140.364 3.76 141.884 4.16 143.044 4.92L143.104 8.28H142.224C141.744 5.94 140.624 4.66 138.664 4.66C135.944 4.66 134.764 7.38 134.764 10.78C134.764 14.24 136.024 17.28 138.684 17.28C139.324 17.28 139.844 17.18 140.304 16.88ZM151.347 17.42C152.687 17.42 153.227 15.8 153.227 13.22C153.227 10.1 152.647 7.9 151.187 7.9C149.847 7.9 149.307 9.52 149.307 12.1C149.307 15.22 149.887 17.42 151.347 17.42ZM151.247 18.2C148.067 18.2 145.907 16.1 145.907 12.88C145.907 9.5 148.167 7.12 151.287 7.12C154.467 7.12 156.647 9.22 156.647 12.44C156.647 15.82 154.367 18.2 151.247 18.2ZM168.022 7.32V8.04C167.302 8.24 167.182 8.38 167.002 8.82L162.962 18.12H162.062L157.602 8.82C157.402 8.38 157.282 8.24 156.582 8.04V7.32H162.482V8.04C161.442 8.16 161.142 8.28 161.142 8.72C161.142 8.9 161.182 9.02 161.282 9.28L163.542 14.4L165.662 9.28C165.762 9 165.802 8.9 165.802 8.72C165.802 8.28 165.502 8.18 164.462 8.04V7.32H168.022ZM172.961 7.12C175.741 7.12 177.181 8.92 177.181 11.4V11.86H170.721C170.661 14.48 172.041 16.04 173.921 16.04C175.261 16.04 176.181 15.52 176.921 14.5L177.261 14.7C176.741 16.8 175.241 18.2 172.821 18.2C169.901 18.2 167.821 16.14 167.821 12.92C167.821 9.42 170.141 7.12 172.961 7.12ZM172.741 7.9C171.521 7.9 170.881 9.2 170.761 11.04H174.361C174.361 9.14 173.921 7.9 172.741 7.9ZM182.416 10.82V16.22C182.416 17.06 182.856 17.16 184.056 17.28V18H178.016V17.28C178.876 17.22 179.196 17.12 179.196 16.46V9.4L178.036 8.7V8.24L181.896 7.12H182.496L182.416 10.14C183.296 7.88 183.936 7.12 185.156 7.12C185.596 7.12 185.916 7.26 186.096 7.46V9.9H185.676C184.416 9.9 183.376 9.96 182.416 10.82ZM194.489 16.46V10.62C194.489 9.58 194.109 9.04 193.049 9.04C192.309 9.04 191.629 9.32 191.069 9.68V16.46C191.069 17.12 191.349 17.22 192.209 17.28V18H186.669V17.28C187.529 17.22 187.849 17.12 187.849 16.46V9.4L186.689 8.7V8.24L190.549 7.12H191.149L191.069 9.1C191.869 8.12 193.009 7.12 194.769 7.12C196.669 7.12 197.709 8.2 197.709 10.38V16.46C197.709 17.12 198.029 17.22 198.889 17.28V18H193.349V17.28C194.209 17.22 194.489 17.12 194.489 16.46ZM213.44 16.46V10.58C213.44 9.56 213.1 9.02 212.12 9.02C211.42 9.02 210.84 9.32 210.28 9.68V16.46C210.28 17.12 210.52 17.22 211.38 17.28V18H205.98V17.28C206.84 17.22 207.06 17.12 207.06 16.46V10.58C207.06 9.56 206.72 9.02 205.76 9.02C205.04 9.02 204.48 9.32 203.92 9.68V16.46C203.92 17.12 204.14 17.22 205.02 17.28V18H199.52V17.28C200.38 17.22 200.7 17.12 200.7 16.46V9.4L199.54 8.7V8.24L203.4 7.12H204L203.92 9.12C204.7 8.04 205.78 7.12 207.5 7.12C209 7.12 209.92 7.74 210.18 9.16C210.96 8.1 212.16 7.12 213.86 7.12C215.68 7.12 216.66 8.2 216.66 10.32V16.46C216.66 17.12 216.98 17.22 217.84 17.28V18H212.34V17.28C213.2 17.22 213.44 17.12 213.44 16.46ZM223.625 7.12C226.405 7.12 227.845 8.92 227.845 11.4V11.86H221.385C221.325 14.48 222.705 16.04 224.585 16.04C225.925 16.04 226.845 15.52 227.585 14.5L227.925 14.7C227.405 16.8 225.905 18.2 223.485 18.2C220.565 18.2 218.485 16.14 218.485 12.92C218.485 9.42 220.805 7.12 223.625 7.12ZM223.405 7.9C222.185 7.9 221.545 9.2 221.425 11.04H225.025C225.025 9.14 224.585 7.9 223.405 7.9ZM236.5 16.46V10.62C236.5 9.58 236.12 9.04 235.06 9.04C234.32 9.04 233.64 9.32 233.08 9.68V16.46C233.08 17.12 233.36 17.22 234.22 17.28V18H228.68V17.28C229.54 17.22 229.86 17.12 229.86 16.46V9.4L228.7 8.7V8.24L232.56 7.12H233.16L233.08 9.1C233.88 8.12 235.02 7.12 236.78 7.12C238.68 7.12 239.72 8.2 239.72 10.38V16.46C239.72 17.12 240.04 17.22 240.9 17.28V18H235.36V17.28C236.22 17.22 236.5 17.12 236.5 16.46ZM245.572 4.66V7.32H248.052V8.32H245.572V14.94C245.572 16.04 245.992 16.5 246.852 16.5C247.372 16.5 247.832 16.32 248.312 15.96L248.592 16.36C247.892 17.48 246.832 18.2 245.312 18.2C243.592 18.2 242.352 17.32 242.352 15.02V8.32H241.152V7.76C242.632 7.14 243.952 6 244.892 4.66H245.572ZM257.604 18.2C255.644 18.2 253.944 17.62 253.024 16.88L252.844 13.42H253.784C254.264 15.74 255.564 17.32 257.604 17.32C259.124 17.32 260.104 16.54 260.104 15.22C260.104 13.84 259.244 13.24 256.924 12.46C254.424 11.66 252.944 10.48 252.944 8.08C252.944 5.48 254.924 3.76 257.784 3.76C259.544 3.76 261.044 4.22 262.044 4.94V7.96H261.204C260.784 5.88 259.684 4.64 257.784 4.64C256.464 4.64 255.604 5.42 255.604 6.62C255.604 7.98 256.404 8.52 258.504 9.24C261.184 10.14 262.864 11.18 262.864 13.84C262.864 16.78 260.484 18.2 257.604 18.2ZM269.677 17.36C271.257 17.36 272.157 15.46 272.157 13.04C272.157 10.5 271.237 9.04 269.537 9.04C268.997 9.04 268.457 9.24 268.037 9.56V15.14C268.037 16.56 268.517 17.36 269.677 17.36ZM264.837 20.7V9.4L263.677 8.7V8.24L267.537 7.12H268.117L268.037 9.02C268.657 8.08 269.757 7.12 271.397 7.12C273.797 7.12 275.417 8.84 275.417 12C275.417 16 272.997 18.2 269.917 18.2C269.137 18.2 268.437 18.04 268.037 17.72V20.62C268.037 21.36 268.417 21.42 269.637 21.52V22.24H263.637V21.52C264.517 21.46 264.837 21.36 264.837 20.7ZM281.672 7.12C284.452 7.12 285.892 8.92 285.892 11.4V11.86H279.432C279.372 14.48 280.752 16.04 282.632 16.04C283.972 16.04 284.892 15.52 285.632 14.5L285.972 14.7C285.452 16.8 283.952 18.2 281.532 18.2C278.612 18.2 276.532 16.14 276.532 12.92C276.532 9.42 278.852 7.12 281.672 7.12ZM281.452 7.9C280.232 7.9 279.592 9.2 279.472 11.04H283.072C283.072 9.14 282.632 7.9 281.452 7.9ZM294.547 16.46V10.62C294.547 9.58 294.167 9.04 293.107 9.04C292.367 9.04 291.687 9.32 291.127 9.68V16.46C291.127 17.12 291.407 17.22 292.267 17.28V18H286.727V17.28C287.587 17.22 287.907 17.12 287.907 16.46V9.4L286.747 8.7V8.24L290.607 7.12H291.207L291.127 9.1C291.927 8.12 293.067 7.12 294.827 7.12C296.727 7.12 297.767 8.2 297.767 10.38V16.46C297.767 17.12 298.087 17.22 298.947 17.28V18H293.407V17.28C294.267 17.22 294.547 17.12 294.547 16.46ZM305.257 8.16C303.697 8.16 302.837 9.74 302.837 12.1C302.837 14.56 303.777 16.32 305.457 16.32C306.017 16.32 306.497 16.16 306.897 15.86V10.44C306.897 8.98 306.377 8.16 305.257 8.16ZM306.897 4.38L305.737 3.78V3.28L309.597 2.34H310.117V15.8C310.117 16.48 310.157 16.74 310.877 16.78L311.357 16.8V17.5L307.417 18.2H306.837L306.897 16.32C306.077 17.5 305.037 18.2 303.657 18.2C301.277 18.2 299.637 16.3 299.637 13.16C299.637 9.32 301.917 7.18 304.817 7.18C305.697 7.18 306.417 7.42 306.897 7.82V4.38ZM316.459 7.12V16.46C316.459 17.12 316.779 17.22 317.639 17.28V18H312.059V17.28C312.919 17.22 313.239 17.12 313.239 16.46V9.4L312.079 8.7V8.24L315.919 7.12H316.459ZM314.839 6.06C313.759 6.06 313.059 5.28 313.059 4.36C313.059 3.44 313.759 2.64 314.839 2.64C315.919 2.64 316.639 3.44 316.639 4.36C316.639 5.28 315.919 6.06 314.839 6.06ZM326.207 16.46V10.62C326.207 9.58 325.827 9.04 324.767 9.04C324.027 9.04 323.347 9.32 322.787 9.68V16.46C322.787 17.12 323.067 17.22 323.927 17.28V18H318.387V17.28C319.247 17.22 319.567 17.12 319.567 16.46V9.4L318.407 8.7V8.24L322.267 7.12H322.867L322.787 9.1C323.587 8.12 324.727 7.12 326.487 7.12C328.387 7.12 329.427 8.2 329.427 10.38V16.46C329.427 17.12 329.747 17.22 330.607 17.28V18H325.067V17.28C325.927 17.22 326.207 17.12 326.207 16.46ZM335.839 14.22C335.119 14.22 334.399 14.12 333.739 13.9C333.399 14.22 333.099 14.6 333.099 15C333.099 15.38 333.339 15.64 333.759 15.64H337.979C340.479 15.64 341.659 16.7 341.659 18.5C341.659 21.04 339.159 22.46 335.699 22.46C332.659 22.46 330.779 21.58 330.779 19.98C330.779 18.96 331.719 18.44 332.639 18.22C331.819 17.9 331.359 17.16 331.359 16.32C331.359 15.08 332.279 14.28 333.279 13.7C332.179 13.2 331.379 12.28 331.379 10.84C331.379 8.5 333.319 7.12 335.959 7.12C336.719 7.12 337.279 7.24 337.779 7.4L341.259 7.32V8.56H340.399L339.079 8.5C339.799 8.98 340.339 9.8 340.339 10.8C340.339 12.96 338.439 14.22 335.839 14.22ZM338.039 18.58H332.999C332.799 18.8 332.719 19.14 332.719 19.54C332.719 20.82 333.919 21.6 335.799 21.6C337.699 21.6 339.399 21.04 339.399 19.62C339.399 18.86 338.919 18.58 338.039 18.58ZM335.959 13.5C336.979 13.5 337.339 12.48 337.339 10.8C337.339 9.24 336.859 7.88 335.819 7.88C334.799 7.88 334.419 8.92 334.419 10.52C334.419 12.14 334.919 13.5 335.959 13.5ZM102.567 41.42C103.908 41.42 104.448 39.8 104.448 37.22C104.448 34.1 103.868 31.9 102.408 31.9C101.068 31.9 100.528 33.52 100.528 36.1C100.528 39.22 101.108 41.42 102.567 41.42ZM102.468 42.2C99.2875 42.2 97.1275 40.1 97.1275 36.88C97.1275 33.5 99.3875 31.12 102.508 31.12C105.688 31.12 107.868 33.22 107.868 36.44C107.868 39.82 105.588 42.2 102.468 42.2ZM116.549 40.46V34.62C116.549 33.58 116.169 33.04 115.109 33.04C114.369 33.04 113.689 33.32 113.129 33.68V40.46C113.129 41.12 113.409 41.22 114.269 41.28V42H108.729V41.28C109.589 41.22 109.909 41.12 109.909 40.46V33.4L108.749 32.7V32.24L112.609 31.12H113.209L113.129 33.1C113.929 32.12 115.069 31.12 116.829 31.12C118.729 31.12 119.769 32.2 119.769 34.38V40.46C119.769 41.12 120.089 41.22 120.949 41.28V42H115.409V41.28C116.269 41.22 116.549 41.12 116.549 40.46ZM132.653 27.76C134.453 27.76 135.953 28.18 137.093 28.94L137.133 32.28H136.273C135.793 29.94 134.653 28.68 132.753 28.68C130.113 28.68 128.953 31.38 128.953 34.78C128.953 38.46 130.353 41.24 132.933 41.24C134.713 41.24 135.993 40.06 136.733 37.08H137.653L137.333 40.94C136.153 41.74 134.493 42.2 132.573 42.2C128.113 42.2 125.353 39.52 125.353 35.34C125.353 30.68 128.593 27.76 132.653 27.76ZM142.932 26.34V40.46C142.932 41.12 143.252 41.22 144.132 41.28V42H138.532V41.28C139.412 41.22 139.732 41.12 139.732 40.46V28.38L138.572 27.78V27.28L142.412 26.34H142.932ZM149.281 31.12V40.46C149.281 41.12 149.601 41.22 150.461 41.28V42H144.881V41.28C145.741 41.22 146.061 41.12 146.061 40.46V33.4L144.901 32.7V32.24L148.741 31.12H149.281ZM147.661 30.06C146.581 30.06 145.881 29.28 145.881 28.36C145.881 27.44 146.581 26.64 147.661 26.64C148.741 26.64 149.461 27.44 149.461 28.36C149.461 29.28 148.741 30.06 147.661 30.06ZM165.13 40.46V34.58C165.13 33.56 164.79 33.02 163.81 33.02C163.11 33.02 162.53 33.32 161.97 33.68V40.46C161.97 41.12 162.21 41.22 163.07 41.28V42H157.67V41.28C158.53 41.22 158.75 41.12 158.75 40.46V34.58C158.75 33.56 158.41 33.02 157.45 33.02C156.73 33.02 156.17 33.32 155.61 33.68V40.46C155.61 41.12 155.83 41.22 156.71 41.28V42H151.21V41.28C152.07 41.22 152.39 41.12 152.39 40.46V33.4L151.23 32.7V32.24L155.09 31.12H155.69L155.61 33.12C156.39 32.04 157.47 31.12 159.19 31.12C160.69 31.12 161.61 31.74 161.87 33.16C162.65 32.1 163.85 31.12 165.55 31.12C167.37 31.12 168.35 32.2 168.35 34.32V40.46C168.35 41.12 168.67 41.22 169.53 41.28V42H164.03V41.28C164.89 41.22 165.13 41.12 165.13 40.46ZM174.694 40.42C175.154 40.42 175.474 40.24 175.914 39.94V36.22L174.494 36.78C173.714 37.1 173.214 37.5 173.214 38.64C173.214 39.68 173.654 40.42 174.694 40.42ZM179.094 34.5V39.8C179.094 40.38 179.194 40.8 179.694 40.8C179.994 40.8 180.254 40.72 180.434 40.64L180.554 41.12C179.954 41.8 179.154 42.2 178.114 42.2C176.994 42.2 176.234 41.56 175.974 40.48C175.354 41.32 174.354 42.16 172.914 42.16C171.254 42.16 170.134 41.18 170.134 39.52C170.134 37.78 171.354 37.08 172.814 36.54L175.914 35.44V33.58C175.914 32.54 175.594 31.82 174.674 31.82C173.814 31.82 173.454 32.5 173.454 33.46C173.454 33.88 173.514 34.3 173.634 34.76L171.714 35.02C171.154 34.84 170.774 34.38 170.774 33.7C170.774 31.96 172.574 31.12 174.894 31.12C177.554 31.12 179.094 32.02 179.094 34.5ZM184.976 28.66V31.32H187.456V32.32H184.976V38.94C184.976 40.04 185.396 40.5 186.256 40.5C186.776 40.5 187.236 40.32 187.716 39.96L187.996 40.36C187.296 41.48 186.236 42.2 184.716 42.2C182.996 42.2 181.756 41.32 181.756 39.02V32.32H180.556V31.76C182.036 31.14 183.356 30 184.296 28.66H184.976ZM193.478 31.12C196.258 31.12 197.698 32.92 197.698 35.4V35.86H191.238C191.178 38.48 192.558 40.04 194.438 40.04C195.778 40.04 196.698 39.52 197.438 38.5L197.778 38.7C197.258 40.8 195.758 42.2 193.338 42.2C190.418 42.2 188.338 40.14 188.338 36.92C188.338 33.42 190.658 31.12 193.478 31.12ZM193.258 31.9C192.038 31.9 191.398 33.2 191.278 35.04H194.878C194.878 33.14 194.438 31.9 193.258 31.9ZM209.606 27.76C211.406 27.76 212.906 28.18 214.046 28.94L214.086 32.28H213.226C212.746 29.94 211.606 28.68 209.706 28.68C207.066 28.68 205.906 31.38 205.906 34.78C205.906 38.46 207.306 41.24 209.886 41.24C211.666 41.24 212.946 40.06 213.686 37.08H214.606L214.286 40.94C213.106 41.74 211.446 42.2 209.526 42.2C205.066 42.2 202.306 39.52 202.306 35.34C202.306 30.68 205.546 27.76 209.606 27.76ZM216.665 40.46V28.38L215.525 27.78V27.28L219.365 26.34H219.885V33.1C220.685 32.12 221.845 31.12 223.585 31.12C225.485 31.12 226.525 32.22 226.525 34.4V40.46C226.525 41.12 226.845 41.22 227.705 41.28V42H222.165V41.28C223.025 41.22 223.305 41.12 223.305 40.46V34.62C223.305 33.58 222.925 33.04 221.865 33.04C221.125 33.04 220.465 33.32 219.885 33.68V40.46C219.885 41.12 220.165 41.22 221.025 41.28V42H215.485V41.28C216.345 41.22 216.665 41.12 216.665 40.46ZM232.858 40.42C233.318 40.42 233.638 40.24 234.078 39.94V36.22L232.658 36.78C231.878 37.1 231.378 37.5 231.378 38.64C231.378 39.68 231.818 40.42 232.858 40.42ZM237.258 34.5V39.8C237.258 40.38 237.358 40.8 237.858 40.8C238.158 40.8 238.418 40.72 238.598 40.64L238.718 41.12C238.118 41.8 237.318 42.2 236.278 42.2C235.158 42.2 234.398 41.56 234.138 40.48C233.518 41.32 232.518 42.16 231.078 42.16C229.418 42.16 228.298 41.18 228.298 39.52C228.298 37.78 229.518 37.08 230.978 36.54L234.078 35.44V33.58C234.078 32.54 233.758 31.82 232.838 31.82C231.978 31.82 231.618 32.5 231.618 33.46C231.618 33.88 231.678 34.3 231.798 34.76L229.878 35.02C229.318 34.84 228.938 34.38 228.938 33.7C228.938 31.96 230.738 31.12 233.058 31.12C235.718 31.12 237.258 32.02 237.258 34.5ZM246.92 40.46V34.62C246.92 33.58 246.54 33.04 245.48 33.04C244.74 33.04 244.06 33.32 243.5 33.68V40.46C243.5 41.12 243.78 41.22 244.64 41.28V42H239.1V41.28C239.96 41.22 240.28 41.12 240.28 40.46V33.4L239.12 32.7V32.24L242.98 31.12H243.58L243.5 33.1C244.3 32.12 245.44 31.12 247.2 31.12C249.1 31.12 250.14 32.2 250.14 34.38V40.46C250.14 41.12 250.46 41.22 251.32 41.28V42H245.78V41.28C246.64 41.22 246.92 41.12 246.92 40.46ZM256.552 38.22C255.832 38.22 255.112 38.12 254.452 37.9C254.112 38.22 253.812 38.6 253.812 39C253.812 39.38 254.052 39.64 254.472 39.64H258.692C261.192 39.64 262.372 40.7 262.372 42.5C262.372 45.04 259.872 46.46 256.412 46.46C253.372 46.46 251.492 45.58 251.492 43.98C251.492 42.96 252.432 42.44 253.352 42.22C252.532 41.9 252.072 41.16 252.072 40.32C252.072 39.08 252.992 38.28 253.992 37.7C252.892 37.2 252.092 36.28 252.092 34.84C252.092 32.5 254.032 31.12 256.672 31.12C257.432 31.12 257.992 31.24 258.492 31.4L261.972 31.32V32.56H261.112L259.792 32.5C260.512 32.98 261.052 33.8 261.052 34.8C261.052 36.96 259.152 38.22 256.552 38.22ZM258.752 42.58H253.712C253.512 42.8 253.432 43.14 253.432 43.54C253.432 44.82 254.632 45.6 256.512 45.6C258.412 45.6 260.112 45.04 260.112 43.62C260.112 42.86 259.632 42.58 258.752 42.58ZM256.672 37.5C257.692 37.5 258.052 36.48 258.052 34.8C258.052 33.24 257.572 31.88 256.532 31.88C255.512 31.88 255.132 32.92 255.132 34.52C255.132 36.14 255.632 37.5 256.672 37.5ZM267.697 31.12C270.477 31.12 271.917 32.92 271.917 35.4V35.86H265.457C265.397 38.48 266.777 40.04 268.657 40.04C269.997 40.04 270.917 39.52 271.657 38.5L271.997 38.7C271.477 40.8 269.977 42.2 267.557 42.2C264.637 42.2 262.557 40.14 262.557 36.92C262.557 33.42 264.877 31.12 267.697 31.12ZM267.477 31.9C266.257 31.9 265.617 33.2 265.497 35.04H269.097C269.097 33.14 268.657 31.9 267.477 31.9Z" fill="black"/>
<path d="M46 77V469H364" stroke="black" stroke-width="2"/>
<path d="M4.82 82.78L4.41 81.75H1.79L1.4 82.78C1.35 82.92 1.31 83.05 1.31 83.16C1.31 83.48 1.58 83.59 2.15 83.62V84H0.05V83.62C0.32 83.57 0.53 83.52 0.63 83.25L2.77 77.73L2.45 76.94H4.26L6.79 83.25C6.89 83.51 7.1 83.57 7.38 83.62V84H4.09V83.62C4.64 83.6 4.91 83.49 4.91 83.17C4.91 83.06 4.87 82.93 4.82 82.78ZM3.07 78.38L1.97 81.27H4.22L3.07 78.38ZM11.5616 83.23V80.31C11.5616 79.79 11.3716 79.52 10.8416 79.52C10.4716 79.52 10.1316 79.66 9.85164 79.84V83.23C9.85164 83.56 9.99164 83.61 10.4216 83.64V84H7.65164V83.64C8.08164 83.61 8.24164 83.56 8.24164 83.23V79.7L7.66164 79.35V79.12L9.59164 78.56H9.89164L9.85164 79.55C10.2516 79.06 10.8216 78.56 11.7016 78.56C12.6516 78.56 13.1716 79.1 13.1716 80.19V83.23C13.1716 83.56 13.3316 83.61 13.7616 83.64V84H10.9916V83.64C11.4216 83.61 11.5616 83.56 11.5616 83.23ZM17.9874 83.23V80.31C17.9874 79.79 17.7974 79.52 17.2674 79.52C16.8974 79.52 16.5574 79.66 16.2774 79.84V83.23C16.2774 83.56 16.4174 83.61 16.8474 83.64V84H14.0774V83.64C14.5074 83.61 14.6674 83.56 14.6674 83.23V79.7L14.0874 79.35V79.12L16.0174 78.56H16.3174L16.2774 79.55C16.6774 79.06 17.2474 78.56 18.1274 78.56C19.0774 78.56 19.5974 79.1 19.5974 80.19V83.23C19.5974 83.56 19.7574 83.61 20.1874 83.64V84H17.4174V83.64C17.8474 83.61 17.9874 83.56 17.9874 83.23ZM25.7632 79.78V82.9C25.7632 83.24 25.7932 83.37 26.1432 83.39L26.3832 83.4V83.75L24.4232 84.1H24.1332L24.1632 83.14C23.7732 83.6 23.2432 84.1 22.4032 84.1C21.5132 84.1 20.9232 83.59 20.9232 82.45V79.92C20.9232 79.61 20.8532 79.43 20.4932 79.35L20.3432 79.32V78.98L22.3132 78.57H22.5832L22.5332 79.8V82.27C22.5332 82.83 22.7432 83.16 23.2632 83.16C23.6132 83.16 23.8632 83.03 24.1632 82.87V79.92C24.1632 79.61 24.0932 79.43 23.7332 79.35L23.5832 79.32V78.98L25.5432 78.57H25.8232L25.7632 79.78ZM28.9937 83.21C29.2237 83.21 29.3837 83.12 29.6037 82.97V81.11L28.8937 81.39C28.5037 81.55 28.2537 81.75 28.2537 82.32C28.2537 82.84 28.4737 83.21 28.9937 83.21ZM31.1937 80.25V82.9C31.1937 83.19 31.2437 83.4 31.4937 83.4C31.6437 83.4 31.7737 83.36 31.8637 83.32L31.9237 83.56C31.6237 83.9 31.2237 84.1 30.7037 84.1C30.1437 84.1 29.7637 83.78 29.6337 83.24C29.3237 83.66 28.8237 84.08 28.1037 84.08C27.2737 84.08 26.7137 83.59 26.7137 82.76C26.7137 81.89 27.3237 81.54 28.0537 81.27L29.6037 80.72V79.79C29.6037 79.27 29.4437 78.91 28.9837 78.91C28.5537 78.91 28.3737 79.25 28.3737 79.73C28.3737 79.94 28.4037 80.15 28.4637 80.38L27.5037 80.51C27.2237 80.42 27.0337 80.19 27.0337 79.85C27.0337 78.98 27.9337 78.56 29.0937 78.56C30.4237 78.56 31.1937 79.01 31.1937 80.25ZM34.2745 76.17V83.23C34.2745 83.56 34.4345 83.61 34.8745 83.64V84H32.0745V83.64C32.5145 83.61 32.6745 83.56 32.6745 83.23V77.19L32.0945 76.89V76.64L34.0145 76.17H34.2745ZM4.82 94.78L4.41 93.75H1.79L1.4 94.78C1.35 94.92 1.31 95.05 1.31 95.16C1.31 95.48 1.58 95.59 2.15 95.62V96H0.05V95.62C0.32 95.57 0.53 95.52 0.63 95.25L2.77 89.73L2.45 88.94H4.26L6.79 95.25C6.89 95.51 7.1 95.57 7.38 95.62V96H4.09V95.62C4.64 95.6 4.91 95.49 4.91 95.17C4.91 95.06 4.87 94.93 4.82 94.78ZM3.07 90.38L1.97 93.27H4.22L3.07 90.38ZM12.352 90.66V91.02C11.992 91.12 11.932 91.19 11.842 91.41L9.82203 96.06H9.37203L7.14203 91.41C7.04203 91.19 6.98203 91.12 6.63203 91.02V90.66H9.58203V91.02C9.06203 91.08 8.91203 91.14 8.91203 91.36C8.91203 91.45 8.93203 91.51 8.98203 91.64L10.112 94.2L11.172 91.64C11.222 91.5 11.242 91.45 11.242 91.36C11.242 91.14 11.092 91.09 10.572 91.02V90.66H12.352ZM14.8213 90.56C16.2113 90.56 16.9313 91.46 16.9313 92.7V92.93H13.7013C13.6713 94.24 14.3613 95.02 15.3013 95.02C15.9713 95.02 16.4313 94.76 16.8013 94.25L16.9713 94.35C16.7113 95.4 15.9613 96.1 14.7513 96.1C13.2913 96.1 12.2513 95.07 12.2513 93.46C12.2513 91.71 13.4113 90.56 14.8213 90.56ZM14.7113 90.95C14.1013 90.95 13.7813 91.6 13.7213 92.52H15.5213C15.5213 91.57 15.3013 90.95 14.7113 90.95ZM19.5489 92.41V95.11C19.5489 95.53 19.7689 95.58 20.3689 95.64V96H17.3489V95.64C17.7789 95.61 17.9389 95.56 17.9389 95.23V91.7L17.3589 91.35V91.12L19.2889 90.56H19.5889L19.5489 92.07C19.9889 90.94 20.3089 90.56 20.9189 90.56C21.1389 90.56 21.2989 90.63 21.3889 90.73V91.95H21.1789C20.5489 91.95 20.0289 91.98 19.5489 92.41ZM23.8863 95.21C24.1163 95.21 24.2763 95.12 24.4963 94.97V93.11L23.7863 93.39C23.3963 93.55 23.1463 93.75 23.1463 94.32C23.1463 94.84 23.3663 95.21 23.8863 95.21ZM26.0863 92.25V94.9C26.0863 95.19 26.1363 95.4 26.3863 95.4C26.5363 95.4 26.6663 95.36 26.7563 95.32L26.8163 95.56C26.5163 95.9 26.1163 96.1 25.5963 96.1C25.0363 96.1 24.6563 95.78 24.5263 95.24C24.2163 95.66 23.7163 96.08 22.9963 96.08C22.1663 96.08 21.6063 95.59 21.6063 94.76C21.6063 93.89 22.2163 93.54 22.9463 93.27L24.4963 92.72V91.79C24.4963 91.27 24.3363 90.91 23.8763 90.91C23.4463 90.91 23.2663 91.25 23.2663 91.73C23.2663 91.94 23.2963 92.15 23.3563 92.38L22.3963 92.51C22.1163 92.42 21.9263 92.19 21.9263 91.85C21.9263 90.98 22.8263 90.56 23.9863 90.56C25.3163 90.56 26.0863 91.01 26.0863 92.25ZM29.3071 94.11C28.9471 94.11 28.5871 94.06 28.2571 93.95C28.0871 94.11 27.9371 94.3 27.9371 94.5C27.9371 94.69 28.0571 94.82 28.2671 94.82H30.3771C31.6271 94.82 32.2171 95.35 32.2171 96.25C32.2171 97.52 30.9671 98.23 29.2371 98.23C27.7171 98.23 26.7771 97.79 26.7771 96.99C26.7771 96.48 27.2471 96.22 27.7071 96.11C27.2971 95.95 27.0671 95.58 27.0671 95.16C27.0671 94.54 27.5271 94.14 28.0271 93.85C27.4771 93.6 27.0771 93.14 27.0771 92.42C27.0771 91.25 28.0471 90.56 29.3671 90.56C29.7471 90.56 30.0271 90.62 30.2771 90.7L32.0171 90.66V91.28H31.5871L30.9271 91.25C31.2871 91.49 31.5571 91.9 31.5571 92.4C31.5571 93.48 30.6071 94.11 29.3071 94.11ZM30.4071 96.29H27.8871C27.7871 96.4 27.7471 96.57 27.7471 96.77C27.7471 97.41 28.3471 97.8 29.2871 97.8C30.2371 97.8 31.0871 97.52 31.0871 96.81C31.0871 96.43 30.8471 96.29 30.4071 96.29ZM29.3671 93.75C29.8771 93.75 30.0571 93.24 30.0571 92.4C30.0571 91.62 29.8171 90.94 29.2971 90.94C28.7871 90.94 28.5971 91.46 28.5971 92.26C28.5971 93.07 28.8471 93.75 29.3671 93.75ZM34.8798 90.56C36.2698 90.56 36.9898 91.46 36.9898 92.7V92.93H33.7598C33.7298 94.24 34.4198 95.02 35.3598 95.02C36.0298 95.02 36.4898 94.76 36.8598 94.25L37.0298 94.35C36.7698 95.4 36.0198 96.1 34.8098 96.1C33.3498 96.1 32.3098 95.07 32.3098 93.46C32.3098 91.71 33.4698 90.56 34.8798 90.56ZM34.7698 90.95C34.1598 90.95 33.8398 91.6 33.7798 92.52H35.5798C35.5798 91.57 35.3598 90.95 34.7698 90.95ZM0.4 105.26C0.4 104.713 0.45 104.18 0.55 103.66C0.656667 103.14 0.82 102.643 1.04 102.17C1.26 101.697 1.53667 101.26 1.87 100.86H3.09C2.79 101.273 2.53667 101.72 2.33 102.2C2.12333 102.68 1.96667 103.177 1.86 103.69C1.75333 104.203 1.7 104.723 1.7 105.25C1.7 105.763 1.75333 106.277 1.86 106.79C1.96667 107.297 2.12 107.783 2.32 108.25C2.52667 108.723 2.78 109.167 3.08 109.58H1.87C1.53667 109.187 1.26 108.757 1.04 108.29C0.82 107.83 0.656667 107.343 0.55 106.83C0.45 106.317 0.4 105.793 0.4 105.26ZM5.91867 107.6C5.48534 107.587 5.09867 107.547 4.75867 107.48C4.41867 107.407 4.10867 107.307 3.82867 107.18V105.89C4.10201 106.023 4.43201 106.147 4.81867 106.26C5.20534 106.367 5.57201 106.43 5.91867 106.45V104.94C5.53201 104.787 5.20201 104.64 4.92867 104.5C4.66201 104.36 4.44534 104.213 4.27867 104.06C4.11867 103.9 4.00201 103.727 3.92867 103.54C3.85534 103.347 3.81867 103.127 3.81867 102.88C3.81867 102.547 3.90534 102.26 4.07867 102.02C4.25867 101.773 4.50534 101.577 4.81867 101.43C5.13867 101.283 5.50534 101.193 5.91867 101.16V100.41H6.58867V101.14C6.96201 101.153 7.31201 101.197 7.63867 101.27C7.97201 101.343 8.29534 101.45 8.60867 101.59L8.14867 102.73C7.88201 102.617 7.61201 102.53 7.33867 102.47C7.07201 102.41 6.82201 102.37 6.58867 102.35V103.79C6.94867 103.923 7.29201 104.07 7.61867 104.23C7.94534 104.383 8.20867 104.58 8.40867 104.82C8.61534 105.06 8.71867 105.377 8.71867 105.77C8.71867 106.257 8.54201 106.663 8.18867 106.99C7.83534 107.317 7.30201 107.513 6.58867 107.58V108.58H5.91867V107.6ZM6.58867 106.42C6.81534 106.38 6.98201 106.313 7.08867 106.22C7.19534 106.12 7.24867 105.993 7.24867 105.84C7.24867 105.747 7.22201 105.667 7.16867 105.6C7.12201 105.527 7.04867 105.46 6.94867 105.4C6.85534 105.333 6.73534 105.267 6.58867 105.2V106.42ZM5.91867 102.37C5.78534 102.39 5.67201 102.423 5.57867 102.47C5.48534 102.51 5.41201 102.567 5.35867 102.64C5.31201 102.707 5.28867 102.787 5.28867 102.88C5.28867 102.973 5.30867 103.057 5.34867 103.13C5.39534 103.197 5.46534 103.263 5.55867 103.33C5.65201 103.39 5.77201 103.453 5.91867 103.52V102.37ZM13.5275 102.05V105.42C13.5275 106.61 14.0175 107.34 15.1075 107.34C16.1275 107.34 16.8775 106.8 16.8775 105.37V102.05C16.8775 101.52 16.7475 101.43 15.9275 101.36V100.98H18.2375V101.36C17.5475 101.44 17.4675 101.52 17.4675 102.05V105.56C17.4675 107.29 16.2675 108.1 14.7575 108.1C12.9075 108.1 11.8275 107.27 11.8275 105.55V102.05C11.8275 101.51 11.7475 101.44 11.0675 101.36V100.98H14.2975V101.36C13.6075 101.44 13.5275 101.51 13.5275 102.05ZM20.9905 108.1C20.0105 108.1 19.1605 107.81 18.7005 107.44L18.6105 105.71H19.0805C19.3205 106.87 19.9705 107.66 20.9905 107.66C21.7505 107.66 22.2405 107.27 22.2405 106.61C22.2405 105.92 21.8105 105.62 20.6505 105.23C19.4005 104.83 18.6605 104.24 18.6605 103.04C18.6605 101.74 19.6505 100.88 21.0805 100.88C21.9605 100.88 22.7105 101.11 23.2105 101.47V102.98H22.7905C22.5805 101.94 22.0305 101.32 21.0805 101.32C20.4205 101.32 19.9905 101.71 19.9905 102.31C19.9905 102.99 20.3905 103.26 21.4405 103.62C22.7805 104.07 23.6205 104.59 23.6205 105.92C23.6205 107.39 22.4305 108.1 20.9905 108.1ZM27.0853 101.41H26.6753V106.86C26.6753 107.45 26.9153 107.57 27.4153 107.57H27.5553C28.7453 107.57 29.5553 106.44 29.5553 104.58C29.5553 102.73 28.7453 101.41 27.0853 101.41ZM27.5953 108H24.2153V107.62C24.8953 107.54 24.9753 107.47 24.9753 106.93V102.05C24.9753 101.51 24.8953 101.44 24.2153 101.36V100.98H27.3853C30.0953 100.98 31.3453 102.48 31.3453 104.38C31.3453 106.67 29.8253 108 27.5953 108ZM34.6111 105.26C34.6111 105.793 34.5578 106.317 34.4511 106.83C34.3511 107.343 34.1911 107.83 33.9711 108.29C33.7578 108.757 33.4811 109.187 33.1411 109.58H31.9311C32.2311 109.167 32.4811 108.723 32.6811 108.25C32.8878 107.783 33.0444 107.297 33.1511 106.79C33.2578 106.277 33.3111 105.763 33.3111 105.25C33.3111 104.723 33.2578 104.203 33.1511 103.69C33.0444 103.177 32.8878 102.68 32.6811 102.2C32.4811 101.72 32.2278 101.273 31.9211 100.86H33.1411C33.4811 101.26 33.7578 101.697 33.9711 102.17C34.1911 102.643 34.3511 103.14 34.4511 103.66C34.5578 104.18 34.6111 104.713 34.6111 105.26Z" fill="black"/>
<path d="M79.276 482.784C79.276 484.392 77.944 485.112 76.66 485.94C75.616 486.636 74.584 487.356 74.584 488.136H79.36V489H73.48V488.532C73.48 487.008 74.956 485.94 76.228 485.148C77.368 484.416 78.292 483.78 78.292 482.784C78.292 481.968 77.824 481.152 76.552 481.152C75.376 481.152 74.692 482.04 74.62 483.072H73.648C73.732 481.56 74.764 480.288 76.564 480.288C78.364 480.288 79.276 481.512 79.276 482.784ZM80.5152 484.716C80.5152 482.148 81.8472 480.288 83.9232 480.288C86.0112 480.288 87.3312 482.148 87.3312 484.716C87.3312 487.284 86.0112 489.144 83.9232 489.144C81.8472 489.144 80.5152 487.284 80.5152 484.716ZM81.5712 484.716C81.5712 486.816 82.3632 488.256 83.9232 488.256C85.4952 488.256 86.2872 486.816 86.2872 484.716C86.2872 482.616 85.4952 481.176 83.9232 481.176C82.3632 481.176 81.5712 482.616 81.5712 484.716ZM88.6363 484.716C88.6363 482.148 89.9683 480.288 92.0443 480.288C94.1323 480.288 95.4523 482.148 95.4523 484.716C95.4523 487.284 94.1323 489.144 92.0443 489.144C89.9683 489.144 88.6363 487.284 88.6363 484.716ZM89.6923 484.716C89.6923 486.816 90.4843 488.256 92.0443 488.256C93.6163 488.256 94.4083 486.816 94.4083 484.716C94.4083 482.616 93.6163 481.176 92.0443 481.176C90.4843 481.176 89.6923 482.616 89.6923 484.716ZM96.7574 484.716C96.7574 482.148 98.0894 480.288 100.165 480.288C102.253 480.288 103.573 482.148 103.573 484.716C103.573 487.284 102.253 489.144 100.165 489.144C98.0894 489.144 96.7574 487.284 96.7574 484.716ZM97.8134 484.716C97.8134 486.816 98.6054 488.256 100.165 488.256C101.737 488.256 102.529 486.816 102.529 484.716C102.529 482.616 101.737 481.176 100.165 481.176C98.6054 481.176 97.8134 482.616 97.8134 484.716ZM105.274 486.072V485.196H108.598V486.072H105.274ZM115.792 482.784C115.792 484.392 114.46 485.112 113.176 485.94C112.132 486.636 111.1 487.356 111.1 488.136H115.876V489H109.996V488.532C109.996 487.008 111.472 485.94 112.744 485.148C113.884 484.416 114.808 483.78 114.808 482.784C114.808 481.968 114.34 481.152 113.068 481.152C111.892 481.152 111.208 482.04 111.136 483.072H110.164C110.248 481.56 111.28 480.288 113.08 480.288C114.88 480.288 115.792 481.512 115.792 482.784ZM117.031 484.716C117.031 482.148 118.363 480.288 120.439 480.288C122.527 480.288 123.847 482.148 123.847 484.716C123.847 487.284 122.527 489.144 120.439 489.144C118.363 489.144 117.031 487.284 117.031 484.716ZM118.087 484.716C118.087 486.816 118.879 488.256 120.439 488.256C122.011 488.256 122.803 486.816 122.803 484.716C122.803 482.616 122.011 481.176 120.439 481.176C118.879 481.176 118.087 482.616 118.087 484.716ZM125.152 484.716C125.152 482.148 126.484 480.288 128.56 480.288C130.648 480.288 131.968 482.148 131.968 484.716C131.968 487.284 130.648 489.144 128.56 489.144C126.484 489.144 125.152 487.284 125.152 484.716ZM126.208 484.716C126.208 486.816 127 488.256 128.56 488.256C130.132 488.256 130.924 486.816 130.924 484.716C130.924 482.616 130.132 481.176 128.56 481.176C127 481.176 126.208 482.616 126.208 484.716ZM136.453 480.288C138.061 480.288 139.285 481.176 139.285 482.652C139.285 483.624 138.721 484.32 137.869 484.656C138.781 484.824 139.669 485.652 139.669 486.66C139.669 488.136 138.421 489.144 136.453 489.144C134.509 489.144 133.249 488.136 133.249 486.66C133.249 485.652 134.137 484.824 135.049 484.656C134.209 484.32 133.633 483.624 133.633 482.652C133.633 481.176 134.857 480.288 136.453 480.288ZM136.453 484.212C137.485 484.212 138.337 483.708 138.337 482.652C138.337 481.608 137.485 481.104 136.453 481.104C135.433 481.104 134.581 481.608 134.581 482.652C134.581 483.708 135.433 484.212 136.453 484.212ZM136.453 488.316C137.821 488.316 138.637 487.668 138.637 486.66C138.637 485.664 137.821 485.04 136.453 485.04C135.109 485.04 134.281 485.664 134.281 486.66C134.281 487.668 135.109 488.316 136.453 488.316Z" fill="black"/>
<path d="M18.036 473.412C17.596 473.404 17.168 473.368 16.752 473.304C16.336 473.232 16 473.136 15.744 473.016V471.996C16.016 472.124 16.364 472.236 16.788 472.332C17.212 472.428 17.628 472.48 18.036 472.488V470.064C17.644 469.952 17.3 469.832 17.004 469.704C16.716 469.568 16.48 469.416 16.296 469.248C16.112 469.08 15.972 468.888 15.876 468.672C15.788 468.448 15.744 468.192 15.744 467.904C15.744 467.512 15.836 467.176 16.02 466.896C16.212 466.616 16.48 466.396 16.824 466.236C17.168 466.068 17.572 465.972 18.036 465.948V464.892H18.804V465.936C19.228 465.944 19.612 465.992 19.956 466.08C20.308 466.16 20.628 466.26 20.916 466.38L20.592 467.268C20.336 467.164 20.052 467.076 19.74 467.004C19.436 466.924 19.124 466.872 18.804 466.848V469.26C19.332 469.412 19.772 469.576 20.124 469.752C20.476 469.92 20.74 470.132 20.916 470.388C21.1 470.636 21.192 470.96 21.192 471.36C21.192 471.92 20.984 472.376 20.568 472.728C20.152 473.072 19.564 473.284 18.804 473.364V474.696H18.036V473.412ZM18.804 472.428C19.276 472.38 19.62 472.272 19.836 472.104C20.052 471.928 20.16 471.704 20.16 471.432C20.16 471.232 20.12 471.068 20.04 470.94C19.96 470.804 19.82 470.688 19.62 470.592C19.428 470.496 19.156 470.404 18.804 470.316V472.428ZM18.036 466.872C17.748 466.888 17.512 466.94 17.328 467.028C17.144 467.108 17.004 467.216 16.908 467.352C16.82 467.488 16.776 467.644 16.776 467.82C16.776 468.028 16.812 468.208 16.884 468.36C16.964 468.504 17.096 468.628 17.28 468.732C17.464 468.828 17.716 468.916 18.036 468.996V466.872ZM22.5152 469.716C22.5152 467.148 23.8472 465.288 25.9232 465.288C28.0112 465.288 29.3312 467.148 29.3312 469.716C29.3312 472.284 28.0112 474.144 25.9232 474.144C23.8472 474.144 22.5152 472.284 22.5152 469.716ZM23.5712 469.716C23.5712 471.816 24.3632 473.256 25.9232 473.256C27.4952 473.256 28.2872 471.816 28.2872 469.716C28.2872 467.616 27.4952 466.176 25.9232 466.176C24.3632 466.176 23.5712 467.616 23.5712 469.716ZM34.5003 474H31.1043V465.432H34.1163C36.0243 465.432 37.1283 466.224 37.1283 467.724C37.1283 468.516 36.5283 469.332 35.7963 469.548C36.8523 469.812 37.5123 470.592 37.5123 471.6C37.5123 473.172 36.3963 474 34.5003 474ZM32.1243 469.212H34.1763C35.4483 469.212 36.0843 468.672 36.0843 467.736C36.0843 466.788 35.4603 466.272 34.1883 466.272H32.1243V469.212ZM32.1243 470.016V473.16H34.4523C35.7603 473.16 36.4803 472.584 36.4803 471.6C36.4803 470.616 35.7363 470.016 34.4283 470.016H32.1243Z" fill="black"/>
<path d="M10.036 390.412C9.596 390.404 9.168 390.368 8.752 390.304C8.336 390.232 8 390.136 7.744 390.016V388.996C8.016 389.124 8.364 389.236 8.788 389.332C9.212 389.428 9.628 389.48 10.036 389.488V387.064C9.644 386.952 9.3 386.832 9.004 386.704C8.716 386.568 8.48 386.416 8.296 386.248C8.112 386.08 7.972 385.888 7.876 385.672C7.788 385.448 7.744 385.192 7.744 384.904C7.744 384.512 7.836 384.176 8.02 383.896C8.212 383.616 8.48 383.396 8.824 383.236C9.168 383.068 9.572 382.972 10.036 382.948V381.892H10.804V382.936C11.228 382.944 11.612 382.992 11.956 383.08C12.308 383.16 12.628 383.26 12.916 383.38L12.592 384.268C12.336 384.164 12.052 384.076 11.74 384.004C11.436 383.924 11.124 383.872 10.804 383.848V386.26C11.332 386.412 11.772 386.576 12.124 386.752C12.476 386.92 12.74 387.132 12.916 387.388C13.1 387.636 13.192 387.96 13.192 388.36C13.192 388.92 12.984 389.376 12.568 389.728C12.152 390.072 11.564 390.284 10.804 390.364V391.696H10.036V390.412ZM10.804 389.428C11.276 389.38 11.62 389.272 11.836 389.104C12.052 388.928 12.16 388.704 12.16 388.432C12.16 388.232 12.12 388.068 12.04 387.94C11.96 387.804 11.82 387.688 11.62 387.592C11.428 387.496 11.156 387.404 10.804 387.316V389.428ZM10.036 383.872C9.748 383.888 9.512 383.94 9.328 384.028C9.144 384.108 9.004 384.216 8.908 384.352C8.82 384.488 8.776 384.644 8.776 384.82C8.776 385.028 8.812 385.208 8.884 385.36C8.964 385.504 9.096 385.628 9.28 385.732C9.464 385.828 9.716 385.916 10.036 385.996V383.872ZM20.1432 384.784C20.1432 386.392 18.8112 387.112 17.5272 387.94C16.4832 388.636 15.4512 389.356 15.4512 390.136H20.2272V391H14.3472V390.532C14.3472 389.008 15.8232 387.94 17.0952 387.148C18.2352 386.416 19.1592 385.78 19.1592 384.784C19.1592 383.968 18.6912 383.152 17.4192 383.152C16.2432 383.152 15.5592 384.04 15.4872 385.072H14.5152C14.5992 383.56 15.6312 382.288 17.4312 382.288C19.2312 382.288 20.1432 383.512 20.1432 384.784ZM21.3824 386.716C21.3824 384.148 22.7144 382.288 24.7904 382.288C26.8784 382.288 28.1984 384.148 28.1984 386.716C28.1984 389.284 26.8784 391.144 24.7904 391.144C22.7144 391.144 21.3824 389.284 21.3824 386.716ZM22.4384 386.716C22.4384 388.816 23.2304 390.256 24.7904 390.256C26.3624 390.256 27.1544 388.816 27.1544 386.716C27.1544 384.616 26.3624 383.176 24.7904 383.176C23.2304 383.176 22.4384 384.616 22.4384 386.716ZM33.3675 391H29.9715V382.432H32.9835C34.8915 382.432 35.9955 383.224 35.9955 384.724C35.9955 385.516 35.3955 386.332 34.6635 386.548C35.7195 386.812 36.3795 387.592 36.3795 388.6C36.3795 390.172 35.2635 391 33.3675 391ZM30.9915 386.212H33.0435C34.3155 386.212 34.9515 385.672 34.9515 384.736C34.9515 383.788 34.3275 383.272 33.0555 383.272H30.9915V386.212ZM30.9915 387.016V390.16H33.3195C34.6275 390.16 35.3475 389.584 35.3475 388.6C35.3475 387.616 34.6035 387.016 33.2955 387.016H30.9915Z" fill="black"/>
<path d="M11.036 306.412C10.596 306.404 10.168 306.368 9.752 306.304C9.336 306.232 9 306.136 8.744 306.016V304.996C9.016 305.124 9.364 305.236 9.788 305.332C10.212 305.428 10.628 305.48 11.036 305.488V303.064C10.644 302.952 10.3 302.832 10.004 302.704C9.716 302.568 9.48 302.416 9.296 302.248C9.112 302.08 8.972 301.888 8.876 301.672C8.788 301.448 8.744 301.192 8.744 300.904C8.744 300.512 8.836 300.176 9.02 299.896C9.212 299.616 9.48 299.396 9.824 299.236C10.168 299.068 10.572 298.972 11.036 298.948V297.892H11.804V298.936C12.228 298.944 12.612 298.992 12.956 299.08C13.308 299.16 13.628 299.26 13.916 299.38L13.592 300.268C13.336 300.164 13.052 300.076 12.74 300.004C12.436 299.924 12.124 299.872 11.804 299.848V302.26C12.332 302.412 12.772 302.576 13.124 302.752C13.476 302.92 13.74 303.132 13.916 303.388C14.1 303.636 14.192 303.96 14.192 304.36C14.192 304.92 13.984 305.376 13.568 305.728C13.152 306.072 12.564 306.284 11.804 306.364V307.696H11.036V306.412ZM11.804 305.428C12.276 305.38 12.62 305.272 12.836 305.104C13.052 304.928 13.16 304.704 13.16 304.432C13.16 304.232 13.12 304.068 13.04 303.94C12.96 303.804 12.82 303.688 12.62 303.592C12.428 303.496 12.156 303.404 11.804 303.316V305.428ZM11.036 299.872C10.748 299.888 10.512 299.94 10.328 300.028C10.144 300.108 10.004 300.216 9.908 300.352C9.82 300.488 9.776 300.644 9.776 300.82C9.776 301.028 9.812 301.208 9.884 301.36C9.964 301.504 10.096 301.628 10.28 301.732C10.464 301.828 10.716 301.916 11.036 301.996V299.872ZM20.5672 298.432V303.82H22.4032V304.648H20.5672V307H19.5592V304.648H15.3112V303.808L19.4032 298.432H20.5672ZM19.5592 299.5L16.3072 303.82H19.5592V299.5ZM23.4488 302.716C23.4488 300.148 24.7808 298.288 26.8568 298.288C28.9448 298.288 30.2648 300.148 30.2648 302.716C30.2648 305.284 28.9448 307.144 26.8568 307.144C24.7808 307.144 23.4488 305.284 23.4488 302.716ZM24.5048 302.716C24.5048 304.816 25.2968 306.256 26.8568 306.256C28.4288 306.256 29.2208 304.816 29.2208 302.716C29.2208 300.616 28.4288 299.176 26.8568 299.176C25.2968 299.176 24.5048 300.616 24.5048 302.716ZM35.4339 307H32.0379V298.432H35.0499C36.9579 298.432 38.0619 299.224 38.0619 300.724C38.0619 301.516 37.4619 302.332 36.7299 302.548C37.7859 302.812 38.4459 303.592 38.4459 304.6C38.4459 306.172 37.3299 307 35.4339 307ZM33.0579 302.212H35.1099C36.3819 302.212 37.0179 301.672 37.0179 300.736C37.0179 299.788 36.3939 299.272 35.1219 299.272H33.0579V302.212ZM33.0579 303.016V306.16H35.3859C36.6939 306.16 37.4139 305.584 37.4139 304.6C37.4139 303.616 36.6699 303.016 35.3619 303.016H33.0579Z" fill="black"/>
<path d="M7.036 222.412C6.596 222.404 6.168 222.368 5.752 222.304C5.336 222.232 5 222.136 4.744 222.016V220.996C5.016 221.124 5.364 221.236 5.788 221.332C6.212 221.428 6.628 221.48 7.036 221.488V219.064C6.644 218.952 6.3 218.832 6.004 218.704C5.716 218.568 5.48 218.416 5.296 218.248C5.112 218.08 4.972 217.888 4.876 217.672C4.788 217.448 4.744 217.192 4.744 216.904C4.744 216.512 4.836 216.176 5.02 215.896C5.212 215.616 5.48 215.396 5.824 215.236C6.168 215.068 6.572 214.972 7.036 214.948V213.892H7.804V214.936C8.228 214.944 8.612 214.992 8.956 215.08C9.308 215.16 9.628 215.26 9.916 215.38L9.592 216.268C9.336 216.164 9.052 216.076 8.74 216.004C8.436 215.924 8.124 215.872 7.804 215.848V218.26C8.332 218.412 8.772 218.576 9.124 218.752C9.476 218.92 9.74 219.132 9.916 219.388C10.1 219.636 10.192 219.96 10.192 220.36C10.192 220.92 9.984 221.376 9.568 221.728C9.152 222.072 8.564 222.284 7.804 222.364V223.696H7.036V222.412ZM7.804 221.428C8.276 221.38 8.62 221.272 8.836 221.104C9.052 220.928 9.16 220.704 9.16 220.432C9.16 220.232 9.12 220.068 9.04 219.94C8.96 219.804 8.82 219.688 8.62 219.592C8.428 219.496 8.156 219.404 7.804 219.316V221.428ZM7.036 215.872C6.748 215.888 6.512 215.94 6.328 216.028C6.144 216.108 6.004 216.216 5.908 216.352C5.82 216.488 5.776 216.644 5.776 216.82C5.776 217.028 5.812 217.208 5.884 217.36C5.964 217.504 6.096 217.628 6.28 217.732C6.464 217.828 6.716 217.916 7.036 217.996V215.872ZM14.8872 215.152C13.3032 215.152 12.4752 216.796 12.4752 219.016C12.7512 218.128 13.5912 217.276 14.8992 217.276C16.5912 217.276 17.7312 218.524 17.7312 220.168C17.7312 221.896 16.5552 223.144 14.7672 223.144C12.8712 223.144 11.5152 221.488 11.5152 218.86C11.5152 216.148 12.9312 214.288 14.8992 214.288C16.4232 214.288 17.4552 215.188 17.6472 216.628H16.6992C16.4952 215.656 15.9072 215.152 14.8872 215.152ZM14.7672 222.304C15.9912 222.304 16.7592 221.404 16.7592 220.204C16.7592 218.992 15.9912 218.116 14.7672 218.116C13.5672 218.116 12.7512 218.992 12.7512 220.204C12.7512 221.404 13.5672 222.304 14.7672 222.304ZM19.0152 218.716C19.0152 216.148 20.3472 214.288 22.4232 214.288C24.5112 214.288 25.8312 216.148 25.8312 218.716C25.8312 221.284 24.5112 223.144 22.4232 223.144C20.3472 223.144 19.0152 221.284 19.0152 218.716ZM20.0712 218.716C20.0712 220.816 20.8632 222.256 22.4232 222.256C23.9952 222.256 24.7872 220.816 24.7872 218.716C24.7872 216.616 23.9952 215.176 22.4232 215.176C20.8632 215.176 20.0712 216.616 20.0712 218.716ZM31.0003 223H27.6043V214.432H30.6163C32.5243 214.432 33.6283 215.224 33.6283 216.724C33.6283 217.516 33.0283 218.332 32.2963 218.548C33.3523 218.812 34.0123 219.592 34.0123 220.6C34.0123 222.172 32.8963 223 31.0003 223ZM28.6243 218.212H30.6763C31.9483 218.212 32.5843 217.672 32.5843 216.736C32.5843 215.788 31.9603 215.272 30.6883 215.272H28.6243V218.212ZM28.6243 219.016V222.16H30.9523C32.2603 222.16 32.9803 221.584 32.9803 220.6C32.9803 219.616 32.2363 219.016 30.9283 219.016H28.6243Z" fill="black"/>
<path d="M7.036 138.412C6.596 138.404 6.168 138.368 5.752 138.304C5.336 138.232 5 138.136 4.744 138.016V136.996C5.016 137.124 5.364 137.236 5.788 137.332C6.212 137.428 6.628 137.48 7.036 137.488V135.064C6.644 134.952 6.3 134.832 6.004 134.704C5.716 134.568 5.48 134.416 5.296 134.248C5.112 134.08 4.972 133.888 4.876 133.672C4.788 133.448 4.744 133.192 4.744 132.904C4.744 132.512 4.836 132.176 5.02 131.896C5.212 131.616 5.48 131.396 5.824 131.236C6.168 131.068 6.572 130.972 7.036 130.948V129.892H7.804V130.936C8.228 130.944 8.612 130.992 8.956 131.08C9.308 131.16 9.628 131.26 9.916 131.38L9.592 132.268C9.336 132.164 9.052 132.076 8.74 132.004C8.436 131.924 8.124 131.872 7.804 131.848V134.26C8.332 134.412 8.772 134.576 9.124 134.752C9.476 134.92 9.74 135.132 9.916 135.388C10.1 135.636 10.192 135.96 10.192 136.36C10.192 136.92 9.984 137.376 9.568 137.728C9.152 138.072 8.564 138.284 7.804 138.364V139.696H7.036V138.412ZM7.804 137.428C8.276 137.38 8.62 137.272 8.836 137.104C9.052 136.928 9.16 136.704 9.16 136.432C9.16 136.232 9.12 136.068 9.04 135.94C8.96 135.804 8.82 135.688 8.62 135.592C8.428 135.496 8.156 135.404 7.804 135.316V137.428ZM7.036 131.872C6.748 131.888 6.512 131.94 6.328 132.028C6.144 132.108 6.004 132.216 5.908 132.352C5.82 132.488 5.776 132.644 5.776 132.82C5.776 133.028 5.812 133.208 5.884 133.36C5.964 133.504 6.096 133.628 6.28 133.732C6.464 133.828 6.716 133.916 7.036 133.996V131.872ZM14.6952 130.288C16.3032 130.288 17.5272 131.176 17.5272 132.652C17.5272 133.624 16.9632 134.32 16.1112 134.656C17.0232 134.824 17.9112 135.652 17.9112 136.66C17.9112 138.136 16.6632 139.144 14.6952 139.144C12.7512 139.144 11.4912 138.136 11.4912 136.66C11.4912 135.652 12.3792 134.824 13.2912 134.656C12.4512 134.32 11.8752 133.624 11.8752 132.652C11.8752 131.176 13.0992 130.288 14.6952 130.288ZM14.6952 134.212C15.7272 134.212 16.5792 133.708 16.5792 132.652C16.5792 131.608 15.7272 131.104 14.6952 131.104C13.6752 131.104 12.8232 131.608 12.8232 132.652C12.8232 133.708 13.6752 134.212 14.6952 134.212ZM14.6952 138.316C16.0632 138.316 16.8792 137.668 16.8792 136.66C16.8792 135.664 16.0632 135.04 14.6952 135.04C13.3512 135.04 12.5232 135.664 12.5232 136.66C12.5232 137.668 13.3512 138.316 14.6952 138.316ZM19.191 134.716C19.191 132.148 20.523 130.288 22.599 130.288C24.687 130.288 26.007 132.148 26.007 134.716C26.007 137.284 24.687 139.144 22.599 139.144C20.523 139.144 19.191 137.284 19.191 134.716ZM20.247 134.716C20.247 136.816 21.039 138.256 22.599 138.256C24.171 138.256 24.963 136.816 24.963 134.716C24.963 132.616 24.171 131.176 22.599 131.176C21.039 131.176 20.247 132.616 20.247 134.716ZM31.1761 139H27.7801V130.432H30.7921C32.7001 130.432 33.8041 131.224 33.8041 132.724C33.8041 133.516 33.2041 134.332 32.4721 134.548C33.5281 134.812 34.1881 135.592 34.1881 136.6C34.1881 138.172 33.0721 139 31.1761 139ZM28.8001 134.212H30.8521C32.1241 134.212 32.7601 133.672 32.7601 132.736C32.7601 131.788 32.1361 131.272 30.8641 131.272H28.8001V134.212ZM28.8001 135.016V138.16H31.1281C32.4361 138.16 33.1561 137.584 33.1561 136.6C33.1561 135.616 32.4121 135.016 31.1041 135.016H28.8001Z" fill="black"/>
<path d="M192.276 482.784C192.276 484.392 190.944 485.112 189.66 485.94C188.616 486.636 187.584 487.356 187.584 488.136H192.36V489H186.48V488.532C186.48 487.008 187.956 485.94 189.228 485.148C190.368 484.416 191.292 483.78 191.292 482.784C191.292 481.968 190.824 481.152 189.552 481.152C188.376 481.152 187.692 482.04 187.62 483.072H186.648C186.732 481.56 187.764 480.288 189.564 480.288C191.364 480.288 192.276 481.512 192.276 482.784ZM193.515 484.716C193.515 482.148 194.847 480.288 196.923 480.288C199.011 480.288 200.331 482.148 200.331 484.716C200.331 487.284 199.011 489.144 196.923 489.144C194.847 489.144 193.515 487.284 193.515 484.716ZM194.571 484.716C194.571 486.816 195.363 488.256 196.923 488.256C198.495 488.256 199.287 486.816 199.287 484.716C199.287 482.616 198.495 481.176 196.923 481.176C195.363 481.176 194.571 482.616 194.571 484.716ZM201.636 484.716C201.636 482.148 202.968 480.288 205.044 480.288C207.132 480.288 208.452 482.148 208.452 484.716C208.452 487.284 207.132 489.144 205.044 489.144C202.968 489.144 201.636 487.284 201.636 484.716ZM202.692 484.716C202.692 486.816 203.484 488.256 205.044 488.256C206.616 488.256 207.408 486.816 207.408 484.716C207.408 482.616 206.616 481.176 205.044 481.176C203.484 481.176 202.692 482.616 202.692 484.716ZM212.589 488.28C214.173 488.28 215.001 486.636 215.001 484.416C214.725 485.304 213.885 486.156 212.577 486.156C210.885 486.156 209.745 484.908 209.745 483.264C209.745 481.536 210.921 480.288 212.709 480.288C214.605 480.288 215.961 481.944 215.961 484.572C215.961 487.284 214.545 489.144 212.577 489.144C211.053 489.144 210.021 488.244 209.829 486.804H210.777C210.981 487.776 211.569 488.28 212.589 488.28ZM212.709 481.128C211.485 481.128 210.717 482.028 210.717 483.228C210.717 484.44 211.485 485.316 212.709 485.316C213.909 485.316 214.725 484.44 214.725 483.228C214.725 482.028 213.909 481.128 212.709 481.128ZM217.653 486.072V485.196H220.977V486.072H217.653ZM228.171 482.784C228.171 484.392 226.839 485.112 225.555 485.94C224.511 486.636 223.479 487.356 223.479 488.136H228.255V489H222.375V488.532C222.375 487.008 223.851 485.94 225.123 485.148C226.263 484.416 227.187 483.78 227.187 482.784C227.187 481.968 226.719 481.152 225.447 481.152C224.271 481.152 223.587 482.04 223.515 483.072H222.543C222.627 481.56 223.659 480.288 225.459 480.288C227.259 480.288 228.171 481.512 228.171 482.784ZM229.41 484.716C229.41 482.148 230.742 480.288 232.818 480.288C234.906 480.288 236.226 482.148 236.226 484.716C236.226 487.284 234.906 489.144 232.818 489.144C230.742 489.144 229.41 487.284 229.41 484.716ZM230.466 484.716C230.466 486.816 231.258 488.256 232.818 488.256C234.39 488.256 235.182 486.816 235.182 484.716C235.182 482.616 234.39 481.176 232.818 481.176C231.258 481.176 230.466 482.616 230.466 484.716ZM237.183 482.388V481.692C238.647 481.692 239.175 481.284 239.379 480.396H240.015V489H238.983V482.388H237.183ZM246.486 481.308H241.59V480.432H247.614V481.164C245.574 483.636 244.854 486.084 244.818 489H243.738C243.774 485.964 244.866 483.372 246.486 481.308Z" fill="black"/>
<path d="M300.276 482.784C300.276 484.392 298.944 485.112 297.66 485.94C296.616 486.636 295.584 487.356 295.584 488.136H300.36V489H294.48V488.532C294.48 487.008 295.956 485.94 297.228 485.148C298.368 484.416 299.292 483.78 299.292 482.784C299.292 481.968 298.824 481.152 297.552 481.152C296.376 481.152 295.692 482.04 295.62 483.072H294.648C294.732 481.56 295.764 480.288 297.564 480.288C299.364 480.288 300.276 481.512 300.276 482.784ZM301.515 484.716C301.515 482.148 302.847 480.288 304.923 480.288C307.011 480.288 308.331 482.148 308.331 484.716C308.331 487.284 307.011 489.144 304.923 489.144C302.847 489.144 301.515 487.284 301.515 484.716ZM302.571 484.716C302.571 486.816 303.363 488.256 304.923 488.256C306.495 488.256 307.287 486.816 307.287 484.716C307.287 482.616 306.495 481.176 304.923 481.176C303.363 481.176 302.571 482.616 302.571 484.716ZM315.264 482.784C315.264 484.392 313.932 485.112 312.648 485.94C311.604 486.636 310.572 487.356 310.572 488.136H315.348V489H309.468V488.532C309.468 487.008 310.944 485.94 312.216 485.148C313.356 484.416 314.28 483.78 314.28 482.784C314.28 481.968 313.812 481.152 312.54 481.152C311.364 481.152 310.68 482.04 310.608 483.072H309.636C309.72 481.56 310.752 480.288 312.552 480.288C314.352 480.288 315.264 481.512 315.264 482.784ZM316.503 484.716C316.503 482.148 317.835 480.288 319.911 480.288C321.999 480.288 323.319 482.148 323.319 484.716C323.319 487.284 321.999 489.144 319.911 489.144C317.835 489.144 316.503 487.284 316.503 484.716ZM317.559 484.716C317.559 486.816 318.351 488.256 319.911 488.256C321.483 488.256 322.275 486.816 322.275 484.716C322.275 482.616 321.483 481.176 319.911 481.176C318.351 481.176 317.559 482.616 317.559 484.716ZM325.021 486.072V485.196H328.345V486.072H325.021ZM335.538 482.784C335.538 484.392 334.206 485.112 332.922 485.94C331.878 486.636 330.846 487.356 330.846 488.136H335.622V489H329.742V488.532C329.742 487.008 331.218 485.94 332.49 485.148C333.63 484.416 334.554 483.78 334.554 482.784C334.554 481.968 334.086 481.152 332.814 481.152C331.638 481.152 330.954 482.04 330.882 483.072H329.91C329.994 481.56 331.026 480.288 332.826 480.288C334.626 480.288 335.538 481.512 335.538 482.784ZM336.777 484.716C336.777 482.148 338.109 480.288 340.185 480.288C342.273 480.288 343.593 482.148 343.593 484.716C343.593 487.284 342.273 489.144 340.185 489.144C338.109 489.144 336.777 487.284 336.777 484.716ZM337.833 484.716C337.833 486.816 338.625 488.256 340.185 488.256C341.757 488.256 342.549 486.816 342.549 484.716C342.549 482.616 341.757 481.176 340.185 481.176C338.625 481.176 337.833 482.616 337.833 484.716ZM350.526 482.784C350.526 484.392 349.194 485.112 347.91 485.94C346.866 486.636 345.834 487.356 345.834 488.136H350.61V489H344.73V488.532C344.73 487.008 346.206 485.94 347.478 485.148C348.618 484.416 349.542 483.78 349.542 482.784C349.542 481.968 349.074 481.152 347.802 481.152C346.626 481.152 345.942 482.04 345.87 483.072H344.898C344.982 481.56 346.014 480.288 347.814 480.288C349.614 480.288 350.526 481.512 350.526 482.784ZM354.726 488.28C356.31 488.28 357.138 486.636 357.138 484.416C356.862 485.304 356.022 486.156 354.714 486.156C353.022 486.156 351.882 484.908 351.882 483.264C351.882 481.536 353.058 480.288 354.846 480.288C356.742 480.288 358.098 481.944 358.098 484.572C358.098 487.284 356.682 489.144 354.714 489.144C353.19 489.144 352.158 488.244 351.966 486.804H352.914C353.118 487.776 353.706 488.28 354.726 488.28ZM354.846 481.128C353.622 481.128 352.854 482.028 352.854 483.228C352.854 484.44 353.622 485.316 354.846 485.316C356.046 485.316 356.862 484.44 356.862 483.228C356.862 482.028 356.046 481.128 354.846 481.128Z" fill="black"/>
<path d="M47 135H355" stroke="#7D7575" stroke-opacity="0.3" stroke-dasharray="20 20"/>
<path d="M47 217H355" stroke="#7D7575" stroke-opacity="0.3" stroke-dasharray="20 20"/>
<path d="M46 302H355" stroke="#7D7575" stroke-opacity="0.3" stroke-dasharray="20 20"/>
<path d="M47 386H355" stroke="#7D7575" stroke-opacity="0.3" stroke-dasharray="20 20"/>
<path opacity="0.3" d="M75.47 240.89H76.3C76.41 242.04 77.35 242.43 78.41 242.43C79.43 242.43 80.18 241.94 80.18 241.08C80.18 240.48 79.85 240.09 78.88 239.91L77.52 239.64C76.56 239.46 75.7 239.02 75.7 237.79C75.7 236.62 76.71 235.74 78.19 235.74C79.72 235.74 80.73 236.4 80.87 237.69H80.04C79.92 236.89 79.22 236.43 78.2 236.43C77.16 236.43 76.54 237.01 76.54 237.76C76.54 238.47 76.94 238.72 77.81 238.89L79.21 239.18C80.31 239.4 81.01 239.91 81.01 241.04C81.01 242.26 79.93 243.12 78.42 243.12C76.87 243.12 75.57 242.45 75.47 240.89ZM86.882 240.49C86.882 242.11 85.882 243.12 84.492 243.12C83.102 243.12 82.102 242.11 82.102 240.49C82.102 238.87 83.102 237.85 84.492 237.85C85.882 237.85 86.882 238.87 86.882 240.49ZM82.922 240.49C82.922 241.7 83.512 242.45 84.492 242.45C85.472 242.45 86.062 241.7 86.062 240.49C86.062 239.28 85.472 238.52 84.492 238.52C83.512 238.52 82.922 239.28 82.922 240.49ZM92.4323 243H91.6223V242.09C91.3823 242.72 90.7823 243.12 90.0223 243.12C88.8823 243.12 88.2423 242.43 88.2423 241.21V237.97H89.0823V241.05C89.0823 241.98 89.4723 242.47 90.2623 242.47C91.0223 242.47 91.5923 241.95 91.5923 240.74V237.97H92.4323V243ZM97.0003 237.9V238.66C96.8803 238.63 96.7003 238.62 96.5703 238.62C95.7703 238.62 95.0403 239.25 95.0403 240.52V243H94.2103V237.97H95.0103V239.16C95.2303 238.33 95.8703 237.86 96.6103 237.86C96.7403 237.86 96.8803 237.87 97.0003 237.9ZM97.5903 240.49C97.5903 238.88 98.5603 237.85 99.9603 237.85C101.08 237.85 101.82 238.49 101.98 239.56H101.19C101.05 238.89 100.64 238.52 99.9603 238.52C98.9703 238.52 98.4103 239.31 98.4103 240.49C98.4103 241.67 98.9703 242.45 99.9603 242.45C100.64 242.45 101.05 242.08 101.19 241.41H101.98C101.82 242.49 101.08 243.12 99.9603 243.12C98.5603 243.12 97.5903 242.1 97.5903 240.49ZM107.481 241.52C107.251 242.59 106.381 243.12 105.401 243.12C103.981 243.12 102.981 242.13 102.981 240.51C102.981 238.87 104.011 237.85 105.351 237.85C106.841 237.85 107.511 239.04 107.511 240.33V240.66H103.791C103.831 241.82 104.441 242.46 105.401 242.46C106.081 242.46 106.491 242.13 106.701 241.52H107.481ZM105.351 238.52C104.561 238.52 103.961 239.03 103.821 240.06H106.701C106.681 239.19 106.251 238.52 105.351 238.52ZM110.915 242.46C110.915 242.213 110.975 242.04 111.095 241.94C111.215 241.84 111.359 241.79 111.525 241.79C111.699 241.79 111.845 241.84 111.965 241.94C112.092 242.04 112.155 242.213 112.155 242.46C112.155 242.7 112.092 242.873 111.965 242.98C111.845 243.087 111.699 243.14 111.525 243.14C111.359 243.14 111.215 243.087 111.095 242.98C110.975 242.873 110.915 242.7 110.915 242.46ZM110.915 238.18C110.915 237.927 110.975 237.75 111.095 237.65C111.215 237.55 111.359 237.5 111.525 237.5C111.699 237.5 111.845 237.55 111.965 237.65C112.092 237.75 112.155 237.927 112.155 238.18C112.155 238.42 112.092 238.593 111.965 238.7C111.845 238.807 111.699 238.86 111.525 238.86C111.359 238.86 111.215 238.807 111.095 238.7C110.975 238.593 110.915 238.42 110.915 238.18ZM116.819 243H115.969V235.86H118.719C120.319 235.86 121.229 236.61 121.229 237.98C121.229 239.14 120.419 239.79 119.579 239.98L121.539 243H120.569L118.719 240.11H116.819V243ZM116.819 239.39H118.669C119.749 239.39 120.359 238.91 120.359 237.98C120.359 237.08 119.749 236.58 118.669 236.58H116.819V239.39ZM126.724 243H126.024L123.704 236.74H123.684V243H122.864V235.86H124.194L126.394 241.88H126.414L128.614 235.86H129.894V243H129.064V236.74H129.044L126.724 243ZM131.75 243V235.86H132.61V243H131.75ZM134.545 242.99V241.91H135.635V243.17C135.635 244 135.135 244.57 134.225 244.57V244.06C134.735 244.06 135.025 243.83 135.025 243.17V242.99H134.545ZM140.169 239.42C140.169 241.2 141.019 242.39 142.489 242.39C143.689 242.39 144.209 241.72 144.369 240.92H145.209C144.979 242.22 144.049 243.12 142.489 243.12C140.649 243.12 139.289 241.67 139.289 239.42C139.289 237.18 140.649 235.74 142.489 235.74C144.049 235.74 144.979 236.64 145.209 237.94H144.369C144.209 237.14 143.689 236.47 142.489 236.47C141.019 236.47 140.169 237.64 140.169 239.42ZM149.325 237.9V238.66C149.205 238.63 149.025 238.62 148.895 238.62C148.095 238.62 147.365 239.25 147.365 240.52V243H146.535V237.97H147.335V239.16C147.555 238.33 148.195 237.86 148.935 237.86C149.065 237.86 149.205 237.87 149.325 237.9ZM154.415 241.52C154.185 242.59 153.315 243.12 152.335 243.12C150.915 243.12 149.915 242.13 149.915 240.51C149.915 238.87 150.945 237.85 152.285 237.85C153.775 237.85 154.445 239.04 154.445 240.33V240.66H150.725C150.765 241.82 151.375 242.46 152.335 242.46C153.015 242.46 153.425 242.13 153.635 241.52H154.415ZM152.285 238.52C151.495 238.52 150.895 239.03 150.755 240.06H153.635C153.615 239.19 153.185 238.52 152.285 238.52ZM159.431 243V242.12C159.181 242.63 158.561 243.12 157.731 243.12C156.451 243.12 155.491 242.08 155.491 240.49C155.491 238.89 156.451 237.85 157.731 237.85C158.601 237.85 159.171 238.35 159.401 238.86V235.64H160.231V243H159.431ZM159.441 240.55V240.41C159.441 239.27 158.881 238.5 157.901 238.5C156.911 238.5 156.331 239.31 156.331 240.49C156.331 241.66 156.911 242.47 157.901 242.47C158.881 242.47 159.441 241.69 159.441 240.55ZM161.953 236.92V235.91H162.893V236.92H161.953ZM162.013 243V237.97H162.843V243H162.013ZM166.96 242.26V242.94C166.59 243.05 166.3 243.08 166.08 243.08C165.16 243.08 164.69 242.64 164.69 241.71V238.6H163.95V237.97H164.69V236.69H165.51V237.97H166.83V238.6H165.5V241.67C165.5 242.2 165.77 242.38 166.23 242.38C166.42 242.38 166.64 242.36 166.96 242.26ZM170.06 240.89H170.89C171 242.04 171.94 242.43 173 242.43C174.02 242.43 174.77 241.94 174.77 241.08C174.77 240.48 174.44 240.09 173.47 239.91L172.11 239.64C171.15 239.46 170.29 239.02 170.29 237.79C170.29 236.62 171.3 235.74 172.78 235.74C174.31 235.74 175.32 236.4 175.46 237.69H174.63C174.51 236.89 173.81 236.43 172.79 236.43C171.75 236.43 171.13 237.01 171.13 237.76C171.13 238.47 171.53 238.72 172.4 238.89L173.8 239.18C174.9 239.4 175.6 239.91 175.6 241.04C175.6 242.26 174.52 243.12 173.01 243.12C171.46 243.12 170.16 242.45 170.06 240.89ZM181.182 243H180.372V242.09C180.132 242.72 179.532 243.12 178.772 243.12C177.632 243.12 176.992 242.43 176.992 241.21V237.97H177.832V241.05C177.832 241.98 178.222 242.47 179.012 242.47C179.772 242.47 180.342 241.95 180.342 240.74V237.97H181.182V243ZM182.9 236.92V235.91H183.84V236.92H182.9ZM182.96 243V237.97H183.79V243H182.96ZM185.138 241.51H185.938C185.998 242.2 186.638 242.49 187.318 242.49C188.008 242.49 188.508 242.17 188.508 241.63C188.508 241.26 188.268 241.02 187.628 240.9L186.738 240.72C185.928 240.57 185.338 240.24 185.338 239.36C185.338 238.51 186.098 237.85 187.208 237.85C188.368 237.85 189.078 238.35 189.178 239.3H188.408C188.348 238.79 187.898 238.49 187.208 238.49C186.538 238.49 186.108 238.82 186.108 239.31C186.108 239.74 186.408 239.92 186.988 240.03L187.988 240.22C188.808 240.38 189.288 240.78 189.288 241.59C189.288 242.47 188.458 243.12 187.328 243.12C186.128 243.12 185.228 242.59 185.138 241.51ZM190.294 241.51H191.094C191.154 242.2 191.794 242.49 192.474 242.49C193.164 242.49 193.664 242.17 193.664 241.63C193.664 241.26 193.424 241.02 192.784 240.9L191.894 240.72C191.084 240.57 190.494 240.24 190.494 239.36C190.494 238.51 191.254 237.85 192.364 237.85C193.524 237.85 194.234 238.35 194.334 239.3H193.564C193.504 238.79 193.054 238.49 192.364 238.49C191.694 238.49 191.264 238.82 191.264 239.31C191.264 239.74 191.564 239.92 192.144 240.03L193.144 240.22C193.964 240.38 194.444 240.78 194.444 241.59C194.444 242.47 193.614 243.12 192.484 243.12C191.284 243.12 190.384 242.59 190.294 241.51ZM200.01 241.52C199.78 242.59 198.91 243.12 197.93 243.12C196.51 243.12 195.51 242.13 195.51 240.51C195.51 238.87 196.54 237.85 197.88 237.85C199.37 237.85 200.04 239.04 200.04 240.33V240.66H196.32C196.36 241.82 196.97 242.46 197.93 242.46C198.61 242.46 199.02 242.13 199.23 241.52H200.01ZM197.88 238.52C197.09 238.52 196.49 239.03 196.35 240.06H199.23C199.21 239.19 198.78 238.52 197.88 238.52ZM201.439 242.99V241.91H202.529V243.17C202.529 244 202.029 244.57 201.119 244.57V244.06C201.629 244.06 201.919 243.83 201.919 243.17V242.99H201.439ZM78.23 254.26V254.94C77.86 255.05 77.57 255.08 77.35 255.08C76.43 255.08 75.96 254.64 75.96 253.71V250.6H75.22V249.97H75.96V248.69H76.78V249.97H78.1V250.6H76.77V253.67C76.77 254.2 77.04 254.38 77.5 254.38C77.69 254.38 77.91 254.36 78.23 254.26ZM80.4114 250.89C80.6514 250.25 81.2514 249.85 82.0214 249.85C83.1514 249.85 83.8214 250.56 83.8214 251.76V255H82.9914V251.94C82.9914 251.01 82.5814 250.53 81.7914 250.53C81.0214 250.53 80.4114 251.02 80.4114 252.23V255H79.5814V247.64H80.4114V250.89ZM88.3382 249.9V250.66C88.2182 250.63 88.0382 250.62 87.9082 250.62C87.1082 250.62 86.3782 251.25 86.3782 252.52V255H85.5482V249.97H86.3482V251.16C86.5682 250.33 87.2082 249.86 87.9482 249.86C88.0782 249.86 88.2182 249.87 88.3382 249.9ZM93.7082 252.49C93.7082 254.11 92.7082 255.12 91.3182 255.12C89.9282 255.12 88.9282 254.11 88.9282 252.49C88.9282 250.87 89.9282 249.85 91.3182 249.85C92.7082 249.85 93.7082 250.87 93.7082 252.49ZM89.7482 252.49C89.7482 253.7 90.3382 254.45 91.3182 254.45C92.2982 254.45 92.8882 253.7 92.8882 252.49C92.8882 251.28 92.2982 250.52 91.3182 250.52C90.3382 250.52 89.7482 251.28 89.7482 252.49ZM99.2585 255H98.4485V254.09C98.2085 254.72 97.6085 255.12 96.8485 255.12C95.7085 255.12 95.0685 254.43 95.0685 253.21V249.97H95.9085V253.05C95.9085 253.98 96.2985 254.47 97.0885 254.47C97.8485 254.47 98.4185 253.95 98.4185 252.74V249.97H99.2585V255ZM104.556 254.68V253.94C104.326 254.43 103.766 254.91 102.886 254.91C101.596 254.91 100.656 253.94 100.656 252.37C100.656 250.86 101.596 249.85 102.886 249.85C103.766 249.85 104.346 250.37 104.586 250.85V249.97H105.396V254.62C105.396 256.22 104.356 256.9 103.016 256.9C101.806 256.9 100.986 256.41 100.786 255.43H101.626C101.796 256.06 102.326 256.26 103.006 256.26C103.996 256.26 104.556 255.73 104.556 254.68ZM104.616 252.49V252.25C104.616 251.21 103.966 250.5 103.036 250.5C102.056 250.5 101.476 251.25 101.476 252.37C101.476 253.48 102.056 254.25 103.036 254.25C103.966 254.25 104.616 253.53 104.616 252.49ZM108.009 250.89C108.249 250.25 108.849 249.85 109.619 249.85C110.749 249.85 111.419 250.56 111.419 251.76V255H110.589V251.94C110.589 251.01 110.179 250.53 109.389 250.53C108.619 250.53 108.009 251.02 108.009 252.23V255H107.179V247.64H108.009V250.89ZM117.484 255V248.58H114.824V247.86H121.014V248.58H118.344V255H117.484ZM123.136 250.89C123.376 250.25 123.976 249.85 124.746 249.85C125.876 249.85 126.546 250.56 126.546 251.76V255H125.716V251.94C125.716 251.01 125.306 250.53 124.516 250.53C123.746 250.53 123.136 251.02 123.136 252.23V255H122.306V247.64H123.136V250.89ZM132.403 253.52C132.173 254.59 131.303 255.12 130.323 255.12C128.903 255.12 127.903 254.13 127.903 252.51C127.903 250.87 128.933 249.85 130.273 249.85C131.763 249.85 132.433 251.04 132.433 252.33V252.66H128.713C128.753 253.82 129.363 254.46 130.323 254.46C131.003 254.46 131.413 254.13 131.623 253.52H132.403ZM130.273 250.52C129.483 250.52 128.883 251.03 128.743 252.06H131.623C131.603 251.19 131.173 250.52 130.273 250.52ZM140.877 255H136.047V247.86H140.867V248.58H136.897V251.07H140.427V251.8H136.897V254.28H140.877V255ZM142.034 252.49C142.034 250.88 143.004 249.85 144.404 249.85C145.524 249.85 146.264 250.49 146.424 251.56H145.634C145.494 250.89 145.084 250.52 144.404 250.52C143.414 250.52 142.854 251.31 142.854 252.49C142.854 253.67 143.414 254.45 144.404 254.45C145.084 254.45 145.494 254.08 145.634 253.41H146.424C146.264 254.49 145.524 255.12 144.404 255.12C143.004 255.12 142.034 254.1 142.034 252.49ZM152.204 252.49C152.204 254.11 151.204 255.12 149.814 255.12C148.424 255.12 147.424 254.11 147.424 252.49C147.424 250.87 148.424 249.85 149.814 249.85C151.204 249.85 152.204 250.87 152.204 252.49ZM148.244 252.49C148.244 253.7 148.834 254.45 149.814 254.45C150.794 254.45 151.384 253.7 151.384 252.49C151.384 251.28 150.794 250.52 149.814 250.52C148.834 250.52 148.244 251.28 148.244 252.49ZM154.415 249.97V250.89C154.655 250.27 155.285 249.85 156.055 249.85C157.185 249.85 157.855 250.56 157.855 251.76V255H157.025V251.94C157.025 251.01 156.615 250.53 155.825 250.53C155.055 250.53 154.445 251.02 154.445 252.23V255H153.615V249.97H154.415ZM163.991 252.49C163.991 254.11 162.991 255.12 161.601 255.12C160.211 255.12 159.211 254.11 159.211 252.49C159.211 250.87 160.211 249.85 161.601 249.85C162.991 249.85 163.991 250.87 163.991 252.49ZM160.031 252.49C160.031 253.7 160.621 254.45 161.601 254.45C162.581 254.45 163.171 253.7 163.171 252.49C163.171 251.28 162.581 250.52 161.601 250.52C160.621 250.52 160.031 251.28 160.031 252.49ZM169.322 250.93C169.632 250.25 170.272 249.85 171.012 249.85C172.172 249.85 172.742 250.58 172.742 251.76V255H171.902V251.94C171.902 251 171.562 250.53 170.812 250.53C170.062 250.53 169.492 251.07 169.492 252.23V255H168.652V251.94C168.652 251 168.322 250.53 167.562 250.53C166.802 250.53 166.232 251.07 166.232 252.23V255H165.402V249.97H166.202V250.89C166.442 250.25 167.062 249.85 167.792 249.85C168.642 249.85 169.102 250.26 169.322 250.93ZM174.404 248.92V247.91H175.344V248.92H174.404ZM174.464 255V249.97H175.294V255H174.464ZM176.642 253.51H177.442C177.502 254.2 178.142 254.49 178.822 254.49C179.512 254.49 180.012 254.17 180.012 253.63C180.012 253.26 179.772 253.02 179.132 252.9L178.242 252.72C177.432 252.57 176.842 252.24 176.842 251.36C176.842 250.51 177.602 249.85 178.712 249.85C179.872 249.85 180.582 250.35 180.682 251.3H179.912C179.852 250.79 179.402 250.49 178.712 250.49C178.042 250.49 177.612 250.82 177.612 251.31C177.612 251.74 177.912 251.92 178.492 252.03L179.492 252.22C180.312 252.38 180.792 252.78 180.792 253.59C180.792 254.47 179.962 255.12 178.832 255.12C177.632 255.12 176.732 254.59 176.642 253.51ZM184.568 254.26V254.94C184.198 255.05 183.908 255.08 183.688 255.08C182.768 255.08 182.298 254.64 182.298 253.71V250.6H181.558V249.97H182.298V248.69H183.118V249.97H184.438V250.6H183.108V253.67C183.108 254.2 183.378 254.38 183.838 254.38C184.028 254.38 184.248 254.36 184.568 254.26Z" fill="black"/>
<path d="M104.07 127.63C104.07 130.3 105.345 132.085 107.55 132.085C109.35 132.085 110.13 131.08 110.37 129.88H111.63C111.285 131.83 109.89 133.18 107.55 133.18C104.79 133.18 102.75 131.005 102.75 127.63C102.75 124.27 104.79 122.11 107.55 122.11C109.89 122.11 111.285 123.46 111.63 125.41H110.37C110.13 124.21 109.35 123.205 107.55 123.205C105.345 123.205 104.07 124.96 104.07 127.63ZM113.678 133V122.29H114.968V127.015H121.238V122.29H122.528V133H121.238V128.095H114.968V133H113.678ZM125.324 133V122.29H126.614V133H125.324ZM133.4 128.695H130.7V133H129.425V122.29H133.385C135.77 122.29 137.15 123.385 137.15 125.485C137.15 127.6 135.77 128.695 133.4 128.695ZM130.7 127.615H133.355C134.975 127.615 135.86 126.94 135.86 125.485C135.86 124.03 134.975 123.37 133.355 123.37H130.7V127.615ZM138.535 129.835H139.78C139.945 131.56 141.355 132.145 142.945 132.145C144.475 132.145 145.6 131.41 145.6 130.12C145.6 129.22 145.105 128.635 143.65 128.365L141.61 127.96C140.17 127.69 138.88 127.03 138.88 125.185C138.88 123.43 140.395 122.11 142.615 122.11C144.91 122.11 146.425 123.1 146.635 125.035H145.39C145.21 123.835 144.16 123.145 142.63 123.145C141.07 123.145 140.14 124.015 140.14 125.14C140.14 126.205 140.74 126.58 142.045 126.835L144.145 127.27C145.795 127.6 146.845 128.365 146.845 130.06C146.845 131.89 145.225 133.18 142.96 133.18C140.635 133.18 138.685 132.175 138.535 129.835ZM155.486 122.125C156.026 122.125 156.486 122.22 156.866 122.41C157.256 122.59 157.556 122.85 157.766 123.19C157.976 123.53 158.081 123.945 158.081 124.435C158.081 125.065 157.876 125.6 157.466 126.04C157.066 126.48 156.556 126.88 155.936 127.24L158.831 130.03C159.091 129.72 159.301 129.365 159.461 128.965C159.631 128.555 159.771 128.115 159.881 127.645H161.216C161.056 128.285 160.856 128.88 160.616 129.43C160.376 129.98 160.066 130.46 159.686 130.87L161.876 133H160.091L158.786 131.74C158.546 131.95 158.296 132.145 158.036 132.325C157.786 132.495 157.511 132.64 157.211 132.76C156.911 132.88 156.586 132.975 156.236 133.045C155.896 133.115 155.516 133.15 155.096 133.15C154.406 133.15 153.806 133.04 153.296 132.82C152.796 132.59 152.406 132.255 152.126 131.815C151.856 131.375 151.721 130.84 151.721 130.21C151.721 129.7 151.811 129.26 151.991 128.89C152.181 128.52 152.451 128.19 152.801 127.9C153.151 127.61 153.561 127.33 154.031 127.06C153.821 126.82 153.616 126.57 153.416 126.31C153.216 126.05 153.051 125.77 152.921 125.47C152.791 125.16 152.726 124.825 152.726 124.465C152.726 123.975 152.836 123.555 153.056 123.205C153.276 122.855 153.591 122.59 154.001 122.41C154.421 122.22 154.916 122.125 155.486 122.125ZM154.826 127.885C154.466 128.095 154.156 128.31 153.896 128.53C153.646 128.74 153.451 128.975 153.311 129.235C153.171 129.495 153.101 129.805 153.101 130.165C153.101 130.715 153.286 131.155 153.656 131.485C154.026 131.815 154.521 131.98 155.141 131.98C155.781 131.98 156.331 131.875 156.791 131.665C157.251 131.455 157.636 131.205 157.946 130.915L154.826 127.885ZM155.441 123.205C155.021 123.205 154.676 123.315 154.406 123.535C154.146 123.755 154.016 124.06 154.016 124.45C154.016 124.81 154.111 125.145 154.301 125.455C154.491 125.755 154.766 126.09 155.126 126.46C155.716 126.12 156.136 125.8 156.386 125.5C156.646 125.19 156.776 124.835 156.776 124.435C156.776 124.075 156.656 123.78 156.416 123.55C156.176 123.32 155.851 123.205 155.441 123.205ZM165.869 129.835H167.114C167.279 131.56 168.689 132.145 170.279 132.145C171.809 132.145 172.934 131.41 172.934 130.12C172.934 129.22 172.439 128.635 170.984 128.365L168.944 127.96C167.504 127.69 166.214 127.03 166.214 125.185C166.214 123.43 167.729 122.11 169.949 122.11C172.244 122.11 173.759 123.1 173.969 125.035H172.724C172.544 123.835 171.494 123.145 169.964 123.145C168.404 123.145 167.474 124.015 167.474 125.14C167.474 126.205 168.074 126.58 169.379 126.835L171.479 127.27C173.129 127.6 174.179 128.365 174.179 130.06C174.179 131.89 172.559 133.18 170.294 133.18C167.969 133.18 166.019 132.175 165.869 129.835ZM175.817 129.235C175.817 126.82 177.272 125.275 179.372 125.275C181.052 125.275 182.162 126.235 182.402 127.84H181.217C181.007 126.835 180.392 126.28 179.372 126.28C177.887 126.28 177.047 127.465 177.047 129.235C177.047 131.005 177.887 132.175 179.372 132.175C180.392 132.175 181.007 131.62 181.217 130.615H182.402C182.162 132.235 181.052 133.18 179.372 133.18C177.272 133.18 175.817 131.65 175.817 129.235ZM184.368 123.88V122.365H185.778V123.88H184.368ZM184.458 133V125.455H185.703V133H184.458ZM194.564 130.78C194.219 132.385 192.914 133.18 191.444 133.18C189.314 133.18 187.814 131.695 187.814 129.265C187.814 126.805 189.359 125.275 191.369 125.275C193.604 125.275 194.609 127.06 194.609 128.995V129.49H189.029C189.089 131.23 190.004 132.19 191.444 132.19C192.464 132.19 193.079 131.695 193.394 130.78H194.564ZM191.369 126.28C190.184 126.28 189.284 127.045 189.074 128.59H193.394C193.364 127.285 192.719 126.28 191.369 126.28ZM197.919 125.455V126.835C198.279 125.905 199.224 125.275 200.379 125.275C202.074 125.275 203.079 126.34 203.079 128.14V133H201.834V128.41C201.834 127.015 201.219 126.295 200.034 126.295C198.879 126.295 197.964 127.03 197.964 128.845V133H196.719V125.455H197.919ZM205.114 129.235C205.114 126.82 206.569 125.275 208.669 125.275C210.349 125.275 211.459 126.235 211.699 127.84H210.514C210.304 126.835 209.689 126.28 208.669 126.28C207.184 126.28 206.344 127.465 206.344 129.235C206.344 131.005 207.184 132.175 208.669 132.175C209.689 132.175 210.304 131.62 210.514 130.615H211.699C211.459 132.235 210.349 133.18 208.669 133.18C206.569 133.18 205.114 131.65 205.114 129.235ZM219.95 130.78C219.605 132.385 218.3 133.18 216.83 133.18C214.7 133.18 213.2 131.695 213.2 129.265C213.2 126.805 214.745 125.275 216.755 125.275C218.99 125.275 219.995 127.06 219.995 128.995V129.49H214.415C214.475 131.23 215.39 132.19 216.83 132.19C217.85 132.19 218.465 131.695 218.78 130.78H219.95ZM216.755 126.28C215.57 126.28 214.67 127.045 214.46 128.59H218.78C218.75 127.285 218.105 126.28 216.755 126.28ZM233.066 133L231.881 130.015H226.751L225.566 133H224.276L228.611 122.29H230.066L234.416 133H233.066ZM229.301 123.58L227.171 128.95H231.461L229.346 123.58H229.301ZM235.407 129.235C235.407 126.82 236.862 125.275 238.962 125.275C240.642 125.275 241.752 126.235 241.992 127.84H240.807C240.597 126.835 239.982 126.28 238.962 126.28C237.477 126.28 236.637 127.465 236.637 129.235C236.637 131.005 237.477 132.175 238.962 132.175C239.982 132.175 240.597 131.62 240.807 130.615H241.992C241.752 132.235 240.642 133.18 238.962 133.18C236.862 133.18 235.407 131.65 235.407 129.235ZM247.558 131.89V132.91C247.003 133.075 246.568 133.12 246.238 133.12C244.858 133.12 244.153 132.46 244.153 131.065V126.4H243.043V125.455H244.153V123.535H245.383V125.455H247.363V126.4H245.368V131.005C245.368 131.8 245.773 132.07 246.463 132.07C246.748 132.07 247.078 132.04 247.558 131.89Z" fill="black"/>
<path d="M106.59 103V93.37H102.6V92.29H111.885V93.37H107.88V103H106.59ZM119.017 99.235C119.017 101.665 117.517 103.18 115.432 103.18C113.347 103.18 111.847 101.665 111.847 99.235C111.847 96.805 113.347 95.275 115.432 95.275C117.517 95.275 119.017 96.805 119.017 99.235ZM113.077 99.235C113.077 101.05 113.962 102.175 115.432 102.175C116.902 102.175 117.787 101.05 117.787 99.235C117.787 97.42 116.902 96.28 115.432 96.28C113.962 96.28 113.077 97.42 113.077 99.235ZM124.643 101.89V102.91C124.088 103.075 123.653 103.12 123.323 103.12C121.943 103.12 121.238 102.46 121.238 101.065V96.4H120.128V95.455H121.238V93.535H122.468V95.455H124.448V96.4H122.453V101.005C122.453 101.8 122.858 102.07 123.548 102.07C123.833 102.07 124.163 102.04 124.643 101.89ZM131.29 103C131.2 102.58 131.155 102.085 131.155 101.725C130.825 102.61 129.79 103.165 128.53 103.165C127.21 103.165 126.085 102.4 126.085 101.005C126.085 99.55 127.165 98.92 128.695 98.74L131.125 98.425V97.99C131.125 96.79 130.39 96.28 129.355 96.28C128.35 96.28 127.72 96.805 127.63 97.675H126.43C126.58 96.145 127.78 95.275 129.385 95.275C131.215 95.275 132.355 96.145 132.355 97.96V101.425C132.355 101.98 132.385 102.505 132.535 103H131.29ZM128.785 102.22C129.955 102.22 131.125 101.485 131.125 100.03V99.355L129.07 99.58C128.125 99.715 127.345 99.955 127.345 100.975C127.345 101.68 127.84 102.22 128.785 102.22ZM136.191 103H134.946V91.96H136.191V103Z" fill="black"/>
<path d="M103.395 165V154.29H104.685V165H103.395ZM108.637 157.455V158.835C108.997 157.905 109.942 157.275 111.097 157.275C112.792 157.275 113.797 158.34 113.797 160.14V165H112.552V160.41C112.552 159.015 111.937 158.295 110.752 158.295C109.597 158.295 108.682 159.03 108.682 160.845V165H107.437V157.455H108.637ZM116.582 158.4H115.487V157.455H116.582V156.045C116.582 154.635 117.482 153.915 118.772 153.915C119.042 153.915 119.387 153.945 119.612 153.99V154.98C119.417 154.95 119.117 154.935 118.847 154.935C118.307 154.935 117.812 155.205 117.812 156.06V157.455H119.432V158.4H117.812V165H116.582V158.4ZM125.23 157.35V158.49C125.05 158.445 124.78 158.43 124.585 158.43C123.385 158.43 122.29 159.375 122.29 161.28V165H121.045V157.455H122.245V159.24C122.575 157.995 123.535 157.29 124.645 157.29C124.84 157.29 125.05 157.305 125.23 157.35ZM131.436 165C131.346 164.58 131.301 164.085 131.301 163.725C130.971 164.61 129.936 165.165 128.676 165.165C127.356 165.165 126.231 164.4 126.231 163.005C126.231 161.55 127.311 160.92 128.841 160.74L131.271 160.425V159.99C131.271 158.79 130.536 158.28 129.501 158.28C128.496 158.28 127.866 158.805 127.776 159.675H126.576C126.726 158.145 127.926 157.275 129.531 157.275C131.361 157.275 132.501 158.145 132.501 159.96V163.425C132.501 163.98 132.531 164.505 132.681 165H131.436ZM128.931 164.22C130.101 164.22 131.271 163.485 131.271 162.03V161.355L129.216 161.58C128.271 161.715 127.491 161.955 127.491 162.975C127.491 163.68 127.986 164.22 128.931 164.22ZM134.448 162.765H135.648C135.738 163.8 136.698 164.235 137.718 164.235C138.753 164.235 139.503 163.755 139.503 162.945C139.503 162.39 139.143 162.03 138.183 161.85L136.848 161.58C135.633 161.355 134.748 160.86 134.748 159.54C134.748 158.265 135.888 157.275 137.553 157.275C139.293 157.275 140.358 158.025 140.508 159.45H139.353C139.263 158.685 138.588 158.235 137.553 158.235C136.548 158.235 135.903 158.73 135.903 159.465C135.903 160.11 136.353 160.38 137.223 160.545L138.723 160.83C139.953 161.07 140.673 161.67 140.673 162.885C140.673 164.205 139.428 165.18 137.733 165.18C135.933 165.18 134.583 164.385 134.448 162.765ZM146.337 163.89V164.91C145.782 165.075 145.347 165.12 145.017 165.12C143.637 165.12 142.932 164.46 142.932 163.065V158.4H141.822V157.455H142.932V155.535H144.162V157.455H146.142V158.4H144.147V163.005C144.147 163.8 144.552 164.07 145.242 164.07C145.527 164.07 145.857 164.04 146.337 163.89ZM152.52 157.35V158.49C152.34 158.445 152.07 158.43 151.875 158.43C150.675 158.43 149.58 159.375 149.58 161.28V165H148.335V157.455H149.535V159.24C149.865 157.995 150.825 157.29 151.935 157.29C152.13 157.29 152.34 157.305 152.52 157.35ZM160.316 165H159.101V163.635C158.741 164.58 157.841 165.18 156.701 165.18C154.991 165.18 154.031 164.145 154.031 162.315V157.455H155.291V162.075C155.291 163.47 155.876 164.205 157.061 164.205C158.201 164.205 159.056 163.425 159.056 161.61V157.455H160.316V165ZM162.428 161.235C162.428 158.82 163.883 157.275 165.983 157.275C167.663 157.275 168.773 158.235 169.013 159.84H167.828C167.618 158.835 167.003 158.28 165.983 158.28C164.498 158.28 163.658 159.465 163.658 161.235C163.658 163.005 164.498 164.175 165.983 164.175C167.003 164.175 167.618 163.62 167.828 162.615H169.013C168.773 164.235 167.663 165.18 165.983 165.18C163.883 165.18 162.428 163.65 162.428 161.235ZM174.579 163.89V164.91C174.024 165.075 173.589 165.12 173.259 165.12C171.879 165.12 171.174 164.46 171.174 163.065V158.4H170.064V157.455H171.174V155.535H172.404V157.455H174.384V158.4H172.389V163.005C172.389 163.8 172.794 164.07 173.484 164.07C173.769 164.07 174.099 164.04 174.579 163.89ZM182.816 165H181.601V163.635C181.241 164.58 180.341 165.18 179.201 165.18C177.491 165.18 176.531 164.145 176.531 162.315V157.455H177.791V162.075C177.791 163.47 178.376 164.205 179.561 164.205C180.701 164.205 181.556 163.425 181.556 161.61V157.455H182.816V165ZM189.668 157.35V158.49C189.488 158.445 189.218 158.43 189.023 158.43C187.823 158.43 186.728 159.375 186.728 161.28V165H185.483V157.455H186.683V159.24C187.013 157.995 187.973 157.29 189.083 157.29C189.278 157.29 189.488 157.305 189.668 157.35ZM197.303 162.78C196.958 164.385 195.653 165.18 194.183 165.18C192.053 165.18 190.553 163.695 190.553 161.265C190.553 158.805 192.098 157.275 194.108 157.275C196.343 157.275 197.348 159.06 197.348 160.995V161.49H191.768C191.828 163.23 192.743 164.19 194.183 164.19C195.203 164.19 195.818 163.695 196.133 162.78H197.303ZM194.108 158.28C192.923 158.28 192.023 159.045 191.813 160.59H196.133C196.103 159.285 195.458 158.28 194.108 158.28ZM103.395 184V173.29H104.685V184H103.395ZM108.637 176.455V177.835C108.997 176.905 109.942 176.275 111.097 176.275C112.792 176.275 113.797 177.34 113.797 179.14V184H112.552V179.41C112.552 178.015 111.937 177.295 110.752 177.295C109.597 177.295 108.682 178.03 108.682 179.845V184H107.437V176.455H108.637ZM118.326 184L115.311 176.455H116.586L119.016 182.77H119.046L121.371 176.455H122.616L119.721 184H118.326ZM130.331 181.78C129.986 183.385 128.681 184.18 127.211 184.18C125.081 184.18 123.581 182.695 123.581 180.265C123.581 177.805 125.126 176.275 127.136 176.275C129.371 176.275 130.376 178.06 130.376 179.995V180.49H124.796C124.856 182.23 125.771 183.19 127.211 183.19C128.231 183.19 128.846 182.695 129.161 181.78H130.331ZM127.136 177.28C125.951 177.28 125.051 178.045 124.841 179.59H129.161C129.131 178.285 128.486 177.28 127.136 177.28ZM131.914 181.765H133.114C133.204 182.8 134.164 183.235 135.184 183.235C136.219 183.235 136.969 182.755 136.969 181.945C136.969 181.39 136.609 181.03 135.649 180.85L134.314 180.58C133.099 180.355 132.214 179.86 132.214 178.54C132.214 177.265 133.354 176.275 135.019 176.275C136.759 176.275 137.824 177.025 137.974 178.45H136.819C136.729 177.685 136.054 177.235 135.019 177.235C134.014 177.235 133.369 177.73 133.369 178.465C133.369 179.11 133.819 179.38 134.689 179.545L136.189 179.83C137.419 180.07 138.139 180.67 138.139 181.885C138.139 183.205 136.894 184.18 135.199 184.18C133.399 184.18 132.049 183.385 131.914 181.765ZM143.803 182.89V183.91C143.248 184.075 142.813 184.12 142.483 184.12C141.103 184.12 140.398 183.46 140.398 182.065V177.4H139.288V176.455H140.398V174.535H141.628V176.455H143.608V177.4H141.613V182.005C141.613 182.8 142.018 183.07 142.708 183.07C142.993 183.07 143.323 183.04 143.803 182.89ZM151.681 177.895C152.146 176.875 153.106 176.275 154.216 176.275C155.956 176.275 156.811 177.37 156.811 179.14V184H155.551V179.41C155.551 178 155.041 177.295 153.916 177.295C152.791 177.295 151.936 178.105 151.936 179.845V184H150.676V179.41C150.676 178 150.181 177.295 149.041 177.295C147.901 177.295 147.046 178.105 147.046 179.845V184H145.801V176.455H147.001V177.835C147.361 176.875 148.291 176.275 149.386 176.275C150.661 176.275 151.351 176.89 151.681 177.895ZM165.59 181.78C165.245 183.385 163.94 184.18 162.47 184.18C160.34 184.18 158.84 182.695 158.84 180.265C158.84 177.805 160.385 176.275 162.395 176.275C164.63 176.275 165.635 178.06 165.635 179.995V180.49H160.055C160.115 182.23 161.03 183.19 162.47 183.19C163.49 183.19 164.105 182.695 164.42 181.78H165.59ZM162.395 177.28C161.21 177.28 160.31 178.045 160.1 179.59H164.42C164.39 178.285 163.745 177.28 162.395 177.28ZM168.944 176.455V177.835C169.304 176.905 170.249 176.275 171.404 176.275C173.099 176.275 174.104 177.34 174.104 179.14V184H172.859V179.41C172.859 178.015 172.244 177.295 171.059 177.295C169.904 177.295 168.989 178.03 168.989 179.845V184H167.744V176.455H168.944ZM180.204 182.89V183.91C179.649 184.075 179.214 184.12 178.884 184.12C177.504 184.12 176.799 183.46 176.799 182.065V177.4H175.689V176.455H176.799V174.535H178.029V176.455H180.009V177.4H178.014V182.005C178.014 182.8 178.419 183.07 179.109 183.07C179.394 183.07 179.724 183.04 180.204 182.89ZM188.708 173.125C189.248 173.125 189.708 173.22 190.088 173.41C190.478 173.59 190.778 173.85 190.988 174.19C191.198 174.53 191.303 174.945 191.303 175.435C191.303 176.065 191.098 176.6 190.688 177.04C190.288 177.48 189.778 177.88 189.158 178.24L192.053 181.03C192.313 180.72 192.523 180.365 192.683 179.965C192.853 179.555 192.993 179.115 193.103 178.645H194.438C194.278 179.285 194.078 179.88 193.838 180.43C193.598 180.98 193.288 181.46 192.908 181.87L195.098 184H193.313L192.008 182.74C191.768 182.95 191.518 183.145 191.258 183.325C191.008 183.495 190.733 183.64 190.433 183.76C190.133 183.88 189.808 183.975 189.458 184.045C189.118 184.115 188.738 184.15 188.318 184.15C187.628 184.15 187.028 184.04 186.518 183.82C186.018 183.59 185.628 183.255 185.348 182.815C185.078 182.375 184.943 181.84 184.943 181.21C184.943 180.7 185.033 180.26 185.213 179.89C185.403 179.52 185.673 179.19 186.023 178.9C186.373 178.61 186.783 178.33 187.253 178.06C187.043 177.82 186.838 177.57 186.638 177.31C186.438 177.05 186.273 176.77 186.143 176.47C186.013 176.16 185.948 175.825 185.948 175.465C185.948 174.975 186.058 174.555 186.278 174.205C186.498 173.855 186.813 173.59 187.223 173.41C187.643 173.22 188.138 173.125 188.708 173.125ZM188.048 178.885C187.688 179.095 187.378 179.31 187.118 179.53C186.868 179.74 186.673 179.975 186.533 180.235C186.393 180.495 186.323 180.805 186.323 181.165C186.323 181.715 186.508 182.155 186.878 182.485C187.248 182.815 187.743 182.98 188.363 182.98C189.003 182.98 189.553 182.875 190.013 182.665C190.473 182.455 190.858 182.205 191.168 181.915L188.048 178.885ZM188.663 174.205C188.243 174.205 187.898 174.315 187.628 174.535C187.368 174.755 187.238 175.06 187.238 175.45C187.238 175.81 187.333 176.145 187.523 176.455C187.713 176.755 187.988 177.09 188.348 177.46C188.938 177.12 189.358 176.8 189.608 176.5C189.868 176.19 189.998 175.835 189.998 175.435C189.998 175.075 189.878 174.78 189.638 174.55C189.398 174.32 189.073 174.205 188.663 174.205ZM204.402 180.22V173.29H205.692V180.205C205.692 182.62 204.342 184.18 202.077 184.18C200.142 184.18 198.627 183.025 198.567 180.91H199.812C199.887 182.425 200.832 183.16 202.077 183.16C203.697 183.16 204.402 182.005 204.402 180.22ZM214.877 180.235C214.877 182.665 213.377 184.18 211.292 184.18C209.207 184.18 207.707 182.665 207.707 180.235C207.707 177.805 209.207 176.275 211.292 176.275C213.377 176.275 214.877 177.805 214.877 180.235ZM208.937 180.235C208.937 182.05 209.822 183.175 211.292 183.175C212.762 183.175 213.647 182.05 213.647 180.235C213.647 178.42 212.762 177.28 211.292 177.28C209.822 177.28 208.937 178.42 208.937 180.235ZM218.192 182.68V184H216.992V172.96H218.237V177.79C218.582 177.025 219.437 176.275 220.742 176.275C222.662 176.275 224.102 177.835 224.102 180.235C224.102 182.62 222.662 184.18 220.742 184.18C219.497 184.18 218.567 183.445 218.192 182.68ZM218.177 180.115V180.325C218.177 182.035 219.017 183.205 220.487 183.205C221.972 183.205 222.842 181.99 222.842 180.235C222.842 178.465 221.972 177.25 220.487 177.25C219.017 177.25 218.177 178.405 218.177 180.115ZM225.576 181.765H226.776C226.866 182.8 227.826 183.235 228.846 183.235C229.881 183.235 230.631 182.755 230.631 181.945C230.631 181.39 230.271 181.03 229.311 180.85L227.976 180.58C226.761 180.355 225.876 179.86 225.876 178.54C225.876 177.265 227.016 176.275 228.681 176.275C230.421 176.275 231.486 177.025 231.636 178.45H230.481C230.391 177.685 229.716 177.235 228.681 177.235C227.676 177.235 227.031 177.73 227.031 178.465C227.031 179.11 227.481 179.38 228.351 179.545L229.851 179.83C231.081 180.07 231.801 180.67 231.801 181.885C231.801 183.205 230.556 184.18 228.861 184.18C227.061 184.18 225.711 183.385 225.576 181.765ZM244.917 184L243.732 181.015H238.602L237.417 184H236.127L240.462 173.29H241.917L246.267 184H244.917ZM241.152 174.58L239.022 179.95H243.312L241.197 174.58H241.152ZM247.258 180.235C247.258 177.82 248.713 176.275 250.813 176.275C252.493 176.275 253.603 177.235 253.843 178.84H252.658C252.448 177.835 251.833 177.28 250.813 177.28C249.328 177.28 248.488 178.465 248.488 180.235C248.488 182.005 249.328 183.175 250.813 183.175C251.833 183.175 252.448 182.62 252.658 181.615H253.843C253.603 183.235 252.493 184.18 250.813 184.18C248.713 184.18 247.258 182.65 247.258 180.235ZM259.408 182.89V183.91C258.853 184.075 258.418 184.12 258.088 184.12C256.708 184.12 256.003 183.46 256.003 182.065V177.4H254.893V176.455H256.003V174.535H257.233V176.455H259.213V177.4H257.218V182.005C257.218 182.8 257.623 183.07 258.313 183.07C258.598 183.07 258.928 183.04 259.408 182.89Z" fill="black"/>
<path d="M103.395 210V199.29H104.685V210H103.395ZM108.637 202.455V203.835C108.997 202.905 109.942 202.275 111.097 202.275C112.792 202.275 113.797 203.34 113.797 205.14V210H112.552V205.41C112.552 204.015 111.937 203.295 110.752 203.295C109.597 203.295 108.682 204.03 108.682 205.845V210H107.437V202.455H108.637ZM116.582 203.4H115.487V202.455H116.582V201.045C116.582 199.635 117.482 198.915 118.772 198.915C119.042 198.915 119.387 198.945 119.612 198.99V199.98C119.417 199.95 119.117 199.935 118.847 199.935C118.307 199.935 117.812 200.205 117.812 201.06V202.455H119.432V203.4H117.812V210H116.582V203.4ZM122.29 210H121.045V198.96H122.29V210ZM129.576 210C129.486 209.58 129.441 209.085 129.441 208.725C129.111 209.61 128.076 210.165 126.816 210.165C125.496 210.165 124.371 209.4 124.371 208.005C124.371 206.55 125.451 205.92 126.981 205.74L129.411 205.425V204.99C129.411 203.79 128.676 203.28 127.641 203.28C126.636 203.28 126.006 203.805 125.916 204.675H124.716C124.866 203.145 126.066 202.275 127.671 202.275C129.501 202.275 130.641 203.145 130.641 204.96V208.425C130.641 208.98 130.671 209.505 130.821 210H129.576ZM127.071 209.22C128.241 209.22 129.411 208.485 129.411 207.03V206.355L127.356 206.58C126.411 206.715 125.631 206.955 125.631 207.975C125.631 208.68 126.126 209.22 127.071 209.22ZM136.742 208.89V209.91C136.187 210.075 135.752 210.12 135.422 210.12C134.042 210.12 133.337 209.46 133.337 208.065V203.4H132.227V202.455H133.337V200.535H134.567V202.455H136.547V203.4H134.552V208.005C134.552 208.8 134.957 209.07 135.647 209.07C135.932 209.07 136.262 209.04 136.742 208.89ZM138.68 200.88V199.365H140.09V200.88H138.68ZM138.77 210V202.455H140.015V210H138.77ZM149.296 206.235C149.296 208.665 147.796 210.18 145.711 210.18C143.626 210.18 142.126 208.665 142.126 206.235C142.126 203.805 143.626 202.275 145.711 202.275C147.796 202.275 149.296 203.805 149.296 206.235ZM143.356 206.235C143.356 208.05 144.241 209.175 145.711 209.175C147.181 209.175 148.066 208.05 148.066 206.235C148.066 204.42 147.181 203.28 145.711 203.28C144.241 203.28 143.356 204.42 143.356 206.235ZM152.611 202.455V203.835C152.971 202.905 153.916 202.275 155.071 202.275C156.766 202.275 157.771 203.34 157.771 205.14V210H156.526V205.41C156.526 204.015 155.911 203.295 154.726 203.295C153.571 203.295 152.656 204.03 152.656 205.845V210H151.411V202.455H152.611ZM164.948 210H163.673V199.29H167.798C170.198 199.29 171.563 200.415 171.563 202.47C171.563 204.21 170.348 205.185 169.088 205.47L172.028 210H170.573L167.798 205.665H164.948V210ZM164.948 204.585H167.723C169.343 204.585 170.258 203.865 170.258 202.47C170.258 201.12 169.343 200.37 167.723 200.37H164.948V204.585ZM180.15 207.78C179.805 209.385 178.5 210.18 177.03 210.18C174.9 210.18 173.4 208.695 173.4 206.265C173.4 203.805 174.945 202.275 176.955 202.275C179.19 202.275 180.195 204.06 180.195 205.995V206.49H174.615C174.675 208.23 175.59 209.19 177.03 209.19C178.05 209.19 178.665 208.695 178.98 207.78H180.15ZM176.955 203.28C175.77 203.28 174.87 204.045 174.66 205.59H178.98C178.95 204.285 178.305 203.28 176.955 203.28ZM187.674 210V208.68C187.299 209.445 186.369 210.18 185.124 210.18C183.204 210.18 181.764 208.62 181.764 206.235C181.764 203.835 183.204 202.275 185.124 202.275C186.429 202.275 187.284 203.025 187.629 203.79V198.96H188.874V210H187.674ZM187.689 206.325V206.115C187.689 204.405 186.849 203.25 185.379 203.25C183.894 203.25 183.024 204.465 183.024 206.235C183.024 207.99 183.894 209.205 185.379 209.205C186.849 209.205 187.689 208.035 187.689 206.325ZM197.758 210H196.543V208.635C196.183 209.58 195.283 210.18 194.143 210.18C192.433 210.18 191.473 209.145 191.473 207.315V202.455H192.733V207.075C192.733 208.47 193.318 209.205 194.503 209.205C195.643 209.205 196.498 208.425 196.498 206.61V202.455H197.758V210ZM199.87 206.235C199.87 203.82 201.325 202.275 203.425 202.275C205.105 202.275 206.215 203.235 206.455 204.84H205.27C205.06 203.835 204.445 203.28 203.425 203.28C201.94 203.28 201.1 204.465 201.1 206.235C201.1 208.005 201.94 209.175 203.425 209.175C204.445 209.175 205.06 208.62 205.27 207.615H206.455C206.215 209.235 205.105 210.18 203.425 210.18C201.325 210.18 199.87 208.65 199.87 206.235ZM212.021 208.89V209.91C211.466 210.075 211.031 210.12 210.701 210.12C209.321 210.12 208.616 209.46 208.616 208.065V203.4H207.506V202.455H208.616V200.535H209.846V202.455H211.826V203.4H209.831V208.005C209.831 208.8 210.236 209.07 210.926 209.07C211.211 209.07 211.541 209.04 212.021 208.89ZM213.958 200.88V199.365H215.368V200.88H213.958ZM214.048 210V202.455H215.293V210H214.048ZM224.574 206.235C224.574 208.665 223.074 210.18 220.989 210.18C218.904 210.18 217.404 208.665 217.404 206.235C217.404 203.805 218.904 202.275 220.989 202.275C223.074 202.275 224.574 203.805 224.574 206.235ZM218.634 206.235C218.634 208.05 219.519 209.175 220.989 209.175C222.459 209.175 223.344 208.05 223.344 206.235C223.344 204.42 222.459 203.28 220.989 203.28C219.519 203.28 218.634 204.42 218.634 206.235ZM227.889 202.455V203.835C228.249 202.905 229.194 202.275 230.349 202.275C232.044 202.275 233.049 203.34 233.049 205.14V210H231.804V205.41C231.804 204.015 231.189 203.295 230.004 203.295C228.849 203.295 227.934 204.03 227.934 205.845V210H226.689V202.455H227.889ZM246.602 210L245.417 207.015H240.287L239.102 210H237.812L242.147 199.29H243.602L247.952 210H246.602ZM242.837 200.58L240.707 205.95H244.997L242.882 200.58H242.837ZM248.942 206.235C248.942 203.82 250.397 202.275 252.497 202.275C254.177 202.275 255.287 203.235 255.527 204.84H254.342C254.132 203.835 253.517 203.28 252.497 203.28C251.012 203.28 250.172 204.465 250.172 206.235C250.172 208.005 251.012 209.175 252.497 209.175C253.517 209.175 254.132 208.62 254.342 207.615H255.527C255.287 209.235 254.177 210.18 252.497 210.18C250.397 210.18 248.942 208.65 248.942 206.235ZM261.093 208.89V209.91C260.538 210.075 260.103 210.12 259.773 210.12C258.393 210.12 257.688 209.46 257.688 208.065V203.4H256.578V202.455H257.688V200.535H258.918V202.455H260.898V203.4H258.903V208.005C258.903 208.8 259.308 209.07 259.998 209.07C260.283 209.07 260.613 209.04 261.093 208.89Z" fill="black"/>
<rect x="73" y="88" width="19" height="19" fill="#BEB4CD"/>
<rect x="73" y="88" width="19" height="19" fill="#BEB4CD"/>
<rect x="73" y="118" width="19" height="19" fill="#EEE9C1"/>
<rect x="73" y="150" width="19" height="19" fill="#9ABC95"/>
<rect x="73" y="195" width="19" height="19" fill="#C6988A"/>
<rect width="62" height="80" transform="matrix(1 0 0 -1 293 302)" fill="#9ABC95"/>
<rect x="293" y="191" width="62" height="31" fill="#EEE9C1"/>
<rect x="185" y="376" width="62" height="92" fill="#BEB4CD"/>
<rect x="185" y="376" width="62" height="92" fill="#BEB4CD"/>
</svg>
