<svg width="1254" height="951" viewBox="0 0 1254 951" fill="none" xmlns="http://www.w3.org/2000/svg">
<rect width="1254" height="951" fill="white"/>
<rect x="139" y="164" width="1056" height="713" fill="#E7E7E7" fill-opacity="0.5"/>
<path d="M142 164V877H1197" stroke="black" stroke-width="3"/>
<path d="M137 719.5L810 417L918 346L1066.5 273.5L1197 235.5" stroke="#EEE9C1" stroke-width="5"/>
<path d="M265.56 593H263.86V578.72H269.36C272.56 578.72 274.38 580.22 274.38 582.96C274.38 585.28 272.76 586.58 271.08 586.96L275 593H273.06L269.36 587.22H265.56V593ZM265.56 585.78H269.26C271.42 585.78 272.64 584.82 272.64 582.96C272.64 581.16 271.42 580.16 269.26 580.16H265.56V585.78ZM285.849 593H284.229V591.18C283.749 592.44 282.549 593.24 281.029 593.24C278.749 593.24 277.469 591.86 277.469 589.42V582.94H279.149V589.1C279.149 590.96 279.929 591.94 281.509 591.94C283.029 591.94 284.169 590.9 284.169 588.48V582.94H285.849V593ZM291.005 582.94V584.78C291.485 583.54 292.745 582.7 294.285 582.7C296.545 582.7 297.885 584.12 297.885 586.52V593H296.225V586.88C296.225 585.02 295.405 584.06 293.825 584.06C292.285 584.06 291.065 585.04 291.065 587.46V593H289.405V582.94H291.005ZM302.939 582.94V584.78C303.419 583.54 304.679 582.7 306.219 582.7C308.479 582.7 309.819 584.12 309.819 586.52V593H308.159V586.88C308.159 585.02 307.339 584.06 305.759 584.06C304.219 584.06 302.999 585.04 302.999 587.46V593H301.339V582.94H302.939ZM313.152 580.84V578.82H315.032V580.84H313.152ZM313.272 593V582.94H314.932V593H313.272ZM320.087 582.94V584.78C320.567 583.54 321.827 582.7 323.367 582.7C325.627 582.7 326.967 584.12 326.967 586.52V593H325.307V586.88C325.307 585.02 324.487 584.06 322.907 584.06C321.367 584.06 320.147 585.04 320.147 587.46V593H318.487V582.94H320.087ZM337.461 592.36V590.88C337.001 591.86 335.881 592.82 334.121 592.82C331.541 592.82 329.661 590.88 329.661 587.74C329.661 584.72 331.541 582.7 334.121 582.7C335.881 582.7 337.041 583.74 337.521 584.7V582.94H339.141V592.24C339.141 595.44 337.061 596.8 334.381 596.8C331.961 596.8 330.321 595.82 329.921 593.86H331.601C331.941 595.12 333.001 595.52 334.361 595.52C336.341 595.52 337.461 594.46 337.461 592.36ZM337.581 587.98V587.5C337.581 585.42 336.281 584 334.421 584C332.461 584 331.301 585.5 331.301 587.74C331.301 589.96 332.461 591.5 334.421 591.5C336.281 591.5 337.581 590.06 337.581 587.98ZM358.222 593L355.002 581H354.962L351.722 593H349.782L345.762 578.72H347.582L350.862 590.86H350.902L354.122 578.72H355.942L359.182 590.86H359.222L362.482 578.72H364.202L360.182 593H358.222ZM371.991 593C371.871 592.44 371.811 591.78 371.811 591.3C371.371 592.48 369.991 593.22 368.311 593.22C366.551 593.22 365.051 592.2 365.051 590.34C365.051 588.4 366.491 587.56 368.531 587.32L371.771 586.9V586.32C371.771 584.72 370.791 584.04 369.411 584.04C368.071 584.04 367.231 584.74 367.111 585.9H365.511C365.711 583.86 367.311 582.7 369.451 582.7C371.891 582.7 373.411 583.86 373.411 586.28V590.9C373.411 591.64 373.451 592.34 373.651 593H371.991ZM368.651 591.96C370.211 591.96 371.771 590.98 371.771 589.04V588.14L369.031 588.44C367.771 588.62 366.731 588.94 366.731 590.3C366.731 591.24 367.391 591.96 368.651 591.96ZM381.546 591.52V592.88C380.806 593.1 380.226 593.16 379.786 593.16C377.946 593.16 377.006 592.28 377.006 590.42V584.2H375.526V582.94H377.006V580.38H378.646V582.94H381.286V584.2H378.626V590.34C378.626 591.4 379.166 591.76 380.086 591.76C380.466 591.76 380.906 591.72 381.546 591.52ZM392.392 590.04C391.932 592.18 390.192 593.24 388.232 593.24C385.392 593.24 383.392 591.26 383.392 588.02C383.392 584.74 385.452 582.7 388.132 582.7C391.112 582.7 392.452 585.08 392.452 587.66V588.32H385.012C385.092 590.64 386.312 591.92 388.232 591.92C389.592 591.92 390.412 591.26 390.832 590.04H392.392ZM388.132 584.04C386.552 584.04 385.352 585.06 385.072 587.12H390.832C390.792 585.38 389.932 584.04 388.132 584.04ZM400.844 582.8V584.32C400.604 584.26 400.244 584.24 399.984 584.24C398.384 584.24 396.924 585.5 396.924 588.04V593H395.264V582.94H396.864V585.32C397.304 583.66 398.584 582.72 400.064 582.72C400.324 582.72 400.604 582.74 400.844 582.8Z" fill="black"/>
<path d="M580.52 365H570.86V350.72H580.5V352.16H572.56V357.14H579.62V358.6H572.56V363.56H580.52V365ZM585.272 365H583.612V350.28H585.272V365ZM597.087 362.04C596.627 364.18 594.887 365.24 592.927 365.24C590.087 365.24 588.087 363.26 588.087 360.02C588.087 356.74 590.147 354.7 592.827 354.7C595.807 354.7 597.147 357.08 597.147 359.66V360.32H589.707C589.787 362.64 591.007 363.92 592.927 363.92C594.287 363.92 595.107 363.26 595.527 362.04H597.087ZM592.827 356.04C591.247 356.04 590.047 357.06 589.767 359.12H595.527C595.487 357.38 594.627 356.04 592.827 356.04ZM599.239 359.98C599.239 356.76 601.179 354.7 603.979 354.7C606.219 354.7 607.699 355.98 608.019 358.12H606.439C606.159 356.78 605.339 356.04 603.979 356.04C601.999 356.04 600.879 357.62 600.879 359.98C600.879 362.34 601.999 363.9 603.979 363.9C605.339 363.9 606.159 363.16 606.439 361.82H608.019C607.699 363.98 606.219 365.24 603.979 365.24C601.179 365.24 599.239 363.2 599.239 359.98ZM615.44 363.52V364.88C614.7 365.1 614.12 365.16 613.68 365.16C611.84 365.16 610.9 364.28 610.9 362.42V356.2H609.42V354.94H610.9V352.38H612.54V354.94H615.18V356.2H612.52V362.34C612.52 363.4 613.06 363.76 613.98 363.76C614.36 363.76 614.8 363.72 615.44 363.52ZM623.684 354.8V356.32C623.444 356.26 623.084 356.24 622.824 356.24C621.224 356.24 619.764 357.5 619.764 360.04V365H618.104V354.94H619.704V357.32C620.144 355.66 621.424 354.72 622.904 354.72C623.164 354.72 623.444 354.74 623.684 354.8ZM625.68 352.84V350.82H627.56V352.84H625.68ZM625.8 365V354.94H627.46V365H625.8ZM630.274 359.98C630.274 356.76 632.214 354.7 635.014 354.7C637.254 354.7 638.734 355.98 639.054 358.12H637.474C637.194 356.78 636.374 356.04 635.014 356.04C633.034 356.04 631.914 357.62 631.914 359.98C631.914 362.34 633.034 363.9 635.014 363.9C636.374 363.9 637.194 363.16 637.474 361.82H639.054C638.734 363.98 637.254 365.24 635.014 365.24C632.214 365.24 630.274 363.2 630.274 359.98ZM641.676 352.84V350.82H643.556V352.84H641.676ZM641.796 365V354.94H643.456V365H641.796ZM651.69 363.52V364.88C650.95 365.1 650.37 365.16 649.93 365.16C648.09 365.16 647.15 364.28 647.15 362.42V356.2H645.67V354.94H647.15V352.38H648.79V354.94H651.43V356.2H648.77V362.34C648.77 363.4 649.31 363.76 650.23 363.76C650.61 363.76 651.05 363.72 651.69 363.52ZM657.213 365.08L653.173 354.94H654.913L658.113 363.16H658.153L661.173 354.94H662.893L658.833 365.3C657.913 367.7 657.113 368.7 655.273 368.72C654.993 368.72 654.613 368.68 654.293 368.62V367.26C654.613 367.34 654.833 367.34 655.093 367.34C656.093 367.34 656.553 366.78 657.213 365.08ZM675.729 365C675.609 364.44 675.549 363.78 675.549 363.3C675.109 364.48 673.729 365.22 672.049 365.22C670.289 365.22 668.789 364.2 668.789 362.34C668.789 360.4 670.229 359.56 672.269 359.32L675.509 358.9V358.32C675.509 356.72 674.529 356.04 673.149 356.04C671.809 356.04 670.969 356.74 670.849 357.9H669.249C669.449 355.86 671.049 354.7 673.189 354.7C675.629 354.7 677.149 355.86 677.149 358.28V362.9C677.149 363.64 677.189 364.34 677.389 365H675.729ZM672.389 363.96C673.949 363.96 675.509 362.98 675.509 361.04V360.14L672.769 360.44C671.509 360.62 670.469 360.94 670.469 362.3C670.469 363.24 671.129 363.96 672.389 363.96ZM679.744 362.02H681.344C681.464 363.4 682.744 363.98 684.104 363.98C685.484 363.98 686.484 363.34 686.484 362.26C686.484 361.52 686.004 361.04 684.724 360.8L682.944 360.44C681.324 360.14 680.144 359.48 680.144 357.72C680.144 356.02 681.664 354.7 683.884 354.7C686.204 354.7 687.624 355.7 687.824 357.6H686.284C686.164 356.58 685.264 355.98 683.884 355.98C682.544 355.98 681.684 356.64 681.684 357.62C681.684 358.48 682.284 358.84 683.444 359.06L685.444 359.44C687.084 359.76 688.044 360.56 688.044 362.18C688.044 363.94 686.384 365.24 684.124 365.24C681.724 365.24 679.924 364.18 679.744 362.02ZM572.44 388.24V393.56H570.78V379.94H572.38V381.78C572.84 380.76 574.04 379.7 575.78 379.7C578.34 379.7 580.26 381.78 580.26 384.98C580.26 388.16 578.34 390.24 575.78 390.24C574.12 390.24 572.94 389.26 572.44 388.24ZM572.36 384.82V385.1C572.36 387.38 573.48 388.94 575.44 388.94C577.42 388.94 578.58 387.32 578.58 384.98C578.58 382.62 577.42 381 575.44 381C573.48 381 572.36 382.54 572.36 384.82ZM588.665 379.8V381.32C588.425 381.26 588.065 381.24 587.805 381.24C586.205 381.24 584.745 382.5 584.745 385.04V390H583.085V379.94H584.685V382.32C585.125 380.66 586.405 379.72 587.885 379.72C588.145 379.72 588.425 379.74 588.665 379.8ZM590.66 377.84V375.82H592.54V377.84H590.66ZM590.78 390V379.94H592.44V390H590.78ZM603.835 381.86C604.455 380.5 605.735 379.7 607.215 379.7C609.535 379.7 610.675 381.16 610.675 383.52V390H608.995V383.88C608.995 382 608.315 381.06 606.815 381.06C605.315 381.06 604.175 382.14 604.175 384.46V390H602.495V383.88C602.495 382 601.835 381.06 600.315 381.06C598.795 381.06 597.655 382.14 597.655 384.46V390H595.995V379.94H597.595V381.78C598.075 380.5 599.315 379.7 600.775 379.7C602.475 379.7 603.395 380.52 603.835 381.86ZM620.28 390C620.16 389.44 620.1 388.78 620.1 388.3C619.66 389.48 618.28 390.22 616.6 390.22C614.84 390.22 613.34 389.2 613.34 387.34C613.34 385.4 614.78 384.56 616.82 384.32L620.06 383.9V383.32C620.06 381.72 619.08 381.04 617.7 381.04C616.36 381.04 615.52 381.74 615.4 382.9H613.8C614 380.86 615.6 379.7 617.74 379.7C620.18 379.7 621.7 380.86 621.7 383.28V387.9C621.7 388.64 621.74 389.34 621.94 390H620.28ZM616.94 388.96C618.5 388.96 620.06 387.98 620.06 386.04V385.14L617.32 385.44C616.06 385.62 615.02 385.94 615.02 387.3C615.02 388.24 615.68 388.96 616.94 388.96ZM630.735 379.8V381.32C630.495 381.26 630.135 381.24 629.875 381.24C628.275 381.24 626.815 382.5 626.815 385.04V390H625.155V379.94H626.755V382.32C627.195 380.66 628.475 379.72 629.955 379.72C630.215 379.72 630.495 379.74 630.735 379.8ZM636.12 390.08L632.08 379.94H633.82L637.02 388.16H637.06L640.08 379.94H641.8L637.74 390.3C636.82 392.7 636.02 393.7 634.18 393.72C633.9 393.72 633.52 393.68 633.2 393.62V392.26C633.52 392.34 633.74 392.34 634 392.34C635 392.34 635.46 391.78 636.12 390.08ZM650.135 390H648.475V375.28H650.135V390ZM653.57 377.84V375.82H655.45V377.84H653.57ZM653.69 390V379.94H655.35V390H653.69ZM665.945 389.36V387.88C665.485 388.86 664.365 389.82 662.605 389.82C660.025 389.82 658.145 387.88 658.145 384.74C658.145 381.72 660.025 379.7 662.605 379.7C664.365 379.7 665.525 380.74 666.005 381.7V379.94H667.625V389.24C667.625 392.44 665.545 393.8 662.865 393.8C660.445 393.8 658.805 392.82 658.405 390.86H660.085C660.425 392.12 661.485 392.52 662.845 392.52C664.825 392.52 665.945 391.46 665.945 389.36ZM666.065 384.98V384.5C666.065 382.42 664.765 381 662.905 381C660.945 381 659.785 382.5 659.785 384.74C659.785 386.96 660.945 388.5 662.905 388.5C664.765 388.5 666.065 387.06 666.065 384.98ZM672.85 381.78C673.33 380.5 674.53 379.7 676.07 379.7C678.33 379.7 679.67 381.12 679.67 383.52V390H678.01V383.88C678.01 382.02 677.19 381.06 675.61 381.06C674.07 381.06 672.85 382.04 672.85 384.46V390H671.19V375.28H672.85V381.78ZM687.804 388.52V389.88C687.064 390.1 686.484 390.16 686.044 390.16C684.204 390.16 683.264 389.28 683.264 387.42V381.2H681.784V379.94H683.264V377.38H684.904V379.94H687.544V381.2H684.884V387.34C684.884 388.4 685.424 388.76 686.344 388.76C686.724 388.76 687.164 388.72 687.804 388.52ZM690.387 377.84V375.82H692.267V377.84H690.387ZM690.507 390V379.94H692.167V390H690.507ZM697.321 379.94V381.78C697.801 380.54 699.061 379.7 700.601 379.7C702.861 379.7 704.201 381.12 704.201 383.52V390H702.541V383.88C702.541 382.02 701.721 381.06 700.141 381.06C698.601 381.06 697.381 382.04 697.381 384.46V390H695.721V379.94H697.321ZM714.695 389.36V387.88C714.235 388.86 713.115 389.82 711.355 389.82C708.775 389.82 706.895 387.88 706.895 384.74C706.895 381.72 708.775 379.7 711.355 379.7C713.115 379.7 714.275 380.74 714.755 381.7V379.94H716.375V389.24C716.375 392.44 714.295 393.8 711.615 393.8C709.195 393.8 707.555 392.82 707.155 390.86H708.835C709.175 392.12 710.235 392.52 711.595 392.52C713.575 392.52 714.695 391.46 714.695 389.36ZM714.815 384.98V384.5C714.815 382.42 713.515 381 711.655 381C709.695 381 708.535 382.5 708.535 384.74C708.535 386.96 709.695 388.5 711.655 388.5C713.515 388.5 714.815 387.06 714.815 384.98Z" fill="black"/>
<path d="M976.86 389V374.72H978.58V389H976.86ZM983.849 378.94V380.78C984.329 379.54 985.589 378.7 987.129 378.7C989.389 378.7 990.729 380.12 990.729 382.52V389H989.069V382.88C989.069 381.02 988.249 380.06 986.669 380.06C985.129 380.06 983.909 381.04 983.909 383.46V389H982.249V378.94H983.849ZM1001.32 389V387.24C1000.82 388.26 999.582 389.24 997.922 389.24C995.362 389.24 993.442 387.16 993.442 383.98C993.442 380.78 995.362 378.7 997.922 378.7C999.662 378.7 1000.8 379.7 1001.26 380.72V374.28H1002.92V389H1001.32ZM1001.34 384.1V383.82C1001.34 381.54 1000.22 380 998.262 380C996.282 380 995.122 381.62 995.122 383.98C995.122 386.32 996.282 387.94 998.262 387.94C1000.22 387.94 1001.34 386.38 1001.34 384.1ZM1015.31 383.98C1015.31 387.22 1013.31 389.24 1010.53 389.24C1007.75 389.24 1005.75 387.22 1005.75 383.98C1005.75 380.74 1007.75 378.7 1010.53 378.7C1013.31 378.7 1015.31 380.74 1015.31 383.98ZM1007.39 383.98C1007.39 386.4 1008.57 387.9 1010.53 387.9C1012.49 387.9 1013.67 386.4 1013.67 383.98C1013.67 381.56 1012.49 380.04 1010.53 380.04C1008.57 380.04 1007.39 381.56 1007.39 383.98ZM1026.97 383.98C1026.97 387.22 1024.97 389.24 1022.19 389.24C1019.41 389.24 1017.41 387.22 1017.41 383.98C1017.41 380.74 1019.41 378.7 1022.19 378.7C1024.97 378.7 1026.97 380.74 1026.97 383.98ZM1019.05 383.98C1019.05 386.4 1020.23 387.9 1022.19 387.9C1024.15 387.9 1025.33 386.4 1025.33 383.98C1025.33 381.56 1024.15 380.04 1022.19 380.04C1020.23 380.04 1019.05 381.56 1019.05 383.98ZM1035.37 378.8V380.32C1035.13 380.26 1034.77 380.24 1034.51 380.24C1032.91 380.24 1031.45 381.5 1031.45 384.04V389H1029.79V378.94H1031.39V381.32C1031.83 379.66 1033.11 378.72 1034.59 378.72C1034.85 378.72 1035.13 378.74 1035.37 378.8ZM1042.08 380.2H1040.62V378.94H1042.08V377.06C1042.08 375.18 1043.28 374.22 1045 374.22C1045.36 374.22 1045.82 374.26 1046.12 374.32V375.64C1045.86 375.6 1045.46 375.58 1045.1 375.58C1044.38 375.58 1043.72 375.94 1043.72 377.08V378.94H1045.88V380.2H1043.72V389H1042.08V380.2ZM1049.69 389H1048.03V374.28H1049.69V389ZM1061.52 389H1059.9V387.18C1059.42 388.44 1058.22 389.24 1056.7 389.24C1054.42 389.24 1053.14 387.86 1053.14 385.42V378.94H1054.82V385.1C1054.82 386.96 1055.6 387.94 1057.18 387.94C1058.7 387.94 1059.84 386.9 1059.84 384.48V378.94H1061.52V389ZM1064.22 386.02H1065.82C1065.94 387.4 1067.22 387.98 1068.58 387.98C1069.96 387.98 1070.96 387.34 1070.96 386.26C1070.96 385.52 1070.48 385.04 1069.2 384.8L1067.42 384.44C1065.8 384.14 1064.62 383.48 1064.62 381.72C1064.62 380.02 1066.14 378.7 1068.36 378.7C1070.68 378.7 1072.1 379.7 1072.3 381.6H1070.76C1070.64 380.58 1069.74 379.98 1068.36 379.98C1067.02 379.98 1066.16 380.64 1066.16 381.62C1066.16 382.48 1066.76 382.84 1067.92 383.06L1069.92 383.44C1071.56 383.76 1072.52 384.56 1072.52 386.18C1072.52 387.94 1070.86 389.24 1068.6 389.24C1066.2 389.24 1064.4 388.18 1064.22 386.02ZM1077.05 380.78C1077.53 379.5 1078.73 378.7 1080.27 378.7C1082.53 378.7 1083.87 380.12 1083.87 382.52V389H1082.21V382.88C1082.21 381.02 1081.39 380.06 1079.81 380.06C1078.27 380.06 1077.05 381.04 1077.05 383.46V389H1075.39V374.28H1077.05V380.78ZM1096.34 387.52V388.88C1095.6 389.1 1095.02 389.16 1094.58 389.16C1092.74 389.16 1091.8 388.28 1091.8 386.42V380.2H1090.32V378.94H1091.8V376.38H1093.44V378.94H1096.08V380.2H1093.42V386.34C1093.42 387.4 1093.96 387.76 1094.88 387.76C1095.26 387.76 1095.7 387.72 1096.34 387.52ZM1107.75 383.98C1107.75 387.22 1105.75 389.24 1102.97 389.24C1100.19 389.24 1098.19 387.22 1098.19 383.98C1098.19 380.74 1100.19 378.7 1102.97 378.7C1105.75 378.7 1107.75 380.74 1107.75 383.98ZM1099.83 383.98C1099.83 386.4 1101.01 387.9 1102.97 387.9C1104.93 387.9 1106.11 386.4 1106.11 383.98C1106.11 381.56 1104.93 380.04 1102.97 380.04C1101.01 380.04 1099.83 381.56 1099.83 383.98ZM1110.45 376.84V374.82H1112.33V376.84H1110.45ZM1110.57 389V378.94H1112.23V389H1110.57ZM1117.44 389H1115.78V374.28H1117.44V389ZM1129.26 386.04C1128.8 388.18 1127.06 389.24 1125.1 389.24C1122.26 389.24 1120.26 387.26 1120.26 384.02C1120.26 380.74 1122.32 378.7 1125 378.7C1127.98 378.7 1129.32 381.08 1129.32 383.66V384.32H1121.88C1121.96 386.64 1123.18 387.92 1125.1 387.92C1126.46 387.92 1127.28 387.26 1127.7 386.04H1129.26ZM1125 380.04C1123.42 380.04 1122.22 381.06 1121.94 383.12H1127.7C1127.66 381.38 1126.8 380.04 1125 380.04ZM1136.81 387.52V388.88C1136.07 389.1 1135.49 389.16 1135.05 389.16C1133.21 389.16 1132.27 388.28 1132.27 386.42V380.2H1130.79V378.94H1132.27V376.38H1133.91V378.94H1136.55V380.2H1133.89V386.34C1133.89 387.4 1134.43 387.76 1135.35 387.76C1135.73 387.76 1136.17 387.72 1136.81 387.52Z" fill="black"/>
<path d="M875.76 592.84C875.76 596.4 877.46 598.78 880.4 598.78C882.8 598.78 883.84 597.44 884.16 595.84H885.84C885.38 598.44 883.52 600.24 880.4 600.24C876.72 600.24 874 597.34 874 592.84C874 588.36 876.72 585.48 880.4 585.48C883.52 585.48 885.38 587.28 885.84 589.88H884.16C883.84 588.28 882.8 586.94 880.4 586.94C877.46 586.94 875.76 589.28 875.76 592.84ZM896.751 597.04C896.291 599.18 894.551 600.24 892.591 600.24C889.751 600.24 887.751 598.26 887.751 595.02C887.751 591.74 889.811 589.7 892.491 589.7C895.471 589.7 896.811 592.08 896.811 594.66V595.32H889.371C889.451 597.64 890.671 598.92 892.591 598.92C893.951 598.92 894.771 598.26 895.191 597.04H896.751ZM892.491 591.04C890.911 591.04 889.711 592.06 889.431 594.12H895.191C895.151 592.38 894.291 591.04 892.491 591.04ZM901.224 589.94V591.78C901.704 590.54 902.964 589.7 904.504 589.7C906.764 589.7 908.104 591.12 908.104 593.52V600H906.444V593.88C906.444 592.02 905.624 591.06 904.044 591.06C902.504 591.06 901.284 592.04 901.284 594.46V600H899.624V589.94H901.224ZM916.237 598.52V599.88C915.497 600.1 914.917 600.16 914.477 600.16C912.637 600.16 911.697 599.28 911.697 597.42V591.2H910.217V589.94H911.697V587.38H913.337V589.94H915.977V591.2H913.317V597.34C913.317 598.4 913.857 598.76 914.777 598.76C915.157 598.76 915.597 598.72 916.237 598.52ZM924.481 589.8V591.32C924.241 591.26 923.881 591.24 923.621 591.24C922.021 591.24 920.561 592.5 920.561 595.04V600H918.901V589.94H920.501V592.32C920.941 590.66 922.221 589.72 923.701 589.72C923.961 589.72 924.241 589.74 924.481 589.8ZM932.756 600C932.636 599.44 932.576 598.78 932.576 598.3C932.136 599.48 930.756 600.22 929.076 600.22C927.316 600.22 925.816 599.2 925.816 597.34C925.816 595.4 927.256 594.56 929.296 594.32L932.536 593.9V593.32C932.536 591.72 931.556 591.04 930.176 591.04C928.836 591.04 927.996 591.74 927.876 592.9H926.276C926.476 590.86 928.076 589.7 930.216 589.7C932.656 589.7 934.176 590.86 934.176 593.28V597.9C934.176 598.64 934.216 599.34 934.416 600H932.756ZM929.416 598.96C930.976 598.96 932.536 597.98 932.536 596.04V595.14L929.796 595.44C928.536 595.62 927.496 595.94 927.496 597.3C927.496 598.24 928.156 598.96 929.416 598.96ZM939.292 600H937.632V585.28H939.292V600ZM948.842 591.78C949.322 590.5 950.522 589.7 952.062 589.7C954.322 589.7 955.662 591.12 955.662 593.52V600H954.002V593.88C954.002 592.02 953.182 591.06 951.602 591.06C950.062 591.06 948.842 592.04 948.842 594.46V600H947.182V585.28H948.842V591.78ZM967.376 597.04C966.916 599.18 965.176 600.24 963.216 600.24C960.376 600.24 958.376 598.26 958.376 595.02C958.376 591.74 960.436 589.7 963.116 589.7C966.096 589.7 967.436 592.08 967.436 594.66V595.32H959.996C960.076 597.64 961.296 598.92 963.216 598.92C964.576 598.92 965.396 598.26 965.816 597.04H967.376ZM963.116 591.04C961.536 591.04 960.336 592.06 960.056 594.12H965.816C965.776 592.38 964.916 591.04 963.116 591.04ZM976.624 600C976.504 599.44 976.444 598.78 976.444 598.3C976.004 599.48 974.624 600.22 972.944 600.22C971.184 600.22 969.684 599.2 969.684 597.34C969.684 595.4 971.124 594.56 973.164 594.32L976.404 593.9V593.32C976.404 591.72 975.424 591.04 974.044 591.04C972.704 591.04 971.864 591.74 971.744 592.9H970.144C970.344 590.86 971.944 589.7 974.084 589.7C976.524 589.7 978.044 590.86 978.044 593.28V597.9C978.044 598.64 978.084 599.34 978.284 600H976.624ZM973.284 598.96C974.844 598.96 976.404 597.98 976.404 596.04V595.14L973.664 595.44C972.404 595.62 971.364 595.94 971.364 597.3C971.364 598.24 972.024 598.96 973.284 598.96ZM986.179 598.52V599.88C985.439 600.1 984.859 600.16 984.419 600.16C982.579 600.16 981.639 599.28 981.639 597.42V591.2H980.159V589.94H981.639V587.38H983.279V589.94H985.919V591.2H983.259V597.34C983.259 598.4 983.799 598.76 984.719 598.76C985.099 598.76 985.539 598.72 986.179 598.52ZM988.762 587.84V585.82H990.642V587.84H988.762ZM988.882 600V589.94H990.542V600H988.882ZM995.696 589.94V591.78C996.176 590.54 997.436 589.7 998.976 589.7C1001.24 589.7 1002.58 591.12 1002.58 593.52V600H1000.92V593.88C1000.92 592.02 1000.1 591.06 998.516 591.06C996.976 591.06 995.756 592.04 995.756 594.46V600H994.096V589.94H995.696ZM1013.07 599.36V597.88C1012.61 598.86 1011.49 599.82 1009.73 599.82C1007.15 599.82 1005.27 597.88 1005.27 594.74C1005.27 591.72 1007.15 589.7 1009.73 589.7C1011.49 589.7 1012.65 590.74 1013.13 591.7V589.94H1014.75V599.24C1014.75 602.44 1012.67 603.8 1009.99 603.8C1007.57 603.8 1005.93 602.82 1005.53 600.86H1007.21C1007.55 602.12 1008.61 602.52 1009.97 602.52C1011.95 602.52 1013.07 601.46 1013.07 599.36ZM1013.19 594.98V594.5C1013.19 592.42 1011.89 591 1010.03 591C1008.07 591 1006.91 592.5 1006.91 594.74C1006.91 596.96 1008.07 598.5 1010.03 598.5C1011.89 598.5 1013.19 597.06 1013.19 594.98Z" fill="black"/>
<path d="M56.1 592.82H62.84C65.22 592.82 66.68 591.84 66.68 589.66C66.68 587.62 65.6 586.12 62.74 586.12H56.1C55.04 586.12 54.86 586.38 54.72 588.02H53.96V583.4H54.72C54.88 584.78 55.04 584.94 56.1 584.94H63.12C66.58 584.94 68.2 587.34 68.2 590.36C68.2 594.06 66.54 596.22 63.1 596.22H56.1C55.02 596.22 54.88 596.38 54.72 597.74H53.96V591.28H54.72C54.88 592.66 55.02 592.82 56.1 592.82ZM68.2 578.989C68.2 580.589 67.8 581.869 67.2 582.689L64.48 582.809V581.989C66.16 581.569 67.44 580.529 67.44 578.989C67.44 577.989 66.94 577.189 65.94 577.189C64.88 577.189 64.52 577.949 64 579.429C63.28 581.609 62.38 582.769 60.46 582.769C58.32 582.769 57.12 581.169 57.12 578.849C57.12 577.529 57.46 576.369 58 575.529H60.42V576.289C59.04 576.569 57.88 577.429 57.88 578.829C57.88 579.769 58.42 580.369 59.22 580.369C60.12 580.369 60.52 579.749 61.02 578.309C61.8 576.049 62.62 574.769 64.7 574.769C66.92 574.769 68.2 576.429 68.2 578.989ZM57.12 568.514C57.12 565.734 58.92 564.294 61.4 564.294H61.86V570.754C64.48 570.814 66.04 569.434 66.04 567.554C66.04 566.214 65.52 565.294 64.5 564.554L64.7 564.214C66.8 564.734 68.2 566.234 68.2 568.654C68.2 571.574 66.14 573.654 62.92 573.654C59.42 573.654 57.12 571.334 57.12 568.514ZM57.9 568.734C57.9 569.954 59.2 570.594 61.04 570.714V567.114C59.14 567.114 57.9 567.554 57.9 568.734ZM60.82 559.058H66.22C67.06 559.058 67.16 558.618 67.28 557.418H68V563.458H67.28C67.22 562.598 67.12 562.278 66.46 562.278H59.4L58.7 563.438H58.24L57.12 559.578V558.978L60.14 559.058C57.88 558.178 57.12 557.538 57.12 556.318C57.12 555.878 57.26 555.558 57.46 555.378H59.9V555.798C59.9 557.058 59.96 558.098 60.82 559.058ZM65.56 538.301L63.5 539.121V544.361L65.56 545.141C65.84 545.241 66.1 545.321 66.32 545.321C66.96 545.321 67.18 544.781 67.24 543.641H68V547.841H67.24C67.14 547.301 67.04 546.881 66.5 546.681L55.46 542.401L53.88 543.041V539.421L66.5 534.361C67.02 534.161 67.14 533.741 67.24 533.181H68V539.761H67.24C67.2 538.661 66.98 538.121 66.34 538.121C66.12 538.121 65.86 538.201 65.56 538.301ZM56.76 541.801L62.54 544.001V539.501L56.76 541.801ZM58.16 527.331C58.16 528.891 59.74 529.751 62.1 529.751C64.56 529.751 66.32 528.811 66.32 527.131C66.32 526.571 66.16 526.091 65.86 525.691H60.44C58.98 525.691 58.16 526.211 58.16 527.331ZM54.38 525.691L53.78 526.851H53.28L52.34 522.991V522.471H65.8C66.48 522.471 66.74 522.431 66.78 521.711L66.8 521.231H67.5L68.2 525.171V525.751L66.32 525.691C67.5 526.511 68.2 527.551 68.2 528.931C68.2 531.311 66.3 532.951 63.16 532.951C59.32 532.951 57.18 530.671 57.18 527.771C57.18 526.891 57.42 526.171 57.82 525.691H54.38ZM67.42 515.089C67.42 513.749 65.8 513.209 63.22 513.209C60.1 513.209 57.9 513.789 57.9 515.249C57.9 516.589 59.52 517.129 62.1 517.129C65.22 517.129 67.42 516.549 67.42 515.089ZM68.2 515.189C68.2 518.369 66.1 520.529 62.88 520.529C59.5 520.529 57.12 518.269 57.12 515.149C57.12 511.969 59.22 509.789 62.44 509.789C65.82 509.789 68.2 512.069 68.2 515.189ZM67.36 503.067C67.36 501.487 65.46 500.587 63.04 500.587C60.5 500.587 59.04 501.507 59.04 503.207C59.04 503.747 59.24 504.287 59.56 504.707H65.14C66.56 504.707 67.36 504.227 67.36 503.067ZM70.7 507.907H59.4L58.7 509.067H58.24L57.12 505.207V504.627L59.02 504.707C58.08 504.087 57.12 502.987 57.12 501.347C57.12 498.947 58.84 497.327 62 497.327C66 497.327 68.2 499.747 68.2 502.827C68.2 503.607 68.04 504.307 67.72 504.707H70.62C71.36 504.707 71.42 504.327 71.52 503.107H72.24V509.107H71.52C71.46 508.227 71.36 507.907 70.7 507.907ZM54.66 492.27H57.32V489.79H58.32V492.27H64.94C66.04 492.27 66.5 491.85 66.5 490.99C66.5 490.47 66.32 490.01 65.96 489.53L66.36 489.25C67.48 489.95 68.2 491.01 68.2 492.53C68.2 494.25 67.32 495.49 65.02 495.49H58.32V496.69H57.76C57.14 495.21 56 493.89 54.66 492.95V492.27ZM57.12 484.41H66.46C67.12 484.41 67.22 484.09 67.28 483.23H68V488.81H67.28C67.22 487.95 67.12 487.63 66.46 487.63H59.4L58.7 488.79H58.24L57.12 484.95V484.41ZM56.06 486.03C56.06 487.11 55.28 487.81 54.36 487.81C53.44 487.81 52.64 487.11 52.64 486.03C52.64 484.95 53.44 484.23 54.36 484.23C55.28 484.23 56.06 484.95 56.06 486.03ZM67.42 477.042C67.42 475.702 65.8 475.162 63.22 475.162C60.1 475.162 57.9 475.742 57.9 477.202C57.9 478.542 59.52 479.082 62.1 479.082C65.22 479.082 67.42 478.502 67.42 477.042ZM68.2 477.142C68.2 480.322 66.1 482.482 62.88 482.482C59.5 482.482 57.12 480.222 57.12 477.102C57.12 473.922 59.22 471.742 62.44 471.742C65.82 471.742 68.2 474.022 68.2 477.142ZM66.46 463.06H60.62C59.58 463.06 59.04 463.44 59.04 464.5C59.04 465.24 59.32 465.92 59.68 466.48H66.46C67.12 466.48 67.22 466.2 67.28 465.34H68V470.88H67.28C67.22 470.02 67.12 469.7 66.46 469.7H59.4L58.7 470.86H58.24L57.12 467V466.4L59.1 466.48C58.12 465.68 57.12 464.54 57.12 462.78C57.12 460.88 58.2 459.84 60.38 459.84H66.46C67.12 459.84 67.22 459.52 67.28 458.66H68V464.2H67.28C67.22 463.34 67.12 463.06 66.46 463.06ZM62.52 454.016C61.4267 454.016 60.36 453.916 59.32 453.716C58.28 453.503 57.2867 453.176 56.34 452.736C55.3933 452.296 54.52 451.743 53.72 451.076V448.636C54.5467 449.236 55.44 449.743 56.4 450.156C57.36 450.57 58.3533 450.883 59.38 451.096C60.4067 451.31 61.4467 451.416 62.5 451.416C63.5267 451.416 64.5533 451.31 65.58 451.096C66.5933 450.883 67.5667 450.576 68.5 450.176C69.4467 449.763 70.3333 449.256 71.16 448.656V451.076C70.3733 451.743 69.5133 452.296 68.58 452.736C67.66 453.176 66.6867 453.503 65.66 453.716C64.6333 453.916 63.5867 454.016 62.52 454.016ZM53.52 444.059C53.52 442.939 53.9133 442.092 54.7 441.519C55.4733 440.932 56.5667 440.639 57.98 440.639C59.3933 440.639 60.5 440.912 61.3 441.459C62.0867 442.006 62.48 442.872 62.48 444.059C62.48 444.792 62.3 445.412 61.94 445.919C61.58 446.412 61.0667 446.786 60.4 447.039C59.72 447.292 58.9133 447.419 57.98 447.419C56.5667 447.419 55.4733 447.152 54.7 446.619C53.9133 446.086 53.52 445.232 53.52 444.059ZM55.56 444.039C55.56 444.359 55.76 444.592 56.16 444.739C56.56 444.886 57.1733 444.959 58 444.959C58.8133 444.959 59.4267 444.886 59.84 444.739C60.2533 444.592 60.46 444.359 60.46 444.039C60.46 443.719 60.2533 443.486 59.84 443.339C59.4267 443.179 58.8133 443.099 58 443.099C57.1733 443.099 56.56 443.179 56.16 443.339C55.76 443.486 55.56 443.719 55.56 444.039ZM53.72 433.919L68 441.839V444.179L53.72 436.259V433.919ZM59.22 434.059C59.22 433.312 59.4 432.686 59.76 432.179C60.1067 431.672 60.6133 431.292 61.28 431.039C61.9333 430.772 62.7333 430.639 63.68 430.639C65.0933 430.639 66.2 430.912 67 431.459C67.7867 432.006 68.18 432.872 68.18 434.059C68.18 434.792 68 435.412 67.64 435.919C67.28 436.412 66.7667 436.786 66.1 437.039C65.42 437.292 64.6133 437.419 63.68 437.419C62.2667 437.419 61.1733 437.152 60.4 436.619C59.6133 436.086 59.22 435.232 59.22 434.059ZM61.26 434.039C61.26 434.359 61.46 434.592 61.86 434.739C62.26 434.886 62.8733 434.959 63.7 434.959C64.5133 434.959 65.1267 434.886 65.54 434.739C65.9533 434.592 66.16 434.359 66.16 434.039C66.16 433.719 65.96 433.486 65.56 433.339C65.1467 433.179 64.5267 433.099 63.7 433.099C62.8733 433.099 62.26 433.179 61.86 433.339C61.46 433.486 61.26 433.719 61.26 434.039ZM62.52 424.032C63.5867 424.032 64.6333 424.138 65.66 424.352C66.6867 424.552 67.66 424.872 68.58 425.312C69.5133 425.738 70.3733 426.292 71.16 426.972V429.392C70.3333 428.792 69.4467 428.292 68.5 427.892C67.5667 427.478 66.5933 427.165 65.58 426.952C64.5533 426.738 63.5267 426.632 62.5 426.632C61.4467 426.632 60.4067 426.738 59.38 426.952C58.3533 427.165 57.36 427.478 56.4 427.892C55.44 428.292 54.5467 428.798 53.72 429.412V426.972C54.52 426.292 55.3933 425.738 56.34 425.312C57.2867 424.872 58.28 424.552 59.32 424.352C60.36 424.138 61.4267 424.032 62.52 424.032Z" fill="black"/>
<path d="M117.08 868.86C117.08 864.58 119.3 861.48 122.76 861.48C126.24 861.48 128.44 864.58 128.44 868.86C128.44 873.14 126.24 876.24 122.76 876.24C119.3 876.24 117.08 873.14 117.08 868.86ZM118.84 868.86C118.84 872.36 120.16 874.76 122.76 874.76C125.38 874.76 126.7 872.36 126.7 868.86C126.7 865.36 125.38 862.96 122.76 862.96C120.16 862.96 118.84 865.36 118.84 868.86Z" fill="black"/>
<path d="M123.5 895.98V894.82C125.94 894.82 126.82 894.14 127.16 892.66H128.22V907H126.5V895.98H123.5ZM136.685 892.48C139.365 892.48 141.405 893.96 141.405 896.42C141.405 898.04 140.465 899.2 139.045 899.76C140.565 900.04 142.045 901.42 142.045 903.1C142.045 905.56 139.965 907.24 136.685 907.24C133.445 907.24 131.345 905.56 131.345 903.1C131.345 901.42 132.825 900.04 134.345 899.76C132.945 899.2 131.985 898.04 131.985 896.42C131.985 893.96 134.025 892.48 136.685 892.48ZM136.685 899.02C138.405 899.02 139.825 898.18 139.825 896.42C139.825 894.68 138.405 893.84 136.685 893.84C134.985 893.84 133.565 894.68 133.565 896.42C133.565 898.18 134.985 899.02 136.685 899.02ZM136.685 905.86C138.965 905.86 140.325 904.78 140.325 903.1C140.325 901.44 138.965 900.4 136.685 900.4C134.445 900.4 133.065 901.44 133.065 903.1C133.065 904.78 134.445 905.86 136.685 905.86ZM148.898 905.8C151.538 905.8 152.918 903.06 152.918 899.36C152.458 900.84 151.058 902.26 148.878 902.26C146.058 902.26 144.158 900.18 144.158 897.44C144.158 894.56 146.118 892.48 149.098 892.48C152.258 892.48 154.518 895.24 154.518 899.62C154.518 904.14 152.158 907.24 148.878 907.24C146.338 907.24 144.618 905.74 144.298 903.34H145.878C146.218 904.96 147.198 905.8 148.898 905.8ZM149.098 893.88C147.058 893.88 145.778 895.38 145.778 897.38C145.778 899.4 147.058 900.86 149.098 900.86C151.098 900.86 152.458 899.4 152.458 897.38C152.458 895.38 151.098 893.88 149.098 893.88ZM156.678 899.86C156.678 895.58 158.898 892.48 162.358 892.48C165.838 892.48 168.038 895.58 168.038 899.86C168.038 904.14 165.838 907.24 162.358 907.24C158.898 907.24 156.678 904.14 156.678 899.86ZM158.438 899.86C158.438 903.36 159.758 905.76 162.358 905.76C164.978 905.76 166.298 903.36 166.298 899.86C166.298 896.36 164.978 893.96 162.358 893.96C159.758 893.96 158.438 896.36 158.438 899.86Z" fill="black"/>
<path d="M256.5 895.98V894.82C258.94 894.82 259.82 894.14 260.16 892.66H261.22V907H259.5V895.98H256.5ZM269.105 905.8C271.745 905.8 273.125 903.06 273.125 899.36C272.665 900.84 271.265 902.26 269.085 902.26C266.265 902.26 264.365 900.18 264.365 897.44C264.365 894.56 266.325 892.48 269.305 892.48C272.465 892.48 274.725 895.24 274.725 899.62C274.725 904.14 272.365 907.24 269.085 907.24C266.545 907.24 264.825 905.74 264.505 903.34H266.085C266.425 904.96 267.405 905.8 269.105 905.8ZM269.305 893.88C267.265 893.88 265.985 895.38 265.985 897.38C265.985 899.4 267.265 900.86 269.305 900.86C271.305 900.86 272.665 899.4 272.665 897.38C272.665 895.38 271.305 893.88 269.305 893.88ZM276.885 899.86C276.885 895.58 279.105 892.48 282.565 892.48C286.045 892.48 288.245 895.58 288.245 899.86C288.245 904.14 286.045 907.24 282.565 907.24C279.105 907.24 276.885 904.14 276.885 899.86ZM278.645 899.86C278.645 903.36 279.965 905.76 282.565 905.76C285.185 905.76 286.505 903.36 286.505 899.86C286.505 896.36 285.185 893.96 282.565 893.96C279.965 893.96 278.645 896.36 278.645 899.86ZM290.42 899.86C290.42 895.58 292.64 892.48 296.1 892.48C299.58 892.48 301.78 895.58 301.78 899.86C301.78 904.14 299.58 907.24 296.1 907.24C292.64 907.24 290.42 904.14 290.42 899.86ZM292.18 899.86C292.18 903.36 293.5 905.76 296.1 905.76C298.72 905.76 300.04 903.36 300.04 899.86C300.04 896.36 298.72 893.96 296.1 893.96C293.5 893.96 292.18 896.36 292.18 899.86Z" fill="black"/>
<path d="M388.5 895.98V894.82C390.94 894.82 391.82 894.14 392.16 892.66H393.22V907H391.5V895.98H388.5ZM401.105 905.8C403.745 905.8 405.125 903.06 405.125 899.36C404.665 900.84 403.265 902.26 401.085 902.26C398.265 902.26 396.365 900.18 396.365 897.44C396.365 894.56 398.325 892.48 401.305 892.48C404.465 892.48 406.725 895.24 406.725 899.62C406.725 904.14 404.365 907.24 401.085 907.24C398.545 907.24 396.825 905.74 396.505 903.34H398.085C398.425 904.96 399.405 905.8 401.105 905.8ZM401.305 893.88C399.265 893.88 397.985 895.38 397.985 897.38C397.985 899.4 399.265 900.86 401.305 900.86C403.305 900.86 404.665 899.4 404.665 897.38C404.665 895.38 403.305 893.88 401.305 893.88ZM408.305 895.98V894.82C410.745 894.82 411.625 894.14 411.965 892.66H413.025V907H411.305V895.98H408.305ZM416.189 899.86C416.189 895.58 418.409 892.48 421.869 892.48C425.349 892.48 427.549 895.58 427.549 899.86C427.549 904.14 425.349 907.24 421.869 907.24C418.409 907.24 416.189 904.14 416.189 899.86ZM417.949 899.86C417.949 903.36 419.269 905.76 421.869 905.76C424.489 905.76 425.809 903.36 425.809 899.86C425.809 896.36 424.489 893.96 421.869 893.96C419.269 893.96 417.949 896.36 417.949 899.86Z" fill="black"/>
<path d="M514.5 895.98V894.82C516.94 894.82 517.82 894.14 518.16 892.66H519.22V907H517.5V895.98H514.5ZM527.105 905.8C529.745 905.8 531.125 903.06 531.125 899.36C530.665 900.84 529.265 902.26 527.085 902.26C524.265 902.26 522.365 900.18 522.365 897.44C522.365 894.56 524.325 892.48 527.305 892.48C530.465 892.48 532.725 895.24 532.725 899.62C532.725 904.14 530.365 907.24 527.085 907.24C524.545 907.24 522.825 905.74 522.505 903.34H524.085C524.425 904.96 525.405 905.8 527.105 905.8ZM527.305 893.88C525.265 893.88 523.985 895.38 523.985 897.38C523.985 899.4 525.265 900.86 527.305 900.86C529.305 900.86 530.665 899.4 530.665 897.38C530.665 895.38 529.305 893.88 527.305 893.88ZM544.265 896.64C544.265 899.32 542.045 900.52 539.905 901.9C538.165 903.06 536.445 904.26 536.445 905.56H544.405V907H534.605V906.22C534.605 903.68 537.065 901.9 539.185 900.58C541.085 899.36 542.625 898.3 542.625 896.64C542.625 895.28 541.845 893.92 539.725 893.92C537.765 893.92 536.625 895.4 536.505 897.12H534.885C535.025 894.6 536.745 892.48 539.745 892.48C542.745 892.48 544.265 894.52 544.265 896.64ZM546.33 899.86C546.33 895.58 548.55 892.48 552.01 892.48C555.49 892.48 557.69 895.58 557.69 899.86C557.69 904.14 555.49 907.24 552.01 907.24C548.55 907.24 546.33 904.14 546.33 899.86ZM548.09 899.86C548.09 903.36 549.41 905.76 552.01 905.76C554.63 905.76 555.95 903.36 555.95 899.86C555.95 896.36 554.63 893.96 552.01 893.96C549.41 893.96 548.09 896.36 548.09 899.86Z" fill="black"/>
<path d="M644.5 895.98V894.82C646.94 894.82 647.82 894.14 648.16 892.66H649.22V907H647.5V895.98H644.5ZM657.105 905.8C659.745 905.8 661.125 903.06 661.125 899.36C660.665 900.84 659.265 902.26 657.085 902.26C654.265 902.26 652.365 900.18 652.365 897.44C652.365 894.56 654.325 892.48 657.305 892.48C660.465 892.48 662.725 895.24 662.725 899.62C662.725 904.14 660.365 907.24 657.085 907.24C654.545 907.24 652.825 905.74 652.505 903.34H654.085C654.425 904.96 655.405 905.8 657.105 905.8ZM657.305 893.88C655.265 893.88 653.985 895.38 653.985 897.38C653.985 899.4 655.265 900.86 657.305 900.86C659.305 900.86 660.665 899.4 660.665 897.38C660.665 895.38 659.305 893.88 657.305 893.88ZM674.865 903.12C674.865 905.34 673.085 907.24 669.885 907.24C666.825 907.24 664.845 905.52 664.645 902.82H666.325C666.445 904.6 667.705 905.84 669.885 905.84C671.965 905.84 673.245 904.78 673.245 903.06C673.245 901.4 672.005 900.46 670.125 900.46H668.565V899.06H670.065C671.565 899.06 672.865 898.4 672.865 896.56C672.865 895.1 671.905 893.88 669.945 893.88C667.905 893.88 666.765 895.3 666.665 897H665.045C665.205 894.52 666.865 892.48 669.945 892.48C673.005 892.48 674.525 894.42 674.525 896.54C674.525 898.3 673.365 899.52 671.965 899.72C673.665 899.98 674.865 901.34 674.865 903.12ZM677.033 899.86C677.033 895.58 679.253 892.48 682.713 892.48C686.193 892.48 688.393 895.58 688.393 899.86C688.393 904.14 686.193 907.24 682.713 907.24C679.253 907.24 677.033 904.14 677.033 899.86ZM678.793 899.86C678.793 903.36 680.113 905.76 682.713 905.76C685.333 905.76 686.653 903.36 686.653 899.86C686.653 896.36 685.333 893.96 682.713 893.96C680.113 893.96 678.793 896.36 678.793 899.86Z" fill="black"/>
<path d="M775.5 895.98V894.82C777.94 894.82 778.82 894.14 779.16 892.66H780.22V907H778.5V895.98H775.5ZM788.105 905.8C790.745 905.8 792.125 903.06 792.125 899.36C791.665 900.84 790.265 902.26 788.085 902.26C785.265 902.26 783.365 900.18 783.365 897.44C783.365 894.56 785.325 892.48 788.305 892.48C791.465 892.48 793.725 895.24 793.725 899.62C793.725 904.14 791.365 907.24 788.085 907.24C785.545 907.24 783.825 905.74 783.505 903.34H785.085C785.425 904.96 786.405 905.8 788.105 905.8ZM788.305 893.88C786.265 893.88 784.985 895.38 784.985 897.38C784.985 899.4 786.265 900.86 788.305 900.86C790.305 900.86 791.665 899.4 791.665 897.38C791.665 895.38 790.305 893.88 788.305 893.88ZM804.305 892.72V901.7H807.365V903.08H804.305V907H802.625V903.08H795.545V901.68L802.365 892.72H804.305ZM802.625 894.5L797.205 901.7H802.625V894.5ZM809.107 899.86C809.107 895.58 811.327 892.48 814.787 892.48C818.267 892.48 820.467 895.58 820.467 899.86C820.467 904.14 818.267 907.24 814.787 907.24C811.327 907.24 809.107 904.14 809.107 899.86ZM810.867 899.86C810.867 903.36 812.187 905.76 814.787 905.76C817.407 905.76 818.727 903.36 818.727 899.86C818.727 896.36 817.407 893.96 814.787 893.96C812.187 893.96 810.867 896.36 810.867 899.86Z" fill="black"/>
<path d="M908.5 895.98V894.82C910.94 894.82 911.82 894.14 912.16 892.66H913.22V907H911.5V895.98H908.5ZM921.105 905.8C923.745 905.8 925.125 903.06 925.125 899.36C924.665 900.84 923.265 902.26 921.085 902.26C918.265 902.26 916.365 900.18 916.365 897.44C916.365 894.56 918.325 892.48 921.305 892.48C924.465 892.48 926.725 895.24 926.725 899.62C926.725 904.14 924.365 907.24 921.085 907.24C918.545 907.24 916.825 905.74 916.505 903.34H918.085C918.425 904.96 919.405 905.8 921.105 905.8ZM921.305 893.88C919.265 893.88 917.985 895.38 917.985 897.38C917.985 899.4 919.265 900.86 921.305 900.86C923.305 900.86 924.665 899.4 924.665 897.38C924.665 895.38 923.305 893.88 921.305 893.88ZM933.945 898.9C932.445 898.9 931.445 899.64 930.905 900.5H929.365L930.165 892.72H938.205V894.18H931.405L930.925 898.9C931.525 898.14 932.765 897.5 934.085 897.5C937.065 897.5 938.925 899.66 938.925 902.36C938.925 905.08 937.065 907.24 933.945 907.24C931.065 907.24 929.005 905.52 928.785 902.76H930.485C930.625 904.58 931.945 905.84 933.965 905.84C936.205 905.84 937.265 904.18 937.265 902.36C937.265 900.54 936.205 898.9 933.945 898.9ZM941.014 899.86C941.014 895.58 943.234 892.48 946.694 892.48C950.174 892.48 952.374 895.58 952.374 899.86C952.374 904.14 950.174 907.24 946.694 907.24C943.234 907.24 941.014 904.14 941.014 899.86ZM942.774 899.86C942.774 903.36 944.094 905.76 946.694 905.76C949.314 905.76 950.634 903.36 950.634 899.86C950.634 896.36 949.314 893.96 946.694 893.96C944.094 893.96 942.774 896.36 942.774 899.86Z" fill="black"/>
<path d="M1039.5 895.98V894.82C1041.94 894.82 1042.82 894.14 1043.16 892.66H1044.22V907H1042.5V895.98H1039.5ZM1052.1 905.8C1054.74 905.8 1056.12 903.06 1056.12 899.36C1055.66 900.84 1054.26 902.26 1052.08 902.26C1049.26 902.26 1047.36 900.18 1047.36 897.44C1047.36 894.56 1049.32 892.48 1052.3 892.48C1055.46 892.48 1057.72 895.24 1057.72 899.62C1057.72 904.14 1055.36 907.24 1052.08 907.24C1049.54 907.24 1047.82 905.74 1047.5 903.34H1049.08C1049.42 904.96 1050.4 905.8 1052.1 905.8ZM1052.3 893.88C1050.26 893.88 1048.98 895.38 1048.98 897.38C1048.98 899.4 1050.26 900.86 1052.3 900.86C1054.3 900.86 1055.66 899.4 1055.66 897.38C1055.66 895.38 1054.3 893.88 1052.3 893.88ZM1065.5 893.92C1062.86 893.92 1061.48 896.66 1061.48 900.36C1061.94 898.88 1063.34 897.46 1065.52 897.46C1068.34 897.46 1070.24 899.54 1070.24 902.28C1070.24 905.16 1068.28 907.24 1065.3 907.24C1062.14 907.24 1059.88 904.48 1059.88 900.1C1059.88 895.58 1062.24 892.48 1065.52 892.48C1068.06 892.48 1069.78 893.98 1070.1 896.38H1068.52C1068.18 894.76 1067.2 893.92 1065.5 893.92ZM1065.3 905.84C1067.34 905.84 1068.62 904.34 1068.62 902.34C1068.62 900.32 1067.34 898.86 1065.3 898.86C1063.3 898.86 1061.94 900.32 1061.94 902.34C1061.94 904.34 1063.3 905.84 1065.3 905.84ZM1072.38 899.86C1072.38 895.58 1074.6 892.48 1078.06 892.48C1081.54 892.48 1083.74 895.58 1083.74 899.86C1083.74 904.14 1081.54 907.24 1078.06 907.24C1074.6 907.24 1072.38 904.14 1072.38 899.86ZM1074.14 899.86C1074.14 903.36 1075.46 905.76 1078.06 905.76C1080.68 905.76 1082 903.36 1082 899.86C1082 896.36 1080.68 893.96 1078.06 893.96C1075.46 893.96 1074.14 896.36 1074.14 899.86Z" fill="black"/>
<path d="M1170.5 895.98V894.82C1172.94 894.82 1173.82 894.14 1174.16 892.66H1175.22V907H1173.5V895.98H1170.5ZM1183.1 905.8C1185.74 905.8 1187.12 903.06 1187.12 899.36C1186.66 900.84 1185.26 902.26 1183.08 902.26C1180.26 902.26 1178.36 900.18 1178.36 897.44C1178.36 894.56 1180.32 892.48 1183.3 892.48C1186.46 892.48 1188.72 895.24 1188.72 899.62C1188.72 904.14 1186.36 907.24 1183.08 907.24C1180.54 907.24 1178.82 905.74 1178.5 903.34H1180.08C1180.42 904.96 1181.4 905.8 1183.1 905.8ZM1183.3 893.88C1181.26 893.88 1179.98 895.38 1179.98 897.38C1179.98 899.4 1181.26 900.86 1183.3 900.86C1185.3 900.86 1186.66 899.4 1186.66 897.38C1186.66 895.38 1185.3 893.88 1183.3 893.88ZM1198.06 894.18H1189.9V892.72H1199.94V893.94C1196.54 898.06 1195.34 902.14 1195.28 907H1193.48C1193.54 901.94 1195.36 897.62 1198.06 894.18ZM1201.55 899.86C1201.55 895.58 1203.77 892.48 1207.23 892.48C1210.71 892.48 1212.91 895.58 1212.91 899.86C1212.91 904.14 1210.71 907.24 1207.23 907.24C1203.77 907.24 1201.55 904.14 1201.55 899.86ZM1203.31 899.86C1203.31 903.36 1204.63 905.76 1207.23 905.76C1209.85 905.76 1211.17 903.36 1211.17 899.86C1211.17 896.36 1209.85 893.96 1207.23 893.96C1204.63 893.96 1203.31 896.36 1203.31 899.86Z" fill="black"/>
<path d="M106.5 799.98V798.82C108.94 798.82 109.82 798.14 110.16 796.66H111.22V811H109.5V799.98H106.5ZM114.385 803.86C114.385 799.58 116.605 796.48 120.065 796.48C123.545 796.48 125.745 799.58 125.745 803.86C125.745 808.14 123.545 811.24 120.065 811.24C116.605 811.24 114.385 808.14 114.385 803.86ZM116.145 803.86C116.145 807.36 117.465 809.76 120.065 809.76C122.685 809.76 124.005 807.36 124.005 803.86C124.005 800.36 122.685 797.96 120.065 797.96C117.465 797.96 116.145 800.36 116.145 803.86Z" fill="black"/>
<path d="M116.46 736.64C116.46 739.32 114.24 740.52 112.1 741.9C110.36 743.06 108.64 744.26 108.64 745.56H116.6V747H106.8V746.22C106.8 743.68 109.26 741.9 111.38 740.58C113.28 739.36 114.82 738.3 114.82 736.64C114.82 735.28 114.04 733.92 111.92 733.92C109.96 733.92 108.82 735.4 108.7 737.12H107.08C107.22 734.6 108.94 732.48 111.94 732.48C114.94 732.48 116.46 734.52 116.46 736.64ZM118.525 739.86C118.525 735.58 120.745 732.48 124.205 732.48C127.685 732.48 129.885 735.58 129.885 739.86C129.885 744.14 127.685 747.24 124.205 747.24C120.745 747.24 118.525 744.14 118.525 739.86ZM120.285 739.86C120.285 743.36 121.605 745.76 124.205 745.76C126.825 745.76 128.145 743.36 128.145 739.86C128.145 736.36 126.825 733.96 124.205 733.96C121.605 733.96 120.285 736.36 120.285 739.86Z" fill="black"/>
<path d="M114.06 679.12C114.06 681.34 112.28 683.24 109.08 683.24C106.02 683.24 104.04 681.52 103.84 678.82H105.52C105.64 680.6 106.9 681.84 109.08 681.84C111.16 681.84 112.44 680.78 112.44 679.06C112.44 677.4 111.2 676.46 109.32 676.46H107.76V675.06H109.26C110.76 675.06 112.06 674.4 112.06 672.56C112.06 671.1 111.1 669.88 109.14 669.88C107.1 669.88 105.96 671.3 105.86 673H104.24C104.4 670.52 106.06 668.48 109.14 668.48C112.2 668.48 113.72 670.42 113.72 672.54C113.72 674.3 112.56 675.52 111.16 675.72C112.86 675.98 114.06 677.34 114.06 679.12ZM116.228 675.86C116.228 671.58 118.448 668.48 121.908 668.48C125.388 668.48 127.588 671.58 127.588 675.86C127.588 680.14 125.388 683.24 121.908 683.24C118.448 683.24 116.228 680.14 116.228 675.86ZM117.988 675.86C117.988 679.36 119.308 681.76 121.908 681.76C124.528 681.76 125.848 679.36 125.848 675.86C125.848 672.36 124.528 669.96 121.908 669.96C119.308 669.96 117.988 672.36 117.988 675.86Z" fill="black"/>
<path d="M112.5 604.72V613.7H115.56V615.08H112.5V619H110.82V615.08H103.74V613.68L110.56 604.72H112.5ZM110.82 606.5L105.4 613.7H110.82V606.5ZM117.303 611.86C117.303 607.58 119.523 604.48 122.983 604.48C126.463 604.48 128.663 607.58 128.663 611.86C128.663 616.14 126.463 619.24 122.983 619.24C119.523 619.24 117.303 616.14 117.303 611.86ZM119.063 611.86C119.063 615.36 120.383 617.76 122.983 617.76C125.603 617.76 126.923 615.36 126.923 611.86C126.923 608.36 125.603 605.96 122.983 605.96C120.383 605.96 119.063 608.36 119.063 611.86Z" fill="black"/>
<path d="M109.14 545.9C107.64 545.9 106.64 546.64 106.1 547.5H104.56L105.36 539.72H113.4V541.18H106.6L106.12 545.9C106.72 545.14 107.96 544.5 109.28 544.5C112.26 544.5 114.12 546.66 114.12 549.36C114.12 552.08 112.26 554.24 109.14 554.24C106.26 554.24 104.2 552.52 103.98 549.76H105.68C105.82 551.58 107.14 552.84 109.16 552.84C111.4 552.84 112.46 551.18 112.46 549.36C112.46 547.54 111.4 545.9 109.14 545.9ZM116.209 546.86C116.209 542.58 118.429 539.48 121.889 539.48C125.369 539.48 127.569 542.58 127.569 546.86C127.569 551.14 125.369 554.24 121.889 554.24C118.429 554.24 116.209 551.14 116.209 546.86ZM117.969 546.86C117.969 550.36 119.289 552.76 121.889 552.76C124.509 552.76 125.829 550.36 125.829 546.86C125.829 543.36 124.509 540.96 121.889 540.96C119.289 540.96 117.969 543.36 117.969 546.86Z" fill="black"/>
<path d="M109.7 476.92C107.06 476.92 105.68 479.66 105.68 483.36C106.14 481.88 107.54 480.46 109.72 480.46C112.54 480.46 114.44 482.54 114.44 485.28C114.44 488.16 112.48 490.24 109.5 490.24C106.34 490.24 104.08 487.48 104.08 483.1C104.08 478.58 106.44 475.48 109.72 475.48C112.26 475.48 113.98 476.98 114.3 479.38H112.72C112.38 477.76 111.4 476.92 109.7 476.92ZM109.5 488.84C111.54 488.84 112.82 487.34 112.82 485.34C112.82 483.32 111.54 481.86 109.5 481.86C107.5 481.86 106.14 483.32 106.14 485.34C106.14 487.34 107.5 488.84 109.5 488.84ZM116.58 482.86C116.58 478.58 118.8 475.48 122.26 475.48C125.74 475.48 127.94 478.58 127.94 482.86C127.94 487.14 125.74 490.24 122.26 490.24C118.8 490.24 116.58 487.14 116.58 482.86ZM118.34 482.86C118.34 486.36 119.66 488.76 122.26 488.76C124.88 488.76 126.2 486.36 126.2 482.86C126.2 479.36 124.88 476.96 122.26 476.96C119.66 476.96 118.34 479.36 118.34 482.86Z" fill="black"/>
<path d="M110.7 413.18H102.54V411.72H112.58V412.94C109.18 417.06 107.98 421.14 107.92 426H106.12C106.18 420.94 108 416.62 110.7 413.18ZM114.193 418.86C114.193 414.58 116.413 411.48 119.873 411.48C123.353 411.48 125.553 414.58 125.553 418.86C125.553 423.14 123.353 426.24 119.873 426.24C116.413 426.24 114.193 423.14 114.193 418.86ZM115.953 418.86C115.953 422.36 117.273 424.76 119.873 424.76C122.493 424.76 123.813 422.36 123.813 418.86C123.813 415.36 122.493 412.96 119.873 412.96C117.273 412.96 115.953 415.36 115.953 418.86Z" fill="black"/>
<path d="M108.38 347.48C111.06 347.48 113.1 348.96 113.1 351.42C113.1 353.04 112.16 354.2 110.74 354.76C112.26 355.04 113.74 356.42 113.74 358.1C113.74 360.56 111.66 362.24 108.38 362.24C105.14 362.24 103.04 360.56 103.04 358.1C103.04 356.42 104.52 355.04 106.04 354.76C104.64 354.2 103.68 353.04 103.68 351.42C103.68 348.96 105.72 347.48 108.38 347.48ZM108.38 354.02C110.1 354.02 111.52 353.18 111.52 351.42C111.52 349.68 110.1 348.84 108.38 348.84C106.68 348.84 105.26 349.68 105.26 351.42C105.26 353.18 106.68 354.02 108.38 354.02ZM108.38 360.86C110.66 360.86 112.02 359.78 112.02 358.1C112.02 356.44 110.66 355.4 108.38 355.4C106.14 355.4 104.76 356.44 104.76 358.1C104.76 359.78 106.14 360.86 108.38 360.86ZM115.873 354.86C115.873 350.58 118.093 347.48 121.553 347.48C125.033 347.48 127.233 350.58 127.233 354.86C127.233 359.14 125.033 362.24 121.553 362.24C118.093 362.24 115.873 359.14 115.873 354.86ZM117.633 354.86C117.633 358.36 118.953 360.76 121.553 360.76C124.173 360.76 125.493 358.36 125.493 354.86C125.493 351.36 124.173 348.96 121.553 348.96C118.953 348.96 117.633 351.36 117.633 354.86Z" fill="black"/>
<path d="M107.8 295.8C110.44 295.8 111.82 293.06 111.82 289.36C111.36 290.84 109.96 292.26 107.78 292.26C104.96 292.26 103.06 290.18 103.06 287.44C103.06 284.56 105.02 282.48 108 282.48C111.16 282.48 113.42 285.24 113.42 289.62C113.42 294.14 111.06 297.24 107.78 297.24C105.24 297.24 103.52 295.74 103.2 293.34H104.78C105.12 294.96 106.1 295.8 107.8 295.8ZM108 283.88C105.96 283.88 104.68 285.38 104.68 287.38C104.68 289.4 105.96 290.86 108 290.86C110 290.86 111.36 289.4 111.36 287.38C111.36 285.38 110 283.88 108 283.88ZM115.58 289.86C115.58 285.58 117.8 282.48 121.26 282.48C124.74 282.48 126.94 285.58 126.94 289.86C126.94 294.14 124.74 297.24 121.26 297.24C117.8 297.24 115.58 294.14 115.58 289.86ZM117.34 289.86C117.34 293.36 118.66 295.76 121.26 295.76C123.88 295.76 125.2 293.36 125.2 289.86C125.2 286.36 123.88 283.96 121.26 283.96C118.66 283.96 117.34 286.36 117.34 289.86Z" fill="black"/>
<path d="M99.5 222.98V221.82C101.94 221.82 102.82 221.14 103.16 219.66H104.22V234H102.5V222.98H99.5ZM107.385 226.86C107.385 222.58 109.605 219.48 113.065 219.48C116.545 219.48 118.745 222.58 118.745 226.86C118.745 231.14 116.545 234.24 113.065 234.24C109.605 234.24 107.385 231.14 107.385 226.86ZM109.145 226.86C109.145 230.36 110.465 232.76 113.065 232.76C115.685 232.76 117.005 230.36 117.005 226.86C117.005 223.36 115.685 220.96 113.065 220.96C110.465 220.96 109.145 223.36 109.145 226.86ZM120.92 226.86C120.92 222.58 123.14 219.48 126.6 219.48C130.08 219.48 132.28 222.58 132.28 226.86C132.28 231.14 130.08 234.24 126.6 234.24C123.14 234.24 120.92 231.14 120.92 226.86ZM122.68 226.86C122.68 230.36 124 232.76 126.6 232.76C129.22 232.76 130.54 230.36 130.54 226.86C130.54 223.36 129.22 220.96 126.6 220.96C124 220.96 122.68 223.36 122.68 226.86Z" fill="black"/>
<path d="M360.56 80.64H358.92V102.44C358.92 104.8 359.88 105.28 361.88 105.28H362.44C367.2 105.28 370.44 100.76 370.44 93.32C370.44 85.92 367.2 80.64 360.56 80.64ZM362.6 107H349.08V105.48C351.8 105.16 352.12 104.88 352.12 102.72V83.2C352.12 81.04 351.8 80.76 349.08 80.44V78.92H361.76C372.6 78.92 377.6 84.92 377.6 92.52C377.6 101.68 371.52 107 362.6 107ZM388.383 85.24V103.92C388.383 105.24 389.023 105.44 390.743 105.56V107H379.583V105.56C381.303 105.44 381.943 105.24 381.943 103.92V89.8L379.623 88.4V87.48L387.303 85.24H388.383ZM385.143 83.12C382.983 83.12 381.583 81.56 381.583 79.72C381.583 77.88 382.983 76.28 385.143 76.28C387.303 76.28 388.743 77.88 388.743 79.72C388.743 81.56 387.303 83.12 385.143 83.12ZM394.599 85.44V84.88C394.599 78.96 398.799 76.28 403.839 76.28C406.319 76.28 408.279 76.92 409.879 78.12C411.479 76.48 413.799 75.68 416.519 75.68C420.399 75.68 422.199 77.04 422.199 79.32C422.199 80.36 421.639 81.24 420.799 81.68H417.479C417.599 81.2 417.639 80.6 417.639 79.96C417.639 78.52 417.359 77.24 416.079 77.24C414.759 77.24 414.119 78.36 414.119 80.44V85.64H418.919V87.64H414.119V103.44C414.119 105.12 415.039 105.32 417.439 105.56V107H405.399V105.56C407.119 105.44 407.719 105.24 407.719 103.92V87.64H401.039V103.92C401.039 105.24 401.599 105.44 403.359 105.56V107H392.239V105.56C393.959 105.44 394.599 105.24 394.599 103.92V87.64H391.719V86.32L394.599 85.44ZM407.719 84.2C407.719 82.88 407.919 81.72 408.279 80.72C407.559 79 406.239 77.8 404.279 77.8C402.079 77.8 401.039 79.36 401.039 82.52V85.64H407.719V84.2ZM440.858 90.12V102.6C440.858 103.96 440.977 104.48 442.378 104.56L443.338 104.6V106L435.498 107.4H434.338L434.458 103.56C432.898 105.4 430.778 107.4 427.418 107.4C423.858 107.4 421.498 105.36 421.498 100.8V90.68C421.498 89.44 421.218 88.72 419.778 88.4L419.178 88.28V86.92L427.058 85.28H428.138L427.938 90.2V100.08C427.938 102.32 428.778 103.64 430.858 103.64C432.258 103.64 433.258 103.12 434.458 102.48V90.68C434.458 89.44 434.178 88.72 432.738 88.4L432.138 88.28V86.92L439.978 85.28H441.098L440.858 90.12ZM452.819 107.4C449.619 107.4 447.059 106.6 445.419 105.4L445.179 99.96H446.819C447.659 103.32 449.739 105.88 452.819 105.88C454.819 105.88 456.419 104.88 456.419 102.88C456.419 100.76 454.899 100.04 451.939 99C447.579 97.56 445.259 95.76 445.259 91.92C445.259 87.64 448.459 85.24 453.099 85.24C455.739 85.24 458.059 85.92 459.739 87V91.84H458.219C457.659 89.08 455.939 86.76 453.139 86.76C451.259 86.76 450.059 87.84 450.059 89.44C450.059 91.24 451.299 92.04 454.179 93.04C458.699 94.6 461.259 96.24 461.259 100.4C461.259 104.84 457.939 107.4 452.819 107.4ZM472.172 85.24V103.92C472.172 105.24 472.812 105.44 474.532 105.56V107H463.372V105.56C465.092 105.44 465.732 105.24 465.732 103.92V89.8L463.412 88.4V87.48L471.092 85.24H472.172ZM468.932 83.12C466.772 83.12 465.372 81.56 465.372 79.72C465.372 77.88 466.772 76.28 468.932 76.28C471.092 76.28 472.532 77.88 472.532 79.72C472.532 81.56 471.092 83.12 468.932 83.12ZM486.908 105.84C489.588 105.84 490.668 102.6 490.668 97.44C490.668 91.2 489.508 86.8 486.588 86.8C483.908 86.8 482.828 90.04 482.828 95.2C482.828 101.44 483.988 105.84 486.908 105.84ZM486.708 107.4C480.348 107.4 476.028 103.2 476.028 96.76C476.028 90 480.548 85.24 486.788 85.24C493.148 85.24 497.508 89.44 497.508 95.88C497.508 102.64 492.948 107.4 486.708 107.4ZM514.872 103.92V92.24C514.872 90.16 514.112 89.08 511.992 89.08C510.512 89.08 509.152 89.64 508.032 90.36V103.92C508.032 105.24 508.592 105.44 510.312 105.56V107H499.232V105.56C500.952 105.44 501.592 105.24 501.592 103.92V89.8L499.272 88.4V87.48L506.992 85.24H508.192L508.032 89.2C509.632 87.24 511.912 85.24 515.432 85.24C519.232 85.24 521.312 87.4 521.312 91.76V103.92C521.312 105.24 521.952 105.44 523.672 105.56V107H512.592V105.56C514.312 105.44 514.872 105.24 514.872 103.92ZM543.119 105.84C545.799 105.84 546.879 102.6 546.879 97.44C546.879 91.2 545.719 86.8 542.799 86.8C540.119 86.8 539.039 90.04 539.039 95.2C539.039 101.44 540.199 105.84 543.119 105.84ZM542.919 107.4C536.559 107.4 532.239 103.2 532.239 96.76C532.239 90 536.759 85.24 542.999 85.24C549.359 85.24 553.719 89.44 553.719 95.88C553.719 102.64 549.159 107.4 542.919 107.4ZM564.243 87.64V103.44C564.243 105.12 565.163 105.32 567.523 105.56V107H555.443V105.56C557.163 105.44 557.803 105.24 557.803 103.92V87.64H554.923V86.32L557.803 85.44V84.2C557.803 78.4 561.643 75.68 566.643 75.68C570.523 75.68 572.323 77.04 572.323 79.32C572.323 80.36 571.763 81.24 570.923 81.68H567.603C567.683 81.2 567.763 80.6 567.763 79.96C567.763 78.52 567.483 77.24 566.203 77.24C564.883 77.24 564.243 78.36 564.243 80.44V85.64H569.043V87.64H564.243ZM604.119 101.92L602.119 86L594.719 107H592.199L584.439 86L582.439 101.92C582.399 102.24 582.359 102.76 582.359 102.92C582.359 104.84 583.199 105.28 586.159 105.48V107H576.639V105.48C578.919 105.36 579.759 104.88 579.959 103.04L582.479 83.36C582.479 81.24 581.719 80.56 579.079 80.44V78.92H589.119C589.199 79.84 589.439 80.52 589.759 81.4L595.759 97.84L601.399 81.4C601.719 80.44 601.999 79.84 602.079 78.92H611.919V80.44C609.319 80.56 608.559 81.24 608.559 83.36L611.039 103.04C611.319 105 612.159 105.36 614.399 105.48V107H600.359V105.48C603.199 105.28 604.159 104.84 604.159 102.92C604.159 102.76 604.119 102.24 604.119 101.92ZM626.127 105.84C628.807 105.84 629.887 102.6 629.887 97.44C629.887 91.2 628.727 86.8 625.807 86.8C623.127 86.8 622.047 90.04 622.047 95.2C622.047 101.44 623.207 105.84 626.127 105.84ZM625.927 107.4C619.567 107.4 615.247 103.2 615.247 96.76C615.247 90 619.767 85.24 626.007 85.24C632.367 85.24 636.727 89.44 636.727 95.88C636.727 102.64 632.167 107.4 625.927 107.4ZM650.159 87.32C647.039 87.32 645.319 90.48 645.319 95.2C645.319 100.12 647.199 103.64 650.559 103.64C651.679 103.64 652.639 103.32 653.439 102.72V91.88C653.439 88.96 652.399 87.32 650.159 87.32ZM653.439 79.76L651.119 78.56V77.56L658.839 75.68H659.879V102.6C659.879 103.96 659.959 104.48 661.399 104.56L662.359 104.6V106L654.479 107.4H653.319L653.439 103.64C651.799 106 649.719 107.4 646.959 107.4C642.199 107.4 638.919 103.6 638.919 97.32C638.919 89.64 643.479 85.36 649.279 85.36C651.039 85.36 652.479 85.84 653.439 86.64V79.76ZM674.043 85.24C679.603 85.24 682.483 88.84 682.483 93.8V94.72H669.563C669.443 99.96 672.203 103.08 675.963 103.08C678.643 103.08 680.483 102.04 681.963 100L682.643 100.4C681.603 104.6 678.603 107.4 673.763 107.4C667.923 107.4 663.763 103.28 663.763 96.84C663.763 89.84 668.403 85.24 674.043 85.24ZM673.603 86.8C671.163 86.8 669.883 89.4 669.643 93.08H676.843C676.843 89.28 675.963 86.8 673.603 86.8ZM692.953 92.64V103.44C692.953 105.12 693.833 105.32 696.233 105.56V107H684.153V105.56C685.873 105.44 686.513 105.24 686.513 103.92V89.8L684.193 88.4V87.48L691.913 85.24H693.113L692.953 91.28C694.713 86.76 695.993 85.24 698.433 85.24C699.313 85.24 699.953 85.52 700.313 85.92V90.8H699.473C696.953 90.8 694.873 90.92 692.953 92.64ZM717.098 103.92V92.24C717.098 90.16 716.338 89.08 714.218 89.08C712.738 89.08 711.378 89.64 710.258 90.36V103.92C710.258 105.24 710.818 105.44 712.538 105.56V107H701.458V105.56C703.178 105.44 703.818 105.24 703.818 103.92V89.8L701.498 88.4V87.48L709.218 85.24H710.418L710.258 89.2C711.858 87.24 714.138 85.24 717.658 85.24C721.458 85.24 723.538 87.4 723.538 91.76V103.92C723.538 105.24 724.178 105.44 725.898 105.56V107H714.818V105.56C716.538 105.44 717.098 105.24 717.098 103.92ZM749.306 78.52C752.906 78.52 755.906 79.36 758.186 80.88L758.266 87.56H756.546C755.586 82.88 753.306 80.36 749.506 80.36C744.226 80.36 741.906 85.76 741.906 92.56C741.906 99.92 744.706 105.48 749.866 105.48C753.426 105.48 755.986 103.12 757.466 97.16H759.306L758.666 104.88C756.306 106.48 752.986 107.4 749.146 107.4C740.226 107.4 734.706 102.04 734.706 93.68C734.706 84.36 741.186 78.52 749.306 78.52ZM772.572 105.84C775.253 105.84 776.333 102.6 776.333 97.44C776.333 91.2 775.173 86.8 772.253 86.8C769.573 86.8 768.493 90.04 768.493 95.2C768.493 101.44 769.653 105.84 772.572 105.84ZM772.373 107.4C766.013 107.4 761.693 103.2 761.693 96.76C761.693 90 766.213 85.24 772.453 85.24C778.813 85.24 783.173 89.44 783.173 95.88C783.173 102.64 778.613 107.4 772.373 107.4ZM800.536 103.92V92.24C800.536 90.16 799.776 89.08 797.656 89.08C796.176 89.08 794.816 89.64 793.696 90.36V103.92C793.696 105.24 794.256 105.44 795.976 105.56V107H784.896V105.56C786.616 105.44 787.256 105.24 787.256 103.92V89.8L784.936 88.4V87.48L792.656 85.24H793.856L793.696 89.2C795.296 87.24 797.576 85.24 801.096 85.24C804.896 85.24 806.976 87.4 806.976 91.76V103.92C806.976 105.24 807.616 105.44 809.336 105.56V107H798.256V105.56C799.976 105.44 800.536 105.24 800.536 103.92ZM831.783 85.64V87.08C830.343 87.48 830.103 87.76 829.743 88.64L821.663 107.24H819.863L810.943 88.64C810.543 87.76 810.303 87.48 808.903 87.08V85.64H820.703V87.08C818.623 87.32 818.023 87.56 818.023 88.44C818.023 88.8 818.103 89.04 818.303 89.56L822.823 99.8L827.063 89.56C827.263 89 827.343 88.8 827.343 88.44C827.343 87.56 826.743 87.36 824.663 87.08V85.64H831.783ZM841.66 85.24C847.22 85.24 850.1 88.84 850.1 93.8V94.72H837.18C837.06 99.96 839.82 103.08 843.58 103.08C846.26 103.08 848.1 102.04 849.58 100L850.26 100.4C849.22 104.6 846.22 107.4 841.38 107.4C835.54 107.4 831.38 103.28 831.38 96.84C831.38 89.84 836.02 85.24 841.66 85.24ZM841.22 86.8C838.78 86.8 837.5 89.4 837.26 93.08H844.46C844.46 89.28 843.58 86.8 841.22 86.8ZM867.411 103.92V92.24C867.411 90.16 866.651 89.08 864.531 89.08C863.051 89.08 861.691 89.64 860.571 90.36V103.92C860.571 105.24 861.131 105.44 862.851 105.56V107H851.771V105.56C853.491 105.44 854.131 105.24 854.131 103.92V89.8L851.811 88.4V87.48L859.531 85.24H860.731L860.571 89.2C862.171 87.24 864.451 85.24 867.971 85.24C871.771 85.24 873.851 87.4 873.851 91.76V103.92C873.851 105.24 874.491 105.44 876.211 105.56V107H865.131V105.56C866.851 105.44 867.411 105.24 867.411 103.92ZM886.274 85.24V103.92C886.274 105.24 886.914 105.44 888.634 105.56V107H877.474V105.56C879.194 105.44 879.834 105.24 879.834 103.92V89.8L877.514 88.4V87.48L885.194 85.24H886.274ZM883.034 83.12C880.874 83.12 879.474 81.56 879.474 79.72C879.474 77.88 880.874 76.28 883.034 76.28C885.194 76.28 886.634 77.88 886.634 79.72C886.634 81.56 885.194 83.12 883.034 83.12ZM900.41 85.24C905.97 85.24 908.85 88.84 908.85 93.8V94.72H895.93C895.81 99.96 898.57 103.08 902.33 103.08C905.01 103.08 906.85 102.04 908.33 100L909.01 100.4C907.97 104.6 904.97 107.4 900.13 107.4C894.29 107.4 890.13 103.28 890.13 96.84C890.13 89.84 894.77 85.24 900.41 85.24ZM899.97 86.8C897.53 86.8 896.25 89.4 896.01 93.08H903.21C903.21 89.28 902.33 86.8 899.97 86.8ZM926.161 103.92V92.24C926.161 90.16 925.401 89.08 923.281 89.08C921.801 89.08 920.441 89.64 919.321 90.36V103.92C919.321 105.24 919.881 105.44 921.601 105.56V107H910.521V105.56C912.241 105.44 912.881 105.24 912.881 103.92V89.8L910.561 88.4V87.48L918.281 85.24H919.481L919.321 89.2C920.921 87.24 923.201 85.24 926.721 85.24C930.521 85.24 932.601 87.4 932.601 91.76V103.92C932.601 105.24 933.241 105.44 934.961 105.56V107H923.881V105.56C925.601 105.44 926.161 105.24 926.161 103.92ZM941.784 94.48C941.784 99.64 944.144 102.96 948.184 102.96C950.584 102.96 952.344 102.04 953.624 100.16L954.424 100.6C953.144 105.2 950.064 107.4 945.784 107.4C940.304 107.4 936.224 103.4 936.224 97C936.224 90.28 940.384 85.24 946.864 85.24C950.824 85.24 953.824 86.8 953.824 90.08C953.824 91.48 953.064 92.48 952.184 92.88H948.784C948.864 92.12 948.944 91.48 948.944 90.76C948.944 88.56 948.264 86.88 946.184 86.88C943.424 86.88 941.784 90.2 941.784 94.48ZM965.996 85.24C971.556 85.24 974.436 88.84 974.436 93.8V94.72H961.516C961.396 99.96 964.156 103.08 967.916 103.08C970.596 103.08 972.436 102.04 973.916 100L974.596 100.4C973.556 104.6 970.556 107.4 965.716 107.4C959.876 107.4 955.716 103.28 955.716 96.84C955.716 89.84 960.356 85.24 965.996 85.24ZM965.556 86.8C963.116 86.8 961.836 89.4 961.596 93.08H968.796C968.796 89.28 967.916 86.8 965.556 86.8ZM984.499 107.4C981.299 107.4 978.739 106.6 977.099 105.4L976.859 99.96H978.499C979.339 103.32 981.419 105.88 984.499 105.88C986.499 105.88 988.099 104.88 988.099 102.88C988.099 100.76 986.579 100.04 983.619 99C979.259 97.56 976.939 95.76 976.939 91.92C976.939 87.64 980.139 85.24 984.779 85.24C987.419 85.24 989.739 85.92 991.419 87V91.84H989.899C989.339 89.08 987.619 86.76 984.819 86.76C982.939 86.76 981.739 87.84 981.739 89.44C981.739 91.24 982.979 92.04 985.859 93.04C990.379 94.6 992.939 96.24 992.939 100.4C992.939 104.84 989.619 107.4 984.499 107.4Z" fill="black"/>
<path d="M143.5 787.5L539.5 743.5L674 541.5L930.5 416.5L1069.5 237.5L1198 251.5" stroke="#C6988A" stroke-width="5"/>
<path d="M255 874L413 773.5L535.5 653L672 434L800 363.5L935.5 265L1066.5 228.5H1191" stroke="#9ABC95" stroke-width="5"/>
<path d="M278 870L447 790.5L539.5 756.5L671 650L832 587.5L933.5 550.5L1036.5 470L1077.5 442L1195 368.5" stroke="#7D7575" stroke-width="5"/>
<path d="M141 226H1196" stroke="#7D7575" stroke-opacity="0.3" stroke-dasharray="20 20"/>
<path d="M143 290.5H1198" stroke="#7D7575" stroke-opacity="0.3" stroke-dasharray="20 20"/>
<path d="M143 355H1198" stroke="#7D7575" stroke-opacity="0.3" stroke-dasharray="20 20"/>
<path d="M143 419.5H1198" stroke="#7D7575" stroke-opacity="0.3" stroke-dasharray="20 20"/>
<path d="M143 484H1198" stroke="#7D7575" stroke-opacity="0.3" stroke-dasharray="20 20"/>
<path d="M143 548.5H1198" stroke="#7D7575" stroke-opacity="0.3" stroke-dasharray="20 20"/>
<path d="M144 613H1199" stroke="#7D7575" stroke-opacity="0.3" stroke-dasharray="20 20"/>
<path d="M144 677.5H1199" stroke="#7D7575" stroke-opacity="0.3" stroke-dasharray="20 20"/>
<path d="M144 742H1199" stroke="#7D7575" stroke-opacity="0.3" stroke-dasharray="20 20"/>
<path d="M144 806.5H1199" stroke="#7D7575" stroke-opacity="0.3" stroke-dasharray="20 20"/>
<path opacity="0.3" d="M436.94 847.78H438.6C438.82 850.08 440.7 850.86 442.82 850.86C444.86 850.86 446.36 849.88 446.36 848.16C446.36 846.96 445.7 846.18 443.76 845.82L441.04 845.28C439.12 844.92 437.4 844.04 437.4 841.58C437.4 839.24 439.42 837.48 442.38 837.48C445.44 837.48 447.46 838.8 447.74 841.38H446.08C445.84 839.78 444.44 838.86 442.4 838.86C440.32 838.86 439.08 840.02 439.08 841.52C439.08 842.94 439.88 843.44 441.62 843.78L444.42 844.36C446.62 844.8 448.02 845.82 448.02 848.08C448.02 850.52 445.86 852.24 442.84 852.24C439.74 852.24 437.14 850.9 436.94 847.78ZM459.764 846.98C459.764 850.22 457.764 852.24 454.984 852.24C452.204 852.24 450.204 850.22 450.204 846.98C450.204 843.74 452.204 841.7 454.984 841.7C457.764 841.7 459.764 843.74 459.764 846.98ZM451.844 846.98C451.844 849.4 453.024 850.9 454.984 850.9C456.944 850.9 458.124 849.4 458.124 846.98C458.124 844.56 456.944 843.04 454.984 843.04C453.024 843.04 451.844 844.56 451.844 846.98ZM470.865 852H469.245V850.18C468.765 851.44 467.565 852.24 466.045 852.24C463.765 852.24 462.485 850.86 462.485 848.42V841.94H464.165V848.1C464.165 849.96 464.945 850.94 466.525 850.94C468.045 850.94 469.185 849.9 469.185 847.48V841.94H470.865V852ZM480.001 841.8V843.32C479.761 843.26 479.401 843.24 479.141 843.24C477.541 843.24 476.081 844.5 476.081 847.04V852H474.421V841.94H476.021V844.32C476.461 842.66 477.741 841.72 479.221 841.72C479.481 841.72 479.761 841.74 480.001 841.8ZM481.181 846.98C481.181 843.76 483.121 841.7 485.921 841.7C488.161 841.7 489.641 842.98 489.961 845.12H488.381C488.101 843.78 487.281 843.04 485.921 843.04C483.941 843.04 482.821 844.62 482.821 846.98C482.821 849.34 483.941 850.9 485.921 850.9C487.281 850.9 488.101 850.16 488.381 848.82H489.961C489.641 850.98 488.161 852.24 485.921 852.24C483.121 852.24 481.181 850.2 481.181 846.98ZM500.962 849.04C500.502 851.18 498.762 852.24 496.802 852.24C493.962 852.24 491.962 850.26 491.962 847.02C491.962 843.74 494.022 841.7 496.702 841.7C499.682 841.7 501.022 844.08 501.022 846.66V847.32H493.582C493.662 849.64 494.882 850.92 496.802 850.92C498.162 850.92 498.982 850.26 499.402 849.04H500.962ZM496.702 843.04C495.122 843.04 493.922 844.06 493.642 846.12H499.402C499.362 844.38 498.502 843.04 496.702 843.04ZM507.831 850.92C507.831 850.427 507.951 850.08 508.191 849.88C508.431 849.68 508.717 849.58 509.051 849.58C509.397 849.58 509.691 849.68 509.931 849.88C510.184 850.08 510.311 850.427 510.311 850.92C510.311 851.4 510.184 851.747 509.931 851.96C509.691 852.173 509.397 852.28 509.051 852.28C508.717 852.28 508.431 852.173 508.191 851.96C507.951 851.747 507.831 851.4 507.831 850.92ZM507.831 842.36C507.831 841.853 507.951 841.5 508.191 841.3C508.431 841.1 508.717 841 509.051 841C509.397 841 509.691 841.1 509.931 841.3C510.184 841.5 510.311 841.853 510.311 842.36C510.311 842.84 510.184 843.187 509.931 843.4C509.691 843.613 509.397 843.72 509.051 843.72C508.717 843.72 508.431 843.613 508.191 843.4C507.951 843.187 507.831 842.84 507.831 842.36ZM519.638 852H517.938V837.72H523.438C526.638 837.72 528.458 839.22 528.458 841.96C528.458 844.28 526.838 845.58 525.158 845.96L529.078 852H527.138L523.438 846.22H519.638V852ZM519.638 844.78H523.338C525.498 844.78 526.718 843.82 526.718 841.96C526.718 840.16 525.498 839.16 523.338 839.16H519.638V844.78ZM531.527 839.84V837.82H533.407V839.84H531.527ZM531.647 852V841.94H533.307V852H531.647ZM536.002 849.02H537.602C537.722 850.4 539.002 850.98 540.362 850.98C541.742 850.98 542.742 850.34 542.742 849.26C542.742 848.52 542.262 848.04 540.982 847.8L539.202 847.44C537.582 847.14 536.402 846.48 536.402 844.72C536.402 843.02 537.922 841.7 540.142 841.7C542.462 841.7 543.882 842.7 544.082 844.6H542.542C542.422 843.58 541.522 842.98 540.142 842.98C538.802 842.98 537.942 843.64 537.942 844.62C537.942 845.48 538.542 845.84 539.702 846.06L541.702 846.44C543.342 846.76 544.302 847.56 544.302 849.18C544.302 850.94 542.642 852.24 540.382 852.24C537.982 852.24 536.182 851.18 536.002 849.02ZM555.435 849.04C554.975 851.18 553.235 852.24 551.275 852.24C548.435 852.24 546.435 850.26 546.435 847.02C546.435 843.74 548.495 841.7 551.175 841.7C554.155 841.7 555.495 844.08 555.495 846.66V847.32H548.055C548.135 849.64 549.355 850.92 551.275 850.92C552.635 850.92 553.455 850.26 553.875 849.04H555.435ZM551.175 843.04C549.595 843.04 548.395 844.06 548.115 846.12H553.875C553.835 844.38 552.975 843.04 551.175 843.04ZM568.803 852C568.683 851.44 568.623 850.78 568.623 850.3C568.183 851.48 566.803 852.22 565.123 852.22C563.363 852.22 561.863 851.2 561.863 849.34C561.863 847.4 563.303 846.56 565.343 846.32L568.583 845.9V845.32C568.583 843.72 567.603 843.04 566.223 843.04C564.883 843.04 564.043 843.74 563.923 844.9H562.323C562.523 842.86 564.123 841.7 566.263 841.7C568.703 841.7 570.223 842.86 570.223 845.28V849.9C570.223 850.64 570.263 851.34 570.463 852H568.803ZM565.463 850.96C567.023 850.96 568.583 849.98 568.583 848.04V847.14L565.843 847.44C564.583 847.62 563.543 847.94 563.543 849.3C563.543 850.24 564.203 850.96 565.463 850.96ZM575.278 841.94V843.78C575.758 842.54 577.018 841.7 578.558 841.7C580.818 841.7 582.158 843.12 582.158 845.52V852H580.498V845.88C580.498 844.02 579.678 843.06 578.098 843.06C576.558 843.06 575.338 844.04 575.338 846.46V852H573.678V841.94H575.278ZM592.752 852V850.24C592.252 851.26 591.012 852.24 589.352 852.24C586.792 852.24 584.872 850.16 584.872 846.98C584.872 843.78 586.792 841.7 589.352 841.7C591.092 841.7 592.232 842.7 592.692 843.72V837.28H594.352V852H592.752ZM592.772 847.1V846.82C592.772 844.54 591.652 843 589.692 843C587.712 843 586.552 844.62 586.552 846.98C586.552 849.32 587.712 850.94 589.692 850.94C591.652 850.94 592.772 849.38 592.772 847.1ZM602.333 852V837.72H611.473V839.16H604.053V844.38H610.793V845.82H604.053V852H602.333ZM620.151 852C620.031 851.44 619.971 850.78 619.971 850.3C619.531 851.48 618.151 852.22 616.471 852.22C614.711 852.22 613.211 851.2 613.211 849.34C613.211 847.4 614.651 846.56 616.691 846.32L619.931 845.9V845.32C619.931 843.72 618.951 843.04 617.571 843.04C616.231 843.04 615.391 843.74 615.271 844.9H613.671C613.871 842.86 615.471 841.7 617.611 841.7C620.051 841.7 621.571 842.86 621.571 845.28V849.9C621.571 850.64 621.611 851.34 621.811 852H620.151ZM616.811 850.96C618.371 850.96 619.931 849.98 619.931 848.04V847.14L617.191 847.44C615.931 847.62 614.891 847.94 614.891 849.3C614.891 850.24 615.551 850.96 616.811 850.96ZM626.686 852H625.026V837.28H626.686V852ZM631.901 852H630.241V837.28H631.901V852ZM648.612 846.98C648.612 850.22 646.612 852.24 643.832 852.24C641.052 852.24 639.052 850.22 639.052 846.98C639.052 843.74 641.052 841.7 643.832 841.7C646.612 841.7 648.612 843.74 648.612 846.98ZM640.692 846.98C640.692 849.4 641.872 850.9 643.832 850.9C645.792 850.9 646.972 849.4 646.972 846.98C646.972 844.56 645.792 843.04 643.832 843.04C641.872 843.04 640.692 844.56 640.692 846.98ZM651.692 843.2H650.232V841.94H651.692V840.06C651.692 838.18 652.892 837.22 654.612 837.22C654.972 837.22 655.432 837.26 655.732 837.32V838.64C655.472 838.6 655.072 838.58 654.712 838.58C653.992 838.58 653.332 838.94 653.332 840.08V841.94H655.492V843.2H653.332V852H651.692V843.2ZM672.259 852L670.679 848.02H663.839L662.259 852H660.539L666.319 837.72H668.259L674.059 852H672.259ZM667.239 839.44L664.399 846.6H670.119L667.299 839.44H667.239ZM684.018 843.86C684.638 842.5 685.918 841.7 687.398 841.7C689.718 841.7 690.858 843.16 690.858 845.52V852H689.178V845.88C689.178 844 688.498 843.06 686.998 843.06C685.498 843.06 684.358 844.14 684.358 846.46V852H682.678V845.88C682.678 844 682.018 843.06 680.498 843.06C678.978 843.06 677.838 844.14 677.838 846.46V852H676.178V841.94H677.778V843.78C678.258 842.5 679.498 841.7 680.958 841.7C682.658 841.7 683.578 842.52 684.018 843.86ZM702.563 849.04C702.103 851.18 700.363 852.24 698.403 852.24C695.563 852.24 693.563 850.26 693.563 847.02C693.563 843.74 695.623 841.7 698.303 841.7C701.283 841.7 702.623 844.08 702.623 846.66V847.32H695.183C695.263 849.64 696.483 850.92 698.403 850.92C699.763 850.92 700.583 850.26 701.003 849.04H702.563ZM698.303 843.04C696.723 843.04 695.523 844.06 695.243 846.12H701.003C700.963 844.38 700.103 843.04 698.303 843.04ZM711.016 841.8V843.32C710.776 843.26 710.416 843.24 710.156 843.24C708.556 843.24 707.096 844.5 707.096 847.04V852H705.436V841.94H707.036V844.32C707.476 842.66 708.756 841.72 710.236 841.72C710.496 841.72 710.776 841.74 711.016 841.8ZM713.012 839.84V837.82H714.892V839.84H713.012ZM713.132 852V841.94H714.792V852H713.132ZM717.606 846.98C717.606 843.76 719.546 841.7 722.346 841.7C724.586 841.7 726.066 842.98 726.386 845.12H724.806C724.526 843.78 723.706 843.04 722.346 843.04C720.366 843.04 719.246 844.62 719.246 846.98C719.246 849.34 720.366 850.9 722.346 850.9C723.706 850.9 724.526 850.16 724.806 848.82H726.386C726.066 850.98 724.586 852.24 722.346 852.24C719.546 852.24 717.606 850.2 717.606 846.98ZM735.288 852C735.168 851.44 735.108 850.78 735.108 850.3C734.668 851.48 733.288 852.22 731.608 852.22C729.848 852.22 728.348 851.2 728.348 849.34C728.348 847.4 729.788 846.56 731.828 846.32L735.068 845.9V845.32C735.068 843.72 734.088 843.04 732.708 843.04C731.368 843.04 730.528 843.74 730.408 844.9H728.808C729.008 842.86 730.608 841.7 732.748 841.7C735.188 841.7 736.708 842.86 736.708 845.28V849.9C736.708 850.64 736.748 851.34 736.948 852H735.288ZM731.948 850.96C733.508 850.96 735.068 849.98 735.068 848.04V847.14L732.328 847.44C731.068 847.62 730.028 847.94 730.028 849.3C730.028 850.24 730.688 850.96 731.948 850.96ZM741.763 841.94V843.78C742.243 842.54 743.503 841.7 745.043 841.7C747.303 841.7 748.643 843.12 748.643 845.52V852H746.983V845.88C746.983 844.02 746.163 843.06 744.583 843.06C743.043 843.06 741.823 844.04 741.823 846.46V852H740.163V841.94H741.763ZM755.652 844.84C755.652 840.36 758.472 837.48 762.252 837.48C765.432 837.48 767.332 839.24 767.832 841.88H766.112C765.732 840.1 764.432 838.94 762.252 838.94C759.212 838.94 757.412 841.28 757.412 844.84C757.412 848.4 759.172 850.78 762.192 850.78C764.592 850.78 766.372 849.3 766.372 846.98V846.24H762.992V844.88H768.052V852H766.692L766.532 849.62C765.992 851.16 764.072 852.24 762.172 852.24C758.392 852.24 755.652 849.34 755.652 844.84ZM776.934 841.8V843.32C776.694 843.26 776.334 843.24 776.074 843.24C774.474 843.24 773.014 844.5 773.014 847.04V852H771.354V841.94H772.954V844.32C773.394 842.66 774.674 841.72 776.154 841.72C776.414 841.72 776.694 841.74 776.934 841.8ZM787.674 846.98C787.674 850.22 785.674 852.24 782.894 852.24C780.114 852.24 778.114 850.22 778.114 846.98C778.114 843.74 780.114 841.7 782.894 841.7C785.674 841.7 787.674 843.74 787.674 846.98ZM779.754 846.98C779.754 849.4 780.934 850.9 782.894 850.9C784.854 850.9 786.034 849.4 786.034 846.98C786.034 844.56 784.854 843.04 782.894 843.04C780.934 843.04 779.754 844.56 779.754 846.98ZM797.02 841.94L799.3 850.2H799.34L801.66 841.94H803.26L800.22 852H798.5L796.18 843.86H796.12L793.84 852H792.1L789.06 841.94H790.7L793.04 850.2H793.1L795.34 841.94H797.02ZM810.565 850.52V851.88C809.825 852.1 809.245 852.16 808.805 852.16C806.965 852.16 806.025 851.28 806.025 849.42V843.2H804.545V841.94H806.025V839.38H807.665V841.94H810.305V843.2H807.645V849.34C807.645 850.4 808.185 850.76 809.105 850.76C809.485 850.76 809.925 850.72 810.565 850.52ZM814.928 843.78C815.408 842.5 816.608 841.7 818.148 841.7C820.408 841.7 821.748 843.12 821.748 845.52V852H820.088V845.88C820.088 844.02 819.268 843.06 817.688 843.06C816.148 843.06 814.928 844.04 814.928 846.46V852H813.268V837.28H814.928V843.78ZM832.538 836.8H833.998V856.82H832.538V836.8ZM850.029 837.72C854.169 837.72 856.989 840.58 856.989 844.86C856.989 849.16 854.169 852 850.029 852H844.969V837.72H850.029ZM850.029 839.16H846.669V850.56H850.029C853.349 850.56 855.209 848.32 855.209 844.86C855.209 841.42 853.349 839.16 850.029 839.16ZM865.932 852C865.812 851.44 865.752 850.78 865.752 850.3C865.312 851.48 863.932 852.22 862.252 852.22C860.492 852.22 858.992 851.2 858.992 849.34C858.992 847.4 860.432 846.56 862.472 846.32L865.712 845.9V845.32C865.712 843.72 864.732 843.04 863.352 843.04C862.012 843.04 861.172 843.74 861.052 844.9H859.452C859.652 842.86 861.252 841.7 863.392 841.7C865.832 841.7 867.352 842.86 867.352 845.28V849.9C867.352 850.64 867.392 851.34 867.592 852H865.932ZM862.592 850.96C864.152 850.96 865.712 849.98 865.712 848.04V847.14L862.972 847.44C861.712 847.62 860.672 847.94 860.672 849.3C860.672 850.24 861.332 850.96 862.592 850.96ZM875.487 850.52V851.88C874.747 852.1 874.167 852.16 873.727 852.16C871.887 852.16 870.947 851.28 870.947 849.42V843.2H869.467V841.94H870.947V839.38H872.587V841.94H875.227V843.2H872.567V849.34C872.567 850.4 873.107 850.76 874.027 850.76C874.407 850.76 874.847 850.72 875.487 850.52ZM884.35 852C884.23 851.44 884.17 850.78 884.17 850.3C883.73 851.48 882.35 852.22 880.67 852.22C878.91 852.22 877.41 851.2 877.41 849.34C877.41 847.4 878.85 846.56 880.89 846.32L884.13 845.9V845.32C884.13 843.72 883.15 843.04 881.77 843.04C880.43 843.04 879.59 843.74 879.47 844.9H877.87C878.07 842.86 879.67 841.7 881.81 841.7C884.25 841.7 885.77 842.86 885.77 845.28V849.9C885.77 850.64 885.81 851.34 886.01 852H884.35ZM881.01 850.96C882.57 850.96 884.13 849.98 884.13 848.04V847.14L881.39 847.44C880.13 847.62 879.09 847.94 879.09 849.3C879.09 850.24 879.75 850.96 881.01 850.96ZM888.885 850.92C888.885 850.427 889.005 850.08 889.245 849.88C889.485 849.68 889.772 849.58 890.105 849.58C890.452 849.58 890.745 849.68 890.985 849.88C891.239 850.08 891.365 850.427 891.365 850.92C891.365 851.4 891.239 851.747 890.985 851.96C890.745 852.173 890.452 852.28 890.105 852.28C889.772 852.28 889.485 852.173 889.245 851.96C889.005 851.747 888.885 851.4 888.885 850.92ZM888.885 842.36C888.885 841.853 889.005 841.5 889.245 841.3C889.485 841.1 889.772 841 890.105 841C890.452 841 890.745 841.1 890.985 841.3C891.239 841.5 891.365 841.853 891.365 842.36C891.365 842.84 891.239 843.187 890.985 843.4C890.745 843.613 890.452 843.72 890.105 843.72C889.772 843.72 889.485 843.613 889.245 843.4C889.005 843.187 888.885 842.84 888.885 842.36ZM898.993 852V837.72H900.713V850.56H908.393V852H898.993ZM919.282 849.04C918.822 851.18 917.082 852.24 915.122 852.24C912.282 852.24 910.282 850.26 910.282 847.02C910.282 843.74 912.342 841.7 915.022 841.7C918.002 841.7 919.342 844.08 919.342 846.66V847.32H911.902C911.982 849.64 913.202 850.92 915.122 850.92C916.482 850.92 917.302 850.26 917.722 849.04H919.282ZM915.022 843.04C913.442 843.04 912.242 844.06 911.962 846.12H917.722C917.682 844.38 916.822 843.04 915.022 843.04ZM923.755 850.24V852H922.155V837.28H923.815V843.72C924.275 842.7 925.415 841.7 927.155 841.7C929.715 841.7 931.635 843.78 931.635 846.98C931.635 850.16 929.715 852.24 927.155 852.24C925.495 852.24 924.255 851.26 923.755 850.24ZM923.735 846.82V847.1C923.735 849.38 924.855 850.94 926.815 850.94C928.795 850.94 929.955 849.32 929.955 846.98C929.955 844.62 928.795 843 926.815 843C924.855 843 923.735 844.54 923.735 846.82ZM942.739 849.04C942.279 851.18 940.539 852.24 938.579 852.24C935.739 852.24 933.739 850.26 933.739 847.02C933.739 843.74 935.799 841.7 938.479 841.7C941.459 841.7 942.799 844.08 942.799 846.66V847.32H935.359C935.439 849.64 936.659 850.92 938.579 850.92C939.939 850.92 940.759 850.26 941.179 849.04H942.739ZM938.479 843.04C936.899 843.04 935.699 844.06 935.419 846.12H941.179C941.139 844.38 940.279 843.04 938.479 843.04ZM951.192 841.8V843.32C950.952 843.26 950.592 843.24 950.332 843.24C948.732 843.24 947.272 844.5 947.272 847.04V852H945.612V841.94H947.212V844.32C947.652 842.66 948.932 841.72 950.412 841.72C950.672 841.72 950.952 841.74 951.192 841.8ZM960.25 851.36V849.88C959.79 850.86 958.67 851.82 956.91 851.82C954.33 851.82 952.45 849.88 952.45 846.74C952.45 843.72 954.33 841.7 956.91 841.7C958.67 841.7 959.83 842.74 960.31 843.7V841.94H961.93V851.24C961.93 854.44 959.85 855.8 957.17 855.8C954.75 855.8 953.11 854.82 952.71 852.86H954.39C954.73 854.12 955.79 854.52 957.15 854.52C959.13 854.52 960.25 853.46 960.25 851.36ZM960.37 846.98V846.5C960.37 844.42 959.07 843 957.21 843C955.25 843 954.09 844.5 954.09 846.74C954.09 848.96 955.25 850.5 957.21 850.5C959.07 850.5 960.37 849.06 960.37 846.98ZM974.315 846.98C974.315 850.22 972.315 852.24 969.535 852.24C966.755 852.24 964.755 850.22 964.755 846.98C964.755 843.74 966.755 841.7 969.535 841.7C972.315 841.7 974.315 843.74 974.315 846.98ZM966.395 846.98C966.395 849.4 967.575 850.9 969.535 850.9C971.495 850.9 972.675 849.4 972.675 846.98C972.675 844.56 971.495 843.04 969.535 843.04C967.575 843.04 966.395 844.56 966.395 846.98ZM981.815 850.52V851.88C981.075 852.1 980.495 852.16 980.055 852.16C978.215 852.16 977.275 851.28 977.275 849.42V843.2H975.795V841.94H977.275V839.38H978.915V841.94H981.555V843.2H978.895V849.34C978.895 850.4 979.435 850.76 980.355 850.76C980.735 850.76 981.175 850.72 981.815 850.52ZM989.198 850.52V851.88C988.458 852.1 987.878 852.16 987.438 852.16C985.598 852.16 984.658 851.28 984.658 849.42V843.2H983.178V841.94H984.658V839.38H986.298V841.94H988.938V843.2H986.278V849.34C986.278 850.4 986.818 850.76 987.738 850.76C988.118 850.76 988.558 850.72 989.198 850.52ZM995.257 846.52C995.257 845.427 995.357 844.36 995.557 843.32C995.77 842.28 996.097 841.287 996.537 840.34C996.977 839.393 997.53 838.52 998.197 837.72H999.857C999.244 838.547 998.724 839.44 998.297 840.4C997.884 841.36 997.57 842.353 997.357 843.38C997.144 844.407 997.037 845.447 997.037 846.5C997.037 847.527 997.144 848.547 997.357 849.56C997.57 850.573 997.884 851.547 998.297 852.48C998.71 853.427 999.224 854.32 999.837 855.16H998.197C997.53 854.373 996.977 853.513 996.537 852.58C996.097 851.66 995.77 850.687 995.557 849.66C995.357 848.633 995.257 847.587 995.257 846.52ZM1000.95 840.98V839.82C1003.39 839.82 1004.27 839.14 1004.61 837.66H1005.67V852H1003.95V840.98H1000.95ZM1013.56 850.8C1016.2 850.8 1017.58 848.06 1017.58 844.36C1017.12 845.84 1015.72 847.26 1013.54 847.26C1010.72 847.26 1008.82 845.18 1008.82 842.44C1008.82 839.56 1010.78 837.48 1013.76 837.48C1016.92 837.48 1019.18 840.24 1019.18 844.62C1019.18 849.14 1016.82 852.24 1013.54 852.24C1011 852.24 1009.28 850.74 1008.96 848.34H1010.54C1010.88 849.96 1011.86 850.8 1013.56 850.8ZM1013.76 838.88C1011.72 838.88 1010.44 840.38 1010.44 842.38C1010.44 844.4 1011.72 845.86 1013.76 845.86C1015.76 845.86 1017.12 844.4 1017.12 842.38C1017.12 840.38 1015.76 838.88 1013.76 838.88ZM1028.51 839.18H1020.35V837.72H1030.39V838.94C1026.99 843.06 1025.79 847.14 1025.73 852H1023.93C1023.99 846.94 1025.81 842.62 1028.51 839.18ZM1037.72 838.92C1035.08 838.92 1033.7 841.66 1033.7 845.36C1034.16 843.88 1035.56 842.46 1037.74 842.46C1040.56 842.46 1042.46 844.54 1042.46 847.28C1042.46 850.16 1040.5 852.24 1037.52 852.24C1034.36 852.24 1032.1 849.48 1032.1 845.1C1032.1 840.58 1034.46 837.48 1037.74 837.48C1040.28 837.48 1042 838.98 1042.32 841.38H1040.74C1040.4 839.76 1039.42 838.92 1037.72 838.92ZM1037.52 850.84C1039.56 850.84 1040.84 849.34 1040.84 847.34C1040.84 845.32 1039.56 843.86 1037.52 843.86C1035.52 843.86 1034.16 845.32 1034.16 847.34C1034.16 849.34 1035.52 850.84 1037.52 850.84ZM1048.72 846.52C1048.72 847.587 1048.61 848.633 1048.4 849.66C1048.2 850.687 1047.88 851.66 1047.44 852.58C1047.01 853.513 1046.46 854.373 1045.78 855.16H1044.14C1044.75 854.32 1045.27 853.427 1045.68 852.48C1046.09 851.547 1046.41 850.573 1046.62 849.56C1046.83 848.547 1046.94 847.527 1046.94 846.5C1046.94 845.447 1046.83 844.407 1046.62 843.38C1046.41 842.353 1046.09 841.36 1045.68 840.4C1045.27 839.44 1044.75 838.547 1044.12 837.72H1045.78C1046.46 838.52 1047.01 839.393 1047.44 840.34C1047.88 841.287 1048.2 842.28 1048.4 843.32C1048.61 844.36 1048.72 845.427 1048.72 846.52ZM1051.5 851.98V849.82H1053.68V852.34C1053.68 854 1052.68 855.14 1050.86 855.14V854.12C1051.88 854.12 1052.46 853.66 1052.46 852.34V851.98H1051.5ZM1063.42 850.24V855.56H1061.76V841.94H1063.36V843.78C1063.82 842.76 1065.02 841.7 1066.76 841.7C1069.32 841.7 1071.24 843.78 1071.24 846.98C1071.24 850.16 1069.32 852.24 1066.76 852.24C1065.1 852.24 1063.92 851.26 1063.42 850.24ZM1063.34 846.82V847.1C1063.34 849.38 1064.46 850.94 1066.42 850.94C1068.4 850.94 1069.56 849.32 1069.56 846.98C1069.56 844.62 1068.4 843 1066.42 843C1064.46 843 1063.34 844.54 1063.34 846.82ZM1075.73 850.24V855.56H1074.07V841.94H1075.67V843.78C1076.13 842.76 1077.33 841.7 1079.07 841.7C1081.63 841.7 1083.55 843.78 1083.55 846.98C1083.55 850.16 1081.63 852.24 1079.07 852.24C1077.41 852.24 1076.23 851.26 1075.73 850.24ZM1075.65 846.82V847.1C1075.65 849.38 1076.77 850.94 1078.73 850.94C1080.71 850.94 1081.87 849.32 1081.87 846.98C1081.87 844.62 1080.71 843 1078.73 843C1076.77 843 1075.65 844.54 1075.65 846.82ZM1086.12 852V849.82H1088.3V852H1086.12ZM1105.07 841.64C1105.07 844.32 1102.85 845.52 1100.71 846.9C1098.97 848.06 1097.25 849.26 1097.25 850.56H1105.21V852H1095.41V851.22C1095.41 848.68 1097.87 846.9 1099.99 845.58C1101.89 844.36 1103.43 843.3 1103.43 841.64C1103.43 840.28 1102.65 838.92 1100.53 838.92C1098.57 838.92 1097.43 840.4 1097.31 842.12H1095.69C1095.83 839.6 1097.55 837.48 1100.55 837.48C1103.55 837.48 1105.07 839.52 1105.07 841.64ZM1112.76 838.92C1110.12 838.92 1108.74 841.66 1108.74 845.36C1109.2 843.88 1110.6 842.46 1112.78 842.46C1115.6 842.46 1117.5 844.54 1117.5 847.28C1117.5 850.16 1115.54 852.24 1112.56 852.24C1109.4 852.24 1107.14 849.48 1107.14 845.1C1107.14 840.58 1109.5 837.48 1112.78 837.48C1115.32 837.48 1117.04 838.98 1117.36 841.38H1115.78C1115.44 839.76 1114.46 838.92 1112.76 838.92ZM1112.56 850.84C1114.6 850.84 1115.88 849.34 1115.88 847.34C1115.88 845.32 1114.6 843.86 1112.56 843.86C1110.56 843.86 1109.2 845.32 1109.2 847.34C1109.2 849.34 1110.56 850.84 1112.56 850.84ZM1119.64 844.86C1119.64 840.58 1121.86 837.48 1125.32 837.48C1128.8 837.48 1131 840.58 1131 844.86C1131 849.14 1128.8 852.24 1125.32 852.24C1121.86 852.24 1119.64 849.14 1119.64 844.86ZM1121.4 844.86C1121.4 848.36 1122.72 850.76 1125.32 850.76C1127.94 850.76 1129.26 848.36 1129.26 844.86C1129.26 841.36 1127.94 838.96 1125.32 838.96C1122.72 838.96 1121.4 841.36 1121.4 844.86ZM1133.83 847.12V845.66H1139.37V847.12H1133.83ZM1147.5 837.48C1150.18 837.48 1152.22 838.96 1152.22 841.42C1152.22 843.04 1151.28 844.2 1149.86 844.76C1151.38 845.04 1152.86 846.42 1152.86 848.1C1152.86 850.56 1150.78 852.24 1147.5 852.24C1144.26 852.24 1142.16 850.56 1142.16 848.1C1142.16 846.42 1143.64 845.04 1145.16 844.76C1143.76 844.2 1142.8 843.04 1142.8 841.42C1142.8 838.96 1144.84 837.48 1147.5 837.48ZM1147.5 844.02C1149.22 844.02 1150.64 843.18 1150.64 841.42C1150.64 839.68 1149.22 838.84 1147.5 838.84C1145.8 838.84 1144.38 839.68 1144.38 841.42C1144.38 843.18 1145.8 844.02 1147.5 844.02ZM1147.5 850.86C1149.78 850.86 1151.14 849.78 1151.14 848.1C1151.14 846.44 1149.78 845.4 1147.5 845.4C1145.26 845.4 1143.88 846.44 1143.88 848.1C1143.88 849.78 1145.26 850.86 1147.5 850.86ZM1160.29 837.48C1162.97 837.48 1165.01 838.96 1165.01 841.42C1165.01 843.04 1164.07 844.2 1162.65 844.76C1164.17 845.04 1165.65 846.42 1165.65 848.1C1165.65 850.56 1163.57 852.24 1160.29 852.24C1157.05 852.24 1154.95 850.56 1154.95 848.1C1154.95 846.42 1156.43 845.04 1157.95 844.76C1156.55 844.2 1155.59 843.04 1155.59 841.42C1155.59 838.96 1157.63 837.48 1160.29 837.48ZM1160.29 844.02C1162.01 844.02 1163.43 843.18 1163.43 841.42C1163.43 839.68 1162.01 838.84 1160.29 838.84C1158.59 838.84 1157.17 839.68 1157.17 841.42C1157.17 843.18 1158.59 844.02 1160.29 844.02ZM1160.29 850.86C1162.57 850.86 1163.93 849.78 1163.93 848.1C1163.93 846.44 1162.57 845.4 1160.29 845.4C1158.05 845.4 1156.67 846.44 1156.67 848.1C1156.67 849.78 1158.05 850.86 1160.29 850.86ZM1168.23 852V849.82H1170.41V852H1168.23Z" fill="black"/>
</svg>
