<svg width="689" height="481" viewBox="0 0 689 481" fill="none" xmlns="http://www.w3.org/2000/svg">
<rect x="57" y="64" width="624" height="393" fill="#E7E7E7" fill-opacity="0.5"/>
<path d="M58 65V457H681" stroke="black" stroke-width="2"/>
<path d="M15.14 55.41H14.73V60.86C14.73 61.45 14.97 61.57 15.47 61.57H15.61C16.8 61.57 17.61 60.44 17.61 58.58C17.61 56.73 16.8 55.41 15.14 55.41ZM15.65 62H12.27V61.62C12.95 61.54 13.03 61.47 13.03 60.93V56.05C13.03 55.51 12.95 55.44 12.27 55.36V54.98H15.44C18.15 54.98 19.4 56.48 19.4 58.38C19.4 60.67 17.88 62 15.65 62ZM22.6939 61.71C23.3639 61.71 23.6339 60.9 23.6339 59.61C23.6339 58.05 23.3439 56.95 22.6139 56.95C21.9439 56.95 21.6739 57.76 21.6739 59.05C21.6739 60.61 21.9639 61.71 22.6939 61.71ZM22.6439 62.1C21.0539 62.1 19.9739 61.05 19.9739 59.44C19.9739 57.75 21.1039 56.56 22.6639 56.56C24.2539 56.56 25.3439 57.61 25.3439 59.22C25.3439 60.91 24.2039 62.1 22.6439 62.1ZM27.9152 54.17V61.23C27.9152 61.56 28.0752 61.61 28.5152 61.64V62H25.7152V61.64C26.1552 61.61 26.3152 61.56 26.3152 61.23V55.19L25.7352 54.89V54.64L27.6552 54.17H27.9152ZM31.0499 54.17V61.23C31.0499 61.56 31.2099 61.61 31.6499 61.64V62H28.8499V61.64C29.2899 61.61 29.4499 61.56 29.4499 61.23V55.19L28.8699 54.89V54.64L30.7899 54.17H31.0499ZM34.2847 61.21C34.5147 61.21 34.6747 61.12 34.8947 60.97V59.11L34.1847 59.39C33.7947 59.55 33.5447 59.75 33.5447 60.32C33.5447 60.84 33.7647 61.21 34.2847 61.21ZM36.4847 58.25V60.9C36.4847 61.19 36.5347 61.4 36.7847 61.4C36.9347 61.4 37.0647 61.36 37.1547 61.32L37.2147 61.56C36.9147 61.9 36.5147 62.1 35.9947 62.1C35.4347 62.1 35.0547 61.78 34.9247 61.24C34.6147 61.66 34.1147 62.08 33.3947 62.08C32.5647 62.08 32.0047 61.59 32.0047 60.76C32.0047 59.89 32.6147 59.54 33.3447 59.27L34.8947 58.72V57.79C34.8947 57.27 34.7347 56.91 34.2747 56.91C33.8447 56.91 33.6647 57.25 33.6647 57.73C33.6647 57.94 33.6947 58.15 33.7547 58.38L32.7947 58.51C32.5147 58.42 32.3247 58.19 32.3247 57.85C32.3247 56.98 33.2247 56.56 34.3847 56.56C35.7147 56.56 36.4847 57.01 36.4847 58.25ZM39.6055 58.41V61.11C39.6055 61.53 39.8255 61.58 40.4255 61.64V62H37.4055V61.64C37.8355 61.61 37.9955 61.56 37.9955 61.23V57.7L37.4155 57.35V57.12L39.3455 56.56H39.6455L39.6055 58.07C40.0455 56.94 40.3655 56.56 40.9755 56.56C41.1955 56.56 41.3555 56.63 41.4455 56.73V57.95H41.2355C40.6055 57.95 40.0855 57.98 39.6055 58.41ZM43.7322 62.1C42.9322 62.1 42.2922 61.9 41.8822 61.6L41.8222 60.24H42.2322C42.4422 61.08 42.9622 61.72 43.7322 61.72C44.2322 61.72 44.6322 61.47 44.6322 60.97C44.6322 60.44 44.2522 60.26 43.5122 60C42.4222 59.64 41.8422 59.19 41.8422 58.23C41.8422 57.16 42.6422 56.56 43.8022 56.56C44.4622 56.56 45.0422 56.73 45.4622 57V58.21H45.0822C44.9422 57.52 44.5122 56.94 43.8122 56.94C43.3422 56.94 43.0422 57.21 43.0422 57.61C43.0422 58.06 43.3522 58.26 44.0722 58.51C45.2022 58.9 45.8422 59.31 45.8422 60.35C45.8422 61.46 45.0122 62.1 43.7322 62.1ZM12.4 71.26C12.4 70.7133 12.45 70.18 12.55 69.66C12.6567 69.14 12.82 68.6433 13.04 68.17C13.26 67.6967 13.5367 67.26 13.87 66.86H15.09C14.79 67.2733 14.5367 67.72 14.33 68.2C14.1233 68.68 13.9667 69.1767 13.86 69.69C13.7533 70.2033 13.7 70.7233 13.7 71.25C13.7 71.7633 13.7533 72.2767 13.86 72.79C13.9667 73.2967 14.12 73.7833 14.32 74.25C14.5267 74.7233 14.78 75.1667 15.08 75.58H13.87C13.5367 75.1867 13.26 74.7567 13.04 74.29C12.82 73.83 12.6567 73.3433 12.55 72.83C12.45 72.3167 12.4 71.7933 12.4 71.26ZM17.9187 73.6C17.4853 73.5867 17.0987 73.5467 16.7587 73.48C16.4187 73.4067 16.1087 73.3067 15.8287 73.18V71.89C16.102 72.0233 16.432 72.1467 16.8187 72.26C17.2053 72.3667 17.572 72.43 17.9187 72.45V70.94C17.532 70.7867 17.202 70.64 16.9287 70.5C16.662 70.36 16.4453 70.2133 16.2787 70.06C16.1187 69.9 16.002 69.7267 15.9287 69.54C15.8553 69.3467 15.8187 69.1267 15.8187 68.88C15.8187 68.5467 15.9053 68.26 16.0787 68.02C16.2587 67.7733 16.5053 67.5767 16.8187 67.43C17.1387 67.2833 17.5053 67.1933 17.9187 67.16V66.41H18.5887V67.14C18.962 67.1533 19.312 67.1967 19.6387 67.27C19.972 67.3433 20.2953 67.45 20.6087 67.59L20.1487 68.73C19.882 68.6167 19.612 68.53 19.3387 68.47C19.072 68.41 18.822 68.37 18.5887 68.35V69.79C18.9487 69.9233 19.292 70.07 19.6187 70.23C19.9453 70.3833 20.2087 70.58 20.4087 70.82C20.6153 71.06 20.7187 71.3767 20.7187 71.77C20.7187 72.2567 20.542 72.6633 20.1887 72.99C19.8353 73.3167 19.302 73.5133 18.5887 73.58V74.58H17.9187V73.6ZM18.5887 72.42C18.8153 72.38 18.982 72.3133 19.0887 72.22C19.1953 72.12 19.2487 71.9933 19.2487 71.84C19.2487 71.7467 19.222 71.6667 19.1687 71.6C19.122 71.5267 19.0487 71.46 18.9487 71.4C18.8553 71.3333 18.7353 71.2667 18.5887 71.2V72.42ZM17.9187 68.37C17.7853 68.39 17.672 68.4233 17.5787 68.47C17.4853 68.51 17.412 68.5667 17.3587 68.64C17.312 68.7067 17.2887 68.7867 17.2887 68.88C17.2887 68.9733 17.3087 69.0567 17.3487 69.13C17.3953 69.1967 17.4653 69.2633 17.5587 69.33C17.652 69.39 17.772 69.4533 17.9187 69.52V68.37ZM25.5275 68.05V71.42C25.5275 72.61 26.0175 73.34 27.1075 73.34C28.1275 73.34 28.8775 72.8 28.8775 71.37V68.05C28.8775 67.52 28.7475 67.43 27.9275 67.36V66.98H30.2375V67.36C29.5475 67.44 29.4675 67.52 29.4675 68.05V71.56C29.4675 73.29 28.2675 74.1 26.7575 74.1C24.9075 74.1 23.8275 73.27 23.8275 71.55V68.05C23.8275 67.51 23.7475 67.44 23.0675 67.36V66.98H26.2975V67.36C25.6075 67.44 25.5275 67.51 25.5275 68.05ZM32.9905 74.1C32.0105 74.1 31.1605 73.81 30.7005 73.44L30.6105 71.71H31.0805C31.3205 72.87 31.9705 73.66 32.9905 73.66C33.7505 73.66 34.2405 73.27 34.2405 72.61C34.2405 71.92 33.8105 71.62 32.6505 71.23C31.4005 70.83 30.6605 70.24 30.6605 69.04C30.6605 67.74 31.6505 66.88 33.0805 66.88C33.9605 66.88 34.7105 67.11 35.2105 67.47V68.98H34.7905C34.5805 67.94 34.0305 67.32 33.0805 67.32C32.4205 67.32 31.9905 67.71 31.9905 68.31C31.9905 68.99 32.3905 69.26 33.4405 69.62C34.7805 70.07 35.6205 70.59 35.6205 71.92C35.6205 73.39 34.4305 74.1 32.9905 74.1ZM39.0853 67.41H38.6753V72.86C38.6753 73.45 38.9153 73.57 39.4153 73.57H39.5553C40.7453 73.57 41.5553 72.44 41.5553 70.58C41.5553 68.73 40.7453 67.41 39.0853 67.41ZM39.5953 74H36.2153V73.62C36.8953 73.54 36.9753 73.47 36.9753 72.93V68.05C36.9753 67.51 36.8953 67.44 36.2153 67.36V66.98H39.3853C42.0953 66.98 43.3453 68.48 43.3453 70.38C43.3453 72.67 41.8253 74 39.5953 74ZM46.6111 71.26C46.6111 71.7933 46.5578 72.3167 46.4511 72.83C46.3511 73.3433 46.1911 73.83 45.9711 74.29C45.7578 74.7567 45.4811 75.1867 45.1411 75.58H43.9311C44.2311 75.1667 44.4811 74.7233 44.6811 74.25C44.8878 73.7833 45.0444 73.2967 45.1511 72.79C45.2578 72.2767 45.3111 71.7633 45.3111 71.25C45.3111 70.7233 45.2578 70.2033 45.1511 69.69C45.0444 69.1767 44.8878 68.68 44.6811 68.2C44.4811 67.72 44.2278 67.2733 43.9211 66.86H45.1411C45.4811 67.26 45.7578 67.6967 45.9711 68.17C46.1911 68.6433 46.3511 69.14 46.4511 69.66C46.5578 70.18 46.6111 70.7133 46.6111 71.26Z" fill="black"/>
<path d="M51.3 471.388V470.692C52.764 470.692 53.292 470.284 53.496 469.396H54.132V478H53.1V471.388H51.3ZM58.8628 477.28C60.4468 477.28 61.2748 475.636 61.2748 473.416C60.9988 474.304 60.1588 475.156 58.8508 475.156C57.1588 475.156 56.0188 473.908 56.0188 472.264C56.0188 470.536 57.1948 469.288 58.9828 469.288C60.8788 469.288 62.2348 470.944 62.2348 473.572C62.2348 476.284 60.8188 478.144 58.8508 478.144C57.3268 478.144 56.2948 477.244 56.1028 475.804H57.0508C57.2548 476.776 57.8428 477.28 58.8628 477.28ZM58.9828 470.128C57.7588 470.128 56.9908 471.028 56.9908 472.228C56.9908 473.44 57.7588 474.316 58.9828 474.316C60.1828 474.316 60.9988 473.44 60.9988 472.228C60.9988 471.028 60.1828 470.128 58.9828 470.128ZM66.3628 477.28C67.9468 477.28 68.7748 475.636 68.7748 473.416C68.4988 474.304 67.6588 475.156 66.3508 475.156C64.6588 475.156 63.5188 473.908 63.5188 472.264C63.5188 470.536 64.6948 469.288 66.4828 469.288C68.3788 469.288 69.7348 470.944 69.7348 473.572C69.7348 476.284 68.3188 478.144 66.3508 478.144C64.8268 478.144 63.7948 477.244 63.6028 475.804H64.5508C64.7548 476.776 65.3428 477.28 66.3628 477.28ZM66.4828 470.128C65.2588 470.128 64.4908 471.028 64.4908 472.228C64.4908 473.44 65.2588 474.316 66.4828 474.316C67.6828 474.316 68.4988 473.44 68.4988 472.228C68.4988 471.028 67.6828 470.128 66.4828 470.128ZM76.6588 471.784C76.6588 473.392 75.3268 474.112 74.0428 474.94C72.9988 475.636 71.9668 476.356 71.9668 477.136H76.7428V478H70.8628V477.532C70.8628 476.008 72.3388 474.94 73.6108 474.148C74.7508 473.416 75.6748 472.78 75.6748 471.784C75.6748 470.968 75.2068 470.152 73.9348 470.152C72.7588 470.152 72.0748 471.04 72.0028 472.072H71.0308C71.1148 470.56 72.1468 469.288 73.9468 469.288C75.7468 469.288 76.6588 470.512 76.6588 471.784Z" fill="black"/>
<path d="M1.044 453.072V452.196H4.368V453.072H1.044ZM8.45006 455.412C8.01006 455.404 7.58206 455.368 7.16606 455.304C6.75006 455.232 6.41406 455.136 6.15806 455.016V453.996C6.43006 454.124 6.77806 454.236 7.20206 454.332C7.62606 454.428 8.04206 454.48 8.45006 454.488V452.064C8.05806 451.952 7.71406 451.832 7.41806 451.704C7.13006 451.568 6.89406 451.416 6.71006 451.248C6.52606 451.08 6.38606 450.888 6.29006 450.672C6.20206 450.448 6.15806 450.192 6.15806 449.904C6.15806 449.512 6.25006 449.176 6.43406 448.896C6.62606 448.616 6.89406 448.396 7.23806 448.236C7.58206 448.068 7.98606 447.972 8.45006 447.948V446.892H9.21806V447.936C9.64206 447.944 10.0261 447.992 10.3701 448.08C10.7221 448.16 11.0421 448.26 11.3301 448.38L11.0061 449.268C10.7501 449.164 10.4661 449.076 10.1541 449.004C9.85006 448.924 9.53806 448.872 9.21806 448.848V451.26C9.74606 451.412 10.1861 451.576 10.5381 451.752C10.8901 451.92 11.1541 452.132 11.3301 452.388C11.5141 452.636 11.6061 452.96 11.6061 453.36C11.6061 453.92 11.3981 454.376 10.9821 454.728C10.5661 455.072 9.97806 455.284 9.21806 455.364V456.696H8.45006V455.412ZM9.21806 454.428C9.69006 454.38 10.0341 454.272 10.2501 454.104C10.4661 453.928 10.5741 453.704 10.5741 453.432C10.5741 453.232 10.5341 453.068 10.4541 452.94C10.3741 452.804 10.2341 452.688 10.0341 452.592C9.84206 452.496 9.57006 452.404 9.21806 452.316V454.428ZM8.45006 448.872C8.16206 448.888 7.92606 448.94 7.74206 449.028C7.55806 449.108 7.41806 449.216 7.32206 449.352C7.23406 449.488 7.19006 449.644 7.19006 449.82C7.19006 450.028 7.22606 450.208 7.29806 450.36C7.37806 450.504 7.51006 450.628 7.69406 450.732C7.87806 450.828 8.13006 450.916 8.45006 450.996V448.872ZM18.5573 449.784C18.5573 451.392 17.2253 452.112 15.9413 452.94C14.8973 453.636 13.8652 454.356 13.8652 455.136H18.6413V456H12.7613V455.532C12.7613 454.008 14.2373 452.94 15.5093 452.148C16.6493 451.416 17.5733 450.78 17.5733 449.784C17.5733 448.968 17.1053 448.152 15.8333 448.152C14.6573 448.152 13.9733 449.04 13.9013 450.072H12.9293C13.0133 448.56 14.0452 447.288 15.8453 447.288C17.6453 447.288 18.5573 448.512 18.5573 449.784ZM19.7964 451.716C19.7964 449.148 21.1284 447.288 23.2044 447.288C25.2924 447.288 26.6124 449.148 26.6124 451.716C26.6124 454.284 25.2924 456.144 23.2044 456.144C21.1284 456.144 19.7964 454.284 19.7964 451.716ZM20.8524 451.716C20.8524 453.816 21.6444 455.256 23.2044 455.256C24.7764 455.256 25.5684 453.816 25.5684 451.716C25.5684 449.616 24.7764 448.176 23.2044 448.176C21.6444 448.176 20.8524 449.616 20.8524 451.716ZM27.9175 451.716C27.9175 449.148 29.2495 447.288 31.3255 447.288C33.4135 447.288 34.7335 449.148 34.7335 451.716C34.7335 454.284 33.4135 456.144 31.3255 456.144C29.2495 456.144 27.9175 454.284 27.9175 451.716ZM28.9735 451.716C28.9735 453.816 29.7655 455.256 31.3255 455.256C32.8975 455.256 33.6895 453.816 33.6895 451.716C33.6895 449.616 32.8975 448.176 31.3255 448.176C29.7655 448.176 28.9735 449.616 28.9735 451.716ZM39.9026 456H36.5066V447.432H39.5186C41.4266 447.432 42.5306 448.224 42.5306 449.724C42.5306 450.516 41.9306 451.332 41.1986 451.548C42.2546 451.812 42.9146 452.592 42.9146 453.6C42.9146 455.172 41.7986 456 39.9026 456ZM37.5266 451.212H39.5786C40.8506 451.212 41.4866 450.672 41.4866 449.736C41.4866 448.788 40.8626 448.272 39.5906 448.272H37.5266V451.212ZM37.5266 452.016V455.16H39.8546C41.1626 455.16 41.8826 454.584 41.8826 453.6C41.8826 452.616 41.1386 452.016 39.8306 452.016H37.5266Z" fill="black"/>
<path d="M4.044 382.072V381.196H7.368V382.072H4.044ZM11.4501 384.412C11.0101 384.404 10.5821 384.368 10.1661 384.304C9.75006 384.232 9.41406 384.136 9.15806 384.016V382.996C9.43006 383.124 9.77806 383.236 10.2021 383.332C10.6261 383.428 11.0421 383.48 11.4501 383.488V381.064C11.0581 380.952 10.7141 380.832 10.4181 380.704C10.1301 380.568 9.89406 380.416 9.71006 380.248C9.52606 380.08 9.38606 379.888 9.29006 379.672C9.20206 379.448 9.15806 379.192 9.15806 378.904C9.15806 378.512 9.25006 378.176 9.43406 377.896C9.62606 377.616 9.89406 377.396 10.2381 377.236C10.5821 377.068 10.9861 376.972 11.4501 376.948V375.892H12.2181V376.936C12.6421 376.944 13.0261 376.992 13.3701 377.08C13.7221 377.16 14.0421 377.26 14.3301 377.38L14.0061 378.268C13.7501 378.164 13.4661 378.076 13.1541 378.004C12.8501 377.924 12.5381 377.872 12.2181 377.848V380.26C12.7461 380.412 13.1861 380.576 13.5381 380.752C13.8901 380.92 14.1541 381.132 14.3301 381.388C14.5141 381.636 14.6061 381.96 14.6061 382.36C14.6061 382.92 14.3981 383.376 13.9821 383.728C13.5661 384.072 12.9781 384.284 12.2181 384.364V385.696H11.4501V384.412ZM12.2181 383.428C12.6901 383.38 13.0341 383.272 13.2501 383.104C13.4661 382.928 13.5741 382.704 13.5741 382.432C13.5741 382.232 13.5341 382.068 13.4541 381.94C13.3741 381.804 13.2341 381.688 13.0341 381.592C12.8421 381.496 12.5701 381.404 12.2181 381.316V383.428ZM11.4501 377.872C11.1621 377.888 10.9261 377.94 10.7421 378.028C10.5581 378.108 10.4181 378.216 10.3221 378.352C10.2341 378.488 10.1901 378.644 10.1901 378.82C10.1901 379.028 10.2261 379.208 10.2981 379.36C10.3781 379.504 10.5101 379.628 10.6941 379.732C10.8781 379.828 11.1301 379.916 11.4501 379.996V377.872ZM15.5813 378.388V377.692C17.0452 377.692 17.5733 377.284 17.7773 376.396H18.4133V385H17.3813V378.388H15.5813ZM23.3481 380.14C22.4481 380.14 21.8481 380.584 21.5241 381.1H20.6001L21.0801 376.432H25.9041V377.308H21.8241L21.5361 380.14C21.8961 379.684 22.6401 379.3 23.4321 379.3C25.2201 379.3 26.3361 380.596 26.3361 382.216C26.3361 383.848 25.2201 385.144 23.3481 385.144C21.6201 385.144 20.3841 384.112 20.2521 382.456H21.2721C21.3561 383.548 22.1481 384.304 23.3601 384.304C24.7041 384.304 25.3401 383.308 25.3401 382.216C25.3401 381.124 24.7041 380.14 23.3481 380.14ZM27.5894 380.716C27.5894 378.148 28.9214 376.288 30.9974 376.288C33.0854 376.288 34.4054 378.148 34.4054 380.716C34.4054 383.284 33.0854 385.144 30.9974 385.144C28.9214 385.144 27.5894 383.284 27.5894 380.716ZM28.6454 380.716C28.6454 382.816 29.4374 384.256 30.9974 384.256C32.5694 384.256 33.3614 382.816 33.3614 380.716C33.3614 378.616 32.5694 377.176 30.9974 377.176C29.4374 377.176 28.6454 378.616 28.6454 380.716ZM39.5745 385H36.1785V376.432H39.1905C41.0985 376.432 42.2025 377.224 42.2025 378.724C42.2025 379.516 41.6025 380.332 40.8705 380.548C41.9265 380.812 42.5865 381.592 42.5865 382.6C42.5865 384.172 41.4705 385 39.5745 385ZM37.1985 380.212H39.2505C40.5225 380.212 41.1585 379.672 41.1585 378.736C41.1585 377.788 40.5345 377.272 39.2625 377.272H37.1985V380.212ZM37.1985 381.016V384.16H39.5265C40.8345 384.16 41.5545 383.584 41.5545 382.6C41.5545 381.616 40.8105 381.016 39.5025 381.016H37.1985Z" fill="black"/>
<path d="M4.044 311.072V310.196H7.368V311.072H4.044ZM11.4501 313.412C11.0101 313.404 10.5821 313.368 10.1661 313.304C9.75006 313.232 9.41406 313.136 9.15806 313.016V311.996C9.43006 312.124 9.77806 312.236 10.2021 312.332C10.6261 312.428 11.0421 312.48 11.4501 312.488V310.064C11.0581 309.952 10.7141 309.832 10.4181 309.704C10.1301 309.568 9.89406 309.416 9.71006 309.248C9.52606 309.08 9.38606 308.888 9.29006 308.672C9.20206 308.448 9.15806 308.192 9.15806 307.904C9.15806 307.512 9.25006 307.176 9.43406 306.896C9.62606 306.616 9.89406 306.396 10.2381 306.236C10.5821 306.068 10.9861 305.972 11.4501 305.948V304.892H12.2181V305.936C12.6421 305.944 13.0261 305.992 13.3701 306.08C13.7221 306.16 14.0421 306.26 14.3301 306.38L14.0061 307.268C13.7501 307.164 13.4661 307.076 13.1541 307.004C12.8501 306.924 12.5381 306.872 12.2181 306.848V309.26C12.7461 309.412 13.1861 309.576 13.5381 309.752C13.8901 309.92 14.1541 310.132 14.3301 310.388C14.5141 310.636 14.6061 310.96 14.6061 311.36C14.6061 311.92 14.3981 312.376 13.9821 312.728C13.5661 313.072 12.9781 313.284 12.2181 313.364V314.696H11.4501V313.412ZM12.2181 312.428C12.6901 312.38 13.0341 312.272 13.2501 312.104C13.4661 311.928 13.5741 311.704 13.5741 311.432C13.5741 311.232 13.5341 311.068 13.4541 310.94C13.3741 310.804 13.2341 310.688 13.0341 310.592C12.8421 310.496 12.5701 310.404 12.2181 310.316V312.428ZM11.4501 306.872C11.1621 306.888 10.9261 306.94 10.7421 307.028C10.5581 307.108 10.4181 307.216 10.3221 307.352C10.2341 307.488 10.1901 307.644 10.1901 307.82C10.1901 308.028 10.2261 308.208 10.2981 308.36C10.3781 308.504 10.5101 308.628 10.6941 308.732C10.8781 308.828 11.1301 308.916 11.4501 308.996V306.872ZM15.5813 307.388V306.692C17.0452 306.692 17.5733 306.284 17.7773 305.396H18.4133V314H17.3813V307.388H15.5813ZM20.3121 309.716C20.3121 307.148 21.6441 305.288 23.7201 305.288C25.8081 305.288 27.1281 307.148 27.1281 309.716C27.1281 312.284 25.8081 314.144 23.7201 314.144C21.6441 314.144 20.3121 312.284 20.3121 309.716ZM21.3681 309.716C21.3681 311.816 22.1601 313.256 23.7201 313.256C25.2921 313.256 26.0841 311.816 26.0841 309.716C26.0841 307.616 25.2921 306.176 23.7201 306.176C22.1601 306.176 21.3681 307.616 21.3681 309.716ZM28.4332 309.716C28.4332 307.148 29.7652 305.288 31.8412 305.288C33.9292 305.288 35.2492 307.148 35.2492 309.716C35.2492 312.284 33.9292 314.144 31.8412 314.144C29.7652 314.144 28.4332 312.284 28.4332 309.716ZM29.4892 309.716C29.4892 311.816 30.2812 313.256 31.8412 313.256C33.4132 313.256 34.2052 311.816 34.2052 309.716C34.2052 307.616 33.4132 306.176 31.8412 306.176C30.2812 306.176 29.4892 307.616 29.4892 309.716ZM40.4183 314H37.0223V305.432H40.0343C41.9423 305.432 43.0463 306.224 43.0463 307.724C43.0463 308.516 42.4463 309.332 41.7143 309.548C42.7703 309.812 43.4303 310.592 43.4303 311.6C43.4303 313.172 42.3143 314 40.4183 314ZM38.0423 309.212H40.0943C41.3663 309.212 42.0023 308.672 42.0023 307.736C42.0023 306.788 41.3783 306.272 40.1063 306.272H38.0423V309.212ZM38.0423 310.016V313.16H40.3703C41.6783 313.16 42.3983 312.584 42.3983 311.6C42.3983 310.616 41.6543 310.016 40.3463 310.016H38.0423Z" fill="black"/>
<path d="M9.044 239.072V238.196H12.368V239.072H9.044ZM16.4501 241.412C16.0101 241.404 15.5821 241.368 15.1661 241.304C14.7501 241.232 14.4141 241.136 14.1581 241.016V239.996C14.4301 240.124 14.7781 240.236 15.2021 240.332C15.6261 240.428 16.0421 240.48 16.4501 240.488V238.064C16.0581 237.952 15.7141 237.832 15.4181 237.704C15.1301 237.568 14.8941 237.416 14.7101 237.248C14.5261 237.08 14.3861 236.888 14.2901 236.672C14.2021 236.448 14.1581 236.192 14.1581 235.904C14.1581 235.512 14.2501 235.176 14.4341 234.896C14.6261 234.616 14.8941 234.396 15.2381 234.236C15.5821 234.068 15.9861 233.972 16.4501 233.948V232.892H17.2181V233.936C17.6421 233.944 18.0261 233.992 18.3701 234.08C18.7221 234.16 19.0421 234.26 19.3301 234.38L19.0061 235.268C18.7501 235.164 18.4661 235.076 18.1541 235.004C17.8501 234.924 17.5381 234.872 17.2181 234.848V237.26C17.7461 237.412 18.1861 237.576 18.5381 237.752C18.8901 237.92 19.1541 238.132 19.3301 238.388C19.5141 238.636 19.6061 238.96 19.6061 239.36C19.6061 239.92 19.3981 240.376 18.9821 240.728C18.5661 241.072 17.9781 241.284 17.2181 241.364V242.696H16.4501V241.412ZM17.2181 240.428C17.6901 240.38 18.0341 240.272 18.2501 240.104C18.4661 239.928 18.5741 239.704 18.5741 239.432C18.5741 239.232 18.5341 239.068 18.4541 238.94C18.3741 238.804 18.2341 238.688 18.0341 238.592C17.8421 238.496 17.5701 238.404 17.2181 238.316V240.428ZM16.4501 234.872C16.1621 234.888 15.9261 234.94 15.7421 235.028C15.5581 235.108 15.4181 235.216 15.3221 235.352C15.2341 235.488 15.1901 235.644 15.1901 235.82C15.1901 236.028 15.2261 236.208 15.2981 236.36C15.3781 236.504 15.5101 236.628 15.6941 236.732C15.8781 236.828 16.1301 236.916 16.4501 236.996V234.872ZM23.9653 237.14C23.0653 237.14 22.4653 237.584 22.1413 238.1H21.2173L21.6973 233.432H26.5213V234.308H22.4413L22.1533 237.14C22.5133 236.684 23.2573 236.3 24.0493 236.3C25.8373 236.3 26.9533 237.596 26.9533 239.216C26.9533 240.848 25.8373 242.144 23.9653 242.144C22.2373 242.144 21.0013 241.112 20.8693 239.456H21.8893C21.9733 240.548 22.7653 241.304 23.9773 241.304C25.3213 241.304 25.9573 240.308 25.9573 239.216C25.9573 238.124 25.3213 237.14 23.9653 237.14ZM28.2066 237.716C28.2066 235.148 29.5386 233.288 31.6146 233.288C33.7026 233.288 35.0226 235.148 35.0226 237.716C35.0226 240.284 33.7026 242.144 31.6146 242.144C29.5386 242.144 28.2066 240.284 28.2066 237.716ZM29.2626 237.716C29.2626 239.816 30.0546 241.256 31.6146 241.256C33.1866 241.256 33.9786 239.816 33.9786 237.716C33.9786 235.616 33.1866 234.176 31.6146 234.176C30.0546 234.176 29.2626 235.616 29.2626 237.716ZM40.1917 242H36.7957V233.432H39.8077C41.7157 233.432 42.8197 234.224 42.8197 235.724C42.8197 236.516 42.2197 237.332 41.4877 237.548C42.5437 237.812 43.2037 238.592 43.2037 239.6C43.2037 241.172 42.0877 242 40.1917 242ZM37.8157 237.212H39.8677C41.1397 237.212 41.7757 236.672 41.7757 235.736C41.7757 234.788 41.1517 234.272 39.8797 234.272H37.8157V237.212ZM37.8157 238.016V241.16H40.1437C41.4517 241.16 42.1717 240.584 42.1717 239.6C42.1717 238.616 41.4277 238.016 40.1197 238.016H37.8157Z" fill="black"/>
<path d="M23.036 170.412C22.596 170.404 22.168 170.368 21.752 170.304C21.336 170.232 21 170.136 20.744 170.016V168.996C21.016 169.124 21.364 169.236 21.788 169.332C22.212 169.428 22.628 169.48 23.036 169.488V167.064C22.644 166.952 22.3 166.832 22.004 166.704C21.716 166.568 21.48 166.416 21.296 166.248C21.112 166.08 20.972 165.888 20.876 165.672C20.788 165.448 20.744 165.192 20.744 164.904C20.744 164.512 20.836 164.176 21.02 163.896C21.212 163.616 21.48 163.396 21.824 163.236C22.168 163.068 22.572 162.972 23.036 162.948V161.892H23.804V162.936C24.228 162.944 24.612 162.992 24.956 163.08C25.308 163.16 25.628 163.26 25.916 163.38L25.592 164.268C25.336 164.164 25.052 164.076 24.74 164.004C24.436 163.924 24.124 163.872 23.804 163.848V166.26C24.332 166.412 24.772 166.576 25.124 166.752C25.476 166.92 25.74 167.132 25.916 167.388C26.1 167.636 26.192 167.96 26.192 168.36C26.192 168.92 25.984 169.376 25.568 169.728C25.152 170.072 24.564 170.284 23.804 170.364V171.696H23.036V170.412ZM23.804 169.428C24.276 169.38 24.62 169.272 24.836 169.104C25.052 168.928 25.16 168.704 25.16 168.432C25.16 168.232 25.12 168.068 25.04 167.94C24.96 167.804 24.82 167.688 24.62 167.592C24.428 167.496 24.156 167.404 23.804 167.316V169.428ZM23.036 163.872C22.748 163.888 22.512 163.94 22.328 164.028C22.144 164.108 22.004 164.216 21.908 164.352C21.82 164.488 21.776 164.644 21.776 164.82C21.776 165.028 21.812 165.208 21.884 165.36C21.964 165.504 22.096 165.628 22.28 165.732C22.464 165.828 22.716 165.916 23.036 165.996V163.872ZM27.5152 166.716C27.5152 164.148 28.8472 162.288 30.9232 162.288C33.0112 162.288 34.3312 164.148 34.3312 166.716C34.3312 169.284 33.0112 171.144 30.9232 171.144C28.8472 171.144 27.5152 169.284 27.5152 166.716ZM28.5712 166.716C28.5712 168.816 29.3632 170.256 30.9232 170.256C32.4952 170.256 33.2872 168.816 33.2872 166.716C33.2872 164.616 32.4952 163.176 30.9232 163.176C29.3632 163.176 28.5712 164.616 28.5712 166.716ZM39.5003 171H36.1043V162.432H39.1163C41.0243 162.432 42.1283 163.224 42.1283 164.724C42.1283 165.516 41.5283 166.332 40.7963 166.548C41.8523 166.812 42.5123 167.592 42.5123 168.6C42.5123 170.172 41.3963 171 39.5003 171ZM37.1243 166.212H39.1763C40.4483 166.212 41.0843 165.672 41.0843 164.736C41.0843 163.788 40.4603 163.272 39.1883 163.272H37.1243V166.212ZM37.1243 167.016V170.16H39.4523C40.7603 170.16 41.4803 169.584 41.4803 168.6C41.4803 167.616 40.7363 167.016 39.4283 167.016H37.1243Z" fill="black"/>
<path d="M16.036 99.412C15.596 99.404 15.168 99.368 14.752 99.304C14.336 99.232 14 99.136 13.744 99.016V97.996C14.016 98.124 14.364 98.236 14.788 98.332C15.212 98.428 15.628 98.48 16.036 98.488V96.064C15.644 95.952 15.3 95.832 15.004 95.704C14.716 95.568 14.48 95.416 14.296 95.248C14.112 95.08 13.972 94.888 13.876 94.672C13.788 94.448 13.744 94.192 13.744 93.904C13.744 93.512 13.836 93.176 14.02 92.896C14.212 92.616 14.48 92.396 14.824 92.236C15.168 92.068 15.572 91.972 16.036 91.948V90.892H16.804V91.936C17.228 91.944 17.612 91.992 17.956 92.08C18.308 92.16 18.628 92.26 18.916 92.38L18.592 93.268C18.336 93.164 18.052 93.076 17.74 93.004C17.436 92.924 17.124 92.872 16.804 92.848V95.26C17.332 95.412 17.772 95.576 18.124 95.752C18.476 95.92 18.74 96.132 18.916 96.388C19.1 96.636 19.192 96.96 19.192 97.36C19.192 97.92 18.984 98.376 18.568 98.728C18.152 99.072 17.564 99.284 16.804 99.364V100.696H16.036V99.412ZM16.804 98.428C17.276 98.38 17.62 98.272 17.836 98.104C18.052 97.928 18.16 97.704 18.16 97.432C18.16 97.232 18.12 97.068 18.04 96.94C17.96 96.804 17.82 96.688 17.62 96.592C17.428 96.496 17.156 96.404 16.804 96.316V98.428ZM16.036 92.872C15.748 92.888 15.512 92.94 15.328 93.028C15.144 93.108 15.004 93.216 14.908 93.352C14.82 93.488 14.776 93.644 14.776 93.82C14.776 94.028 14.812 94.208 14.884 94.36C14.964 94.504 15.096 94.628 15.28 94.732C15.464 94.828 15.716 94.916 16.036 94.996V92.872ZM23.5512 95.14C22.6512 95.14 22.0512 95.584 21.7272 96.1H20.8032L21.2832 91.432H26.1072V92.308H22.0272L21.7392 95.14C22.0992 94.684 22.8432 94.3 23.6352 94.3C25.4232 94.3 26.5392 95.596 26.5392 97.216C26.5392 98.848 25.4232 100.144 23.5512 100.144C21.8232 100.144 20.5872 99.112 20.4552 97.456H21.4752C21.5592 98.548 22.3512 99.304 23.5632 99.304C24.9072 99.304 25.5432 98.308 25.5432 97.216C25.5432 96.124 24.9072 95.14 23.5512 95.14ZM27.7925 95.716C27.7925 93.148 29.1245 91.288 31.2005 91.288C33.2885 91.288 34.6085 93.148 34.6085 95.716C34.6085 98.284 33.2885 100.144 31.2005 100.144C29.1245 100.144 27.7925 98.284 27.7925 95.716ZM28.8485 95.716C28.8485 97.816 29.6405 99.256 31.2005 99.256C32.7725 99.256 33.5645 97.816 33.5645 95.716C33.5645 93.616 32.7725 92.176 31.2005 92.176C29.6405 92.176 28.8485 93.616 28.8485 95.716ZM39.7776 100H36.3816V91.432H39.3936C41.3016 91.432 42.4056 92.224 42.4056 93.724C42.4056 94.516 41.8056 95.332 41.0736 95.548C42.1296 95.812 42.7896 96.592 42.7896 97.6C42.7896 99.172 41.6736 100 39.7776 100ZM37.4016 95.212H39.4536C40.7256 95.212 41.3616 94.672 41.3616 93.736C41.3616 92.788 40.7376 92.272 39.4656 92.272H37.4016V95.212ZM37.4016 96.016V99.16H39.7296C41.0376 99.16 41.7576 98.584 41.7576 97.6C41.7576 96.616 41.0136 96.016 39.7056 96.016H37.4016Z" fill="black"/>
<path d="M135.3 471.388V470.692C136.764 470.692 137.292 470.284 137.496 469.396H138.132V478H137.1V471.388H135.3ZM142.863 477.28C144.447 477.28 145.275 475.636 145.275 473.416C144.999 474.304 144.159 475.156 142.851 475.156C141.159 475.156 140.019 473.908 140.019 472.264C140.019 470.536 141.195 469.288 142.983 469.288C144.879 469.288 146.235 470.944 146.235 473.572C146.235 476.284 144.819 478.144 142.851 478.144C141.327 478.144 140.295 477.244 140.103 475.804H141.051C141.255 476.776 141.843 477.28 142.863 477.28ZM142.983 470.128C141.759 470.128 140.991 471.028 140.991 472.228C140.991 473.44 141.759 474.316 142.983 474.316C144.183 474.316 144.999 473.44 144.999 472.228C144.999 471.028 144.183 470.128 142.983 470.128ZM150.363 477.28C151.947 477.28 152.775 475.636 152.775 473.416C152.499 474.304 151.659 475.156 150.351 475.156C148.659 475.156 147.519 473.908 147.519 472.264C147.519 470.536 148.695 469.288 150.483 469.288C152.379 469.288 153.735 470.944 153.735 473.572C153.735 476.284 152.319 478.144 150.351 478.144C148.827 478.144 147.795 477.244 147.603 475.804H148.551C148.755 476.776 149.343 477.28 150.363 477.28ZM150.483 470.128C149.259 470.128 148.491 471.028 148.491 472.228C148.491 473.44 149.259 474.316 150.483 474.316C151.683 474.316 152.499 473.44 152.499 472.228C152.499 471.028 151.683 470.128 150.483 470.128ZM158.403 470.152C156.819 470.152 155.991 471.796 155.991 474.016C156.267 473.128 157.107 472.276 158.415 472.276C160.107 472.276 161.247 473.524 161.247 475.168C161.247 476.896 160.071 478.144 158.283 478.144C156.387 478.144 155.031 476.488 155.031 473.86C155.031 471.148 156.447 469.288 158.415 469.288C159.939 469.288 160.971 470.188 161.163 471.628H160.215C160.011 470.656 159.423 470.152 158.403 470.152ZM158.283 477.304C159.507 477.304 160.275 476.404 160.275 475.204C160.275 473.992 159.507 473.116 158.283 473.116C157.083 473.116 156.267 473.992 156.267 475.204C156.267 476.404 157.083 477.304 158.283 477.304Z" fill="black"/>
<path d="M225.276 471.784C225.276 473.392 223.944 474.112 222.66 474.94C221.616 475.636 220.584 476.356 220.584 477.136H225.36V478H219.48V477.532C219.48 476.008 220.956 474.94 222.228 474.148C223.368 473.416 224.292 472.78 224.292 471.784C224.292 470.968 223.824 470.152 222.552 470.152C221.376 470.152 220.692 471.04 220.62 472.072H219.648C219.732 470.56 220.764 469.288 222.564 469.288C224.364 469.288 225.276 470.512 225.276 471.784ZM226.515 473.716C226.515 471.148 227.847 469.288 229.923 469.288C232.011 469.288 233.331 471.148 233.331 473.716C233.331 476.284 232.011 478.144 229.923 478.144C227.847 478.144 226.515 476.284 226.515 473.716ZM227.571 473.716C227.571 475.816 228.363 477.256 229.923 477.256C231.495 477.256 232.287 475.816 232.287 473.716C232.287 471.616 231.495 470.176 229.923 470.176C228.363 470.176 227.571 471.616 227.571 473.716ZM234.636 473.716C234.636 471.148 235.968 469.288 238.044 469.288C240.132 469.288 241.452 471.148 241.452 473.716C241.452 476.284 240.132 478.144 238.044 478.144C235.968 478.144 234.636 476.284 234.636 473.716ZM235.692 473.716C235.692 475.816 236.484 477.256 238.044 477.256C239.616 477.256 240.408 475.816 240.408 473.716C240.408 471.616 239.616 470.176 238.044 470.176C236.484 470.176 235.692 471.616 235.692 473.716ZM242.757 473.716C242.757 471.148 244.089 469.288 246.165 469.288C248.253 469.288 249.573 471.148 249.573 473.716C249.573 476.284 248.253 478.144 246.165 478.144C244.089 478.144 242.757 476.284 242.757 473.716ZM243.813 473.716C243.813 475.816 244.605 477.256 246.165 477.256C247.737 477.256 248.529 475.816 248.529 473.716C248.529 471.616 247.737 470.176 246.165 470.176C244.605 470.176 243.813 471.616 243.813 473.716Z" fill="black"/>
<path d="M314.276 471.784C314.276 473.392 312.944 474.112 311.66 474.94C310.616 475.636 309.584 476.356 309.584 477.136H314.36V478H308.48V477.532C308.48 476.008 309.956 474.94 311.228 474.148C312.368 473.416 313.292 472.78 313.292 471.784C313.292 470.968 312.824 470.152 311.552 470.152C310.376 470.152 309.692 471.04 309.62 472.072H308.648C308.732 470.56 309.764 469.288 311.564 469.288C313.364 469.288 314.276 470.512 314.276 471.784ZM315.515 473.716C315.515 471.148 316.847 469.288 318.923 469.288C321.011 469.288 322.331 471.148 322.331 473.716C322.331 476.284 321.011 478.144 318.923 478.144C316.847 478.144 315.515 476.284 315.515 473.716ZM316.571 473.716C316.571 475.816 317.363 477.256 318.923 477.256C320.495 477.256 321.287 475.816 321.287 473.716C321.287 471.616 320.495 470.176 318.923 470.176C317.363 470.176 316.571 471.616 316.571 473.716ZM323.636 473.716C323.636 471.148 324.968 469.288 327.044 469.288C329.132 469.288 330.452 471.148 330.452 473.716C330.452 476.284 329.132 478.144 327.044 478.144C324.968 478.144 323.636 476.284 323.636 473.716ZM324.692 473.716C324.692 475.816 325.484 477.256 327.044 477.256C328.616 477.256 329.408 475.816 329.408 473.716C329.408 471.616 328.616 470.176 327.044 470.176C325.484 470.176 324.692 471.616 324.692 473.716ZM336.809 469.432V474.82H338.645V475.648H336.809V478H335.801V475.648H331.553V474.808L335.645 469.432H336.809ZM335.801 470.5L332.549 474.82H335.801V470.5Z" fill="black"/>
<path d="M403.276 471.784C403.276 473.392 401.944 474.112 400.66 474.94C399.616 475.636 398.584 476.356 398.584 477.136H403.36V478H397.48V477.532C397.48 476.008 398.956 474.94 400.228 474.148C401.368 473.416 402.292 472.78 402.292 471.784C402.292 470.968 401.824 470.152 400.552 470.152C399.376 470.152 398.692 471.04 398.62 472.072H397.648C397.732 470.56 398.764 469.288 400.564 469.288C402.364 469.288 403.276 470.512 403.276 471.784ZM404.515 473.716C404.515 471.148 405.847 469.288 407.923 469.288C410.011 469.288 411.331 471.148 411.331 473.716C411.331 476.284 410.011 478.144 407.923 478.144C405.847 478.144 404.515 476.284 404.515 473.716ZM405.571 473.716C405.571 475.816 406.363 477.256 407.923 477.256C409.495 477.256 410.287 475.816 410.287 473.716C410.287 471.616 409.495 470.176 407.923 470.176C406.363 470.176 405.571 471.616 405.571 473.716ZM412.636 473.716C412.636 471.148 413.968 469.288 416.044 469.288C418.132 469.288 419.452 471.148 419.452 473.716C419.452 476.284 418.132 478.144 416.044 478.144C413.968 478.144 412.636 476.284 412.636 473.716ZM413.692 473.716C413.692 475.816 414.484 477.256 416.044 477.256C417.616 477.256 418.408 475.816 418.408 473.716C418.408 471.616 417.616 470.176 416.044 470.176C414.484 470.176 413.692 471.616 413.692 473.716ZM423.937 469.288C425.545 469.288 426.769 470.176 426.769 471.652C426.769 472.624 426.205 473.32 425.353 473.656C426.265 473.824 427.153 474.652 427.153 475.66C427.153 477.136 425.905 478.144 423.937 478.144C421.993 478.144 420.733 477.136 420.733 475.66C420.733 474.652 421.621 473.824 422.533 473.656C421.693 473.32 421.117 472.624 421.117 471.652C421.117 470.176 422.341 469.288 423.937 469.288ZM423.937 473.212C424.969 473.212 425.821 472.708 425.821 471.652C425.821 470.608 424.969 470.104 423.937 470.104C422.917 470.104 422.065 470.608 422.065 471.652C422.065 472.708 422.917 473.212 423.937 473.212ZM423.937 477.316C425.305 477.316 426.121 476.668 426.121 475.66C426.121 474.664 425.305 474.04 423.937 474.04C422.593 474.04 421.765 474.664 421.765 475.66C421.765 476.668 422.593 477.316 423.937 477.316Z" fill="black"/>
<path d="M491.276 471.784C491.276 473.392 489.944 474.112 488.66 474.94C487.616 475.636 486.584 476.356 486.584 477.136H491.36V478H485.48V477.532C485.48 476.008 486.956 474.94 488.228 474.148C489.368 473.416 490.292 472.78 490.292 471.784C490.292 470.968 489.824 470.152 488.552 470.152C487.376 470.152 486.692 471.04 486.62 472.072H485.648C485.732 470.56 486.764 469.288 488.564 469.288C490.364 469.288 491.276 470.512 491.276 471.784ZM492.515 473.716C492.515 471.148 493.847 469.288 495.923 469.288C498.011 469.288 499.331 471.148 499.331 473.716C499.331 476.284 498.011 478.144 495.923 478.144C493.847 478.144 492.515 476.284 492.515 473.716ZM493.571 473.716C493.571 475.816 494.363 477.256 495.923 477.256C497.495 477.256 498.287 475.816 498.287 473.716C498.287 471.616 497.495 470.176 495.923 470.176C494.363 470.176 493.571 471.616 493.571 473.716ZM500.288 471.388V470.692C501.752 470.692 502.28 470.284 502.484 469.396H503.12V478H502.088V471.388H500.288ZM510.647 471.784C510.647 473.392 509.315 474.112 508.031 474.94C506.987 475.636 505.955 476.356 505.955 477.136H510.731V478H504.851V477.532C504.851 476.008 506.327 474.94 507.599 474.148C508.739 473.416 509.663 472.78 509.663 471.784C509.663 470.968 509.195 470.152 507.923 470.152C506.747 470.152 506.063 471.04 505.991 472.072H505.019C505.103 470.56 506.135 469.288 507.935 469.288C509.735 469.288 510.647 470.512 510.647 471.784Z" fill="black"/>
<path d="M575.276 471.784C575.276 473.392 573.944 474.112 572.66 474.94C571.616 475.636 570.584 476.356 570.584 477.136H575.36V478H569.48V477.532C569.48 476.008 570.956 474.94 572.228 474.148C573.368 473.416 574.292 472.78 574.292 471.784C574.292 470.968 573.824 470.152 572.552 470.152C571.376 470.152 570.692 471.04 570.62 472.072H569.648C569.732 470.56 570.764 469.288 572.564 469.288C574.364 469.288 575.276 470.512 575.276 471.784ZM576.515 473.716C576.515 471.148 577.847 469.288 579.923 469.288C582.011 469.288 583.331 471.148 583.331 473.716C583.331 476.284 582.011 478.144 579.923 478.144C577.847 478.144 576.515 476.284 576.515 473.716ZM577.571 473.716C577.571 475.816 578.363 477.256 579.923 477.256C581.495 477.256 582.287 475.816 582.287 473.716C582.287 471.616 581.495 470.176 579.923 470.176C578.363 470.176 577.571 471.616 577.571 473.716ZM584.288 471.388V470.692C585.752 470.692 586.28 470.284 586.484 469.396H587.12V478H586.088V471.388H584.288ZM592.391 470.152C590.807 470.152 589.979 471.796 589.979 474.016C590.255 473.128 591.095 472.276 592.403 472.276C594.095 472.276 595.235 473.524 595.235 475.168C595.235 476.896 594.059 478.144 592.271 478.144C590.375 478.144 589.019 476.488 589.019 473.86C589.019 471.148 590.435 469.288 592.403 469.288C593.927 469.288 594.959 470.188 595.151 471.628H594.203C593.999 470.656 593.411 470.152 592.391 470.152ZM592.271 477.304C593.495 477.304 594.263 476.404 594.263 475.204C594.263 473.992 593.495 473.116 592.271 473.116C591.071 473.116 590.255 473.992 590.255 475.204C590.255 476.404 591.071 477.304 592.271 477.304Z" fill="black"/>
<path d="M665.276 470.784C665.276 472.392 663.944 473.112 662.66 473.94C661.616 474.636 660.584 475.356 660.584 476.136H665.36V477H659.48V476.532C659.48 475.008 660.956 473.94 662.228 473.148C663.368 472.416 664.292 471.78 664.292 470.784C664.292 469.968 663.824 469.152 662.552 469.152C661.376 469.152 660.692 470.04 660.62 471.072H659.648C659.732 469.56 660.764 468.288 662.564 468.288C664.364 468.288 665.276 469.512 665.276 470.784ZM666.515 472.716C666.515 470.148 667.847 468.288 669.923 468.288C672.011 468.288 673.331 470.148 673.331 472.716C673.331 475.284 672.011 477.144 669.923 477.144C667.847 477.144 666.515 475.284 666.515 472.716ZM667.571 472.716C667.571 474.816 668.363 476.256 669.923 476.256C671.495 476.256 672.287 474.816 672.287 472.716C672.287 470.616 671.495 469.176 669.923 469.176C668.363 469.176 667.571 470.616 667.571 472.716ZM680.264 470.784C680.264 472.392 678.932 473.112 677.648 473.94C676.604 474.636 675.572 475.356 675.572 476.136H680.348V477H674.468V476.532C674.468 475.008 675.944 473.94 677.216 473.148C678.356 472.416 679.28 471.78 679.28 470.784C679.28 469.968 678.812 469.152 677.54 469.152C676.364 469.152 675.68 470.04 675.608 471.072H674.636C674.72 469.56 675.752 468.288 677.552 468.288C679.352 468.288 680.264 469.512 680.264 470.784ZM681.503 472.716C681.503 470.148 682.835 468.288 684.911 468.288C686.999 468.288 688.319 470.148 688.319 472.716C688.319 475.284 686.999 477.144 684.911 477.144C682.835 477.144 681.503 475.284 681.503 472.716ZM682.559 472.716C682.559 474.816 683.351 476.256 684.911 476.256C686.483 476.256 687.275 474.816 687.275 472.716C687.275 470.616 686.483 469.176 684.911 469.176C683.351 469.176 682.559 470.616 682.559 472.716Z" fill="black"/>
<path d="M121.909 6.1V12.84C121.909 15.22 122.889 16.68 125.069 16.68C127.109 16.68 128.609 15.6 128.609 12.74V6.1C128.609 5.04 128.349 4.86 126.709 4.72V3.96H131.329V4.72C129.949 4.88 129.789 5.04 129.789 6.1V13.12C129.789 16.58 127.389 18.2 124.369 18.2C120.669 18.2 118.509 16.54 118.509 13.1V6.1C118.509 5.02 118.349 4.88 116.989 4.72V3.96H123.449V4.72C122.069 4.88 121.909 5.02 121.909 6.1ZM136.835 18.2C134.875 18.2 133.175 17.62 132.255 16.88L132.075 13.42H133.015C133.495 15.74 134.795 17.32 136.835 17.32C138.355 17.32 139.335 16.54 139.335 15.22C139.335 13.84 138.475 13.24 136.155 12.46C133.655 11.66 132.175 10.48 132.175 8.08C132.175 5.48 134.155 3.76 137.015 3.76C138.775 3.76 140.275 4.22 141.275 4.94V7.96H140.435C140.015 5.88 138.915 4.64 137.015 4.64C135.695 4.64 134.835 5.42 134.835 6.62C134.835 7.98 135.635 8.52 137.735 9.24C140.415 10.14 142.095 11.18 142.095 13.84C142.095 16.78 139.715 18.2 136.835 18.2ZM146.996 3.96H159.616L159.916 8.78H159.196C157.836 5.72 157.316 4.72 155.876 4.72H155.016V15.94C155.016 17.02 155.396 17.08 156.736 17.24V18H149.876V17.24C151.216 17.08 151.616 17.02 151.616 15.94V4.72H150.736C149.296 4.72 148.776 5.72 147.416 8.78H146.696L146.996 3.96ZM165.065 10.82V16.22C165.065 17.06 165.505 17.16 166.705 17.28V18H160.665V17.28C161.525 17.22 161.845 17.12 161.845 16.46V9.4L160.685 8.7V8.24L164.545 7.12H165.145L165.065 10.14C165.945 7.88 166.585 7.12 167.805 7.12C168.245 7.12 168.565 7.26 168.745 7.46V9.9H168.325C167.065 9.9 166.025 9.96 165.065 10.82ZM173.739 16.42C174.199 16.42 174.519 16.24 174.959 15.94V12.22L173.539 12.78C172.759 13.1 172.259 13.5 172.259 14.64C172.259 15.68 172.699 16.42 173.739 16.42ZM178.139 10.5V15.8C178.139 16.38 178.239 16.8 178.739 16.8C179.039 16.8 179.299 16.72 179.479 16.64L179.599 17.12C178.999 17.8 178.199 18.2 177.159 18.2C176.039 18.2 175.279 17.56 175.019 16.48C174.399 17.32 173.399 18.16 171.959 18.16C170.299 18.16 169.179 17.18 169.179 15.52C169.179 13.78 170.399 13.08 171.859 12.54L174.959 11.44V9.58C174.959 8.54 174.639 7.82 173.719 7.82C172.859 7.82 172.499 8.5 172.499 9.46C172.499 9.88 172.559 10.3 172.679 10.76L170.759 11.02C170.199 10.84 169.819 10.38 169.819 9.7C169.819 7.96 171.619 7.12 173.939 7.12C176.599 7.12 178.139 8.02 178.139 10.5ZM185.601 8.16C184.041 8.16 183.181 9.74 183.181 12.1C183.181 14.56 184.121 16.32 185.801 16.32C186.361 16.32 186.841 16.16 187.241 15.86V10.44C187.241 8.98 186.721 8.16 185.601 8.16ZM187.241 4.38L186.081 3.78V3.28L189.941 2.34H190.461V15.8C190.461 16.48 190.501 16.74 191.221 16.78L191.701 16.8V17.5L187.761 18.2H187.181L187.241 16.32C186.421 17.5 185.381 18.2 184.001 18.2C181.621 18.2 179.981 16.3 179.981 13.16C179.981 9.32 182.261 7.18 185.161 7.18C186.041 7.18 186.761 7.42 187.241 7.82V4.38ZM197.543 7.12C200.323 7.12 201.763 8.92 201.763 11.4V11.86H195.303C195.243 14.48 196.623 16.04 198.503 16.04C199.843 16.04 200.763 15.52 201.503 14.5L201.843 14.7C201.323 16.8 199.823 18.2 197.403 18.2C194.483 18.2 192.403 16.14 192.403 12.92C192.403 9.42 194.723 7.12 197.543 7.12ZM197.323 7.9C196.103 7.9 195.463 9.2 195.343 11.04H198.943C198.943 9.14 198.503 7.9 197.323 7.9ZM212.411 11.26H211.271V15.78C211.271 16.86 211.691 17.14 212.831 17.14H213.011C214.611 17.14 215.551 16.14 215.551 14.16C215.551 12.36 214.571 11.26 212.411 11.26ZM212.011 4.82H211.271V10.28H212.031C213.871 10.28 214.791 9.34 214.791 7.5C214.791 5.72 213.751 4.82 212.011 4.82ZM213.451 18H206.351V17.24C207.711 17.08 207.871 16.94 207.871 15.86V6.1C207.871 5.02 207.711 4.88 206.351 4.72V3.96H213.171C216.271 3.96 218.051 5.14 218.051 7.46C218.051 9.48 216.211 10.5 214.291 10.7C216.951 10.8 218.891 12.04 218.891 14.2C218.891 16.7 217.011 18 213.451 18ZM224.618 16.42C225.078 16.42 225.398 16.24 225.838 15.94V12.22L224.418 12.78C223.638 13.1 223.138 13.5 223.138 14.64C223.138 15.68 223.578 16.42 224.618 16.42ZM229.018 10.5V15.8C229.018 16.38 229.118 16.8 229.618 16.8C229.918 16.8 230.178 16.72 230.358 16.64L230.478 17.12C229.878 17.8 229.078 18.2 228.038 18.2C226.918 18.2 226.158 17.56 225.898 16.48C225.278 17.32 224.278 18.16 222.838 18.16C221.178 18.16 220.058 17.18 220.058 15.52C220.058 13.78 221.278 13.08 222.738 12.54L225.838 11.44V9.58C225.838 8.54 225.518 7.82 224.598 7.82C223.738 7.82 223.378 8.5 223.378 9.46C223.378 9.88 223.438 10.3 223.558 10.76L221.638 11.02C221.078 10.84 220.698 10.38 220.698 9.7C220.698 7.96 222.498 7.12 224.818 7.12C227.478 7.12 229.018 8.02 229.018 10.5ZM235.18 2.34V16.46C235.18 17.12 235.5 17.22 236.38 17.28V18H230.78V17.28C231.66 17.22 231.98 17.12 231.98 16.46V4.38L230.82 3.78V3.28L234.66 2.34H235.18ZM241.649 16.42C242.109 16.42 242.429 16.24 242.869 15.94V12.22L241.449 12.78C240.669 13.1 240.169 13.5 240.169 14.64C240.169 15.68 240.609 16.42 241.649 16.42ZM246.049 10.5V15.8C246.049 16.38 246.149 16.8 246.649 16.8C246.949 16.8 247.209 16.72 247.389 16.64L247.509 17.12C246.909 17.8 246.109 18.2 245.069 18.2C243.949 18.2 243.189 17.56 242.929 16.48C242.309 17.32 241.309 18.16 239.869 18.16C238.209 18.16 237.089 17.18 237.089 15.52C237.089 13.78 238.309 13.08 239.769 12.54L242.869 11.44V9.58C242.869 8.54 242.549 7.82 241.629 7.82C240.769 7.82 240.409 8.5 240.409 9.46C240.409 9.88 240.469 10.3 240.589 10.76L238.669 11.02C238.109 10.84 237.729 10.38 237.729 9.7C237.729 7.96 239.529 7.12 241.849 7.12C244.509 7.12 246.049 8.02 246.049 10.5ZM255.711 16.46V10.62C255.711 9.58 255.331 9.04 254.271 9.04C253.531 9.04 252.851 9.32 252.291 9.68V16.46C252.291 17.12 252.571 17.22 253.431 17.28V18H247.891V17.28C248.751 17.22 249.071 17.12 249.071 16.46V9.4L247.911 8.7V8.24L251.771 7.12H252.371L252.291 9.1C253.091 8.12 254.231 7.12 255.991 7.12C257.891 7.12 258.931 8.2 258.931 10.38V16.46C258.931 17.12 259.251 17.22 260.111 17.28V18H254.571V17.28C255.431 17.22 255.711 17.12 255.711 16.46ZM263.523 11.74C263.523 14.32 264.703 15.98 266.723 15.98C267.923 15.98 268.803 15.52 269.443 14.58L269.843 14.8C269.203 17.1 267.663 18.2 265.523 18.2C262.783 18.2 260.743 16.2 260.743 13C260.743 9.64 262.823 7.12 266.063 7.12C268.043 7.12 269.543 7.9 269.543 9.54C269.543 10.24 269.163 10.74 268.723 10.94H267.023C267.063 10.56 267.103 10.24 267.103 9.88C267.103 8.78 266.763 7.94 265.723 7.94C264.343 7.94 263.523 9.6 263.523 11.74ZM275.629 7.12C278.409 7.12 279.849 8.92 279.849 11.4V11.86H273.389C273.329 14.48 274.709 16.04 276.589 16.04C277.929 16.04 278.849 15.52 279.589 14.5L279.929 14.7C279.409 16.8 277.909 18.2 275.489 18.2C272.569 18.2 270.489 16.14 270.489 12.92C270.489 9.42 272.809 7.12 275.629 7.12ZM275.409 7.9C274.189 7.9 273.549 9.2 273.429 11.04H277.029C277.029 9.14 276.589 7.9 275.409 7.9ZM288.736 7.12V16.46C288.736 17.12 289.056 17.22 289.916 17.28V18H284.336V17.28C285.196 17.22 285.516 17.12 285.516 16.46V9.4L284.356 8.7V8.24L288.196 7.12H288.736ZM287.116 6.06C286.036 6.06 285.336 5.28 285.336 4.36C285.336 3.44 286.036 2.64 287.116 2.64C288.196 2.64 288.916 3.44 288.916 4.36C288.916 5.28 288.196 6.06 287.116 6.06ZM298.485 16.46V10.62C298.485 9.58 298.105 9.04 297.045 9.04C296.305 9.04 295.625 9.32 295.065 9.68V16.46C295.065 17.12 295.345 17.22 296.205 17.28V18H290.665V17.28C291.525 17.22 291.845 17.12 291.845 16.46V9.4L290.685 8.7V8.24L294.545 7.12H295.145L295.065 9.1C295.865 8.12 297.005 7.12 298.765 7.12C300.665 7.12 301.705 8.2 301.705 10.38V16.46C301.705 17.12 302.025 17.22 302.885 17.28V18H297.345V17.28C298.205 17.22 298.485 17.12 298.485 16.46ZM316.369 15.56L315.549 13.5H310.309L309.529 15.56C309.429 15.84 309.349 16.1 309.349 16.32C309.349 16.96 309.889 17.18 311.029 17.24V18H306.829V17.24C307.369 17.14 307.789 17.04 307.989 16.5L312.269 5.46L311.629 3.88H315.249L320.309 16.5C320.509 17.02 320.929 17.14 321.489 17.24V18H314.909V17.24C316.009 17.2 316.549 16.98 316.549 16.34C316.549 16.12 316.469 15.86 316.369 15.56ZM312.869 6.76L310.669 12.54H315.169L312.869 6.76ZM327.339 8.16C325.779 8.16 324.919 9.74 324.919 12.1C324.919 14.56 325.859 16.32 327.539 16.32C328.099 16.32 328.579 16.16 328.979 15.86V10.44C328.979 8.98 328.459 8.16 327.339 8.16ZM328.979 4.38L327.819 3.78V3.28L331.679 2.34H332.199V15.8C332.199 16.48 332.239 16.74 332.959 16.78L333.439 16.8V17.5L329.499 18.2H328.919L328.979 16.32C328.159 17.5 327.119 18.2 325.739 18.2C323.359 18.2 321.719 16.3 321.719 13.16C321.719 9.32 323.999 7.18 326.899 7.18C327.779 7.18 328.499 7.42 328.979 7.82V4.38ZM344.948 7.32V8.04C344.228 8.24 344.108 8.38 343.928 8.82L339.888 18.12H338.988L334.528 8.82C334.328 8.38 334.208 8.24 333.508 8.04V7.32H339.408V8.04C338.368 8.16 338.068 8.28 338.068 8.72C338.068 8.9 338.108 9.02 338.208 9.28L340.468 14.4L342.588 9.28C342.688 9 342.728 8.9 342.728 8.72C342.728 8.28 342.428 8.18 341.388 8.04V7.32H344.948ZM349.384 16.42C349.844 16.42 350.164 16.24 350.604 15.94V12.22L349.184 12.78C348.404 13.1 347.904 13.5 347.904 14.64C347.904 15.68 348.344 16.42 349.384 16.42ZM353.784 10.5V15.8C353.784 16.38 353.884 16.8 354.384 16.8C354.684 16.8 354.944 16.72 355.124 16.64L355.244 17.12C354.644 17.8 353.844 18.2 352.804 18.2C351.684 18.2 350.924 17.56 350.664 16.48C350.044 17.32 349.044 18.16 347.604 18.16C345.944 18.16 344.824 17.18 344.824 15.52C344.824 13.78 346.044 13.08 347.504 12.54L350.604 11.44V9.58C350.604 8.54 350.284 7.82 349.364 7.82C348.504 7.82 348.144 8.5 348.144 9.46C348.144 9.88 348.204 10.3 348.324 10.76L346.404 11.02C345.844 10.84 345.464 10.38 345.464 9.7C345.464 7.96 347.264 7.12 349.584 7.12C352.244 7.12 353.784 8.02 353.784 10.5ZM363.446 16.46V10.62C363.446 9.58 363.066 9.04 362.006 9.04C361.266 9.04 360.586 9.32 360.026 9.68V16.46C360.026 17.12 360.306 17.22 361.166 17.28V18H355.626V17.28C356.486 17.22 356.806 17.12 356.806 16.46V9.4L355.646 8.7V8.24L359.506 7.12H360.106L360.026 9.1C360.826 8.12 361.966 7.12 363.726 7.12C365.626 7.12 366.666 8.2 366.666 10.38V16.46C366.666 17.12 366.986 17.22 367.846 17.28V18H362.306V17.28C363.166 17.22 363.446 17.12 363.446 16.46ZM371.257 11.74C371.257 14.32 372.437 15.98 374.457 15.98C375.657 15.98 376.537 15.52 377.177 14.58L377.577 14.8C376.937 17.1 375.397 18.2 373.257 18.2C370.517 18.2 368.477 16.2 368.477 13C368.477 9.64 370.557 7.12 373.797 7.12C375.777 7.12 377.277 7.9 377.277 9.54C377.277 10.24 376.897 10.74 376.457 10.94H374.757C374.797 10.56 374.837 10.24 374.837 9.88C374.837 8.78 374.497 7.94 373.457 7.94C372.077 7.94 371.257 9.6 371.257 11.74ZM383.363 7.12C386.143 7.12 387.583 8.92 387.583 11.4V11.86H381.123C381.063 14.48 382.443 16.04 384.323 16.04C385.663 16.04 386.583 15.52 387.323 14.5L387.663 14.7C387.143 16.8 385.643 18.2 383.223 18.2C380.303 18.2 378.223 16.14 378.223 12.92C378.223 9.42 380.543 7.12 383.363 7.12ZM383.143 7.9C381.923 7.9 381.283 9.2 381.163 11.04H384.763C384.763 9.14 384.323 7.9 383.143 7.9ZM394.234 8.16C392.674 8.16 391.814 9.74 391.814 12.1C391.814 14.56 392.754 16.32 394.434 16.32C394.994 16.32 395.474 16.16 395.874 15.86V10.44C395.874 8.98 395.354 8.16 394.234 8.16ZM395.874 4.38L394.714 3.78V3.28L398.574 2.34H399.094V15.8C399.094 16.48 399.134 16.74 399.854 16.78L400.334 16.8V17.5L396.394 18.2H395.814L395.874 16.32C395.054 17.5 394.014 18.2 392.634 18.2C390.254 18.2 388.614 16.3 388.614 13.16C388.614 9.32 390.894 7.18 393.794 7.18C394.674 7.18 395.394 7.42 395.874 7.82V4.38ZM404.848 3.96H417.468L417.768 8.78H417.048C415.688 5.72 415.168 4.72 413.728 4.72H412.868V15.94C412.868 17.02 413.248 17.08 414.588 17.24V18H407.728V17.24C409.068 17.08 409.468 17.02 409.468 15.94V4.72H408.588C407.148 4.72 406.628 5.72 405.268 8.78H404.548L404.848 3.96ZM422.875 7.12C425.655 7.12 427.095 8.92 427.095 11.4V11.86H420.635C420.575 14.48 421.955 16.04 423.835 16.04C425.175 16.04 426.095 15.52 426.835 14.5L427.175 14.7C426.655 16.8 425.155 18.2 422.735 18.2C419.815 18.2 417.735 16.14 417.735 12.92C417.735 9.42 420.055 7.12 422.875 7.12ZM422.655 7.9C421.435 7.9 420.795 9.2 420.675 11.04H424.275C424.275 9.14 423.835 7.9 422.655 7.9ZM430.906 11.74C430.906 14.32 432.086 15.98 434.106 15.98C435.306 15.98 436.186 15.52 436.826 14.58L437.226 14.8C436.586 17.1 435.046 18.2 432.906 18.2C430.166 18.2 428.126 16.2 428.126 13C428.126 9.64 430.206 7.12 433.446 7.12C435.426 7.12 436.926 7.9 436.926 9.54C436.926 10.24 436.546 10.74 436.106 10.94H434.406C434.446 10.56 434.486 10.24 434.486 9.88C434.486 8.78 434.146 7.94 433.106 7.94C431.726 7.94 430.906 9.6 430.906 11.74ZM438.933 16.46V4.38L437.793 3.78V3.28L441.633 2.34H442.153V9.1C442.953 8.12 444.113 7.12 445.853 7.12C447.753 7.12 448.793 8.22 448.793 10.4V16.46C448.793 17.12 449.113 17.22 449.973 17.28V18H444.433V17.28C445.293 17.22 445.573 17.12 445.573 16.46V10.62C445.573 9.58 445.193 9.04 444.133 9.04C443.393 9.04 442.733 9.32 442.153 9.68V16.46C442.153 17.12 442.433 17.22 443.293 17.28V18H437.753V17.28C438.613 17.22 438.933 17.12 438.933 16.46ZM458.426 16.46V10.62C458.426 9.58 458.046 9.04 456.986 9.04C456.246 9.04 455.566 9.32 455.006 9.68V16.46C455.006 17.12 455.286 17.22 456.146 17.28V18H450.606V17.28C451.466 17.22 451.786 17.12 451.786 16.46V9.4L450.626 8.7V8.24L454.486 7.12H455.086L455.006 9.1C455.806 8.12 456.946 7.12 458.706 7.12C460.606 7.12 461.646 8.2 461.646 10.38V16.46C461.646 17.12 461.966 17.22 462.826 17.28V18H457.286V17.28C458.146 17.22 458.426 17.12 458.426 16.46ZM468.898 17.42C470.238 17.42 470.778 15.8 470.778 13.22C470.778 10.1 470.198 7.9 468.738 7.9C467.398 7.9 466.858 9.52 466.858 12.1C466.858 15.22 467.438 17.42 468.898 17.42ZM468.798 18.2C465.618 18.2 463.458 16.1 463.458 12.88C463.458 9.5 465.718 7.12 468.838 7.12C472.018 7.12 474.198 9.22 474.198 12.44C474.198 15.82 471.918 18.2 468.798 18.2ZM479.34 2.34V16.46C479.34 17.12 479.66 17.22 480.54 17.28V18H474.94V17.28C475.82 17.22 476.14 17.12 476.14 16.46V4.38L474.98 3.78V3.28L478.82 2.34H479.34ZM486.73 17.42C488.07 17.42 488.61 15.8 488.61 13.22C488.61 10.1 488.03 7.9 486.57 7.9C485.23 7.9 484.69 9.52 484.69 12.1C484.69 15.22 485.27 17.42 486.73 17.42ZM486.63 18.2C483.45 18.2 481.29 16.1 481.29 12.88C481.29 9.5 483.55 7.12 486.67 7.12C489.85 7.12 492.03 9.22 492.03 12.44C492.03 15.82 489.75 18.2 486.63 18.2ZM497.53 14.22C496.81 14.22 496.09 14.12 495.43 13.9C495.09 14.22 494.79 14.6 494.79 15C494.79 15.38 495.03 15.64 495.45 15.64H499.67C502.17 15.64 503.35 16.7 503.35 18.5C503.35 21.04 500.85 22.46 497.39 22.46C494.35 22.46 492.47 21.58 492.47 19.98C492.47 18.96 493.41 18.44 494.33 18.22C493.51 17.9 493.05 17.16 493.05 16.32C493.05 15.08 493.97 14.28 494.97 13.7C493.87 13.2 493.07 12.28 493.07 10.84C493.07 8.5 495.01 7.12 497.65 7.12C498.41 7.12 498.97 7.24 499.47 7.4L502.95 7.32V8.56H502.09L500.77 8.5C501.49 8.98 502.03 9.8 502.03 10.8C502.03 12.96 500.13 14.22 497.53 14.22ZM499.73 18.58H494.69C494.49 18.8 494.41 19.14 494.41 19.54C494.41 20.82 495.61 21.6 497.49 21.6C499.39 21.6 501.09 21.04 501.09 19.62C501.09 18.86 500.61 18.58 499.73 18.58ZM497.65 13.5C498.67 13.5 499.03 12.48 499.03 10.8C499.03 9.24 498.55 7.88 497.51 7.88C496.49 7.88 496.11 8.92 496.11 10.52C496.11 12.14 496.61 13.5 497.65 13.5ZM510.233 14.8L512.353 9.3C512.453 9.04 512.513 8.9 512.513 8.72C512.513 8.28 512.193 8.16 511.173 8.04V7.32H514.693V8.04C513.993 8.24 513.853 8.38 513.673 8.82L509.193 19.82C508.513 21.5 507.793 22.4 506.453 22.4C505.713 22.4 505.093 22.08 504.833 21.54V20.32C505.293 20.42 505.693 20.5 506.293 20.5C507.393 20.5 508.013 20.2 508.413 19.22L508.733 18.44L504.313 8.82C504.113 8.38 503.993 8.24 503.293 8.04V7.32H509.193V8.04C508.153 8.16 507.853 8.28 507.853 8.72C507.853 8.9 507.893 9.04 507.973 9.28L510.233 14.8ZM523.907 12.5V15.76C523.907 16.86 524.467 17.12 526.287 17.22V18H518.987V17.24C520.347 17.08 520.507 16.94 520.507 15.86V6.1C520.507 5.02 520.347 4.88 518.987 4.72V3.96H525.487C529.307 3.96 531.087 5.82 531.087 8.16C531.087 10.84 529.227 12.5 525.387 12.5H523.907ZM523.907 4.82V11.56H524.587C526.667 11.56 527.687 10.28 527.687 8.18C527.687 6.16 526.567 4.82 524.587 4.82H523.907ZM536.217 10.82V16.22C536.217 17.06 536.657 17.16 537.857 17.28V18H531.817V17.28C532.677 17.22 532.997 17.12 532.997 16.46V9.4L531.837 8.7V8.24L535.697 7.12H536.297L536.217 10.14C537.097 7.88 537.737 7.12 538.957 7.12C539.397 7.12 539.717 7.26 539.897 7.46V9.9H539.477C538.217 9.9 537.177 9.96 536.217 10.82ZM545.831 17.42C547.171 17.42 547.711 15.8 547.711 13.22C547.711 10.1 547.131 7.9 545.671 7.9C544.331 7.9 543.791 9.52 543.791 12.1C543.791 15.22 544.371 17.42 545.831 17.42ZM545.731 18.2C542.551 18.2 540.391 16.1 540.391 12.88C540.391 9.5 542.651 7.12 545.771 7.12C548.951 7.12 551.131 9.22 551.131 12.44C551.131 15.82 548.851 18.2 545.731 18.2ZM557.847 8.16C556.287 8.16 555.427 9.74 555.427 12.1C555.427 14.56 556.367 16.32 558.047 16.32C558.607 16.32 559.087 16.16 559.487 15.86V10.44C559.487 8.98 558.967 8.16 557.847 8.16ZM559.487 4.38L558.327 3.78V3.28L562.187 2.34H562.707V15.8C562.707 16.48 562.747 16.74 563.467 16.78L563.947 16.8V17.5L560.007 18.2H559.427L559.487 16.32C558.667 17.5 557.627 18.2 556.247 18.2C553.867 18.2 552.227 16.3 552.227 13.16C552.227 9.32 554.507 7.18 557.407 7.18C558.287 7.18 559.007 7.42 559.487 7.82V4.38ZM575.169 9.56V15.8C575.169 16.48 575.229 16.74 575.929 16.78L576.409 16.8V17.5L572.489 18.2H571.909L571.969 16.28C571.189 17.2 570.129 18.2 568.449 18.2C566.669 18.2 565.489 17.18 565.489 14.9V9.84C565.489 9.22 565.349 8.86 564.629 8.7L564.329 8.64V7.96L568.269 7.14H568.809L568.709 9.6V14.54C568.709 15.66 569.129 16.32 570.169 16.32C570.869 16.32 571.369 16.06 571.969 15.74V9.84C571.969 9.22 571.829 8.86 571.109 8.7L570.809 8.64V7.96L574.729 7.14H575.289L575.169 9.56ZM579.89 11.74C579.89 14.32 581.07 15.98 583.09 15.98C584.29 15.98 585.17 15.52 585.81 14.58L586.21 14.8C585.57 17.1 584.03 18.2 581.89 18.2C579.15 18.2 577.11 16.2 577.11 13C577.11 9.64 579.19 7.12 582.43 7.12C584.41 7.12 585.91 7.9 585.91 9.54C585.91 10.24 585.53 10.74 585.09 10.94H583.39C583.43 10.56 583.47 10.24 583.47 9.88C583.47 8.78 583.13 7.94 582.09 7.94C580.71 7.94 579.89 9.6 579.89 11.74ZM590.935 4.66V7.32H593.415V8.32H590.935V14.94C590.935 16.04 591.355 16.5 592.215 16.5C592.735 16.5 593.195 16.32 593.675 15.96L593.955 16.36C593.255 17.48 592.195 18.2 590.675 18.2C588.955 18.2 587.715 17.32 587.715 15.02V8.32H586.515V7.76C587.995 7.14 589.315 6 590.255 4.66H590.935ZM598.435 18.2C596.835 18.2 595.555 17.8 594.735 17.2L594.615 14.48H595.435C595.855 16.16 596.895 17.44 598.435 17.44C599.435 17.44 600.235 16.94 600.235 15.94C600.235 14.88 599.475 14.52 597.995 14C595.815 13.28 594.655 12.38 594.655 10.46C594.655 8.32 596.255 7.12 598.575 7.12C599.895 7.12 601.055 7.46 601.895 8V10.42H601.135C600.855 9.04 599.995 7.88 598.595 7.88C597.655 7.88 597.055 8.42 597.055 9.22C597.055 10.12 597.675 10.52 599.115 11.02C601.375 11.8 602.655 12.62 602.655 14.7C602.655 16.92 600.995 18.2 598.435 18.2Z" fill="black"/>
<path d="M58 95H682" stroke="#7D7575" stroke-opacity="0.3" stroke-dasharray="20 20"/>
<path d="M60 167H683" stroke="#7D7575" stroke-opacity="0.3" stroke-dasharray="20 20"/>
<path d="M60 240H683" stroke="#7D7575" stroke-opacity="0.3" stroke-dasharray="20 20"/>
<path d="M60 310H683" stroke="#7D7575" stroke-opacity="0.3" stroke-dasharray="20 20"/>
<path d="M60 383H683" stroke="#7D7575" stroke-opacity="0.3" stroke-dasharray="20 20"/>
<path d="M60 456H680" stroke="#7D7575" stroke-opacity="0.3" stroke-dasharray="20 20"/>
<path opacity="0.3" d="M498.47 436.89H499.3C499.41 438.04 500.35 438.43 501.41 438.43C502.43 438.43 503.18 437.94 503.18 437.08C503.18 436.48 502.85 436.09 501.88 435.91L500.52 435.64C499.56 435.46 498.7 435.02 498.7 433.79C498.7 432.62 499.71 431.74 501.19 431.74C502.72 431.74 503.73 432.4 503.87 433.69H503.04C502.92 432.89 502.22 432.43 501.2 432.43C500.16 432.43 499.54 433.01 499.54 433.76C499.54 434.47 499.94 434.72 500.81 434.89L502.21 435.18C503.31 435.4 504.01 435.91 504.01 437.04C504.01 438.26 502.93 439.12 501.42 439.12C499.87 439.12 498.57 438.45 498.47 436.89ZM509.882 436.49C509.882 438.11 508.882 439.12 507.492 439.12C506.102 439.12 505.102 438.11 505.102 436.49C505.102 434.87 506.102 433.85 507.492 433.85C508.882 433.85 509.882 434.87 509.882 436.49ZM505.922 436.49C505.922 437.7 506.512 438.45 507.492 438.45C508.472 438.45 509.062 437.7 509.062 436.49C509.062 435.28 508.472 434.52 507.492 434.52C506.512 434.52 505.922 435.28 505.922 436.49ZM515.432 439H514.622V438.09C514.382 438.72 513.782 439.12 513.022 439.12C511.882 439.12 511.242 438.43 511.242 437.21V433.97H512.082V437.05C512.082 437.98 512.472 438.47 513.262 438.47C514.022 438.47 514.592 437.95 514.592 436.74V433.97H515.432V439ZM520 433.9V434.66C519.88 434.63 519.7 434.62 519.57 434.62C518.77 434.62 518.04 435.25 518.04 436.52V439H517.21V433.97H518.01V435.16C518.23 434.33 518.87 433.86 519.61 433.86C519.74 433.86 519.88 433.87 520 433.9ZM520.59 436.49C520.59 434.88 521.56 433.85 522.96 433.85C524.08 433.85 524.82 434.49 524.98 435.56H524.19C524.05 434.89 523.64 434.52 522.96 434.52C521.97 434.52 521.41 435.31 521.41 436.49C521.41 437.67 521.97 438.45 522.96 438.45C523.64 438.45 524.05 438.08 524.19 437.41H524.98C524.82 438.49 524.08 439.12 522.96 439.12C521.56 439.12 520.59 438.1 520.59 436.49ZM530.481 437.52C530.251 438.59 529.381 439.12 528.401 439.12C526.981 439.12 525.981 438.13 525.981 436.51C525.981 434.87 527.011 433.85 528.351 433.85C529.841 433.85 530.511 435.04 530.511 436.33V436.66H526.791C526.831 437.82 527.441 438.46 528.401 438.46C529.081 438.46 529.491 438.13 529.701 437.52H530.481ZM528.351 434.52C527.561 434.52 526.961 435.03 526.821 436.06H529.701C529.681 435.19 529.251 434.52 528.351 434.52ZM533.915 438.46C533.915 438.213 533.975 438.04 534.095 437.94C534.215 437.84 534.359 437.79 534.525 437.79C534.699 437.79 534.845 437.84 534.965 437.94C535.092 438.04 535.155 438.213 535.155 438.46C535.155 438.7 535.092 438.873 534.965 438.98C534.845 439.087 534.699 439.14 534.525 439.14C534.359 439.14 534.215 439.087 534.095 438.98C533.975 438.873 533.915 438.7 533.915 438.46ZM533.915 434.18C533.915 433.927 533.975 433.75 534.095 433.65C534.215 433.55 534.359 433.5 534.525 433.5C534.699 433.5 534.845 433.55 534.965 433.65C535.092 433.75 535.155 433.927 535.155 434.18C535.155 434.42 535.092 434.593 534.965 434.7C534.845 434.807 534.699 434.86 534.525 434.86C534.359 434.86 534.215 434.807 534.095 434.7C533.975 434.593 533.915 434.42 533.915 434.18ZM544.639 436.09C544.639 438.04 543.589 439.12 541.749 439.12C539.929 439.12 538.859 438.04 538.859 436.07V431.86H539.719V436.14C539.719 437.66 540.499 438.39 541.749 438.39C543.009 438.39 543.779 437.66 543.779 436.14V431.86H544.639V436.09ZM545.941 436.89H546.771C546.881 438.04 547.821 438.43 548.881 438.43C549.901 438.43 550.651 437.94 550.651 437.08C550.651 436.48 550.321 436.09 549.351 435.91L547.991 435.64C547.031 435.46 546.171 435.02 546.171 433.79C546.171 432.62 547.181 431.74 548.661 431.74C550.191 431.74 551.201 432.4 551.341 433.69H550.511C550.391 432.89 549.691 432.43 548.671 432.43C547.631 432.43 547.011 433.01 547.011 433.76C547.011 434.47 547.411 434.72 548.281 434.89L549.681 435.18C550.781 435.4 551.481 435.91 551.481 437.04C551.481 438.26 550.401 439.12 548.891 439.12C547.341 439.12 546.041 438.45 545.941 436.89ZM555.581 435.42C555.581 437.2 556.431 438.39 557.901 438.39C559.101 438.39 559.621 437.72 559.781 436.92H560.621C560.391 438.22 559.461 439.12 557.901 439.12C556.061 439.12 554.701 437.67 554.701 435.42C554.701 433.18 556.061 431.74 557.901 431.74C559.461 431.74 560.391 432.64 560.621 433.94H559.781C559.621 433.14 559.101 432.47 557.901 432.47C556.431 432.47 555.581 433.64 555.581 435.42ZM566.077 437.52C565.847 438.59 564.977 439.12 563.997 439.12C562.577 439.12 561.577 438.13 561.577 436.51C561.577 434.87 562.607 433.85 563.947 433.85C565.437 433.85 566.107 435.04 566.107 436.33V436.66H562.387C562.427 437.82 563.037 438.46 563.997 438.46C564.677 438.46 565.087 438.13 565.297 437.52H566.077ZM563.947 434.52C563.157 434.52 562.557 435.03 562.417 436.06H565.297C565.277 435.19 564.847 434.52 563.947 434.52ZM568.313 433.97V434.89C568.553 434.27 569.183 433.85 569.953 433.85C571.083 433.85 571.753 434.56 571.753 435.76V439H570.923V435.94C570.923 435.01 570.513 434.53 569.723 434.53C568.953 434.53 568.343 435.02 568.343 436.23V439H567.513V433.97H568.313ZM573.05 437.51H573.85C573.91 438.2 574.55 438.49 575.23 438.49C575.92 438.49 576.42 438.17 576.42 437.63C576.42 437.26 576.18 437.02 575.54 436.9L574.65 436.72C573.84 436.57 573.25 436.24 573.25 435.36C573.25 434.51 574.01 433.85 575.12 433.85C576.28 433.85 576.99 434.35 577.09 435.3H576.32C576.26 434.79 575.81 434.49 575.12 434.49C574.45 434.49 574.02 434.82 574.02 435.31C574.02 435.74 574.32 435.92 574.9 436.03L575.9 436.22C576.72 436.38 577.2 436.78 577.2 437.59C577.2 438.47 576.37 439.12 575.24 439.12C574.04 439.12 573.14 438.59 573.05 437.51ZM582.776 439H581.966V438.09C581.726 438.72 581.126 439.12 580.366 439.12C579.226 439.12 578.586 438.43 578.586 437.21V433.97H579.426V437.05C579.426 437.98 579.816 438.47 580.606 438.47C581.366 438.47 581.936 437.95 581.936 436.74V433.97H582.776V439ZM584.124 437.51H584.924C584.984 438.2 585.624 438.49 586.304 438.49C586.994 438.49 587.494 438.17 587.494 437.63C587.494 437.26 587.254 437.02 586.614 436.9L585.724 436.72C584.914 436.57 584.324 436.24 584.324 435.36C584.324 434.51 585.084 433.85 586.194 433.85C587.354 433.85 588.064 434.35 588.164 435.3H587.394C587.334 434.79 586.884 434.49 586.194 434.49C585.524 434.49 585.094 434.82 585.094 435.31C585.094 435.74 585.394 435.92 585.974 436.03L586.974 436.22C587.794 436.38 588.274 436.78 588.274 437.59C588.274 438.47 587.444 439.12 586.314 439.12C585.114 439.12 584.214 438.59 584.124 437.51ZM594.748 439H591.918V431.86H594.428C596.018 431.86 596.938 432.52 596.938 433.77C596.938 434.43 596.438 435.11 595.828 435.29C596.708 435.51 597.258 436.16 597.258 437C597.258 438.31 596.328 439 594.748 439ZM592.768 435.01H594.478C595.538 435.01 596.068 434.56 596.068 433.78C596.068 432.99 595.548 432.56 594.488 432.56H592.768V435.01ZM592.768 435.68V438.3H594.708C595.798 438.3 596.398 437.82 596.398 437C596.398 436.18 595.778 435.68 594.688 435.68H592.768ZM602.757 439H601.947V438.09C601.707 438.72 601.107 439.12 600.347 439.12C599.207 439.12 598.567 438.43 598.567 437.21V433.97H599.407V437.05C599.407 437.98 599.797 438.47 600.587 438.47C601.347 438.47 601.917 437.95 601.917 436.74V433.97H602.757V439ZM607.325 433.9V434.66C607.205 434.63 607.025 434.62 606.895 434.62C606.095 434.62 605.365 435.25 605.365 436.52V439H604.535V433.97H605.335V435.16C605.555 434.33 606.195 433.86 606.935 433.86C607.065 433.86 607.205 433.87 607.325 433.9ZM612.415 437.52C612.185 438.59 611.315 439.12 610.335 439.12C608.915 439.12 607.915 438.13 607.915 436.51C607.915 434.87 608.945 433.85 610.285 433.85C611.775 433.85 612.445 435.04 612.445 436.33V436.66H608.725C608.765 437.82 609.375 438.46 610.335 438.46C611.015 438.46 611.425 438.13 611.635 437.52H612.415ZM610.285 434.52C609.495 434.52 608.895 435.03 608.755 436.06H611.635C611.615 435.19 611.185 434.52 610.285 434.52ZM617.038 439C616.978 438.72 616.948 438.39 616.948 438.15C616.728 438.74 616.038 439.11 615.198 439.11C614.318 439.11 613.568 438.6 613.568 437.67C613.568 436.7 614.288 436.28 615.308 436.16L616.928 435.95V435.66C616.928 434.86 616.438 434.52 615.748 434.52C615.078 434.52 614.658 434.87 614.598 435.45H613.798C613.898 434.43 614.698 433.85 615.768 433.85C616.988 433.85 617.748 434.43 617.748 435.64V437.95C617.748 438.32 617.768 438.67 617.868 439H617.038ZM615.368 438.48C616.148 438.48 616.928 437.99 616.928 437.02V436.57L615.558 436.72C614.928 436.81 614.408 436.97 614.408 437.65C614.408 438.12 614.738 438.48 615.368 438.48ZM623.616 439H622.806V438.09C622.566 438.72 621.966 439.12 621.206 439.12C620.066 439.12 619.426 438.43 619.426 437.21V433.97H620.266V437.05C620.266 437.98 620.656 438.47 621.446 438.47C622.206 438.47 622.776 437.95 622.776 436.74V433.97H623.616V439Z" fill="black"/>
<path d="M61 82L83.3069 105.773L105.312 117.208L127.318 138.573L149.323 114.199L169.52 97.6479L193.937 105.773L213.531 128.342L234.632 158.133L256.939 160.541L277.739 201.767L300.046 221.628L320.544 238.78L342.851 249.012L363.952 247.507L385.656 277.599L407.059 273.386L429.667 264.359L450.768 304.983L471.568 332.367L493.875 316.117L514.976 298.062L536.68 302.576L558.384 311.604L579.485 298.062L601.189 335.075L622.29 355.839L644.899 359.751L666 441" stroke="#9ABC95" stroke-width="5"/>
</svg>
