<svg width="545" height="476" viewBox="0 0 545 476" fill="none" xmlns="http://www.w3.org/2000/svg">
<rect x="89" y="90" width="373" height="365" fill="#E7E7E7" fill-opacity="0.5"/>
<rect x="88" y="176" width="112" height="24" fill="#9ABC95"/>
<rect x="88" y="138" width="282" height="24" fill="#9ABC95"/>
<rect x="88" y="214" width="109" height="24" fill="#9ABC95"/>
<rect x="88" y="252" width="90" height="24" fill="#9ABC95"/>
<rect x="88" y="290" width="81" height="24" fill="#9ABC95"/>
<rect x="88" y="328" width="66" height="24" fill="#9ABC95"/>
<rect x="88" y="366" width="66" height="24" fill="#9ABC95"/>
<rect x="88" y="404" width="53" height="24" fill="#9ABC95"/>
<path d="M122.604 13.58V7.1C122.604 6.04 122.244 5.86 120.604 5.72V4.96H125.344V5.72C123.964 5.88 123.804 6.04 123.804 7.1V19.04H122.604L113.964 8.2V16.86C113.964 17.92 114.324 18.1 115.964 18.24V19H111.244V18.24C112.604 18.08 112.764 17.92 112.764 16.86V6.98C112.204 6.12 111.924 5.78 111.224 5.72V4.96H115.764L122.604 13.58ZM130.448 17.42C130.908 17.42 131.228 17.24 131.668 16.94V13.22L130.248 13.78C129.468 14.1 128.968 14.5 128.968 15.64C128.968 16.68 129.408 17.42 130.448 17.42ZM134.848 11.5V16.8C134.848 17.38 134.948 17.8 135.448 17.8C135.748 17.8 136.008 17.72 136.188 17.64L136.308 18.12C135.708 18.8 134.908 19.2 133.868 19.2C132.748 19.2 131.988 18.56 131.728 17.48C131.108 18.32 130.108 19.16 128.668 19.16C127.008 19.16 125.888 18.18 125.888 16.52C125.888 14.78 127.108 14.08 128.568 13.54L131.668 12.44V10.58C131.668 9.54 131.348 8.82 130.428 8.82C129.568 8.82 129.208 9.5 129.208 10.46C129.208 10.88 129.268 11.3 129.388 11.76L127.468 12.02C126.908 11.84 126.528 11.38 126.528 10.7C126.528 8.96 128.328 8.12 130.648 8.12C133.308 8.12 134.848 9.02 134.848 11.5ZM140.73 5.66V8.32H143.21V9.32H140.73V15.94C140.73 17.04 141.15 17.5 142.01 17.5C142.53 17.5 142.99 17.32 143.47 16.96L143.75 17.36C143.05 18.48 141.99 19.2 140.47 19.2C138.75 19.2 137.51 18.32 137.51 16.02V9.32H136.31V8.76C137.79 8.14 139.11 7 140.05 5.66H140.73ZM148.59 8.12V17.46C148.59 18.12 148.91 18.22 149.77 18.28V19H144.19V18.28C145.05 18.22 145.37 18.12 145.37 17.46V10.4L144.21 9.7V9.24L148.05 8.12H148.59ZM146.97 7.06C145.89 7.06 145.19 6.28 145.19 5.36C145.19 4.44 145.89 3.64 146.97 3.64C148.05 3.64 148.77 4.44 148.77 5.36C148.77 6.28 148.05 7.06 146.97 7.06ZM155.958 18.42C157.298 18.42 157.838 16.8 157.838 14.22C157.838 11.1 157.258 8.9 155.798 8.9C154.458 8.9 153.918 10.52 153.918 13.1C153.918 16.22 154.498 18.42 155.958 18.42ZM155.858 19.2C152.678 19.2 150.518 17.1 150.518 13.88C150.518 10.5 152.778 8.12 155.898 8.12C159.078 8.12 161.258 10.22 161.258 13.44C161.258 16.82 158.978 19.2 155.858 19.2ZM169.94 17.46V11.62C169.94 10.58 169.56 10.04 168.5 10.04C167.76 10.04 167.08 10.32 166.52 10.68V17.46C166.52 18.12 166.8 18.22 167.66 18.28V19H162.12V18.28C162.98 18.22 163.3 18.12 163.3 17.46V10.4L162.14 9.7V9.24L166 8.12H166.6L166.52 10.1C167.32 9.12 168.46 8.12 170.22 8.12C172.12 8.12 173.16 9.2 173.16 11.38V17.46C173.16 18.12 173.48 18.22 174.34 18.28V19H168.8V18.28C169.66 18.22 169.94 18.12 169.94 17.46ZM179.491 17.42C179.951 17.42 180.271 17.24 180.711 16.94V13.22L179.291 13.78C178.511 14.1 178.011 14.5 178.011 15.64C178.011 16.68 178.451 17.42 179.491 17.42ZM183.891 11.5V16.8C183.891 17.38 183.991 17.8 184.491 17.8C184.791 17.8 185.051 17.72 185.231 17.64L185.351 18.12C184.751 18.8 183.951 19.2 182.911 19.2C181.791 19.2 181.031 18.56 180.771 17.48C180.151 18.32 179.151 19.16 177.711 19.16C176.051 19.16 174.931 18.18 174.931 16.52C174.931 14.78 176.151 14.08 177.611 13.54L180.711 12.44V10.58C180.711 9.54 180.391 8.82 179.471 8.82C178.611 8.82 178.251 9.5 178.251 10.46C178.251 10.88 178.311 11.3 178.431 11.76L176.511 12.02C175.951 11.84 175.571 11.38 175.571 10.7C175.571 8.96 177.371 8.12 179.691 8.12C182.351 8.12 183.891 9.02 183.891 11.5ZM190.053 3.34V17.46C190.053 18.12 190.373 18.22 191.253 18.28V19H185.653V18.28C186.533 18.22 186.853 18.12 186.853 17.46V5.38L185.693 4.78V4.28L189.533 3.34H190.053ZM200.675 7.1V16.86C200.675 17.94 200.835 18.08 202.215 18.24V19H195.755V18.24C197.115 18.08 197.275 17.94 197.275 16.86V7.1C197.275 6.02 197.115 5.88 195.755 5.72V4.96H202.215V5.72C200.835 5.88 200.675 6.02 200.675 7.1ZM211.014 17.46V11.62C211.014 10.58 210.634 10.04 209.574 10.04C208.834 10.04 208.154 10.32 207.594 10.68V17.46C207.594 18.12 207.874 18.22 208.734 18.28V19H203.194V18.28C204.054 18.22 204.374 18.12 204.374 17.46V10.4L203.214 9.7V9.24L207.074 8.12H207.674L207.594 10.1C208.394 9.12 209.534 8.12 211.294 8.12C213.194 8.12 214.234 9.2 214.234 11.38V17.46C214.234 18.12 214.554 18.22 215.414 18.28V19H209.874V18.28C210.734 18.22 211.014 18.12 211.014 17.46ZM221.665 9.16C220.105 9.16 219.245 10.74 219.245 13.1C219.245 15.56 220.185 17.32 221.865 17.32C222.425 17.32 222.905 17.16 223.305 16.86V11.44C223.305 9.98 222.785 9.16 221.665 9.16ZM223.305 5.38L222.145 4.78V4.28L226.005 3.34H226.525V16.8C226.525 17.48 226.565 17.74 227.285 17.78L227.765 17.8V18.5L223.825 19.2H223.245L223.305 17.32C222.485 18.5 221.445 19.2 220.065 19.2C217.685 19.2 216.045 17.3 216.045 14.16C216.045 10.32 218.325 8.18 221.225 8.18C222.105 8.18 222.825 8.42 223.305 8.82V5.38ZM238.987 10.56V16.8C238.987 17.48 239.047 17.74 239.747 17.78L240.227 17.8V18.5L236.307 19.2H235.727L235.787 17.28C235.007 18.2 233.947 19.2 232.267 19.2C230.487 19.2 229.307 18.18 229.307 15.9V10.84C229.307 10.22 229.167 9.86 228.447 9.7L228.147 9.64V8.96L232.087 8.14H232.627L232.527 10.6V15.54C232.527 16.66 232.947 17.32 233.987 17.32C234.687 17.32 235.187 17.06 235.787 16.74V10.84C235.787 10.22 235.647 9.86 234.927 9.7L234.627 9.64V8.96L238.547 8.14H239.107L238.987 10.56ZM244.968 19.2C243.368 19.2 242.088 18.8 241.268 18.2L241.148 15.48H241.968C242.388 17.16 243.428 18.44 244.968 18.44C245.968 18.44 246.768 17.94 246.768 16.94C246.768 15.88 246.008 15.52 244.528 15C242.348 14.28 241.188 13.38 241.188 11.46C241.188 9.32 242.788 8.12 245.108 8.12C246.428 8.12 247.588 8.46 248.428 9V11.42H247.668C247.388 10.04 246.528 8.88 245.128 8.88C244.188 8.88 243.588 9.42 243.588 10.22C243.588 11.12 244.208 11.52 245.648 12.02C247.908 12.8 249.188 13.62 249.188 15.7C249.188 17.92 247.528 19.2 244.968 19.2ZM254.285 5.66V8.32H256.765V9.32H254.285V15.94C254.285 17.04 254.705 17.5 255.565 17.5C256.085 17.5 256.545 17.32 257.025 16.96L257.305 17.36C256.605 18.48 255.545 19.2 254.025 19.2C252.305 19.2 251.065 18.32 251.065 16.02V9.32H249.865V8.76C251.345 8.14 252.665 7 253.605 5.66H254.285ZM262.145 11.82V17.22C262.145 18.06 262.585 18.16 263.785 18.28V19H257.745V18.28C258.605 18.22 258.925 18.12 258.925 17.46V10.4L257.765 9.7V9.24L261.625 8.12H262.225L262.145 11.14C263.025 8.88 263.665 8.12 264.885 8.12C265.325 8.12 265.645 8.26 265.825 8.46V10.9H265.405C264.145 10.9 263.105 10.96 262.145 11.82ZM270.797 8.12V17.46C270.797 18.12 271.117 18.22 271.977 18.28V19H266.397V18.28C267.257 18.22 267.577 18.12 267.577 17.46V10.4L266.417 9.7V9.24L270.257 8.12H270.797ZM269.177 7.06C268.097 7.06 267.397 6.28 267.397 5.36C267.397 4.44 268.097 3.64 269.177 3.64C270.257 3.64 270.977 4.44 270.977 5.36C270.977 6.28 270.257 7.06 269.177 7.06ZM277.245 17.42C277.705 17.42 278.025 17.24 278.465 16.94V13.22L277.045 13.78C276.265 14.1 275.765 14.5 275.765 15.64C275.765 16.68 276.205 17.42 277.245 17.42ZM281.645 11.5V16.8C281.645 17.38 281.745 17.8 282.245 17.8C282.545 17.8 282.805 17.72 282.985 17.64L283.105 18.12C282.505 18.8 281.705 19.2 280.665 19.2C279.545 19.2 278.785 18.56 278.525 17.48C277.905 18.32 276.905 19.16 275.465 19.16C273.805 19.16 272.685 18.18 272.685 16.52C272.685 14.78 273.905 14.08 275.365 13.54L278.465 12.44V10.58C278.465 9.54 278.145 8.82 277.225 8.82C276.365 8.82 276.005 9.5 276.005 10.46C276.005 10.88 276.065 11.3 276.185 11.76L274.265 12.02C273.705 11.84 273.325 11.38 273.325 10.7C273.325 8.96 275.125 8.12 277.445 8.12C280.105 8.12 281.645 9.02 281.645 11.5ZM287.807 3.34V17.46C287.807 18.12 288.127 18.22 289.007 18.28V19H283.407V18.28C284.287 18.22 284.607 18.12 284.607 17.46V5.38L283.447 4.78V4.28L287.287 3.34H287.807ZM298.429 13.5V16.76C298.429 17.86 298.989 18.12 300.809 18.22V19H293.509V18.24C294.869 18.08 295.029 17.94 295.029 16.86V7.1C295.029 6.02 294.869 5.88 293.509 5.72V4.96H300.009C303.829 4.96 305.609 6.82 305.609 9.16C305.609 11.84 303.749 13.5 299.909 13.5H298.429ZM298.429 5.82V12.56H299.109C301.189 12.56 302.209 11.28 302.209 9.18C302.209 7.16 301.089 5.82 299.109 5.82H298.429ZM311.583 18.42C312.923 18.42 313.463 16.8 313.463 14.22C313.463 11.1 312.883 8.9 311.423 8.9C310.083 8.9 309.543 10.52 309.543 13.1C309.543 16.22 310.123 18.42 311.583 18.42ZM311.483 19.2C308.303 19.2 306.143 17.1 306.143 13.88C306.143 10.5 308.403 8.12 311.523 8.12C314.703 8.12 316.883 10.22 316.883 13.44C316.883 16.82 314.603 19.2 311.483 19.2ZM322.065 3.34V17.46C322.065 18.12 322.385 18.22 323.265 18.28V19H317.665V18.28C318.545 18.22 318.865 18.12 318.865 17.46V5.38L317.705 4.78V4.28L321.545 3.34H322.065ZM328.414 8.12V17.46C328.414 18.12 328.734 18.22 329.594 18.28V19H324.014V18.28C324.874 18.22 325.194 18.12 325.194 17.46V10.4L324.034 9.7V9.24L327.874 8.12H328.414ZM326.794 7.06C325.714 7.06 325.014 6.28 325.014 5.36C325.014 4.44 325.714 3.64 326.794 3.64C327.874 3.64 328.594 4.44 328.594 5.36C328.594 6.28 327.874 7.06 326.794 7.06ZM333.122 12.74C333.122 15.32 334.302 16.98 336.322 16.98C337.522 16.98 338.402 16.52 339.042 15.58L339.442 15.8C338.802 18.1 337.262 19.2 335.122 19.2C332.382 19.2 330.342 17.2 330.342 14C330.342 10.64 332.422 8.12 335.662 8.12C337.642 8.12 339.142 8.9 339.142 10.54C339.142 11.24 338.762 11.74 338.322 11.94H336.622C336.662 11.56 336.702 11.24 336.702 10.88C336.702 9.78 336.362 8.94 335.322 8.94C333.942 8.94 333.122 10.6 333.122 12.74ZM346.688 15.8L348.808 10.3C348.908 10.04 348.968 9.9 348.968 9.72C348.968 9.28 348.648 9.16 347.628 9.04V8.32H351.148V9.04C350.448 9.24 350.308 9.38 350.128 9.82L345.648 20.82C344.968 22.5 344.248 23.4 342.908 23.4C342.168 23.4 341.548 23.08 341.288 22.54V21.32C341.748 21.42 342.148 21.5 342.748 21.5C343.848 21.5 344.468 21.2 344.868 20.22L345.188 19.44L340.768 9.82C340.568 9.38 340.448 9.24 339.748 9.04V8.32H345.648V9.04C344.608 9.16 344.308 9.28 344.308 9.72C344.308 9.9 344.348 10.04 344.428 10.28L346.688 15.8ZM360.262 19.2C358.302 19.2 356.602 18.62 355.682 17.88L355.502 14.42H356.442C356.922 16.74 358.222 18.32 360.262 18.32C361.782 18.32 362.762 17.54 362.762 16.22C362.762 14.84 361.902 14.24 359.582 13.46C357.082 12.66 355.602 11.48 355.602 9.08C355.602 6.48 357.582 4.76 360.442 4.76C362.202 4.76 363.702 5.22 364.702 5.94V8.96H363.862C363.442 6.88 362.342 5.64 360.442 5.64C359.122 5.64 358.262 6.42 358.262 7.62C358.262 8.98 359.062 9.52 361.162 10.24C363.842 11.14 365.522 12.18 365.522 14.84C365.522 17.78 363.142 19.2 360.262 19.2ZM372.472 18.36C374.052 18.36 374.952 16.46 374.952 14.04C374.952 11.5 374.032 10.04 372.332 10.04C371.792 10.04 371.252 10.24 370.832 10.56V16.14C370.832 17.56 371.312 18.36 372.472 18.36ZM367.632 21.7V10.4L366.472 9.7V9.24L370.332 8.12H370.912L370.832 10.02C371.452 9.08 372.552 8.12 374.192 8.12C376.592 8.12 378.212 9.84 378.212 13C378.212 17 375.792 19.2 372.712 19.2C371.932 19.2 371.232 19.04 370.832 18.72V21.62C370.832 22.36 371.212 22.42 372.432 22.52V23.24H366.432V22.52C367.312 22.46 367.632 22.36 367.632 21.7ZM384.428 8.12C387.208 8.12 388.648 9.92 388.648 12.4V12.86H382.188C382.128 15.48 383.508 17.04 385.388 17.04C386.728 17.04 387.648 16.52 388.388 15.5L388.728 15.7C388.208 17.8 386.708 19.2 384.288 19.2C381.368 19.2 379.288 17.14 379.288 13.92C379.288 10.42 381.608 8.12 384.428 8.12ZM384.208 8.9C382.988 8.9 382.348 10.2 382.228 12.04H385.828C385.828 10.14 385.388 8.9 384.208 8.9ZM397.303 17.46V11.62C397.303 10.58 396.923 10.04 395.863 10.04C395.123 10.04 394.443 10.32 393.883 10.68V17.46C393.883 18.12 394.163 18.22 395.023 18.28V19H389.483V18.28C390.343 18.22 390.663 18.12 390.663 17.46V10.4L389.503 9.7V9.24L393.363 8.12H393.963L393.883 10.1C394.683 9.12 395.823 8.12 397.583 8.12C399.483 8.12 400.523 9.2 400.523 11.38V17.46C400.523 18.12 400.843 18.22 401.703 18.28V19H396.163V18.28C397.023 18.22 397.303 18.12 397.303 17.46ZM407.955 9.16C406.395 9.16 405.535 10.74 405.535 13.1C405.535 15.56 406.475 17.32 408.155 17.32C408.715 17.32 409.195 17.16 409.595 16.86V11.44C409.595 9.98 409.075 9.16 407.955 9.16ZM409.595 5.38L408.435 4.78V4.28L412.295 3.34H412.815V16.8C412.815 17.48 412.855 17.74 413.575 17.78L414.055 17.8V18.5L410.115 19.2H409.535L409.595 17.32C408.775 18.5 407.735 19.2 406.355 19.2C403.975 19.2 402.335 17.3 402.335 14.16C402.335 10.32 404.615 8.18 407.515 8.18C408.395 8.18 409.115 8.42 409.595 8.82V5.38ZM419.156 8.12V17.46C419.156 18.12 419.476 18.22 420.336 18.28V19H414.756V18.28C415.616 18.22 415.936 18.12 415.936 17.46V10.4L414.776 9.7V9.24L418.616 8.12H419.156ZM417.536 7.06C416.456 7.06 415.756 6.28 415.756 5.36C415.756 4.44 416.456 3.64 417.536 3.64C418.616 3.64 419.336 4.44 419.336 5.36C419.336 6.28 418.616 7.06 417.536 7.06ZM428.905 17.46V11.62C428.905 10.58 428.525 10.04 427.465 10.04C426.725 10.04 426.045 10.32 425.485 10.68V17.46C425.485 18.12 425.765 18.22 426.625 18.28V19H421.085V18.28C421.945 18.22 422.265 18.12 422.265 17.46V10.4L421.105 9.7V9.24L424.965 8.12H425.565L425.485 10.1C426.285 9.12 427.425 8.12 429.185 8.12C431.085 8.12 432.125 9.2 432.125 11.38V17.46C432.125 18.12 432.445 18.22 433.305 18.28V19H427.765V18.28C428.625 18.22 428.905 18.12 428.905 17.46ZM438.536 15.22C437.816 15.22 437.096 15.12 436.436 14.9C436.096 15.22 435.796 15.6 435.796 16C435.796 16.38 436.036 16.64 436.456 16.64H440.676C443.176 16.64 444.356 17.7 444.356 19.5C444.356 22.04 441.856 23.46 438.396 23.46C435.356 23.46 433.476 22.58 433.476 20.98C433.476 19.96 434.416 19.44 435.336 19.22C434.516 18.9 434.056 18.16 434.056 17.32C434.056 16.08 434.976 15.28 435.976 14.7C434.876 14.2 434.076 13.28 434.076 11.84C434.076 9.5 436.016 8.12 438.656 8.12C439.416 8.12 439.976 8.24 440.476 8.4L443.956 8.32V9.56H443.096L441.776 9.5C442.496 9.98 443.036 10.8 443.036 11.8C443.036 13.96 441.136 15.22 438.536 15.22ZM440.736 19.58H435.696C435.496 19.8 435.416 20.14 435.416 20.54C435.416 21.82 436.616 22.6 438.496 22.6C440.396 22.6 442.096 22.04 442.096 20.62C442.096 19.86 441.616 19.58 440.736 19.58ZM438.656 14.5C439.676 14.5 440.036 13.48 440.036 11.8C440.036 10.24 439.556 8.88 438.516 8.88C437.496 8.88 437.116 9.92 437.116 11.52C437.116 13.14 437.616 14.5 438.656 14.5Z" fill="black"/>
<path d="M88 90V455H462" stroke="black" stroke-width="2"/>
<path d="M43.93 92.88C44.83 92.88 45.58 93.09 46.15 93.47L46.17 95.14H45.74C45.5 93.97 44.93 93.34 43.98 93.34C42.66 93.34 42.08 94.69 42.08 96.39C42.08 98.23 42.78 99.62 44.07 99.62C44.96 99.62 45.6 99.03 45.97 97.54H46.43L46.27 99.47C45.68 99.87 44.85 100.1 43.89 100.1C41.66 100.1 40.28 98.76 40.28 96.67C40.28 94.34 41.9 92.88 43.93 92.88ZM49.7271 99.71C50.3971 99.71 50.6671 98.9 50.6671 97.61C50.6671 96.05 50.3771 94.95 49.6471 94.95C48.9771 94.95 48.7071 95.76 48.7071 97.05C48.7071 98.61 48.9971 99.71 49.7271 99.71ZM49.6771 100.1C48.0871 100.1 47.0071 99.05 47.0071 97.44C47.0071 95.75 48.1371 94.56 49.6971 94.56C51.2871 94.56 52.3771 95.61 52.3771 97.22C52.3771 98.91 51.2371 100.1 49.6771 100.1ZM58.0679 95.78V98.9C58.0679 99.24 58.0979 99.37 58.4479 99.39L58.6879 99.4V99.75L56.7279 100.1H56.4379L56.4679 99.14C56.0779 99.6 55.5479 100.1 54.7079 100.1C53.8179 100.1 53.2279 99.59 53.2279 98.45V95.92C53.2279 95.61 53.1579 95.43 52.7979 95.35L52.6479 95.32V94.98L54.6179 94.57H54.8879L54.8379 95.8V98.27C54.8379 98.83 55.0479 99.16 55.5679 99.16C55.9179 99.16 56.1679 99.03 56.4679 98.87V95.92C56.4679 95.61 56.3979 95.43 56.0379 95.35L55.8879 95.32V94.98L57.8479 94.57H58.1279L58.0679 95.78ZM62.9484 99.23V96.31C62.9484 95.79 62.7584 95.52 62.2284 95.52C61.8584 95.52 61.5184 95.66 61.2384 95.84V99.23C61.2384 99.56 61.3784 99.61 61.8084 99.64V100H59.0384V99.64C59.4684 99.61 59.6284 99.56 59.6284 99.23V95.7L59.0484 95.35V95.12L60.9784 94.56H61.2784L61.2384 95.55C61.6384 95.06 62.2084 94.56 63.0884 94.56C64.0384 94.56 64.5584 95.1 64.5584 96.19V99.23C64.5584 99.56 64.7184 99.61 65.1484 99.64V100H62.3784V99.64C62.8084 99.61 62.9484 99.56 62.9484 99.23ZM67.4841 93.33V94.66H68.7241V95.16H67.4841V98.47C67.4841 99.02 67.6941 99.25 68.1241 99.25C68.3841 99.25 68.6141 99.16 68.8541 98.98L68.9941 99.18C68.6441 99.74 68.1141 100.1 67.3541 100.1C66.4941 100.1 65.8741 99.66 65.8741 98.51V95.16H65.2741V94.88C66.0141 94.57 66.6741 94 67.1441 93.33H67.4841ZM71.4141 96.41V99.11C71.4141 99.53 71.6341 99.58 72.2341 99.64V100H69.2141V99.64C69.6441 99.61 69.8041 99.56 69.8041 99.23V95.7L69.2241 95.35V95.12L71.1541 94.56H71.4541L71.4141 96.07C71.8541 94.94 72.1741 94.56 72.7841 94.56C73.0041 94.56 73.1641 94.63 73.2541 94.73V95.95H73.0441C72.4141 95.95 71.8941 95.98 71.4141 96.41ZM76.8403 98.4L77.9003 95.65C77.9503 95.52 77.9803 95.45 77.9803 95.36C77.9803 95.14 77.8203 95.08 77.3103 95.02V94.66H79.0703V95.02C78.7203 95.12 78.6503 95.19 78.5603 95.41L76.3203 100.91C75.9803 101.75 75.6203 102.2 74.9503 102.2C74.5803 102.2 74.2703 102.04 74.1403 101.77V101.16C74.3703 101.21 74.5703 101.25 74.8703 101.25C75.4203 101.25 75.7303 101.1 75.9303 100.61L76.0903 100.22L73.8803 95.41C73.7803 95.19 73.7203 95.12 73.3703 95.02V94.66H76.3203V95.02C75.8003 95.08 75.6503 95.14 75.6503 95.36C75.6503 95.45 75.6703 95.52 75.7103 95.64L76.8403 98.4Z" fill="black"/>
<path d="M454.73 468.25V469.88C454.73 470.43 455.01 470.56 455.92 470.61V471H452.27V470.62C452.95 470.54 453.03 470.47 453.03 469.93V465.05C453.03 464.51 452.95 464.44 452.27 464.36V463.98H455.52C457.43 463.98 458.32 464.91 458.32 466.08C458.32 467.42 457.39 468.25 455.47 468.25H454.73ZM454.73 464.41V467.78H455.07C456.11 467.78 456.62 467.14 456.62 466.09C456.62 465.08 456.06 464.41 455.07 464.41H454.73ZM461.157 465.56C462.547 465.56 463.267 466.46 463.267 467.7V467.93H460.037C460.007 469.24 460.697 470.02 461.637 470.02C462.307 470.02 462.767 469.76 463.137 469.25L463.307 469.35C463.047 470.4 462.297 471.1 461.087 471.1C459.627 471.1 458.587 470.07 458.587 468.46C458.587 466.71 459.747 465.56 461.157 465.56ZM461.047 465.95C460.437 465.95 460.117 466.6 460.057 467.52H461.857C461.857 466.57 461.637 465.95 461.047 465.95ZM465.885 467.41V470.11C465.885 470.53 466.105 470.58 466.705 470.64V471H463.685V470.64C464.115 470.61 464.275 470.56 464.275 470.23V466.7L463.695 466.35V466.12L465.625 465.56H465.925L465.885 467.07C466.325 465.94 466.645 465.56 467.255 465.56C467.475 465.56 467.635 465.63 467.725 465.73V466.95H467.515C466.885 466.95 466.365 466.98 465.885 467.41ZM469.401 467.87C469.401 469.16 469.991 469.99 471.001 469.99C471.601 469.99 472.041 469.76 472.361 469.29L472.561 469.4C472.241 470.55 471.471 471.1 470.401 471.1C469.031 471.1 468.011 470.1 468.011 468.5C468.011 466.82 469.051 465.56 470.671 465.56C471.661 465.56 472.411 465.95 472.411 466.77C472.411 467.12 472.221 467.37 472.001 467.47H471.151C471.171 467.28 471.191 467.12 471.191 466.94C471.191 466.39 471.021 465.97 470.501 465.97C469.811 465.97 469.401 466.8 469.401 467.87ZM475.454 465.56C476.844 465.56 477.564 466.46 477.564 467.7V467.93H474.334C474.304 469.24 474.994 470.02 475.934 470.02C476.604 470.02 477.064 469.76 477.434 469.25L477.604 469.35C477.344 470.4 476.594 471.1 475.384 471.1C473.924 471.1 472.884 470.07 472.884 468.46C472.884 466.71 474.044 465.56 475.454 465.56ZM475.344 465.95C474.734 465.95 474.414 466.6 474.354 467.52H476.154C476.154 466.57 475.934 465.95 475.344 465.95ZM481.892 470.23V467.31C481.892 466.79 481.702 466.52 481.172 466.52C480.802 466.52 480.462 466.66 480.182 466.84V470.23C480.182 470.56 480.322 470.61 480.752 470.64V471H477.982V470.64C478.412 470.61 478.572 470.56 478.572 470.23V466.7L477.992 466.35V466.12L479.922 465.56H480.222L480.182 466.55C480.582 466.06 481.152 465.56 482.032 465.56C482.982 465.56 483.502 466.1 483.502 467.19V470.23C483.502 470.56 483.662 470.61 484.092 470.64V471H481.322V470.64C481.752 470.61 481.892 470.56 481.892 470.23ZM486.428 464.33V465.66H487.668V466.16H486.428V469.47C486.428 470.02 486.638 470.25 487.068 470.25C487.328 470.25 487.558 470.16 487.798 469.98L487.938 470.18C487.588 470.74 487.058 471.1 486.298 471.1C485.438 471.1 484.818 470.66 484.818 469.51V466.16H484.218V465.88C484.958 465.57 485.618 465 486.088 464.33H486.428ZM492.704 470.71C493.374 470.71 493.644 469.9 493.644 468.61C493.644 467.05 493.354 465.95 492.624 465.95C491.954 465.95 491.684 466.76 491.684 468.05C491.684 469.61 491.974 470.71 492.704 470.71ZM492.654 471.1C491.064 471.1 489.984 470.05 489.984 468.44C489.984 466.75 491.114 465.56 492.674 465.56C494.264 465.56 495.354 466.61 495.354 468.22C495.354 469.91 494.214 471.1 492.654 471.1ZM497.984 466.16V470.11C497.984 470.53 498.214 470.58 498.804 470.64V471H495.784V470.64C496.214 470.61 496.374 470.56 496.374 470.23V466.16H495.654V465.83L496.374 465.61V465.3C496.374 463.85 497.334 463.17 498.584 463.17C499.554 463.17 500.004 463.51 500.004 464.08C500.004 464.34 499.864 464.56 499.654 464.67H498.824C498.844 464.55 498.864 464.4 498.864 464.24C498.864 463.88 498.794 463.56 498.474 463.56C498.144 463.56 497.984 463.84 497.984 464.36V465.66H499.184V466.16H497.984ZM505.864 470.44V468.76C505.864 468.22 505.784 468.15 505.104 468.07V467.69H508.224V468.07C507.544 468.15 507.464 468.22 507.464 468.76V470.42C506.794 470.85 505.884 471.1 504.834 471.1C502.544 471.1 501.294 469.61 501.294 467.66C501.294 465.33 502.924 463.88 504.994 463.88C505.894 463.88 506.654 464.08 507.234 464.46L507.264 466.14H506.824C506.584 464.97 506.024 464.33 505.044 464.33C503.684 464.33 503.094 465.69 503.094 467.39C503.094 469.12 503.724 470.64 505.054 470.64C505.374 470.64 505.634 470.59 505.864 470.44ZM511.468 464.41H511.058V469.86C511.058 470.45 511.298 470.57 511.798 470.57H511.938C513.128 470.57 513.938 469.44 513.938 467.58C513.938 465.73 513.128 464.41 511.468 464.41ZM511.978 471H508.598V470.62C509.278 470.54 509.358 470.47 509.358 469.93V465.05C509.358 464.51 509.278 464.44 508.598 464.36V463.98H511.768C514.478 463.98 515.728 465.48 515.728 467.38C515.728 469.67 514.208 471 511.978 471ZM518.734 468.25V469.88C518.734 470.43 519.014 470.56 519.924 470.61V471H516.274V470.62C516.954 470.54 517.034 470.47 517.034 469.93V465.05C517.034 464.51 516.954 464.44 516.274 464.36V463.98H519.524C521.434 463.98 522.324 464.91 522.324 466.08C522.324 467.42 521.394 468.25 519.474 468.25H518.734ZM518.734 464.41V467.78H519.074C520.114 467.78 520.624 467.14 520.624 466.09C520.624 465.08 520.064 464.41 519.074 464.41H518.734ZM524.695 468.26C524.695 467.713 524.745 467.18 524.845 466.66C524.952 466.14 525.115 465.643 525.335 465.17C525.555 464.697 525.832 464.26 526.165 463.86H527.385C527.085 464.273 526.832 464.72 526.625 465.2C526.418 465.68 526.262 466.177 526.155 466.69C526.048 467.203 525.995 467.723 525.995 468.25C525.995 468.763 526.048 469.277 526.155 469.79C526.262 470.297 526.415 470.783 526.615 471.25C526.822 471.723 527.075 472.167 527.375 472.58H526.165C525.832 472.187 525.555 471.757 525.335 471.29C525.115 470.83 524.952 470.343 524.845 469.83C524.745 469.317 524.695 468.793 524.695 468.26ZM529.674 463.76C530.234 463.76 530.657 463.957 530.944 464.35C531.237 464.737 531.384 465.283 531.384 465.99C531.384 466.697 531.247 467.25 530.974 467.65C530.7 468.043 530.267 468.24 529.674 468.24C529.307 468.24 528.997 468.15 528.744 467.97C528.497 467.79 528.31 467.533 528.184 467.2C528.057 466.86 527.994 466.457 527.994 465.99C527.994 465.283 528.127 464.737 528.394 464.35C528.66 463.957 529.087 463.76 529.674 463.76ZM529.684 464.78C529.524 464.78 529.407 464.88 529.334 465.08C529.26 465.28 529.224 465.587 529.224 466C529.224 466.407 529.26 466.713 529.334 466.92C529.407 467.127 529.524 467.23 529.684 467.23C529.844 467.23 529.96 467.127 530.034 466.92C530.114 466.713 530.154 466.407 530.154 466C530.154 465.587 530.114 465.28 530.034 465.08C529.96 464.88 529.844 464.78 529.684 464.78ZM534.744 463.86L530.784 471H529.614L533.574 463.86H534.744ZM534.674 466.61C535.047 466.61 535.36 466.7 535.614 466.88C535.867 467.053 536.057 467.307 536.184 467.64C536.317 467.967 536.384 468.367 536.384 468.84C536.384 469.547 536.247 470.1 535.974 470.5C535.7 470.893 535.267 471.09 534.674 471.09C534.307 471.09 533.997 471 533.744 470.82C533.497 470.64 533.31 470.383 533.184 470.05C533.057 469.71 532.994 469.307 532.994 468.84C532.994 468.133 533.127 467.587 533.394 467.2C533.66 466.807 534.087 466.61 534.674 466.61ZM534.684 467.63C534.524 467.63 534.407 467.73 534.334 467.93C534.26 468.13 534.224 468.437 534.224 468.85C534.224 469.257 534.26 469.563 534.334 469.77C534.407 469.977 534.524 470.08 534.684 470.08C534.844 470.08 534.96 469.98 535.034 469.78C535.114 469.573 535.154 469.263 535.154 468.85C535.154 468.437 535.114 468.13 535.034 467.93C534.96 467.73 534.844 467.63 534.684 467.63ZM539.687 468.26C539.687 468.793 539.634 469.317 539.527 469.83C539.427 470.343 539.267 470.83 539.047 471.29C538.834 471.757 538.557 472.187 538.217 472.58H537.007C537.307 472.167 537.557 471.723 537.757 471.25C537.964 470.783 538.121 470.297 538.227 469.79C538.334 469.277 538.387 468.763 538.387 468.25C538.387 467.723 538.334 467.203 538.227 466.69C538.121 466.177 537.964 465.68 537.757 465.2C537.557 464.72 537.304 464.273 536.997 463.86H538.217C538.557 464.26 538.834 464.697 539.047 465.17C539.267 465.643 539.427 466.14 539.527 466.66C539.634 467.18 539.687 467.713 539.687 468.26Z" fill="black"/>
<path d="M85.648 468.716C85.648 466.148 86.98 464.288 89.056 464.288C91.144 464.288 92.464 466.148 92.464 468.716C92.464 471.284 91.144 473.144 89.056 473.144C86.98 473.144 85.648 471.284 85.648 468.716ZM86.704 468.716C86.704 470.816 87.496 472.256 89.056 472.256C90.628 472.256 91.42 470.816 91.42 468.716C91.42 466.616 90.628 465.176 89.056 465.176C87.496 465.176 86.704 466.616 86.704 468.716Z" fill="black"/>
<path d="M163.648 468.716C163.648 466.148 164.98 464.288 167.056 464.288C169.144 464.288 170.464 466.148 170.464 468.716C170.464 471.284 169.144 473.144 167.056 473.144C164.98 473.144 163.648 471.284 163.648 468.716ZM164.704 468.716C164.704 470.816 165.496 472.256 167.056 472.256C168.628 472.256 169.42 470.816 169.42 468.716C169.42 466.616 168.628 465.176 167.056 465.176C165.496 465.176 164.704 466.616 164.704 468.716ZM171.782 473V471.692H173.09V473H171.782ZM177.829 468.14C176.929 468.14 176.329 468.584 176.005 469.1H175.081L175.561 464.432H180.385V465.308H176.305L176.017 468.14C176.377 467.684 177.121 467.3 177.913 467.3C179.701 467.3 180.817 468.596 180.817 470.216C180.817 471.848 179.701 473.144 177.829 473.144C176.101 473.144 174.865 472.112 174.733 470.456H175.753C175.837 471.548 176.629 472.304 177.841 472.304C179.185 472.304 179.821 471.308 179.821 470.216C179.821 469.124 179.185 468.14 177.829 468.14Z" fill="black"/>
<path d="M46.3591 148.704C46.3591 150.84 47.3791 152.268 49.1431 152.268C50.5831 152.268 51.2071 151.464 51.3991 150.504H52.4071C52.1311 152.064 51.0151 153.144 49.1431 153.144C46.9351 153.144 45.3031 151.404 45.3031 148.704C45.3031 146.016 46.9351 144.288 49.1431 144.288C51.0151 144.288 52.1311 145.368 52.4071 146.928H51.3991C51.2071 145.968 50.5831 145.164 49.1431 145.164C47.3791 145.164 46.3591 146.568 46.3591 148.704ZM54.9937 148.068C55.2817 147.3 56.0017 146.82 56.9257 146.82C58.2817 146.82 59.0857 147.672 59.0857 149.112V153H58.0897V149.328C58.0897 148.212 57.5977 147.636 56.6497 147.636C55.7257 147.636 54.9937 148.224 54.9937 149.676V153H53.9977V144.168H54.9937V148.068ZM61.0858 145.704V144.492H62.2138V145.704H61.0858ZM61.1578 153V146.964H62.1538V153H61.1578ZM65.2468 146.964V148.068C65.5348 147.324 66.2908 146.82 67.2148 146.82C68.5708 146.82 69.3748 147.672 69.3748 149.112V153H68.3788V149.328C68.3788 148.212 67.8868 147.636 66.9388 147.636C66.0148 147.636 65.2828 148.224 65.2828 149.676V153H64.2868V146.964H65.2468ZM75.1429 153C75.0709 152.664 75.0349 152.268 75.0349 151.98C74.7709 152.688 73.9429 153.132 72.9349 153.132C71.8789 153.132 70.9789 152.52 70.9789 151.404C70.9789 150.24 71.8429 149.736 73.0669 149.592L75.0109 149.34V148.992C75.0109 148.032 74.4229 147.624 73.5949 147.624C72.7909 147.624 72.2869 148.044 72.2149 148.74H71.2549C71.3749 147.516 72.3349 146.82 73.6189 146.82C75.0829 146.82 75.9949 147.516 75.9949 148.968V151.74C75.9949 152.184 76.0189 152.604 76.1389 153H75.1429ZM73.1389 152.376C74.0749 152.376 75.0109 151.788 75.0109 150.624V150.084L73.3669 150.264C72.6109 150.372 71.9869 150.564 71.9869 151.38C71.9869 151.944 72.3829 152.376 73.1389 152.376Z" fill="black"/>
<path d="M8.46688 187.508C8.46688 189.848 7.20688 191.144 4.99888 191.144C2.81488 191.144 1.53088 189.848 1.53088 187.484V182.432H2.56288V187.568C2.56288 189.392 3.49888 190.268 4.99888 190.268C6.51088 190.268 7.43488 189.392 7.43488 187.568V182.432H8.46688V187.508ZM11.4928 184.964V186.068C11.7808 185.324 12.5368 184.82 13.4608 184.82C14.8168 184.82 15.6208 185.672 15.6208 187.112V191H14.6248V187.328C14.6248 186.212 14.1328 185.636 13.1848 185.636C12.2608 185.636 11.5288 186.224 11.5288 187.676V191H10.5328V184.964H11.4928ZM17.621 183.704V182.492H18.749V183.704H17.621ZM17.693 191V184.964H18.689V191H17.693ZM23.6299 190.112V190.928C23.1859 191.06 22.8379 191.096 22.5739 191.096C21.4699 191.096 20.9059 190.568 20.9059 189.452V185.72H20.0179V184.964H20.9059V183.428H21.8899V184.964H23.4739V185.72H21.8779V189.404C21.8779 190.04 22.2019 190.256 22.7539 190.256C22.9819 190.256 23.2459 190.232 23.6299 190.112ZM30.1373 189.224C29.8613 190.508 28.8173 191.144 27.6413 191.144C25.9373 191.144 24.7373 189.956 24.7373 188.012C24.7373 186.044 25.9733 184.82 27.5813 184.82C29.3693 184.82 30.1733 186.248 30.1733 187.796V188.192H25.7093C25.7573 189.584 26.4893 190.352 27.6413 190.352C28.4573 190.352 28.9493 189.956 29.2013 189.224H30.1373ZM27.5813 185.624C26.6333 185.624 25.9133 186.236 25.7453 187.472H29.2013C29.1773 186.428 28.6613 185.624 27.5813 185.624ZM36.1567 191V189.944C35.8567 190.556 35.1127 191.144 34.1167 191.144C32.5807 191.144 31.4287 189.896 31.4287 187.988C31.4287 186.068 32.5807 184.82 34.1167 184.82C35.1607 184.82 35.8447 185.42 36.1207 186.032V182.168H37.1167V191H36.1567ZM36.1687 188.06V187.892C36.1687 186.524 35.4967 185.6 34.3207 185.6C33.1327 185.6 32.4367 186.572 32.4367 187.988C32.4367 189.392 33.1327 190.364 34.3207 190.364C35.4967 190.364 36.1687 189.428 36.1687 188.06ZM41.3531 188.468H42.3491C42.4811 189.848 43.6091 190.316 44.8811 190.316C46.1051 190.316 47.0051 189.728 47.0051 188.696C47.0051 187.976 46.6091 187.508 45.4451 187.292L43.8131 186.968C42.6611 186.752 41.6291 186.224 41.6291 184.748C41.6291 183.344 42.8411 182.288 44.6171 182.288C46.4531 182.288 47.6651 183.08 47.8331 184.628H46.8371C46.6931 183.668 45.8531 183.116 44.6291 183.116C43.3811 183.116 42.6371 183.812 42.6371 184.712C42.6371 185.564 43.1171 185.864 44.1611 186.068L45.8411 186.416C47.1611 186.68 48.0011 187.292 48.0011 188.648C48.0011 190.112 46.7051 191.144 44.8931 191.144C43.0331 191.144 41.4731 190.34 41.3531 188.468ZM52.5401 190.112V190.928C52.0961 191.06 51.7481 191.096 51.4841 191.096C50.3801 191.096 49.8161 190.568 49.8161 189.452V185.72H48.9281V184.964H49.8161V183.428H50.8001V184.964H52.3841V185.72H50.7881V189.404C50.7881 190.04 51.1121 190.256 51.6641 190.256C51.8921 190.256 52.1561 190.232 52.5401 190.112ZM57.8578 191C57.7858 190.664 57.7498 190.268 57.7498 189.98C57.4858 190.688 56.6578 191.132 55.6498 191.132C54.5938 191.132 53.6938 190.52 53.6938 189.404C53.6938 188.24 54.5578 187.736 55.7818 187.592L57.7258 187.34V186.992C57.7258 186.032 57.1378 185.624 56.3098 185.624C55.5058 185.624 55.0018 186.044 54.9298 186.74H53.9698C54.0898 185.516 55.0498 184.82 56.3338 184.82C57.7978 184.82 58.7098 185.516 58.7098 186.968V189.74C58.7098 190.184 58.7338 190.604 58.8538 191H57.8578ZM55.8538 190.376C56.7898 190.376 57.7258 189.788 57.7258 188.624V188.084L56.0818 188.264C55.3258 188.372 54.7018 188.564 54.7018 189.38C54.7018 189.944 55.0978 190.376 55.8538 190.376ZM63.5908 190.112V190.928C63.1468 191.06 62.7988 191.096 62.5348 191.096C61.4308 191.096 60.8668 190.568 60.8668 189.452V185.72H59.9788V184.964H60.8668V183.428H61.8508V184.964H63.4348V185.72H61.8388V189.404C61.8388 190.04 62.1628 190.256 62.7148 190.256C62.9428 190.256 63.2068 190.232 63.5908 190.112ZM70.0982 189.224C69.8222 190.508 68.7782 191.144 67.6022 191.144C65.8982 191.144 64.6982 189.956 64.6982 188.012C64.6982 186.044 65.9342 184.82 67.5422 184.82C69.3302 184.82 70.1342 186.248 70.1342 187.796V188.192H65.6702C65.7182 189.584 66.4502 190.352 67.6022 190.352C68.4182 190.352 68.9102 189.956 69.1622 189.224H70.0982ZM67.5422 185.624C66.5942 185.624 65.8742 186.236 65.7062 187.472H69.1622C69.1382 186.428 68.6222 185.624 67.5422 185.624ZM71.3645 189.212H72.3245C72.3965 190.04 73.1645 190.388 73.9805 190.388C74.8085 190.388 75.4085 190.004 75.4085 189.356C75.4085 188.912 75.1205 188.624 74.3525 188.48L73.2845 188.264C72.3125 188.084 71.6045 187.688 71.6045 186.632C71.6045 185.612 72.5165 184.82 73.8485 184.82C75.2405 184.82 76.0925 185.42 76.2125 186.56H75.2885C75.2165 185.948 74.6765 185.588 73.8485 185.588C73.0445 185.588 72.5285 185.984 72.5285 186.572C72.5285 187.088 72.8885 187.304 73.5845 187.436L74.7845 187.664C75.7685 187.856 76.3445 188.336 76.3445 189.308C76.3445 190.364 75.3485 191.144 73.9925 191.144C72.5525 191.144 71.4725 190.508 71.3645 189.212Z" fill="black"/>
<path d="M8.189 227.468H9.185C9.317 228.848 10.445 229.316 11.717 229.316C12.941 229.316 13.841 228.728 13.841 227.696C13.841 226.976 13.445 226.508 12.281 226.292L10.649 225.968C9.497 225.752 8.465 225.224 8.465 223.748C8.465 222.344 9.677 221.288 11.453 221.288C13.289 221.288 14.501 222.08 14.669 223.628H13.673C13.529 222.668 12.689 222.116 11.465 222.116C10.217 222.116 9.473 222.812 9.473 223.712C9.473 224.564 9.953 224.864 10.997 225.068L12.677 225.416C13.997 225.68 14.837 226.292 14.837 227.648C14.837 229.112 13.541 230.144 11.729 230.144C9.869 230.144 8.309 229.34 8.189 227.468ZM21.8834 226.988C21.8834 228.932 20.6834 230.144 19.0154 230.144C17.3474 230.144 16.1474 228.932 16.1474 226.988C16.1474 225.044 17.3474 223.82 19.0154 223.82C20.6834 223.82 21.8834 225.044 21.8834 226.988ZM17.1314 226.988C17.1314 228.44 17.8394 229.34 19.0154 229.34C20.1914 229.34 20.8994 228.44 20.8994 226.988C20.8994 225.536 20.1914 224.624 19.0154 224.624C17.8394 224.624 17.1314 225.536 17.1314 226.988ZM28.5438 230H27.5718V228.908C27.2838 229.664 26.5638 230.144 25.6518 230.144C24.2838 230.144 23.5158 229.316 23.5158 227.852V223.964H24.5238V227.66C24.5238 228.776 24.9918 229.364 25.9398 229.364C26.8518 229.364 27.5358 228.74 27.5358 227.288V223.964H28.5438V230ZM33.4854 229.112V229.928C33.0414 230.06 32.6934 230.096 32.4294 230.096C31.3254 230.096 30.7614 229.568 30.7614 228.452V224.72H29.8734V223.964H30.7614V222.428H31.7454V223.964H33.3294V224.72H31.7334V228.404C31.7334 229.04 32.0574 229.256 32.6094 229.256C32.8374 229.256 33.1014 229.232 33.4854 229.112ZM36.1031 225.068C36.3911 224.3 37.1111 223.82 38.0351 223.82C39.3911 223.82 40.1951 224.672 40.1951 226.112V230H39.1991V226.328C39.1991 225.212 38.7071 224.636 37.7591 224.636C36.8351 224.636 36.1031 225.224 36.1031 226.676V230H35.1071V221.168H36.1031V225.068ZM50.6888 230L47.2568 225.92L45.9488 227.252V230H44.9168V221.432H45.9488V226.088L50.4608 221.432H51.7088L47.9768 225.2L51.9368 230H50.6888ZM58.4459 226.988C58.4459 228.932 57.2459 230.144 55.5779 230.144C53.9099 230.144 52.7099 228.932 52.7099 226.988C52.7099 225.044 53.9099 223.82 55.5779 223.82C57.2459 223.82 58.4459 225.044 58.4459 226.988ZM53.6939 226.988C53.6939 228.44 54.4019 229.34 55.5779 229.34C56.7539 229.34 57.4619 228.44 57.4619 226.988C57.4619 225.536 56.7539 224.624 55.5779 224.624C54.4019 224.624 53.6939 225.536 53.6939 226.988ZM63.4863 223.88V224.792C63.3423 224.756 63.1263 224.744 62.9703 224.744C62.0103 224.744 61.1343 225.5 61.1343 227.024V230H60.1383V223.964H61.0983V225.392C61.3623 224.396 62.1303 223.832 63.0183 223.832C63.1743 223.832 63.3423 223.844 63.4863 223.88ZM69.5943 228.224C69.3183 229.508 68.2743 230.144 67.0983 230.144C65.3943 230.144 64.1943 228.956 64.1943 227.012C64.1943 225.044 65.4303 223.82 67.0383 223.82C68.8263 223.82 69.6303 225.248 69.6303 226.796V227.192H65.1663C65.2143 228.584 65.9463 229.352 67.0983 229.352C67.9143 229.352 68.4063 228.956 68.6583 228.224H69.5943ZM67.0383 224.624C66.0903 224.624 65.3703 225.236 65.2023 226.472H68.6583C68.6343 225.428 68.1183 224.624 67.0383 224.624ZM75.1429 230C75.0709 229.664 75.0349 229.268 75.0349 228.98C74.7709 229.688 73.9429 230.132 72.9349 230.132C71.8789 230.132 70.9789 229.52 70.9789 228.404C70.9789 227.24 71.8429 226.736 73.0669 226.592L75.0109 226.34V225.992C75.0109 225.032 74.4229 224.624 73.5949 224.624C72.7909 224.624 72.2869 225.044 72.2149 225.74H71.2549C71.3749 224.516 72.3349 223.82 73.6189 223.82C75.0829 223.82 75.9949 224.516 75.9949 225.968V228.74C75.9949 229.184 76.0189 229.604 76.1389 230H75.1429ZM73.1389 229.376C74.0749 229.376 75.0109 228.788 75.0109 227.624V227.084L73.3669 227.264C72.6109 227.372 71.9869 227.564 71.9869 228.38C71.9869 228.944 72.3829 229.376 73.1389 229.376Z" fill="black"/>
<path d="M39.5965 268V259.432H45.0805V260.296H40.6285V263.428H44.6725V264.292H40.6285V268H39.5965ZM49.8691 261.88V262.792C49.7251 262.756 49.5091 262.744 49.3531 262.744C48.3931 262.744 47.5171 263.5 47.5171 265.024V268H46.5211V261.964H47.4811V263.392C47.7451 262.396 48.5131 261.832 49.4011 261.832C49.5571 261.832 49.7251 261.844 49.8691 261.88ZM54.8343 268C54.7623 267.664 54.7263 267.268 54.7263 266.98C54.4623 267.688 53.6343 268.132 52.6263 268.132C51.5703 268.132 50.6703 267.52 50.6703 266.404C50.6703 265.24 51.5343 264.736 52.7583 264.592L54.7023 264.34V263.992C54.7023 263.032 54.1143 262.624 53.2863 262.624C52.4823 262.624 51.9783 263.044 51.9063 263.74H50.9463C51.0663 262.516 52.0263 261.82 53.3103 261.82C54.7743 261.82 55.6863 262.516 55.6863 263.968V266.74C55.6863 267.184 55.7103 267.604 55.8303 268H54.8343ZM52.8303 267.376C53.7663 267.376 54.7023 266.788 54.7023 265.624V265.084L53.0583 265.264C52.3023 265.372 51.6783 265.564 51.6783 266.38C51.6783 266.944 52.0743 267.376 52.8303 267.376ZM58.7194 261.964V263.068C59.0074 262.324 59.7634 261.82 60.6874 261.82C62.0434 261.82 62.8474 262.672 62.8474 264.112V268H61.8514V264.328C61.8514 263.212 61.3594 262.636 60.4114 262.636C59.4874 262.636 58.7554 263.224 58.7554 264.676V268H57.7594V261.964H58.7194ZM64.4756 264.988C64.4756 263.056 65.6396 261.82 67.3196 261.82C68.6636 261.82 69.5516 262.588 69.7436 263.872H68.7956C68.6276 263.068 68.1356 262.624 67.3196 262.624C66.1316 262.624 65.4596 263.572 65.4596 264.988C65.4596 266.404 66.1316 267.34 67.3196 267.34C68.1356 267.34 68.6276 266.896 68.7956 266.092H69.7436C69.5516 267.388 68.6636 268.144 67.3196 268.144C65.6396 268.144 64.4756 266.92 64.4756 264.988ZM76.3443 266.224C76.0683 267.508 75.0243 268.144 73.8483 268.144C72.1443 268.144 70.9443 266.956 70.9443 265.012C70.9443 263.044 72.1803 261.82 73.7883 261.82C75.5763 261.82 76.3803 263.248 76.3803 264.796V265.192H71.9163C71.9643 266.584 72.6963 267.352 73.8483 267.352C74.6643 267.352 75.1563 266.956 75.4083 266.224H76.3443ZM73.7883 262.624C72.8403 262.624 72.1203 263.236 71.9523 264.472H75.4083C75.3843 263.428 74.8683 262.624 73.7883 262.624Z" fill="black"/>
<path d="M47.1948 302.976V297.432H48.2268V302.964C48.2268 304.896 47.1468 306.144 45.3348 306.144C43.7868 306.144 42.5748 305.22 42.5268 303.528H43.5228C43.5828 304.74 44.3388 305.328 45.3348 305.328C46.6308 305.328 47.1948 304.404 47.1948 302.976ZM53.9788 306C53.9068 305.664 53.8708 305.268 53.8708 304.98C53.6068 305.688 52.7788 306.132 51.7708 306.132C50.7148 306.132 49.8148 305.52 49.8148 304.404C49.8148 303.24 50.6788 302.736 51.9028 302.592L53.8468 302.34V301.992C53.8468 301.032 53.2588 300.624 52.4308 300.624C51.6268 300.624 51.1228 301.044 51.0508 301.74H50.0908C50.2108 300.516 51.1708 299.82 52.4548 299.82C53.9188 299.82 54.8308 300.516 54.8308 301.968V304.74C54.8308 305.184 54.8548 305.604 54.9748 306H53.9788ZM51.9748 305.376C52.9108 305.376 53.8468 304.788 53.8468 303.624V303.084L52.2028 303.264C51.4468 303.372 50.8228 303.564 50.8228 304.38C50.8228 304.944 51.2188 305.376 51.9748 305.376ZM57.8999 304.944V308.136H56.9039V299.964H57.8639V301.068C58.1399 300.456 58.8599 299.82 59.9039 299.82C61.4399 299.82 62.5919 301.068 62.5919 302.988C62.5919 304.896 61.4399 306.144 59.9039 306.144C58.9079 306.144 58.1999 305.556 57.8999 304.944ZM57.8519 302.892V303.06C57.8519 304.428 58.5239 305.364 59.6999 305.364C60.8879 305.364 61.5839 304.392 61.5839 302.988C61.5839 301.572 60.8879 300.6 59.6999 300.6C58.5239 300.6 57.8519 301.524 57.8519 302.892ZM67.9828 306C67.9108 305.664 67.8748 305.268 67.8748 304.98C67.6108 305.688 66.7828 306.132 65.7748 306.132C64.7188 306.132 63.8188 305.52 63.8188 304.404C63.8188 303.24 64.6828 302.736 65.9068 302.592L67.8508 302.34V301.992C67.8508 301.032 67.2628 300.624 66.4348 300.624C65.6308 300.624 65.1268 301.044 65.0548 301.74H64.0948C64.2148 300.516 65.1748 299.82 66.4588 299.82C67.9228 299.82 68.8348 300.516 68.8348 301.968V304.74C68.8348 305.184 68.8588 305.604 68.9788 306H67.9828ZM65.9788 305.376C66.9148 305.376 67.8508 304.788 67.8508 303.624V303.084L66.2068 303.264C65.4508 303.372 64.8268 303.564 64.8268 304.38C64.8268 304.944 65.2228 305.376 65.9788 305.376ZM71.8678 299.964V301.068C72.1558 300.324 72.9118 299.82 73.8358 299.82C75.1918 299.82 75.9958 300.672 75.9958 302.112V306H74.9998V302.328C74.9998 301.212 74.5078 300.636 73.5598 300.636C72.6358 300.636 71.9038 301.224 71.9038 302.676V306H70.9078V299.964H71.8678Z" fill="black"/>
<path d="M26.1195 339.704C26.1195 337.016 27.8115 335.288 30.0795 335.288C31.9875 335.288 33.1275 336.344 33.4275 337.928H32.3955C32.1675 336.86 31.3875 336.164 30.0795 336.164C28.2555 336.164 27.1755 337.568 27.1755 339.704C27.1755 341.84 28.2315 343.268 30.0435 343.268C31.4835 343.268 32.5515 342.38 32.5515 340.988V340.544H30.5235V339.728H33.5595V344H32.7435L32.6475 342.572C32.3235 343.496 31.1715 344.144 30.0315 344.144C27.7635 344.144 26.1195 342.404 26.1195 339.704ZM40.6256 342.224C40.3496 343.508 39.3056 344.144 38.1296 344.144C36.4256 344.144 35.2256 342.956 35.2256 341.012C35.2256 339.044 36.4616 337.82 38.0696 337.82C39.8576 337.82 40.6616 339.248 40.6616 340.796V341.192H36.1976C36.2456 342.584 36.9776 343.352 38.1296 343.352C38.9456 343.352 39.4376 342.956 39.6896 342.224H40.6256ZM38.0696 338.624C37.1216 338.624 36.4016 339.236 36.2336 340.472H39.6896C39.6656 339.428 39.1496 338.624 38.0696 338.624ZM45.6973 337.88V338.792C45.5533 338.756 45.3373 338.744 45.1813 338.744C44.2213 338.744 43.3453 339.5 43.3453 341.024V344H42.3493V337.964H43.3093V339.392C43.5733 338.396 44.3413 337.832 45.2293 337.832C45.3853 337.832 45.5533 337.844 45.6973 337.88ZM51.6704 339.116C52.0424 338.3 52.8104 337.82 53.6984 337.82C55.0904 337.82 55.7744 338.696 55.7744 340.112V344H54.7664V340.328C54.7664 339.2 54.3584 338.636 53.4584 338.636C52.5584 338.636 51.8744 339.284 51.8744 340.676V344H50.8664V340.328C50.8664 339.2 50.4704 338.636 49.5584 338.636C48.6464 338.636 47.9624 339.284 47.9624 340.676V344H46.9664V337.964H47.9264V339.068C48.2144 338.3 48.9584 337.82 49.8344 337.82C50.8544 337.82 51.4064 338.312 51.6704 339.116ZM61.5374 344C61.4654 343.664 61.4294 343.268 61.4294 342.98C61.1654 343.688 60.3374 344.132 59.3294 344.132C58.2734 344.132 57.3734 343.52 57.3734 342.404C57.3734 341.24 58.2374 340.736 59.4614 340.592L61.4054 340.34V339.992C61.4054 339.032 60.8174 338.624 59.9894 338.624C59.1854 338.624 58.6814 339.044 58.6094 339.74H57.6494C57.7694 338.516 58.7294 337.82 60.0134 337.82C61.4774 337.82 62.3894 338.516 62.3894 339.968V342.74C62.3894 343.184 62.4134 343.604 62.5334 344H61.5374ZM59.5334 343.376C60.4694 343.376 61.4054 342.788 61.4054 341.624V341.084L59.7614 341.264C59.0054 341.372 58.3814 341.564 58.3814 342.38C58.3814 342.944 58.7774 343.376 59.5334 343.376ZM65.4225 337.964V339.068C65.7105 338.324 66.4665 337.82 67.3905 337.82C68.7465 337.82 69.5505 338.672 69.5505 340.112V344H68.5545V340.328C68.5545 339.212 68.0625 338.636 67.1145 338.636C66.1905 338.636 65.4585 339.224 65.4585 340.676V344H64.4625V337.964H65.4225ZM73.2561 344.048L70.8321 337.964H71.8761L73.7961 342.896H73.8201L75.6321 337.964H76.6641L74.2281 344.18C73.6761 345.62 73.1961 346.22 72.0921 346.232C71.9241 346.232 71.6961 346.208 71.5041 346.172V345.356C71.6961 345.404 71.8281 345.404 71.9841 345.404C72.5841 345.404 72.8601 345.068 73.2561 344.048Z" fill="black"/>
<path d="M40.8165 382V374.296H37.6245V373.432H45.0525V374.296H41.8485V382H40.8165ZM49.1273 382C49.0553 381.664 49.0193 381.268 49.0193 380.98C48.7553 381.688 47.9273 382.132 46.9193 382.132C45.8633 382.132 44.9633 381.52 44.9633 380.404C44.9633 379.24 45.8273 378.736 47.0513 378.592L48.9953 378.34V377.992C48.9953 377.032 48.4073 376.624 47.5793 376.624C46.7753 376.624 46.2713 377.044 46.1993 377.74H45.2393C45.3593 376.516 46.3193 375.82 47.6033 375.82C49.0673 375.82 49.9793 376.516 49.9793 377.968V380.74C49.9793 381.184 50.0033 381.604 50.1233 382H49.1273ZM47.1233 381.376C48.0593 381.376 48.9953 380.788 48.9953 379.624V379.084L47.3513 379.264C46.5953 379.372 45.9713 379.564 45.9713 380.38C45.9713 380.944 46.3673 381.376 47.1233 381.376ZM51.9804 374.704V373.492H53.1084V374.704H51.9804ZM52.0524 382V375.964H53.0484V382H52.0524ZM59.2253 375.964L60.5933 380.92H60.6173L62.0093 375.964H62.9693L61.1453 382H60.1133L58.7213 377.116H58.6853L57.3173 382H56.2733L54.4493 375.964H55.4333L56.8373 380.92H56.8733L58.2173 375.964H59.2253ZM67.9828 382C67.9108 381.664 67.8748 381.268 67.8748 380.98C67.6108 381.688 66.7828 382.132 65.7748 382.132C64.7188 382.132 63.8188 381.52 63.8188 380.404C63.8188 379.24 64.6828 378.736 65.9068 378.592L67.8508 378.34V377.992C67.8508 377.032 67.2628 376.624 66.4348 376.624C65.6308 376.624 65.1268 377.044 65.0548 377.74H64.0948C64.2148 376.516 65.1748 375.82 66.4588 375.82C67.9228 375.82 68.8348 376.516 68.8348 377.968V380.74C68.8348 381.184 68.8588 381.604 68.9788 382H67.9828ZM65.9788 381.376C66.9148 381.376 67.8508 380.788 67.8508 379.624V379.084L66.2068 379.264C65.4508 379.372 64.8268 379.564 64.8268 380.38C64.8268 380.944 65.2228 381.376 65.9788 381.376ZM71.8678 375.964V377.068C72.1558 376.324 72.9118 375.82 73.8358 375.82C75.1918 375.82 75.9958 376.672 75.9958 378.112V382H74.9998V378.328C74.9998 377.212 74.5078 376.636 73.5598 376.636C72.6358 376.636 71.9038 377.224 71.9038 378.676V382H70.9078V375.964H71.8678Z" fill="black"/>
<path d="M49.7073 421H46.3113V412.432H49.3233C51.2313 412.432 52.3353 413.224 52.3353 414.724C52.3353 415.516 51.7353 416.332 51.0033 416.548C52.0593 416.812 52.7193 417.592 52.7193 418.6C52.7193 420.172 51.6033 421 49.7073 421ZM47.3313 416.212H49.3833C50.6553 416.212 51.2913 415.672 51.2913 414.736C51.2913 413.788 50.6673 413.272 49.3953 413.272H47.3313V416.212ZM47.3313 417.016V420.16H49.6593C50.9673 420.16 51.6873 419.584 51.6873 418.6C51.6873 417.616 50.9433 417.016 49.6353 417.016H47.3313ZM57.6973 414.88V415.792C57.5533 415.756 57.3373 415.744 57.1813 415.744C56.2213 415.744 55.3453 416.5 55.3453 418.024V421H54.3493V414.964H55.3093V416.392C55.5733 415.396 56.3413 414.832 57.2293 414.832C57.3853 414.832 57.5533 414.844 57.6973 414.88ZM62.6624 421C62.5904 420.664 62.5544 420.268 62.5544 419.98C62.2904 420.688 61.4624 421.132 60.4544 421.132C59.3984 421.132 58.4984 420.52 58.4984 419.404C58.4984 418.24 59.3624 417.736 60.5864 417.592L62.5304 417.34V416.992C62.5304 416.032 61.9424 415.624 61.1144 415.624C60.3104 415.624 59.8064 416.044 59.7344 416.74H58.7744C58.8944 415.516 59.8544 414.82 61.1384 414.82C62.6024 414.82 63.5144 415.516 63.5144 416.968V419.74C63.5144 420.184 63.5384 420.604 63.6584 421H62.6624ZM60.6584 420.376C61.5944 420.376 62.5304 419.788 62.5304 418.624V418.084L60.8864 418.264C60.1304 418.372 59.5064 418.564 59.5064 419.38C59.5064 419.944 59.9024 420.376 60.6584 420.376ZM69.9795 415.696L66.3795 420.232H70.1115V421H65.1435V420.352L68.7675 415.732H65.2875V414.964H69.9795V415.696ZM71.7382 413.704V412.492H72.8662V413.704H71.7382ZM71.8102 421V414.964H72.8062V421H71.8102ZM75.9351 421H74.9391V412.168H75.9351V421Z" fill="black"/>
<path d="M243.3 466.388V465.692C244.764 465.692 245.292 465.284 245.496 464.396H246.132V473H245.1V466.388H243.3ZM248.512 473V471.692H249.82V473H248.512ZM251.125 468.716C251.125 466.148 252.457 464.288 254.533 464.288C256.621 464.288 257.941 466.148 257.941 468.716C257.941 471.284 256.621 473.144 254.533 473.144C252.457 473.144 251.125 471.284 251.125 468.716ZM252.181 468.716C252.181 470.816 252.973 472.256 254.533 472.256C256.105 472.256 256.897 470.816 256.897 468.716C256.897 466.616 256.105 465.176 254.533 465.176C252.973 465.176 252.181 466.616 252.181 468.716Z" fill="black"/>
<path d="M325.3 466.388V465.692C326.764 465.692 327.292 465.284 327.496 464.396H328.132V473H327.1V466.388H325.3ZM330.512 473V471.692H331.82V473H330.512ZM336.559 468.14C335.659 468.14 335.059 468.584 334.735 469.1H333.811L334.291 464.432H339.115V465.308H335.035L334.747 468.14C335.107 467.684 335.851 467.3 336.643 467.3C338.431 467.3 339.547 468.596 339.547 470.216C339.547 471.848 338.431 473.144 336.559 473.144C334.831 473.144 333.595 472.112 333.463 470.456H334.483C334.567 471.548 335.359 472.304 336.571 472.304C337.915 472.304 338.551 471.308 338.551 470.216C338.551 469.124 337.915 468.14 336.559 468.14Z" fill="black"/>
<path d="M411.276 466.784C411.276 468.392 409.944 469.112 408.66 469.94C407.616 470.636 406.584 471.356 406.584 472.136H411.36V473H405.48V472.532C405.48 471.008 406.956 469.94 408.228 469.148C409.368 468.416 410.292 467.78 410.292 466.784C410.292 465.968 409.824 465.152 408.552 465.152C407.376 465.152 406.692 466.04 406.62 467.072H405.648C405.732 465.56 406.764 464.288 408.564 464.288C410.364 464.288 411.276 465.512 411.276 466.784ZM413.161 473V471.692H414.469V473H413.161ZM415.773 468.716C415.773 466.148 417.105 464.288 419.181 464.288C421.269 464.288 422.589 466.148 422.589 468.716C422.589 471.284 421.269 473.144 419.181 473.144C417.105 473.144 415.773 471.284 415.773 468.716ZM416.829 468.716C416.829 470.816 417.621 472.256 419.181 472.256C420.753 472.256 421.545 470.816 421.545 468.716C421.545 466.616 420.753 465.176 419.181 465.176C417.621 465.176 416.829 466.616 416.829 468.716Z" fill="black"/>
<path d="M169 452.738L169 63.9999" stroke="#7D7575" stroke-opacity="0.3" stroke-dasharray="20 20"/>
<path d="M250.873 452.738L250.873 63.9999" stroke="#7D7575" stroke-opacity="0.3" stroke-dasharray="20 20"/>
<path d="M333.375 454V64" stroke="#7D7575" stroke-opacity="0.3" stroke-dasharray="20 20"/>
<path d="M415 452.738V63.9999" stroke="#7D7575" stroke-opacity="0.3" stroke-dasharray="20 20"/>
<path opacity="0.3" d="M220.47 434.89H221.3C221.41 436.04 222.35 436.43 223.41 436.43C224.43 436.43 225.18 435.94 225.18 435.08C225.18 434.48 224.85 434.09 223.88 433.91L222.52 433.64C221.56 433.46 220.7 433.02 220.7 431.79C220.7 430.62 221.71 429.74 223.19 429.74C224.72 429.74 225.73 430.4 225.87 431.69H225.04C224.92 430.89 224.22 430.43 223.2 430.43C222.16 430.43 221.54 431.01 221.54 431.76C221.54 432.47 221.94 432.72 222.81 432.89L224.21 433.18C225.31 433.4 226.01 433.91 226.01 435.04C226.01 436.26 224.93 437.12 223.42 437.12C221.87 437.12 220.57 436.45 220.47 434.89ZM231.882 434.49C231.882 436.11 230.882 437.12 229.492 437.12C228.102 437.12 227.102 436.11 227.102 434.49C227.102 432.87 228.102 431.85 229.492 431.85C230.882 431.85 231.882 432.87 231.882 434.49ZM227.922 434.49C227.922 435.7 228.512 436.45 229.492 436.45C230.472 436.45 231.062 435.7 231.062 434.49C231.062 433.28 230.472 432.52 229.492 432.52C228.512 432.52 227.922 433.28 227.922 434.49ZM237.432 437H236.622V436.09C236.382 436.72 235.782 437.12 235.022 437.12C233.882 437.12 233.242 436.43 233.242 435.21V431.97H234.082V435.05C234.082 435.98 234.472 436.47 235.262 436.47C236.022 436.47 236.592 435.95 236.592 434.74V431.97H237.432V437ZM242 431.9V432.66C241.88 432.63 241.7 432.62 241.57 432.62C240.77 432.62 240.04 433.25 240.04 434.52V437H239.21V431.97H240.01V433.16C240.23 432.33 240.87 431.86 241.61 431.86C241.74 431.86 241.88 431.87 242 431.9ZM242.59 434.49C242.59 432.88 243.56 431.85 244.96 431.85C246.08 431.85 246.82 432.49 246.98 433.56H246.19C246.05 432.89 245.64 432.52 244.96 432.52C243.97 432.52 243.41 433.31 243.41 434.49C243.41 435.67 243.97 436.45 244.96 436.45C245.64 436.45 246.05 436.08 246.19 435.41H246.98C246.82 436.49 246.08 437.12 244.96 437.12C243.56 437.12 242.59 436.1 242.59 434.49ZM252.481 435.52C252.251 436.59 251.381 437.12 250.401 437.12C248.981 437.12 247.981 436.13 247.981 434.51C247.981 432.87 249.011 431.85 250.351 431.85C251.841 431.85 252.511 433.04 252.511 434.33V434.66H248.791C248.831 435.82 249.441 436.46 250.401 436.46C251.081 436.46 251.491 436.13 251.701 435.52H252.481ZM250.351 432.52C249.561 432.52 248.961 433.03 248.821 434.06H251.701C251.681 433.19 251.251 432.52 250.351 432.52ZM255.915 436.46C255.915 436.213 255.975 436.04 256.095 435.94C256.215 435.84 256.359 435.79 256.525 435.79C256.699 435.79 256.845 435.84 256.965 435.94C257.092 436.04 257.155 436.213 257.155 436.46C257.155 436.7 257.092 436.873 256.965 436.98C256.845 437.087 256.699 437.14 256.525 437.14C256.359 437.14 256.215 437.087 256.095 436.98C255.975 436.873 255.915 436.7 255.915 436.46ZM255.915 432.18C255.915 431.927 255.975 431.75 256.095 431.65C256.215 431.55 256.359 431.5 256.525 431.5C256.699 431.5 256.845 431.55 256.965 431.65C257.092 431.75 257.155 431.927 257.155 432.18C257.155 432.42 257.092 432.593 256.965 432.7C256.845 432.807 256.699 432.86 256.525 432.86C256.359 432.86 256.215 432.807 256.095 432.7C255.975 432.593 255.915 432.42 255.915 432.18ZM263.587 433.42C263.587 435.2 264.437 436.39 265.907 436.39C267.107 436.39 267.627 435.72 267.787 434.92H268.627C268.397 436.22 267.467 437.12 265.907 437.12C264.067 437.12 262.707 435.67 262.707 433.42C262.707 431.18 264.067 429.74 265.907 429.74C267.467 429.74 268.397 430.64 268.627 431.94H267.787C267.627 431.14 267.107 430.47 265.907 430.47C264.437 430.47 263.587 431.64 263.587 433.42ZM274.083 435.52C273.853 436.59 272.983 437.12 272.002 437.12C270.583 437.12 269.583 436.13 269.583 434.51C269.583 432.87 270.613 431.85 271.953 431.85C273.443 431.85 274.112 433.04 274.112 434.33V434.66H270.393C270.433 435.82 271.043 436.46 272.002 436.46C272.683 436.46 273.093 436.13 273.303 435.52H274.083ZM271.953 432.52C271.163 432.52 270.563 433.03 270.423 434.06H273.303C273.283 433.19 272.853 432.52 271.953 432.52ZM276.319 431.97V432.89C276.559 432.27 277.189 431.85 277.959 431.85C279.089 431.85 279.759 432.56 279.759 433.76V437H278.929V433.94C278.929 433.01 278.519 432.53 277.729 432.53C276.959 432.53 276.349 433.02 276.349 434.23V437H275.519V431.97H276.319ZM283.826 436.26V436.94C283.456 437.05 283.166 437.08 282.946 437.08C282.026 437.08 281.556 436.64 281.556 435.71V432.6H280.816V431.97H281.556V430.69H282.376V431.97H283.696V432.6H282.366V435.67C282.366 436.2 282.636 436.38 283.096 436.38C283.286 436.38 283.506 436.36 283.826 436.26ZM287.948 431.9V432.66C287.828 432.63 287.648 432.62 287.518 432.62C286.718 432.62 285.988 433.25 285.988 434.52V437H285.158V431.97H285.958V433.16C286.178 432.33 286.818 431.86 287.558 431.86C287.688 431.86 287.828 431.87 287.948 431.9ZM293.038 435.52C292.808 436.59 291.938 437.12 290.958 437.12C289.538 437.12 288.538 436.13 288.538 434.51C288.538 432.87 289.568 431.85 290.908 431.85C292.398 431.85 293.068 433.04 293.068 434.33V434.66H289.348C289.388 435.82 289.998 436.46 290.958 436.46C291.638 436.46 292.048 436.13 292.258 435.52H293.038ZM290.908 432.52C290.118 432.52 289.518 433.03 289.378 434.06H292.258C292.238 433.19 291.808 432.52 290.908 432.52ZM296.772 432.6H296.042V431.97H296.772V431.03C296.772 430.09 297.372 429.61 298.232 429.61C298.412 429.61 298.642 429.63 298.792 429.66V430.32C298.662 430.3 298.462 430.29 298.282 430.29C297.922 430.29 297.592 430.47 297.592 431.04V431.97H298.672V432.6H297.592V437H296.772V432.6ZM304.157 434.49C304.157 436.11 303.157 437.12 301.767 437.12C300.377 437.12 299.377 436.11 299.377 434.49C299.377 432.87 300.377 431.85 301.767 431.85C303.157 431.85 304.157 432.87 304.157 434.49ZM300.197 434.49C300.197 435.7 300.787 436.45 301.767 436.45C302.747 436.45 303.337 435.7 303.337 434.49C303.337 433.28 302.747 432.52 301.767 432.52C300.787 432.52 300.197 433.28 300.197 434.49ZM308.358 431.9V432.66C308.238 432.63 308.058 432.62 307.928 432.62C307.128 432.62 306.398 433.25 306.398 434.52V437H305.568V431.97H306.368V433.16C306.588 432.33 307.228 431.86 307.968 431.86C308.098 431.86 308.238 431.87 308.358 431.9ZM311.163 434.89H311.993C312.103 436.04 313.043 436.43 314.103 436.43C315.123 436.43 315.873 435.94 315.873 435.08C315.873 434.48 315.543 434.09 314.573 433.91L313.213 433.64C312.253 433.46 311.393 433.02 311.393 431.79C311.393 430.62 312.403 429.74 313.883 429.74C315.413 429.74 316.423 430.4 316.563 431.69H315.733C315.613 430.89 314.913 430.43 313.893 430.43C312.853 430.43 312.233 431.01 312.233 431.76C312.233 432.47 312.633 432.72 313.503 432.89L314.903 433.18C316.003 433.4 316.703 433.91 316.703 435.04C316.703 436.26 315.623 437.12 314.113 437.12C312.563 437.12 311.263 436.45 311.163 434.89ZM320.486 436.26V436.94C320.116 437.05 319.826 437.08 319.606 437.08C318.686 437.08 318.216 436.64 318.216 435.71V432.6H317.476V431.97H318.216V430.69H319.036V431.97H320.356V432.6H319.026V435.67C319.026 436.2 319.296 436.38 319.756 436.38C319.946 436.38 320.166 436.36 320.486 436.26ZM324.608 431.9V432.66C324.488 432.63 324.308 432.62 324.178 432.62C323.378 432.62 322.648 433.25 322.648 434.52V437H321.818V431.97H322.618V433.16C322.838 432.33 323.478 431.86 324.218 431.86C324.348 431.86 324.488 431.87 324.608 431.9ZM328.745 437C328.685 436.72 328.655 436.39 328.655 436.15C328.435 436.74 327.745 437.11 326.905 437.11C326.025 437.11 325.275 436.6 325.275 435.67C325.275 434.7 325.995 434.28 327.015 434.16L328.635 433.95V433.66C328.635 432.86 328.145 432.52 327.455 432.52C326.785 432.52 326.365 432.87 326.305 433.45H325.505C325.605 432.43 326.405 431.85 327.475 431.85C328.695 431.85 329.455 432.43 329.455 433.64V435.95C329.455 436.32 329.475 436.67 329.575 437H328.745ZM327.075 436.48C327.855 436.48 328.635 435.99 328.635 435.02V434.57L327.265 434.72C326.635 434.81 326.115 434.97 326.115 435.65C326.115 436.12 326.445 436.48 327.075 436.48ZM333.523 436.26V436.94C333.153 437.05 332.863 437.08 332.643 437.08C331.723 437.08 331.253 436.64 331.253 435.71V432.6H330.513V431.97H331.253V430.69H332.073V431.97H333.393V432.6H332.063V435.67C332.063 436.2 332.333 436.38 332.793 436.38C332.983 436.38 333.203 436.36 333.523 436.26ZM338.946 435.52C338.716 436.59 337.846 437.12 336.866 437.12C335.446 437.12 334.446 436.13 334.446 434.51C334.446 432.87 335.476 431.85 336.816 431.85C338.306 431.85 338.976 433.04 338.976 434.33V434.66H335.256C335.296 435.82 335.906 436.46 336.866 436.46C337.546 436.46 337.956 436.13 338.166 435.52H338.946ZM336.816 432.52C336.026 432.52 335.426 433.03 335.286 434.06H338.166C338.146 433.19 337.716 432.52 336.816 432.52ZM343.902 436.68V435.94C343.672 436.43 343.112 436.91 342.232 436.91C340.942 436.91 340.002 435.94 340.002 434.37C340.002 432.86 340.942 431.85 342.232 431.85C343.112 431.85 343.692 432.37 343.932 432.85V431.97H344.742V436.62C344.742 438.22 343.702 438.9 342.362 438.9C341.152 438.9 340.332 438.41 340.132 437.43H340.972C341.142 438.06 341.672 438.26 342.352 438.26C343.342 438.26 343.902 437.73 343.902 436.68ZM343.962 434.49V434.25C343.962 433.21 343.312 432.5 342.382 432.5C341.402 432.5 340.822 433.25 340.822 434.37C340.822 435.48 341.402 436.25 342.382 436.25C343.312 436.25 343.962 435.53 343.962 434.49ZM346.465 430.92V429.91H347.405V430.92H346.465ZM346.525 437V431.97H347.355V437H346.525ZM348.762 434.49C348.762 432.88 349.732 431.85 351.132 431.85C352.252 431.85 352.992 432.49 353.152 433.56H352.362C352.222 432.89 351.812 432.52 351.132 432.52C350.142 432.52 349.582 433.31 349.582 434.49C349.582 435.67 350.142 436.45 351.132 436.45C351.812 436.45 352.222 436.08 352.362 435.41H353.152C352.992 436.49 352.252 437.12 351.132 437.12C349.732 437.12 348.762 436.1 348.762 434.49ZM359.771 437C359.711 436.72 359.681 436.39 359.681 436.15C359.461 436.74 358.771 437.11 357.931 437.11C357.051 437.11 356.301 436.6 356.301 435.67C356.301 434.7 357.021 434.28 358.041 434.16L359.661 433.95V433.66C359.661 432.86 359.171 432.52 358.481 432.52C357.811 432.52 357.391 432.87 357.331 433.45H356.531C356.631 432.43 357.431 431.85 358.501 431.85C359.721 431.85 360.481 432.43 360.481 433.64V435.95C360.481 436.32 360.501 436.67 360.601 437H359.771ZM358.101 436.48C358.881 436.48 359.661 435.99 359.661 435.02V434.57L358.291 434.72C357.661 434.81 357.141 434.97 357.141 435.65C357.141 436.12 357.471 436.48 358.101 436.48ZM363.008 431.97V432.89C363.248 432.27 363.878 431.85 364.648 431.85C365.778 431.85 366.448 432.56 366.448 433.76V437H365.618V433.94C365.618 433.01 365.208 432.53 364.418 432.53C363.648 432.53 363.038 433.02 363.038 434.23V437H362.208V431.97H363.008ZM371.745 437V436.12C371.495 436.63 370.875 437.12 370.045 437.12C368.765 437.12 367.805 436.08 367.805 434.49C367.805 432.89 368.765 431.85 370.045 431.85C370.915 431.85 371.485 432.35 371.715 432.86V429.64H372.545V437H371.745ZM371.755 434.55V434.41C371.755 433.27 371.195 432.5 370.215 432.5C369.225 432.5 368.645 433.31 368.645 434.49C368.645 435.66 369.225 436.47 370.215 436.47C371.195 436.47 371.755 435.69 371.755 434.55ZM376.535 437V429.86H377.395V437H376.535ZM380.03 431.97V432.89C380.27 432.27 380.9 431.85 381.67 431.85C382.8 431.85 383.47 432.56 383.47 433.76V437H382.64V433.94C382.64 433.01 382.23 432.53 381.44 432.53C380.67 432.53 380.06 433.02 380.06 434.23V437H379.23V431.97H380.03ZM387.537 436.26V436.94C387.167 437.05 386.877 437.08 386.657 437.08C385.737 437.08 385.267 436.64 385.267 435.71V432.6H384.527V431.97H385.267V430.69H386.087V431.97H387.407V432.6H386.077V435.67C386.077 436.2 386.347 436.38 386.807 436.38C386.997 436.38 387.217 436.36 387.537 436.26ZM392.959 435.52C392.729 436.59 391.859 437.12 390.879 437.12C389.459 437.12 388.459 436.13 388.459 434.51C388.459 432.87 389.489 431.85 390.829 431.85C392.319 431.85 392.989 433.04 392.989 434.33V434.66H389.269C389.309 435.82 389.919 436.46 390.879 436.46C391.559 436.46 391.969 436.13 392.179 435.52H392.959ZM390.829 432.52C390.039 432.52 389.439 433.03 389.299 434.06H392.179C392.159 433.19 391.729 432.52 390.829 432.52ZM397.186 431.9V432.66C397.066 432.63 396.886 432.62 396.756 432.62C395.956 432.62 395.226 433.25 395.226 434.52V437H394.396V431.97H395.196V433.16C395.416 432.33 396.056 431.86 396.796 431.86C396.926 431.86 397.066 431.87 397.186 431.9ZM399.044 431.97V432.89C399.284 432.27 399.914 431.85 400.684 431.85C401.814 431.85 402.484 432.56 402.484 433.76V437H401.654V433.94C401.654 433.01 401.244 432.53 400.454 432.53C399.684 432.53 399.074 433.02 399.074 434.23V437H398.244V431.97H399.044ZM407.29 437C407.23 436.72 407.2 436.39 407.2 436.15C406.98 436.74 406.29 437.11 405.45 437.11C404.57 437.11 403.82 436.6 403.82 435.67C403.82 434.7 404.54 434.28 405.56 434.16L407.18 433.95V433.66C407.18 432.86 406.69 432.52 406 432.52C405.33 432.52 404.91 432.87 404.85 433.45H404.05C404.15 432.43 404.95 431.85 406.02 431.85C407.24 431.85 408 432.43 408 433.64V435.95C408 436.32 408.02 436.67 408.12 437H407.29ZM405.62 436.48C406.4 436.48 407.18 435.99 407.18 435.02V434.57L405.81 434.72C405.18 434.81 404.66 434.97 404.66 435.65C404.66 436.12 404.99 436.48 405.62 436.48ZM412.068 436.26V436.94C411.698 437.05 411.408 437.08 411.188 437.08C410.268 437.08 409.798 436.64 409.798 435.71V432.6H409.058V431.97H409.798V430.69H410.618V431.97H411.938V432.6H410.608V435.67C410.608 436.2 410.878 436.38 411.338 436.38C411.528 436.38 411.748 436.36 412.068 436.26ZM413.359 430.92V429.91H414.299V430.92H413.359ZM413.419 437V431.97H414.249V437H413.419ZM420.437 434.49C420.437 436.11 419.437 437.12 418.047 437.12C416.657 437.12 415.657 436.11 415.657 434.49C415.657 432.87 416.657 431.85 418.047 431.85C419.437 431.85 420.437 432.87 420.437 434.49ZM416.477 434.49C416.477 435.7 417.067 436.45 418.047 436.45C419.027 436.45 419.617 435.7 419.617 434.49C419.617 433.28 419.027 432.52 418.047 432.52C417.067 432.52 416.477 433.28 416.477 434.49ZM422.647 431.97V432.89C422.887 432.27 423.517 431.85 424.287 431.85C425.417 431.85 426.087 432.56 426.087 433.76V437H425.257V433.94C425.257 433.01 424.847 432.53 424.057 432.53C423.287 432.53 422.677 433.02 422.677 434.23V437H421.847V431.97H422.647ZM430.894 437C430.834 436.72 430.804 436.39 430.804 436.15C430.584 436.74 429.894 437.11 429.054 437.11C428.174 437.11 427.424 436.6 427.424 435.67C427.424 434.7 428.144 434.28 429.164 434.16L430.784 433.95V433.66C430.784 432.86 430.294 432.52 429.604 432.52C428.934 432.52 428.514 432.87 428.454 433.45H427.654C427.754 432.43 428.554 431.85 429.624 431.85C430.844 431.85 431.604 432.43 431.604 433.64V435.95C431.604 436.32 431.624 436.67 431.724 437H430.894ZM429.224 436.48C430.004 436.48 430.784 435.99 430.784 435.02V434.57L429.414 434.72C428.784 434.81 428.264 434.97 428.264 435.65C428.264 436.12 428.594 436.48 429.224 436.48ZM434.161 437H433.331V429.64H434.161V437ZM220.47 446.89H221.3C221.41 448.04 222.35 448.43 223.41 448.43C224.43 448.43 225.18 447.94 225.18 447.08C225.18 446.48 224.85 446.09 223.88 445.91L222.52 445.64C221.56 445.46 220.7 445.02 220.7 443.79C220.7 442.62 221.71 441.74 223.19 441.74C224.72 441.74 225.73 442.4 225.87 443.69H225.04C224.92 442.89 224.22 442.43 223.2 442.43C222.16 442.43 221.54 443.01 221.54 443.76C221.54 444.47 221.94 444.72 222.81 444.89L224.21 445.18C225.31 445.4 226.01 445.91 226.01 447.04C226.01 448.26 224.93 449.12 223.42 449.12C221.87 449.12 220.57 448.45 220.47 446.89ZM229.793 448.26V448.94C229.423 449.05 229.132 449.08 228.913 449.08C227.993 449.08 227.523 448.64 227.523 447.71V444.6H226.783V443.97H227.523V442.69H228.343V443.97H229.663V444.6H228.333V447.67C228.333 448.2 228.603 448.38 229.062 448.38C229.253 448.38 229.473 448.36 229.793 448.26ZM235.284 449H234.474V448.09C234.234 448.72 233.634 449.12 232.874 449.12C231.734 449.12 231.094 448.43 231.094 447.21V443.97H231.934V447.05C231.934 447.98 232.324 448.47 233.114 448.47C233.874 448.47 234.444 447.95 234.444 446.74V443.97H235.284V449ZM240.632 449V448.12C240.382 448.63 239.762 449.12 238.932 449.12C237.652 449.12 236.692 448.08 236.692 446.49C236.692 444.89 237.652 443.85 238.932 443.85C239.802 443.85 240.372 444.35 240.602 444.86V441.64H241.432V449H240.632ZM240.642 446.55V446.41C240.642 445.27 240.082 444.5 239.102 444.5C238.112 444.5 237.532 445.31 237.532 446.49C237.532 447.66 238.112 448.47 239.102 448.47C240.082 448.47 240.642 447.69 240.642 446.55ZM243.154 442.92V441.91H244.094V442.92H243.154ZM243.214 449V443.97H244.044V449H243.214ZM249.952 447.52C249.722 448.59 248.852 449.12 247.872 449.12C246.452 449.12 245.452 448.13 245.452 446.51C245.452 444.87 246.482 443.85 247.822 443.85C249.312 443.85 249.982 445.04 249.982 446.33V446.66H246.262C246.302 447.82 246.912 448.46 247.872 448.46C248.552 448.46 248.962 448.13 249.172 447.52H249.952ZM247.822 444.52C247.032 444.52 246.432 445.03 246.292 446.06H249.172C249.152 445.19 248.722 444.52 247.822 444.52ZM251.007 447.51H251.807C251.867 448.2 252.507 448.49 253.187 448.49C253.877 448.49 254.377 448.17 254.377 447.63C254.377 447.26 254.137 447.02 253.497 446.9L252.607 446.72C251.797 446.57 251.207 446.24 251.207 445.36C251.207 444.51 251.967 443.85 253.077 443.85C254.237 443.85 254.947 444.35 255.047 445.3H254.277C254.217 444.79 253.767 444.49 253.077 444.49C252.407 444.49 251.977 444.82 251.977 445.31C251.977 445.74 252.277 445.92 252.857 446.03L253.857 446.22C254.677 446.38 255.157 446.78 255.157 447.59C255.157 448.47 254.327 449.12 253.197 449.12C251.997 449.12 251.097 448.59 251.007 447.51ZM261.101 448.26V448.94C260.731 449.05 260.441 449.08 260.221 449.08C259.301 449.08 258.831 448.64 258.831 447.71V444.6H258.091V443.97H258.831V442.69H259.651V443.97H260.971V444.6H259.641V447.67C259.641 448.2 259.911 448.38 260.371 448.38C260.561 448.38 260.781 448.36 261.101 448.26ZM263.283 444.89C263.523 444.25 264.123 443.85 264.893 443.85C266.023 443.85 266.693 444.56 266.693 445.76V449H265.863V445.94C265.863 445.01 265.453 444.53 264.663 444.53C263.893 444.53 263.283 445.02 263.283 446.23V449H262.453V441.64H263.283V444.89ZM271.209 443.9V444.66C271.089 444.63 270.909 444.62 270.779 444.62C269.979 444.62 269.249 445.25 269.249 446.52V449H268.419V443.97H269.219V445.16C269.439 444.33 270.079 443.86 270.819 443.86C270.949 443.86 271.089 443.87 271.209 443.9ZM276.579 446.49C276.579 448.11 275.579 449.12 274.189 449.12C272.799 449.12 271.799 448.11 271.799 446.49C271.799 444.87 272.799 443.85 274.189 443.85C275.579 443.85 276.579 444.87 276.579 446.49ZM272.619 446.49C272.619 447.7 273.209 448.45 274.189 448.45C275.169 448.45 275.759 447.7 275.759 446.49C275.759 445.28 275.169 444.52 274.189 444.52C273.209 444.52 272.619 445.28 272.619 446.49ZM282.13 449H281.32V448.09C281.08 448.72 280.48 449.12 279.72 449.12C278.58 449.12 277.94 448.43 277.94 447.21V443.97H278.78V447.05C278.78 447.98 279.17 448.47 279.96 448.47C280.72 448.47 281.29 447.95 281.29 446.74V443.97H282.13V449ZM287.428 448.68V447.94C287.198 448.43 286.638 448.91 285.758 448.91C284.468 448.91 283.528 447.94 283.528 446.37C283.528 444.86 284.468 443.85 285.758 443.85C286.638 443.85 287.218 444.37 287.458 444.85V443.97H288.268V448.62C288.268 450.22 287.228 450.9 285.888 450.9C284.678 450.9 283.858 450.41 283.658 449.43H284.498C284.668 450.06 285.198 450.26 285.878 450.26C286.868 450.26 287.428 449.73 287.428 448.68ZM287.488 446.49V446.25C287.488 445.21 286.838 444.5 285.908 444.5C284.928 444.5 284.348 445.25 284.348 446.37C284.348 447.48 284.928 448.25 285.908 448.25C286.838 448.25 287.488 447.53 287.488 446.49ZM290.88 444.89C291.12 444.25 291.72 443.85 292.49 443.85C293.62 443.85 294.29 444.56 294.29 445.76V449H293.46V445.94C293.46 445.01 293.05 444.53 292.26 444.53C291.49 444.53 290.88 445.02 290.88 446.23V449H290.05V441.64H290.88V444.89ZM300.355 449V442.58H297.695V441.86H303.885V442.58H301.215V449H300.355ZM306.007 444.89C306.247 444.25 306.847 443.85 307.617 443.85C308.747 443.85 309.417 444.56 309.417 445.76V449H308.587V445.94C308.587 445.01 308.177 444.53 307.387 444.53C306.617 444.53 306.007 445.02 306.007 446.23V449H305.177V441.64H306.007V444.89ZM315.274 447.52C315.044 448.59 314.174 449.12 313.194 449.12C311.774 449.12 310.774 448.13 310.774 446.51C310.774 444.87 311.804 443.85 313.144 443.85C314.634 443.85 315.304 445.04 315.304 446.33V446.66H311.584C311.624 447.82 312.234 448.46 313.194 448.46C313.874 448.46 314.284 448.13 314.494 447.52H315.274ZM313.144 444.52C312.354 444.52 311.754 445.03 311.614 446.06H314.494C314.474 445.19 314.044 444.52 313.144 444.52ZM323.748 449H318.918V441.86H323.738V442.58H319.768V445.07H323.298V445.8H319.768V448.28H323.748V449ZM324.905 446.49C324.905 444.88 325.875 443.85 327.275 443.85C328.395 443.85 329.135 444.49 329.295 445.56H328.505C328.365 444.89 327.955 444.52 327.275 444.52C326.285 444.52 325.725 445.31 325.725 446.49C325.725 447.67 326.285 448.45 327.275 448.45C327.955 448.45 328.365 448.08 328.505 447.41H329.295C329.135 448.49 328.395 449.12 327.275 449.12C325.875 449.12 324.905 448.1 324.905 446.49ZM335.075 446.49C335.075 448.11 334.075 449.12 332.685 449.12C331.295 449.12 330.295 448.11 330.295 446.49C330.295 444.87 331.295 443.85 332.685 443.85C334.075 443.85 335.075 444.87 335.075 446.49ZM331.115 446.49C331.115 447.7 331.705 448.45 332.685 448.45C333.665 448.45 334.255 447.7 334.255 446.49C334.255 445.28 333.665 444.52 332.685 444.52C331.705 444.52 331.115 445.28 331.115 446.49ZM337.286 443.97V444.89C337.526 444.27 338.156 443.85 338.926 443.85C340.056 443.85 340.726 444.56 340.726 445.76V449H339.896V445.94C339.896 445.01 339.486 444.53 338.696 444.53C337.926 444.53 337.316 445.02 337.316 446.23V449H336.486V443.97H337.286ZM346.863 446.49C346.863 448.11 345.863 449.12 344.473 449.12C343.083 449.12 342.083 448.11 342.083 446.49C342.083 444.87 343.083 443.85 344.473 443.85C345.863 443.85 346.863 444.87 346.863 446.49ZM342.903 446.49C342.903 447.7 343.493 448.45 344.473 448.45C345.453 448.45 346.043 447.7 346.043 446.49C346.043 445.28 345.453 444.52 344.473 444.52C343.493 444.52 342.903 445.28 342.903 446.49ZM352.193 444.93C352.503 444.25 353.143 443.85 353.883 443.85C355.043 443.85 355.613 444.58 355.613 445.76V449H354.773V445.94C354.773 445 354.433 444.53 353.683 444.53C352.933 444.53 352.363 445.07 352.363 446.23V449H351.523V445.94C351.523 445 351.193 444.53 350.433 444.53C349.673 444.53 349.103 445.07 349.103 446.23V449H348.273V443.97H349.073V444.89C349.313 444.25 349.933 443.85 350.663 443.85C351.513 443.85 351.973 444.26 352.193 444.93ZM357.275 442.92V441.91H358.215V442.92H357.275ZM357.335 449V443.97H358.165V449H357.335ZM359.513 447.51H360.313C360.373 448.2 361.013 448.49 361.693 448.49C362.383 448.49 362.883 448.17 362.883 447.63C362.883 447.26 362.643 447.02 362.003 446.9L361.113 446.72C360.303 446.57 359.713 446.24 359.713 445.36C359.713 444.51 360.473 443.85 361.583 443.85C362.743 443.85 363.453 444.35 363.553 445.3H362.783C362.723 444.79 362.273 444.49 361.583 444.49C360.913 444.49 360.483 444.82 360.483 445.31C360.483 445.74 360.783 445.92 361.363 446.03L362.363 446.22C363.183 446.38 363.663 446.78 363.663 447.59C363.663 448.47 362.833 449.12 361.703 449.12C360.503 449.12 359.603 448.59 359.513 447.51ZM367.439 448.26V448.94C367.069 449.05 366.779 449.08 366.559 449.08C365.639 449.08 365.169 448.64 365.169 447.71V444.6H364.429V443.97H365.169V442.69H365.989V443.97H367.309V444.6H365.979V447.67C365.979 448.2 366.249 448.38 366.709 448.38C366.899 448.38 367.119 448.36 367.439 448.26Z" fill="black"/>
<path d="M201.03 39L200.24 37.01H196.82L196.03 39H195.17L198.06 31.86H199.03L201.93 39H201.03ZM198.52 32.72L197.1 36.3H199.96L198.55 32.72H198.52ZM202.56 37.51H203.36C203.42 38.2 204.06 38.49 204.74 38.49C205.43 38.49 205.93 38.17 205.93 37.63C205.93 37.26 205.69 37.02 205.05 36.9L204.16 36.72C203.35 36.57 202.76 36.24 202.76 35.36C202.76 34.51 203.52 33.85 204.63 33.85C205.79 33.85 206.5 34.35 206.6 35.3H205.83C205.77 34.79 205.32 34.49 204.63 34.49C203.96 34.49 203.53 34.82 203.53 35.31C203.53 35.74 203.83 35.92 204.41 36.03L205.41 36.22C206.23 36.38 206.71 36.78 206.71 37.59C206.71 38.47 205.88 39.12 204.75 39.12C203.55 39.12 202.65 38.59 202.56 37.51ZM211.374 31.76C211.867 31.76 212.24 31.9567 212.494 32.35C212.747 32.7367 212.874 33.2833 212.874 33.99C212.874 34.6967 212.75 35.25 212.504 35.65C212.264 36.0433 211.887 36.24 211.374 36.24C211.06 36.24 210.794 36.15 210.574 35.97C210.354 35.79 210.187 35.5333 210.074 35.2C209.967 34.86 209.914 34.4567 209.914 33.99C209.914 33.2833 210.03 32.7367 210.264 32.35C210.497 31.9567 210.867 31.76 211.374 31.76ZM211.374 32.38C211.12 32.38 210.934 32.5167 210.814 32.79C210.7 33.0567 210.644 33.4567 210.644 33.99C210.644 34.5233 210.7 34.9267 210.814 35.2C210.934 35.4733 211.12 35.61 211.374 35.61C211.634 35.61 211.827 35.4767 211.954 35.21C212.08 34.9367 212.144 34.53 212.144 33.99C212.144 33.4567 212.08 33.0567 211.954 32.79C211.827 32.5167 211.634 32.38 211.374 32.38ZM215.944 31.86L211.984 39H211.214L215.174 31.86H215.944ZM215.744 34.62C216.07 34.62 216.344 34.71 216.564 34.89C216.784 35.0633 216.95 35.3167 217.064 35.65C217.184 35.9767 217.244 36.3767 217.244 36.85C217.244 37.5567 217.12 38.11 216.874 38.51C216.634 38.9033 216.257 39.1 215.744 39.1C215.43 39.1 215.164 39.01 214.944 38.83C214.724 38.65 214.557 38.3933 214.444 38.06C214.337 37.72 214.284 37.3167 214.284 36.85C214.284 36.1433 214.4 35.5967 214.634 35.21C214.867 34.8167 215.237 34.62 215.744 34.62ZM215.744 35.25C215.49 35.25 215.304 35.3833 215.184 35.65C215.07 35.9167 215.014 36.3167 215.014 36.85C215.014 37.39 215.07 37.7967 215.184 38.07C215.304 38.3367 215.49 38.47 215.744 38.47C216.004 38.47 216.197 38.3367 216.324 38.07C216.45 37.8033 216.514 37.3967 216.514 36.85C216.514 36.3167 216.45 35.9167 216.324 35.65C216.197 35.3833 216.004 35.25 215.744 35.25ZM225.202 36.49C225.202 38.11 224.202 39.12 222.812 39.12C221.422 39.12 220.422 38.11 220.422 36.49C220.422 34.87 221.422 33.85 222.812 33.85C224.202 33.85 225.202 34.87 225.202 36.49ZM221.242 36.49C221.242 37.7 221.832 38.45 222.812 38.45C223.792 38.45 224.382 37.7 224.382 36.49C224.382 35.28 223.792 34.52 222.812 34.52C221.832 34.52 221.242 35.28 221.242 36.49ZM226.743 34.6H226.013V33.97H226.743V33.03C226.743 32.09 227.343 31.61 228.203 31.61C228.383 31.61 228.613 31.63 228.763 31.66V32.32C228.633 32.3 228.433 32.29 228.253 32.29C227.893 32.29 227.563 32.47 227.563 33.04V33.97H228.643V34.6H227.563V39H226.743V34.6ZM231.496 35.42C231.496 33.18 232.906 31.74 234.796 31.74C236.386 31.74 237.336 32.62 237.586 33.94H236.726C236.536 33.05 235.886 32.47 234.796 32.47C233.276 32.47 232.376 33.64 232.376 35.42C232.376 37.2 233.256 38.39 234.766 38.39C235.966 38.39 236.856 37.65 236.856 36.49V36.12H235.166V35.44H237.696V39H237.016L236.936 37.81C236.666 38.58 235.706 39.12 234.756 39.12C232.866 39.12 231.496 37.67 231.496 35.42ZM241.917 31.86C243.987 31.86 245.397 33.29 245.397 35.43C245.397 37.58 243.987 39 241.917 39H239.387V31.86H241.917ZM241.917 32.58H240.237V38.28H241.917C243.577 38.28 244.507 37.16 244.507 35.43C244.507 33.71 243.577 32.58 241.917 32.58ZM249.478 36.13H247.678V39H246.828V31.86H249.468C251.058 31.86 251.978 32.59 251.978 33.99C251.978 35.4 251.058 36.13 249.478 36.13ZM247.678 35.41H249.448C250.528 35.41 251.118 34.96 251.118 33.99C251.118 33.02 250.528 32.58 249.448 32.58H247.678V35.41ZM252.426 39V37.91H253.516V39H252.426ZM261.9 33.82C261.9 35.16 260.79 35.76 259.72 36.45C258.85 37.03 257.99 37.63 257.99 38.28H261.97V39H257.07V38.61C257.07 37.34 258.3 36.45 259.36 35.79C260.31 35.18 261.08 34.65 261.08 33.82C261.08 33.14 260.69 32.46 259.63 32.46C258.65 32.46 258.08 33.2 258.02 34.06H257.21C257.28 32.8 258.14 31.74 259.64 31.74C261.14 31.74 261.9 32.76 261.9 33.82ZM262.933 35.43C262.933 33.29 264.043 31.74 265.773 31.74C267.513 31.74 268.613 33.29 268.613 35.43C268.613 37.57 267.513 39.12 265.773 39.12C264.043 39.12 262.933 37.57 262.933 35.43ZM263.813 35.43C263.813 37.18 264.473 38.38 265.773 38.38C267.083 38.38 267.743 37.18 267.743 35.43C267.743 33.68 267.083 32.48 265.773 32.48C264.473 32.48 263.813 33.68 263.813 35.43ZM269.41 33.49V32.91C270.63 32.91 271.07 32.57 271.24 31.83H271.77V39H270.91V33.49H269.41ZM275.713 38.4C277.033 38.4 277.723 37.03 277.723 35.18C277.493 35.92 276.793 36.63 275.703 36.63C274.293 36.63 273.343 35.59 273.343 34.22C273.343 32.78 274.323 31.74 275.813 31.74C277.393 31.74 278.523 33.12 278.523 35.31C278.523 37.57 277.343 39.12 275.703 39.12C274.433 39.12 273.573 38.37 273.413 37.17H274.203C274.373 37.98 274.863 38.4 275.713 38.4ZM275.813 32.44C274.793 32.44 274.153 33.19 274.153 34.19C274.153 35.2 274.793 35.93 275.813 35.93C276.813 35.93 277.493 35.2 277.493 34.19C277.493 33.19 276.813 32.44 275.813 32.44ZM286.25 37.52C286.02 38.59 285.15 39.12 284.17 39.12C282.75 39.12 281.75 38.13 281.75 36.51C281.75 34.87 282.78 33.85 284.12 33.85C285.61 33.85 286.28 35.04 286.28 36.33V36.66H282.56C282.6 37.82 283.21 38.46 284.17 38.46C284.85 38.46 285.26 38.13 285.47 37.52H286.25ZM284.12 34.52C283.33 34.52 282.73 35.03 282.59 36.06H285.47C285.45 35.19 285.02 34.52 284.12 34.52ZM287.306 37.51H288.106C288.166 38.2 288.806 38.49 289.486 38.49C290.176 38.49 290.676 38.17 290.676 37.63C290.676 37.26 290.436 37.02 289.796 36.9L288.906 36.72C288.096 36.57 287.506 36.24 287.506 35.36C287.506 34.51 288.266 33.85 289.376 33.85C290.536 33.85 291.246 34.35 291.346 35.3H290.576C290.516 34.79 290.066 34.49 289.376 34.49C288.706 34.49 288.276 34.82 288.276 35.31C288.276 35.74 288.576 35.92 289.156 36.03L290.156 36.22C290.976 36.38 291.456 36.78 291.456 37.59C291.456 38.47 290.626 39.12 289.496 39.12C288.296 39.12 287.396 38.59 287.306 37.51ZM295.232 38.26V38.94C294.862 39.05 294.572 39.08 294.352 39.08C293.432 39.08 292.962 38.64 292.962 37.71V34.6H292.222V33.97H292.962V32.69H293.782V33.97H295.102V34.6H293.772V37.67C293.772 38.2 294.042 38.38 294.502 38.38C294.692 38.38 294.912 38.36 295.232 38.26ZM296.523 32.92V31.91H297.463V32.92H296.523ZM296.583 39V33.97H297.413V39H296.583ZM303.111 34.93C303.421 34.25 304.061 33.85 304.801 33.85C305.961 33.85 306.531 34.58 306.531 35.76V39H305.691V35.94C305.691 35 305.351 34.53 304.601 34.53C303.851 34.53 303.281 35.07 303.281 36.23V39H302.441V35.94C302.441 35 302.111 34.53 301.351 34.53C300.591 34.53 300.021 35.07 300.021 36.23V39H299.191V33.97H299.991V34.89C300.231 34.25 300.851 33.85 301.581 33.85C302.431 33.85 302.891 34.26 303.111 34.93ZM311.333 39C311.273 38.72 311.243 38.39 311.243 38.15C311.023 38.74 310.333 39.11 309.493 39.11C308.613 39.11 307.863 38.6 307.863 37.67C307.863 36.7 308.583 36.28 309.603 36.16L311.223 35.95V35.66C311.223 34.86 310.733 34.52 310.043 34.52C309.373 34.52 308.953 34.87 308.893 35.45H308.093C308.193 34.43 308.993 33.85 310.063 33.85C311.283 33.85 312.043 34.43 312.043 35.64V37.95C312.043 38.32 312.063 38.67 312.163 39H311.333ZM309.663 38.48C310.443 38.48 311.223 37.99 311.223 37.02V36.57L309.853 36.72C309.223 36.81 308.703 36.97 308.703 37.65C308.703 38.12 309.033 38.48 309.663 38.48ZM316.111 38.26V38.94C315.741 39.05 315.451 39.08 315.231 39.08C314.311 39.08 313.841 38.64 313.841 37.71V34.6H313.101V33.97H313.841V32.69H314.661V33.97H315.981V34.6H314.651V37.67C314.651 38.2 314.921 38.38 315.381 38.38C315.571 38.38 315.791 38.36 316.111 38.26ZM321.534 37.52C321.304 38.59 320.434 39.12 319.454 39.12C318.034 39.12 317.034 38.13 317.034 36.51C317.034 34.87 318.064 33.85 319.404 33.85C320.894 33.85 321.564 35.04 321.564 36.33V36.66H317.844C317.884 37.82 318.494 38.46 319.454 38.46C320.134 38.46 320.544 38.13 320.754 37.52H321.534ZM319.404 34.52C318.614 34.52 318.014 35.03 317.874 36.06H320.754C320.734 35.19 320.304 34.52 319.404 34.52ZM322.589 37.51H323.389C323.449 38.2 324.089 38.49 324.769 38.49C325.459 38.49 325.959 38.17 325.959 37.63C325.959 37.26 325.719 37.02 325.079 36.9L324.189 36.72C323.379 36.57 322.789 36.24 322.789 35.36C322.789 34.51 323.549 33.85 324.659 33.85C325.819 33.85 326.529 34.35 326.629 35.3H325.859C325.799 34.79 325.349 34.49 324.659 34.49C323.989 34.49 323.559 34.82 323.559 35.31C323.559 35.74 323.859 35.92 324.439 36.03L325.439 36.22C326.259 36.38 326.739 36.78 326.739 37.59C326.739 38.47 325.909 39.12 324.779 39.12C323.579 39.12 322.679 38.59 322.589 37.51Z" fill="black"/>
</svg>
