<svg width="230" height="59" viewBox="0 0 230 59" fill="none" xmlns="http://www.w3.org/2000/svg">
<path d="M21.0334 1.82978V26.083L22.677 27.0285L22.2074 27.3014V52.9063L22.6833 53.1791L23.1593 52.9063V27.3077L23.7431 27.6441V26.4193L24.3332 26.083V1.83613L22.6833 0.87793L21.0334 1.82978Z" fill="#685275"/>
<path d="M9.70581 19.5394L13.0056 21.4494V6.46088L9.70581 8.36458V19.5394Z" fill="#685275"/>
<path d="M15.3706 22.8153L18.6704 24.7191V3.19446L15.3706 5.09817V22.8153Z" fill="#685275"/>
<path d="M1.67905 14.9075V12.9974L0.0228271 13.9493L1.67905 14.9075Z" fill="#685275"/>
<path d="M4.03918 16.2734L7.33895 18.1771V9.73102L4.03918 11.6347V16.2734Z" fill="#685275"/>
<path d="M38.024 18.1771L41.3238 16.2734V11.6347L38.024 9.73102V18.1771Z" fill="#685275"/>
<path d="M43.6907 12.9974V14.9011L45.3406 13.9493L43.6907 12.9974Z" fill="#685275"/>
<path d="M26.6982 24.714L27.2503 24.3967V29.67L27.8722 30.0253V50.1856L28.824 49.6335V30.5774L29.4079 30.9137V23.1529L28.9827 23.3941L29.998 22.8103V5.1058L26.6982 3.20209V24.714Z" fill="#685275"/>
<path d="M32.365 21.4443L35.6584 19.5406V8.36581L32.365 6.46844V21.4443Z" fill="#685275"/>
<path d="M45.3405 13.9549L44.2427 14.5895V39.4773L44.8646 39.839V40.372L45.3278 40.1055H45.3405V13.9612V13.9549Z" fill="#685275"/>
<path d="M32.917 32.9354L33.5389 33.2971V46.915L34.4907 46.3629V33.8429L35.0745 34.1855V19.8823L32.917 21.1261V32.9354Z" fill="#685275"/>
<path d="M38.5779 36.2095L39.1998 36.5649V43.6403L40.1516 43.0946V37.117L40.7354 37.4533V16.614L38.5779 17.8578V36.2095Z" fill="#685275"/>
<path d="M0.00846092 40.1118L0.027498 40.0992L0.503425 40.372V39.8263L1.11261 39.4773V14.5895L0.00846092 13.9549C0.00846092 13.9549 -0.0105762 40.1309 0.00846092 40.1118Z" fill="#685275"/>
<path d="M21.6084 26.417V27.6417L22.6681 27.0262L21.6084 26.417Z" fill="#685275"/>
<path d="M15.9417 30.9114L16.5445 30.5687V49.6376L17.4963 50.1833V30.0167L18.1055 29.6677V24.3944L15.9417 23.1506V30.9114Z" fill="#685275"/>
<path d="M10.2826 34.1855L10.8791 33.8365V46.3629L11.8309 46.915V33.2908L12.4401 32.9354V21.1261L10.2826 19.8823V34.1855Z" fill="#685275"/>
<path d="M4.61597 37.4533L5.21246 37.1043V43.0946L6.16432 43.6467V36.5585L6.7735 36.2095V17.8578L4.61597 16.614V37.4533Z" fill="#685275"/>
<path d="M77.8133 19.2666C77.0392 19.8567 75.8969 20.1486 74.374 20.1486H74.2217C72.5591 20.1486 71.328 19.806 70.5412 19.127C69.748 18.448 69.3545 17.255 69.3545 15.548H67.1018C67.1018 17.8198 67.7364 19.5014 69.0055 20.5865C70.2747 21.6716 72.0134 22.2173 74.228 22.2173H74.3803C76.449 22.2173 78.1116 21.7224 79.3553 20.7388C80.6054 19.7552 81.2273 18.3718 81.2273 16.5824C81.2273 15.364 80.9545 14.3677 80.4024 13.5872C79.8566 12.8067 79.1967 12.2038 78.4225 11.7787C77.6547 11.3535 76.6965 10.9537 75.5606 10.592C75.421 10.5539 75.2687 10.5032 75.1037 10.4524C74.9387 10.4016 74.7864 10.3445 74.6468 10.2874C74.5072 10.2493 74.374 10.2049 74.2534 10.1669C74.1328 10.1288 73.9996 10.0844 73.86 10.0463C72.9906 9.76073 72.2799 9.48152 71.7469 9.20866C71.2075 8.93579 70.7569 8.55505 70.3952 8.06643C70.0272 7.57781 69.8495 6.96228 69.8495 6.20714C69.8495 5.13472 70.1795 4.31613 70.8394 3.75771C71.4994 3.19928 72.4893 2.92007 73.8092 2.92007H73.9615C74.9578 2.92007 75.7764 3.05968 76.43 3.34524C77.0772 3.63079 77.5785 4.11306 77.9339 4.79205C78.2893 5.47104 78.4669 6.37848 78.4669 7.51436H80.7197C80.7197 5.2426 80.1105 3.56099 78.8921 2.47588C77.6737 1.39076 76.0302 0.845032 73.9615 0.845032H73.8092C71.9245 0.845032 70.4079 1.31461 69.272 2.26012C68.1362 3.20563 67.565 4.51919 67.565 6.2008C67.565 7.2986 67.8062 8.21238 68.2821 8.94214C68.758 9.67189 69.3545 10.2557 70.0652 10.6935C70.776 11.1314 71.658 11.5312 72.7114 11.8992C72.851 11.9373 72.997 11.9881 73.1366 12.0388C73.2762 12.0896 73.4221 12.1467 73.5617 12.2038C73.8473 12.2863 74.1519 12.3878 74.4755 12.5084C75.4464 12.813 76.2333 13.1049 76.8361 13.3905C77.4326 13.676 77.9403 14.0695 78.3591 14.5771C78.7779 15.0848 78.9809 15.7511 78.9809 16.5887C78.9809 17.788 78.5939 18.6764 77.826 19.2666H77.8133Z" fill="#685275"/>
<path d="M96.8692 13.7267C96.8692 11.4359 96.4123 9.69721 95.4986 8.52326C94.5848 7.34931 93.3854 6.75916 91.9069 6.75916H91.7863C90.7901 6.75916 89.927 7.00029 89.1846 7.47622C88.4421 7.95215 87.8837 8.60575 87.4966 9.43704H87.192V7.06375H84.9393V27.8205H87.1603V19.4505H87.4649C87.833 20.3009 88.385 20.9799 89.1402 21.4748C89.889 21.9698 90.771 22.2236 91.7863 22.2236H91.8752C93.3791 22.2236 94.5848 21.6335 95.4986 20.4595C96.4123 19.2856 96.8692 17.5468 96.8692 15.256V13.7331V13.7267ZM94.5848 15.2497C94.5848 16.9567 94.2929 18.1941 93.7027 18.9619C93.1126 19.7298 92.2749 20.1168 91.1771 20.1168H91.0566C89.8826 20.1168 88.9435 19.7298 88.2391 18.9619C87.5411 18.1877 87.1857 16.9757 87.1857 15.3068V13.6633C87.1857 12.0007 87.5347 10.7823 88.2391 10.0082C88.9371 9.24032 89.8763 8.85323 91.0566 8.85323H91.1771C92.2749 8.85323 93.1126 9.24032 93.7027 10.0082C94.2929 10.7823 94.5848 12.0197 94.5848 13.7204V15.2433V15.2497Z" fill="#685275"/>
<path d="M109.924 17.6547C109.74 18.505 109.366 19.146 108.801 19.5711C108.23 19.9963 107.462 20.212 106.485 20.212H106.269C104.949 20.212 103.991 19.8313 103.395 19.0698C102.798 18.3083 102.493 17.0392 102.493 15.2497V15.0657H112.323V13.7267C112.323 11.3725 111.809 9.62106 110.787 8.47884C109.766 7.33027 108.293 6.75916 106.39 6.75916H106.269C104.359 6.75916 102.893 7.33027 101.859 8.47884C100.825 9.62741 100.304 11.3725 100.304 13.7267V15.2497C100.304 17.5849 100.825 19.33 101.859 20.4849C102.893 21.6398 104.365 22.2173 106.269 22.2173H106.453C107.995 22.2173 109.258 21.8302 110.242 21.0623C111.225 20.2945 111.872 19.1523 112.177 17.6547H109.924V17.6547ZM106.269 8.77074H106.39C107.71 8.77074 108.661 9.15148 109.252 9.91297C109.785 10.6046 110.077 11.7278 110.127 13.2762H102.506C102.551 11.7278 102.842 10.6046 103.382 9.91297C103.972 9.15148 104.937 8.77074 106.275 8.77074H106.269Z" fill="#685275"/>
<path d="M125.165 16.8285C125.082 17.9263 124.765 18.7576 124.207 19.3223C123.648 19.8935 122.83 20.1727 121.757 20.1727H121.694C120.437 20.1727 119.504 19.7856 118.895 18.9987C118.286 18.2182 117.981 16.9681 117.981 15.2421V13.7191C117.981 11.9931 118.286 10.743 118.895 9.96245C119.504 9.18193 120.437 8.78849 121.694 8.78849H121.757C122.811 8.78849 123.623 9.0804 124.194 9.65785C124.765 10.2353 125.089 11.0603 125.165 12.139H127.418C127.354 10.9841 127.1 10.0069 126.643 9.20096C126.186 8.40141 125.539 7.79222 124.708 7.3734C123.877 6.95459 122.893 6.75153 121.757 6.75153H121.694C120.456 6.75153 119.397 6.99901 118.515 7.50032C117.632 7.99528 116.953 8.76946 116.478 9.8165C116.002 10.8635 115.76 12.1644 115.76 13.7254V15.2484C115.76 16.8095 115.995 18.1103 116.459 19.1447C116.928 20.179 117.601 20.9532 118.483 21.4608C119.365 21.9685 120.437 22.2223 121.694 22.2223H121.757C122.893 22.2223 123.87 22.0129 124.695 21.6005C125.52 21.1816 126.155 20.5724 126.612 19.7602C127.069 18.9479 127.335 17.9771 127.418 16.8412H125.165V16.8285Z" fill="#685275"/>
<path d="M142.554 21.9107V7.06183H140.301V15.7681C140.301 17.2467 139.927 18.3445 139.178 19.0552C138.429 19.7659 137.484 20.1213 136.348 20.1213H136.227C135.257 20.1213 134.539 19.8167 134.083 19.2075C133.626 18.5983 133.397 17.602 133.397 16.225V7.06183H131.145V16.3138C131.145 18.2429 131.532 19.7088 132.299 20.7114C133.074 21.714 134.216 22.2153 135.739 22.2153H135.859C136.792 22.2153 137.623 21.9742 138.353 21.4983C139.083 21.0224 139.641 20.3751 140.029 19.5628H140.301V21.9044H142.554V21.9107Z" fill="#685275"/>
<path d="M149.21 -0.00012207H146.957V21.9116H149.21V-0.00012207Z" fill="#685275"/>
<path d="M167.104 19.8744H164.82V12.6594C164.82 10.7493 164.369 9.2898 163.468 8.27449C162.567 7.25918 161.222 6.75153 159.432 6.75153H159.343C157.617 6.75153 156.234 7.20842 155.187 8.1222C154.14 9.03598 153.569 10.3051 153.467 11.9296H155.809C155.891 10.8762 156.209 10.0894 156.767 9.56901C157.326 9.04867 158.163 8.79484 159.28 8.79484H159.401C160.498 8.79484 161.311 9.11212 161.837 9.75304C162.364 10.394 162.631 11.3331 162.631 12.5705V13.3764L158.341 13.9412C156.532 14.1823 155.174 14.6265 154.261 15.2674C153.347 15.9084 152.89 16.8475 152.89 18.0849V18.269C152.89 19.1637 153.112 19.8998 153.563 20.49C154.007 21.0801 154.584 21.5116 155.282 21.7972C155.98 22.0827 156.716 22.2223 157.491 22.2223H157.611C158.785 22.2223 159.775 21.9939 160.562 21.537C161.355 21.0801 161.939 20.4455 162.326 19.6333H162.631L162.815 21.9177H167.104V19.8808V19.8744ZM161.399 19.0812C160.581 19.83 159.413 20.2044 157.916 20.2044H157.795C156.945 20.2044 156.278 20.0267 155.803 19.6714C155.327 19.316 155.086 18.8337 155.086 18.2245V18.0405C155.086 17.3933 155.365 16.8856 155.923 16.5366C156.482 16.1812 157.402 15.9147 158.677 15.7307L162.637 15.204V15.3055C162.637 17.0696 162.224 18.3261 161.406 19.0812H161.399Z" fill="#685275"/>
<path d="M172.396 19.2117C172.263 19.0784 172.2 18.8626 172.2 18.5581V8.63339H176.217V6.59642H172.2V2.789L169.979 2.97303V6.59642H166.996V8.63339H169.979V17.7648C169.979 18.9007 170.283 19.8018 170.892 20.4618C171.502 21.1217 172.365 21.4517 173.482 21.4517H176.464V19.4147H172.993C172.726 19.4147 172.53 19.3513 172.403 19.218L172.396 19.2117Z" fill="#685275"/>
<path d="M183.223 7.06183H180.97V21.9171H183.223V7.06183Z" fill="#685275"/>
<path d="M183.526 0.367249H180.664V3.19743H183.526V0.367249Z" fill="#685275"/>
<path d="M193.001 19.8421H192.728L188.895 7.06183H186.547L191.269 21.9108H194.46L199.182 7.06183H196.84L193.001 19.8421Z" fill="#685275"/>
<path d="M207.495 22.2173H207.679C209.221 22.2173 210.483 21.8302 211.467 21.0623C212.451 20.2882 213.098 19.1523 213.402 17.6547H211.15C210.966 18.505 210.591 19.146 210.027 19.5711C209.455 19.9963 208.688 20.212 207.71 20.212H207.495C206.175 20.212 205.217 19.8313 204.62 19.0698C204.024 18.3083 203.719 17.0392 203.719 15.2497V15.0657H213.548V13.7267C213.548 11.3725 213.034 9.62106 212.013 8.47884C210.991 7.33027 209.519 6.75916 207.615 6.75916H207.495C205.585 6.75916 204.119 7.33027 203.084 8.47884C202.05 9.62741 201.53 11.3725 201.53 13.7267V15.2497C201.53 17.5849 202.05 19.33 203.084 20.4849C204.119 21.6398 205.591 22.2173 207.495 22.2173V22.2173ZM207.495 8.7644H207.615C208.935 8.7644 209.887 9.14514 210.477 9.90662C211.01 10.5983 211.302 11.7215 211.353 13.2698H203.732C203.776 11.7215 204.068 10.5983 204.607 9.90662C205.197 9.14514 206.162 8.7644 207.501 8.7644H207.495Z" fill="#685275"/>
<path d="M80.4666 34.3491V32.2487H66.2776V34.3491H72.2489V53.0055H74.4953V34.3491H80.4666Z" fill="#685275"/>
<path d="M86.4069 37.8526H86.2864C84.3763 37.8526 82.9105 38.4237 81.8761 39.5723C80.8418 40.7209 80.3214 42.4659 80.3214 44.8202V46.3431C80.3214 48.6784 80.8418 50.4234 81.8761 51.5783C82.9105 52.7332 84.3827 53.3107 86.2864 53.3107H86.4704C88.0124 53.3107 89.2752 52.9236 90.2588 52.1558C91.2423 51.388 91.8896 50.2457 92.1942 48.7482H89.9415C89.7575 49.5985 89.3831 50.2394 88.8183 50.6646C88.2472 51.0897 87.4794 51.3055 86.5021 51.3055H86.2864C84.9665 51.3055 84.0083 50.9247 83.4118 50.1632C82.8153 49.4018 82.5107 48.1326 82.5107 46.3431V46.1591H92.3402V44.8202C92.3402 42.4659 91.8262 40.7145 90.8045 39.5723C89.7828 38.4301 88.3106 37.8526 86.4069 37.8526V37.8526ZM86.2864 39.8642H86.4069C87.7268 39.8642 88.6787 40.2449 89.2688 41.0064C89.8019 41.6981 90.0938 42.8213 90.1445 44.3696H82.5234C82.5678 42.8213 82.8597 41.6981 83.3991 41.0064C83.9892 40.2449 84.9538 39.8642 86.2927 39.8642H86.2864Z" fill="#685275"/>
<path d="M98.9069 41.0635C99.5161 40.283 100.449 39.8896 101.705 39.8896H101.769C102.822 39.8896 103.634 40.1815 104.206 40.7589C104.777 41.3364 105.1 42.1613 105.176 43.2401H107.429C107.366 42.0852 107.112 41.1079 106.655 40.302C106.198 39.5025 105.551 38.8933 104.72 38.4745C103.888 38.0557 102.905 37.8526 101.769 37.8526H101.705C100.468 37.8526 99.4082 38.1001 98.5261 38.6014C97.6441 39.0964 96.9651 39.8705 96.4892 40.9176C96.0132 41.9646 95.7721 43.2655 95.7721 44.8265V46.3495C95.7721 47.9105 96.0069 49.2114 96.4701 50.2457C96.9334 51.2801 97.6124 52.0543 98.4944 52.5619C99.3765 53.0696 100.449 53.3234 101.705 53.3234H101.769C102.905 53.3234 103.882 53.114 104.707 52.7015C105.532 52.2827 106.166 51.6735 106.623 50.8613C107.08 50.049 107.347 49.0781 107.429 47.9423H105.176C105.094 49.0401 104.777 49.8713 104.218 50.4361C103.66 51.0072 102.841 51.2864 101.769 51.2864H101.705C100.449 51.2864 99.5161 50.8993 98.9069 50.1125C98.2977 49.332 97.9931 48.0819 97.9931 46.3558V44.8329C97.9931 43.1068 98.2977 41.8567 98.9069 41.0762V41.0635Z" fill="#685275"/>
<path d="M118.013 37.8508H117.893C116.96 37.8508 116.128 38.092 115.399 38.5679C114.669 39.0438 114.111 39.6911 113.723 40.5033H113.451V31.099H111.198V53.0107H113.451V44.3044C113.451 42.8258 113.825 41.728 114.574 41.0173C115.323 40.3066 116.268 39.9512 117.404 39.9512H117.525C118.495 39.9512 119.212 40.2558 119.669 40.865C120.126 41.4742 120.355 42.4705 120.355 43.8475V53.0107H122.607V43.7587C122.607 41.8296 122.22 40.3637 121.453 39.3611C120.685 38.3585 119.536 37.8508 118.013 37.8508V37.8508Z" fill="#685275"/>
<path d="M133.82 37.8526H133.699C132.766 37.8526 131.935 38.0937 131.205 38.5697C130.475 39.0456 129.917 39.6929 129.53 40.5051H129.257V38.1635H127.004V53.0188H129.257V44.3125C129.257 42.834 129.632 41.7362 130.38 41.0254C131.129 40.3147 132.075 39.9594 133.21 39.9594H133.331C134.302 39.9594 135.019 40.264 135.476 40.8732C135.933 41.4823 136.161 42.4786 136.161 43.8556V53.0188H138.414V43.7668C138.414 41.8377 138.027 40.3718 137.259 39.3692C136.491 38.3666 135.343 37.8589 133.82 37.8589V37.8526Z" fill="#685275"/>
<path d="M148.365 37.8526H148.245C146.335 37.8526 144.869 38.4237 143.835 39.5723C142.8 40.7209 142.28 42.4659 142.28 44.8202V46.3431C142.28 48.6784 142.794 50.4234 143.816 51.5783C144.837 52.7332 146.316 53.3107 148.245 53.3107H148.365C150.25 53.3107 151.716 52.7396 152.75 51.591C153.785 50.4425 154.305 48.6974 154.305 46.3431V44.8202C154.305 42.4659 153.791 40.7145 152.769 39.5723C151.748 38.4301 150.275 37.8526 148.372 37.8526H148.365ZM152.078 46.3431C152.078 48.0882 151.779 49.3447 151.177 50.1188C150.574 50.893 149.641 51.2737 148.359 51.2737H148.239C146.938 51.2737 145.992 50.8867 145.396 50.1188C144.799 49.3447 144.501 48.0882 144.501 46.3431V44.8202C144.501 43.0751 144.799 41.8187 145.396 41.0445C145.992 40.2703 146.944 39.8896 148.239 39.8896H148.359C149.635 39.8896 150.574 40.2767 151.177 41.0445C151.779 41.8123 152.078 43.0751 152.078 44.8202V46.3431Z" fill="#685275"/>
<path d="M160.507 31.0933H158.254V53.005H160.507V31.0933Z" fill="#685275"/>
<path d="M170.518 37.8526H170.398C168.488 37.8526 167.022 38.4237 165.987 39.5723C164.953 40.7209 164.433 42.4659 164.433 44.8202V46.3431C164.433 48.6784 164.947 50.4234 165.968 51.5783C166.99 52.7332 168.468 53.3107 170.398 53.3107H170.518C172.403 53.3107 173.869 52.7396 174.903 51.591C175.937 50.4425 176.458 48.6974 176.458 46.3431V44.8202C176.458 42.4659 175.944 40.7145 174.922 39.5723C173.9 38.4301 172.428 37.8526 170.524 37.8526H170.518ZM174.23 46.3431C174.23 48.0882 173.932 49.3447 173.329 50.1188C172.726 50.893 171.794 51.2737 170.512 51.2737H170.391C169.09 51.2737 168.145 50.8867 167.548 50.1188C166.952 49.3447 166.654 48.0882 166.654 46.3431V44.8202C166.654 43.0751 166.952 41.8187 167.548 41.0445C168.145 40.2703 169.097 39.8896 170.391 39.8896H170.512C171.787 39.8896 172.726 40.2767 173.329 41.0445C173.932 41.8123 174.23 43.0751 174.23 44.8202V46.3431Z" fill="#685275"/>
<path d="M189.537 40.5305H189.232C188.864 39.6992 188.312 39.0456 187.557 38.5697C186.808 38.0937 185.945 37.8526 184.968 37.8526H184.847C183.369 37.8526 182.17 38.4427 181.256 39.6167C180.342 40.7907 179.885 42.5294 179.885 44.8202V46.3431C179.885 47.8851 180.101 49.1797 180.539 50.2267C180.977 51.2737 181.56 52.0479 182.303 52.5556C183.045 53.0632 183.889 53.3171 184.841 53.3171H184.962C185.958 53.3171 186.834 53.0696 187.595 52.5683C188.357 52.0733 188.921 51.3943 189.283 50.544H189.588V56.0521C189.588 56.3566 189.524 56.5724 189.391 56.7057C189.258 56.8389 189.048 56.9024 188.769 56.9024H181.313V58.9393H188.28C189.416 58.9393 190.292 58.603 190.895 57.9367C191.504 57.2641 191.809 56.3757 191.809 55.2588V38.1508H189.524V40.5241L189.537 40.5305ZM189.537 46.4066C189.537 48.0501 189.182 49.2622 188.471 50.0427C187.76 50.8232 186.84 51.2166 185.704 51.2166H185.584C184.511 51.2166 183.667 50.8295 183.058 50.0617C182.449 49.2875 182.144 48.0501 182.144 46.3495V44.8265C182.144 43.1195 182.442 41.8821 183.045 41.1143C183.648 40.3465 184.492 39.9594 185.584 39.9594H185.704C186.84 39.9594 187.766 40.3528 188.471 41.1333C189.182 41.9138 189.537 43.1259 189.537 44.7694V46.4129V46.4066Z" fill="#685275"/>
<path d="M198.491 38.1533H196.238V53.0086H198.491V38.1533Z" fill="#685275"/>
<path d="M198.793 31.4626H195.932V34.2928H198.793V31.4626Z" fill="#685275"/>
<path d="M208.42 37.8526H208.3C206.39 37.8526 204.924 38.4237 203.89 39.5723C202.855 40.7209 202.335 42.4659 202.335 44.8202V46.3431C202.335 48.6784 202.855 50.4234 203.89 51.5783C204.924 52.7332 206.396 53.3107 208.3 53.3107H208.484C210.026 53.3107 211.289 52.9236 212.272 52.1558C213.256 51.388 213.903 50.2457 214.208 48.7482H211.955C211.771 49.5985 211.396 50.2394 210.832 50.6646C210.261 51.0897 209.493 51.3055 208.516 51.3055H208.3C206.98 51.3055 206.022 50.9247 205.425 50.1632C204.829 49.4018 204.524 48.1326 204.524 46.3431V46.1591H214.354V44.8202C214.354 42.4659 213.84 40.7145 212.818 39.5723C211.796 38.4301 210.324 37.8526 208.42 37.8526V37.8526ZM208.3 39.8642H208.42C209.74 39.8642 210.692 40.2449 211.282 41.0064C211.815 41.6981 212.107 42.8213 212.158 44.3696H204.537C204.581 42.8213 204.873 41.6981 205.413 41.0064C206.003 40.2449 206.967 39.8642 208.306 39.8642H208.3Z" fill="#685275"/>
<path d="M228.409 46.8305C227.991 46.2594 227.445 45.8152 226.766 45.4915C226.087 45.1679 225.16 44.8443 223.98 44.5206C223.942 44.5206 223.904 44.5206 223.872 44.508C223.84 44.4953 223.809 44.4826 223.764 44.4635C223.745 44.4635 223.726 44.4635 223.701 44.4508C223.682 44.4382 223.663 44.4382 223.637 44.4382C222.825 44.2161 222.197 44.013 221.753 43.829C221.309 43.6449 220.934 43.4102 220.642 43.1119C220.35 42.82 220.198 42.4266 220.198 41.9379C220.198 41.2907 220.446 40.7767 220.941 40.4023C221.435 40.0279 222.153 39.8375 223.085 39.8375H223.238C224.291 39.8375 225.084 40.104 225.611 40.6307C226.138 41.1574 226.404 41.8681 226.404 42.7629H228.625C228.625 41.2209 228.137 40.0152 227.147 39.1585C226.163 38.2955 224.856 37.864 223.238 37.864H223.085C221.562 37.864 220.344 38.2321 219.418 38.9745C218.497 39.717 218.034 40.6942 218.034 41.9126C218.034 42.7629 218.231 43.4673 218.624 44.013C219.018 44.5587 219.538 44.9966 220.179 45.3202C220.82 45.6438 221.696 45.9675 222.812 46.2911L222.997 46.3546L223.181 46.418L223.365 46.4815C224.158 46.6845 224.792 46.8749 225.268 47.0589C225.744 47.243 226.131 47.4968 226.423 47.8204C226.715 48.144 226.867 48.5629 226.867 49.0705C226.867 49.7812 226.601 50.3333 226.061 50.7267C225.522 51.1202 224.697 51.3232 223.58 51.3232H223.428C222.21 51.3232 221.315 51.0567 220.731 50.53C220.154 50.0033 219.862 49.2545 219.862 48.2773H217.641C217.641 49.8828 218.161 51.1202 219.195 52.0086C220.23 52.8906 221.639 53.3348 223.428 53.3348H223.58C225.205 53.3348 226.518 52.9541 227.521 52.1926C228.524 51.4311 229.025 50.4031 229.025 49.1022C229.025 48.1694 228.816 47.4206 228.403 46.8495L228.409 46.8305Z" fill="#685275"/>
</svg>
